<svg width="48" height="48" viewBox="0 0 48 48" fill="none" xmlns="http://www.w3.org/2000/svg">
<rect width="48" height="48" rx="24" fill="white"/>
<path d="M23.8956 8.25209C23.9839 8.25209 24.0678 8.27417 24.1473 8.31832L37.4918 16.0239C37.6464 16.1122 37.7435 16.28 37.7435 16.4566V31.8634C37.7435 32.04 37.6464 32.2078 37.4918 32.2961L24.1473 40.0017C24.0722 40.0458 23.9839 40.0679 23.8956 40.0679C23.8073 40.0679 23.7234 40.0458 23.6439 40.0017L10.3038 32.3005C10.1492 32.2122 10.0521 32.0444 10.0521 31.8678V16.4566C10.0521 16.28 10.1492 16.1122 10.3038 16.0239L23.6483 8.31832C23.7234 8.27417 23.8117 8.25209 23.8956 8.25209ZM23.8956 6.00003C23.4187 6.00003 22.9462 6.12367 22.5179 6.36654L9.17773 14.0721C8.32548 14.5623 7.8 15.4719 7.8 16.4566V31.8634C7.8 32.8481 8.32548 33.7533 9.17773 34.2479L22.5223 41.9535C22.9462 42.2007 23.4231 42.32 23.9 42.32C24.3769 42.32 24.8494 42.1963 25.2777 41.9535L38.6223 34.2479C39.4745 33.7577 40 32.8481 40 31.8634V16.4566C40 15.4719 39.4745 14.5667 38.6223 14.0721L25.2733 6.37096C24.8494 6.12367 24.3725 6.00003 23.8956 6.00003Z" fill="#E57310"/>
<path d="M20.4954 16.2668H18.7512C18.6187 16.2668 18.5039 16.3507 18.4597 16.4699L12.8517 31.8413C12.8164 31.9428 12.8914 32.0488 12.9974 32.0488H14.7416C14.8741 32.0488 14.9889 31.9649 15.0331 31.8457L20.6412 16.4743C20.6765 16.3771 20.6014 16.2668 20.4954 16.2668Z" fill="#E57310"/>
<path d="M22.7519 22.2282C22.7033 22.0913 22.509 22.0913 22.4605 22.2282L21.5552 24.7142C21.5287 24.7849 21.5287 24.86 21.5552 24.9262L24.0811 31.8502C24.1252 31.9738 24.2444 32.0533 24.3725 32.0533H26.1167C26.2227 32.0533 26.2978 31.9473 26.2625 31.8458L22.7519 22.2282Z" fill="#E57310"/>
<path d="M23.5424 16.2668H21.7981C21.6657 16.2668 21.5508 16.3507 21.5067 16.4699L15.8986 31.8413C15.8633 31.9429 15.9384 32.0489 16.0443 32.0489H17.7886C17.9211 32.0489 18.0359 31.9649 18.08 31.8457L23.6881 16.4743C23.7278 16.3772 23.6528 16.2668 23.5424 16.2668Z" fill="#E57310"/>
<path d="M24.2754 18.0508C24.2268 17.9139 24.0325 17.9139 23.9839 18.0508L23.0787 20.5369C23.0522 20.6075 23.0522 20.6826 23.0787 20.7488L27.128 31.8502C27.1721 31.9738 27.2914 32.0533 27.4194 32.0533H29.1637C29.2696 32.0533 29.3447 31.9473 29.3094 31.8457L24.2754 18.0508Z" fill="#E57310"/>
<path d="M34.7938 16.2668H33.0496C32.9171 16.2668 32.8023 16.3507 32.7581 16.4699L28.7088 27.5712C28.6823 27.6419 28.6823 27.7169 28.7088 27.7832L29.6141 30.2693C29.6626 30.4062 29.8569 30.4062 29.9055 30.2693L34.9395 16.4743C34.9793 16.3772 34.9042 16.2668 34.7938 16.2668Z" fill="#E57310"/>
<path d="M28.095 26.0919C28.1436 26.2288 28.3379 26.2288 28.3865 26.0919L31.8926 16.4743C31.9279 16.3728 31.8529 16.2668 31.7469 16.2668H30.0026C29.8702 16.2668 29.7554 16.3507 29.7112 16.4699L27.1854 23.3939C27.1589 23.4645 27.1589 23.5396 27.1854 23.6058L28.095 26.0919Z" fill="#E57310"/>
</svg>
