<svg width="48" height="48" viewBox="0 0 48 48" fill="none" xmlns="http://www.w3.org/2000/svg">
<rect width="48" height="48" rx="24" fill="#2C374B"/>
<path d="M28.135 22.4614L30.8377 17.8757L38.1221 29.2216L38.1255 31.3988L38.1018 16.4158C38.0845 16.0495 37.89 15.7145 37.5797 15.5169L24.465 7.97309C24.1583 7.82235 23.7692 7.82395 23.463 7.97778C23.4217 7.99856 23.3827 8.02106 23.3456 8.04561L23.2999 8.07439L10.57 15.4513L10.5205 15.4737C10.457 15.5029 10.3928 15.5401 10.3325 15.5832C10.0912 15.7564 9.93088 16.0123 9.87903 16.2994C9.87126 16.3429 9.86555 16.3872 9.86281 16.4319L9.8828 28.6416L16.6679 18.125C17.5222 16.7305 19.3835 16.2814 21.1112 16.3058L23.1391 16.3594L11.1908 35.5211L12.5992 36.3321L24.6908 16.3788L30.0353 16.3594L17.9749 36.8162L23.0007 39.7069L23.6012 40.0522C23.8552 40.1555 24.1546 40.1606 24.4108 40.0682L37.7098 32.3612L35.1672 33.8346L28.135 22.4614ZM29.1662 37.3123L24.09 29.3453L27.1886 24.0871L33.8552 34.5948L29.1662 37.3123Z" fill="#2D374B"/>
<path d="M24.09 29.3453L29.1662 37.3123L33.8554 34.5948L27.1888 24.0871L24.09 29.3453Z" fill="#28A0F0"/>
<path d="M38.1255 31.3989L38.1221 29.2216L30.8377 17.8758L28.1351 22.4615L35.1672 33.8346L37.7098 32.3613C37.9593 32.1588 38.1101 31.8615 38.126 31.5407L38.1255 31.3989Z" fill="#28A0F0"/>
<path d="M7.60012 33.4523L11.1907 35.5212L23.139 16.3594L21.1111 16.3058C19.3833 16.2814 17.5222 16.7306 16.6678 18.1251L9.88269 28.6417L7.60001 32.149V33.4523H7.60012Z" fill="white"/>
<path d="M30.0352 16.3594L24.6908 16.3788L12.5993 36.3321L16.8256 38.7655L17.9749 36.8162L30.0352 16.3594Z" fill="white"/>
<path d="M40.3778 16.3318C40.3331 15.2141 39.728 14.1909 38.78 13.5952L25.4934 5.95444C24.5557 5.48221 23.3842 5.48163 22.445 5.95409C22.334 6.01005 9.52395 13.4394 9.52395 13.4394C9.34671 13.5244 9.17597 13.6257 9.01529 13.7406C8.16904 14.3471 7.65319 15.2895 7.6002 16.325V32.149L9.88289 28.6418L9.8629 16.432C9.86564 16.3873 9.87124 16.3435 9.87912 16.3001C9.93063 16.0127 10.0911 15.7565 10.3326 15.5833C10.3929 15.5402 23.4216 7.99867 23.4631 7.97788C23.7694 7.82405 24.1585 7.82245 24.4651 7.9732L37.5798 15.517C37.8901 15.7146 38.0846 16.0496 38.1019 16.4159V31.5408C38.086 31.8616 37.9592 32.1587 37.7098 32.3613L35.1672 33.8347L33.8553 34.5949L29.1662 37.3124L24.4108 40.0683C24.1546 40.1608 23.8552 40.1557 23.6012 40.0523L17.9748 36.8163L16.8255 38.7655L21.8817 41.6766C22.0489 41.7717 22.198 41.8559 22.3202 41.9247C22.5095 42.0309 22.6384 42.1018 22.684 42.1239C23.0434 42.2984 23.5604 42.4 24.0263 42.4C24.4536 42.4 24.8701 42.3215 25.2643 42.1671L39.0766 34.168C39.8694 33.5539 40.3358 32.6276 40.3778 31.6241V16.3318Z" fill="#96BEDC"/>
</svg>
