<svg width="48" height="48" viewBox="0 0 48 48" fill="none" xmlns="http://www.w3.org/2000/svg">
<rect width="48" height="48" rx="24" fill="#E84142"/>
<path fill-rule="evenodd" clip-rule="evenodd" d="M25.3283 8.18052C24.5593 6.85218 23.3358 6.85218 22.5668 8.18052L8.60175 32.7723C7.83271 34.1181 8.46192 35.1843 10 35.1843H17.0087C18.4245 35.0969 19.7004 34.3453 20.4694 33.1568L28.9114 18.5276C29.5231 17.2692 29.5231 15.7835 28.9114 14.5251L26.3945 10.1031L25.3283 8.18052ZM34.6092 24.3653C33.8402 23.037 32.5993 23.037 31.8302 24.3653L26.9538 32.7723C26.2022 34.1007 26.8315 35.1843 28.3521 35.1843H38C39.5381 35.1843 40.1673 34.1007 39.3983 32.7723L34.6092 24.3653Z" fill="white"/>
</svg>
