<svg width="48" height="48" viewBox="0 0 48 48" fill="none" xmlns="http://www.w3.org/2000/svg">
<rect width="48" height="48" rx="24" fill="#F0B90B"/>
<path fill-rule="evenodd" clip-rule="evenodd" d="M32.6483 22.6528L32.6305 18.8482H32.6443L29.4128 16.9459L23.8752 20.2109L18.3711 16.9459L15.1415 18.8482V22.6528L20.6791 25.9021V32.4164L23.8949 34.301L27.1107 32.4164V25.9021L32.6483 22.6528ZM23.8772 7.19998L15.1395 12.3516L18.3553 14.2539L23.8772 10.9888L29.4147 14.2539L32.6305 12.3516L23.8772 7.19998ZM12.8335 30.4988L12.8158 24.0002L9.60198 22.0998V32.4188L18.3554 37.5527V33.748L12.8335 30.4988ZM12.8158 21.2885V17.5016L16.0474 15.5993L12.8158 13.697L9.60001 15.5993V19.3862L12.8158 21.2885ZM23.8772 13.697L20.6614 15.5993L23.8772 17.5016L27.1087 15.5993L23.8772 13.697ZM15.1395 25.3472V29.1518L18.3553 31.0364V27.2495L15.1395 25.3472ZM23.8772 37.0131L20.6614 35.1108V38.8977L23.8772 40.8L27.1087 38.8977V35.1108L23.8772 37.0131ZM34.9365 13.697L31.7207 15.5993L34.9365 17.5016V21.2885L38.1681 19.3862V15.5993L34.9365 13.697ZM34.9543 24.0002L34.9365 30.4988L29.4167 33.7461V37.5507L38.1701 32.4168V22.0979L34.9543 24.0002ZM32.6306 29.1517L29.4148 31.0363V27.2494L32.6306 25.3471V29.1517Z" fill="white"/>
</svg>
