<svg width="48" height="48" viewBox="0 0 48 48" fill="none" xmlns="http://www.w3.org/2000/svg">
<g clip-path="url(#clip0_14247_2511)">
<mask id="mask0_14247_2511" style="mask-type:alpha" maskUnits="userSpaceOnUse" x="0" y="0" width="48" height="48">
<circle cx="24" cy="24" r="24" fill="#D9D9D9"/>
</mask>
<g mask="url(#mask0_14247_2511)">
<rect width="48" height="48" fill="#EDF0F4"/>
<path d="M12.6494 21.2988L15.2975 10L26.2432 15.8259L12.6494 21.2988Z" fill="#BACFF6"/>
<path d="M26.2432 15.8259L15.2975 10H31.8926L26.2432 15.8259Z" fill="#C7F8FE"/>
<path d="M40.1901 24.3L31.8926 10L26.2432 15.8259L40.1901 24.3Z" fill="#BACFF6"/>
<path d="M27.8321 32.2444L26.2432 15.8259L40.1901 24.3L27.8321 32.2444Z" fill="#B6C1EA"/>
<path d="M26.2432 15.8259L27.8321 32.2444L12.6494 21.2988L26.2432 15.8259Z" fill="#B2B4DD"/>
<path d="M15.2975 38.6L12.6494 21.2988L27.8321 32.2444L15.2975 38.6Z" fill="#AE99C6"/>
<path d="M12.6494 21.2988L7 24.4765L15.2975 38.6L12.6494 21.2988Z" fill="#B0A6D2"/>
<path d="M32.0691 38.6H15.2975L27.8321 32.2444L32.0691 38.6Z" fill="#AA7DAC"/>
<path d="M40.1901 24.3L27.8321 32.2444L32.0691 38.6L40.1901 24.3Z" fill="#AB8BBA"/>
<path d="M12.6494 21.2988L15.2975 10L7 24.4765L12.6494 21.2988Z" fill="#C7F8FE"/>
</g>
<rect x="12" y="38.4" width="24" height="9.6" rx="4.8" fill="#FF0420"/>
<path d="M14.9872 41.9104V41.464H17.3152V41.9104H16.4272V44.8H15.88V41.9104H14.9872ZM18.983 42.5728C18.6134 42.5728 18.3158 42.8224 18.2582 43.24H19.7222C19.7126 42.832 19.391 42.5728 18.983 42.5728ZM20.2214 44.0128C20.0726 44.4736 19.655 44.8432 19.007 44.8432C18.2486 44.8432 17.687 44.3056 17.687 43.4752C17.687 42.6448 18.2246 42.112 19.007 42.112C19.7606 42.112 20.2934 42.6352 20.2934 43.4128C20.2934 43.504 20.2886 43.5904 20.2742 43.6816H18.2534C18.2918 44.1184 18.6038 44.3824 19.007 44.3824C19.343 44.3824 19.5302 44.2192 19.631 44.0128H20.2214ZM22.8047 44.0608C22.8047 44.5072 22.4159 44.8432 21.7919 44.8432C21.1583 44.8432 20.7119 44.4688 20.6879 43.9888H21.2543C21.2735 44.2048 21.4799 44.3824 21.7823 44.3824C22.0991 44.3824 22.2671 44.248 22.2671 44.0656C22.2671 43.5472 20.7311 43.8448 20.7311 42.8752C20.7311 42.4528 21.1247 42.112 21.7487 42.112C22.3487 42.112 22.7423 42.4336 22.7711 42.9616H22.2239C22.2047 42.7312 22.0271 42.5728 21.7295 42.5728C21.4367 42.5728 21.2831 42.6928 21.2831 42.8704C21.2831 43.4032 22.7759 43.1056 22.8047 44.0608ZM23.4823 44.0656V42.6016H23.1703V42.1552H23.4823V41.4976H24.0343V42.1552H24.6775V42.6016H24.0343V44.0656C24.0343 44.2624 24.1111 44.344 24.3415 44.344H24.6775V44.8H24.2455C23.7751 44.8 23.4823 44.6032 23.4823 44.0656ZM27.0587 44.8V43.3216C27.0587 42.8368 26.7947 42.5872 26.3963 42.5872C25.9931 42.5872 25.7291 42.8368 25.7291 43.3216V44.8H25.1819V42.1552H25.7291V42.4576C25.9067 42.2416 26.1995 42.112 26.5163 42.112C27.1355 42.112 27.6011 42.5008 27.6011 43.24V44.8H27.0587ZM29.4127 42.5728C29.0431 42.5728 28.7455 42.8224 28.6879 43.24H30.1519C30.1423 42.832 29.8207 42.5728 29.4127 42.5728ZM30.6511 44.0128C30.5023 44.4736 30.0847 44.8432 29.4367 44.8432C28.6783 44.8432 28.1167 44.3056 28.1167 43.4752C28.1167 42.6448 28.6543 42.112 29.4367 42.112C30.1903 42.112 30.7231 42.6352 30.7231 43.4128C30.7231 43.504 30.7183 43.5904 30.7039 43.6816H28.6831C28.7215 44.1184 29.0335 44.3824 29.4367 44.3824C29.7727 44.3824 29.9599 44.2192 30.0607 44.0128H30.6511ZM31.348 44.0656V42.6016H31.036V42.1552H31.348V41.4976H31.9V42.1552H32.5432V42.6016H31.9V44.0656C31.9 44.2624 31.9768 44.344 32.2072 44.344H32.5432V44.8H32.1112C31.6408 44.8 31.348 44.6032 31.348 44.0656Z" fill="white"/>
</g>
<defs>
<clipPath id="clip0_14247_2511">
<rect width="48" height="48" rx="24" fill="white"/>
</clipPath>
</defs>
</svg>
