<svg width="48" height="48" viewBox="0 0 48 48" fill="none" xmlns="http://www.w3.org/2000/svg">
<rect width="48" height="48" rx="24" fill="#EDF0F4"/>
<path d="M12.6494 21.2988L15.2975 10L26.2432 15.8259L12.6494 21.2988Z" fill="#BACFF6"/>
<path d="M26.2432 15.8259L15.2975 10H31.8926L26.2432 15.8259Z" fill="#C7F8FE"/>
<path d="M40.1901 24.3L31.8926 10L26.2432 15.8259L40.1901 24.3Z" fill="#BACFF6"/>
<path d="M27.8321 32.2444L26.2432 15.8259L40.1901 24.3L27.8321 32.2444Z" fill="#B6C1EA"/>
<path d="M26.2432 15.8259L27.8321 32.2444L12.6494 21.2988L26.2432 15.8259Z" fill="#B2B4DD"/>
<path d="M15.2975 38.6L12.6494 21.2988L27.8321 32.2444L15.2975 38.6Z" fill="#AE99C6"/>
<path d="M12.6494 21.2988L7 24.4765L15.2975 38.6L12.6494 21.2988Z" fill="#B0A6D2"/>
<path d="M32.0691 38.6H15.2975L27.8321 32.2444L32.0691 38.6Z" fill="#AA7DAC"/>
<path d="M40.1901 24.3L27.8321 32.2444L32.0691 38.6L40.1901 24.3Z" fill="#AB8BBA"/>
<path d="M12.6494 21.2988L15.2975 10L7 24.4765L12.6494 21.2988Z" fill="#C7F8FE"/>
</svg>
