<svg width="48" height="48" viewBox="0 0 48 48" fill="none" xmlns="http://www.w3.org/2000/svg">
<g clip-path="url(#clip0_14249_1881)">
<circle cx="24" cy="24" r="24" fill="#EDF0F4"/>
<path d="M23.9346 9.59998L23.7437 10.2485V29.0652L23.9346 29.2556L32.6689 24.0927L23.9346 9.59998Z" fill="#343434"/>
<path d="M23.9345 9.59998L15.2 24.0927L23.9345 29.2556V20.1225V9.59998Z" fill="#8C8C8C"/>
<path d="M23.9345 30.9094L23.8269 31.0406V37.7434L23.9345 38.0575L32.6742 25.7491L23.9345 30.9094Z" fill="#3C3C3B"/>
<path d="M23.9345 38.0575V30.9094L15.2 25.7491L23.9345 38.0575Z" fill="#8C8C8C"/>
<path d="M23.9346 29.2557L32.6689 24.0927L23.9346 20.1226V29.2557Z" fill="#141414"/>
<path d="M15.2 24.0927L23.9345 29.2557V20.1226L15.2 24.0927Z" fill="#393939"/>
<rect x="12.2" y="38.4" width="24" height="9.6" rx="4.8" fill="#FF0420"/>
<path d="M15.1872 41.9104V41.464H17.5152V41.9104H16.6272V44.8H16.08V41.9104H15.1872ZM19.183 42.5728C18.8134 42.5728 18.5158 42.8224 18.4582 43.24H19.9222C19.9126 42.832 19.591 42.5728 19.183 42.5728ZM20.4214 44.0128C20.2726 44.4736 19.855 44.8432 19.207 44.8432C18.4486 44.8432 17.887 44.3056 17.887 43.4752C17.887 42.6448 18.4246 42.112 19.207 42.112C19.9606 42.112 20.4934 42.6352 20.4934 43.4128C20.4934 43.504 20.4886 43.5904 20.4742 43.6816H18.4534C18.4918 44.1184 18.8038 44.3824 19.207 44.3824C19.543 44.3824 19.7302 44.2192 19.831 44.0128H20.4214ZM23.0047 44.0608C23.0047 44.5072 22.6159 44.8432 21.9919 44.8432C21.3583 44.8432 20.9119 44.4688 20.8879 43.9888H21.4543C21.4735 44.2048 21.6799 44.3824 21.9823 44.3824C22.2991 44.3824 22.4671 44.248 22.4671 44.0656C22.4671 43.5472 20.9311 43.8448 20.9311 42.8752C20.9311 42.4528 21.3247 42.112 21.9487 42.112C22.5487 42.112 22.9423 42.4336 22.9711 42.9616H22.4239C22.4047 42.7312 22.2271 42.5728 21.9295 42.5728C21.6367 42.5728 21.4831 42.6928 21.4831 42.8704C21.4831 43.4032 22.9759 43.1056 23.0047 44.0608ZM23.6823 44.0656V42.6016H23.3703V42.1552H23.6823V41.4976H24.2343V42.1552H24.8775V42.6016H24.2343V44.0656C24.2343 44.2624 24.3111 44.344 24.5415 44.344H24.8775V44.8H24.4455C23.9751 44.8 23.6823 44.6032 23.6823 44.0656ZM27.2587 44.8V43.3216C27.2587 42.8368 26.9947 42.5872 26.5963 42.5872C26.1931 42.5872 25.9291 42.8368 25.9291 43.3216V44.8H25.3819V42.1552H25.9291V42.4576C26.1067 42.2416 26.3995 42.112 26.7163 42.112C27.3355 42.112 27.8011 42.5008 27.8011 43.24V44.8H27.2587ZM29.6127 42.5728C29.2431 42.5728 28.9455 42.8224 28.8879 43.24H30.3519C30.3423 42.832 30.0207 42.5728 29.6127 42.5728ZM30.8511 44.0128C30.7023 44.4736 30.2847 44.8432 29.6367 44.8432C28.8783 44.8432 28.3167 44.3056 28.3167 43.4752C28.3167 42.6448 28.8543 42.112 29.6367 42.112C30.3903 42.112 30.9231 42.6352 30.9231 43.4128C30.9231 43.504 30.9183 43.5904 30.9039 43.6816H28.8831C28.9215 44.1184 29.2335 44.3824 29.6367 44.3824C29.9727 44.3824 30.1599 44.2192 30.2607 44.0128H30.8511ZM31.548 44.0656V42.6016H31.236V42.1552H31.548V41.4976H32.1V42.1552H32.7432V42.6016H32.1V44.0656C32.1 44.2624 32.1768 44.344 32.4072 44.344H32.7432V44.8H32.3112C31.8408 44.8 31.548 44.6032 31.548 44.0656Z" fill="white"/>
</g>
<defs>
<clipPath id="clip0_14249_1881">
<rect width="48" height="48" rx="24" fill="white"/>
</clipPath>
</defs>
</svg>
