<svg width="48" height="48" viewBox="0 0 48 48" fill="none" xmlns="http://www.w3.org/2000/svg">
<rect width="48" height="48" rx="24" fill="#2D2925"/>
<path d="M20.2398 13.6999C14.3659 15.9413 13.8279 21.7051 12.1281 24.3948C10.4284 27.0845 6.51239 28.6002 7.0503 29.9877C7.58821 31.3753 11.5042 29.881 14.6025 30.7776C17.7009 31.6741 21.9181 35.5593 27.7921 33.3179C29.2161 32.7727 30.5039 31.9273 31.5663 30.84C32.6288 29.7527 33.4406 28.4495 33.9457 27.0205C33.9971 26.9044 33.9999 26.7729 33.9535 26.6548C33.9071 26.5367 33.8153 26.4417 33.6983 26.3907C33.5813 26.3398 33.4487 26.337 33.3297 26.3831C33.2107 26.4291 33.1149 26.5202 33.0636 26.6362C32.4567 27.8504 31.5581 28.8977 30.447 29.686C29.3359 30.4742 28.0465 30.9792 26.6922 31.1564C25.338 31.3336 23.9607 31.1775 22.6816 30.7019C21.4025 30.2264 20.261 29.4459 19.3577 28.4294C18.835 27.8471 18.4001 27.1928 18.0667 26.4868C17.9591 26.2947 17.873 26.0812 17.787 25.8891C17.7009 25.697 17.6364 25.4621 17.5718 25.2487C19.3576 24.4375 21.3802 23.5622 23.7039 22.687C26.0277 21.8118 28.0287 21.1073 29.8576 20.5523C31.1056 20.1681 32.2459 19.8479 33.2572 19.5917L33.4939 19.549C33.5681 19.5286 33.6473 19.5371 33.7153 19.5729C33.7833 19.6086 33.835 19.6688 33.8597 19.7411C33.898 19.823 33.9269 19.9089 33.9457 19.9973C34.1561 20.5655 34.3145 21.1513 34.4191 21.7477C34.4289 21.8049 34.4525 21.8588 34.4876 21.9051C34.5228 21.9514 34.5687 21.9886 34.6214 22.0137C34.674 22.0388 34.732 22.051 34.7904 22.0493C34.8488 22.0476 34.9059 22.032 34.957 22.0039C35.7962 21.5556 36.5707 21.1073 37.2593 20.7018C39.8412 19.1221 41.2612 17.7772 40.9601 17.03C40.659 16.2829 38.7224 16.2189 35.7531 16.7525C34.8064 16.9233 33.7521 17.1581 32.6332 17.457L32.0523 17.6064C31.0841 17.8626 30.0943 18.1401 29.0615 18.4603C27.1251 19.058 25.038 19.7838 22.8863 20.595C20.7347 21.4062 18.9919 22.1534 17.2275 22.9432C17.2189 21.5885 17.5445 20.2522 18.1759 19.051C18.8073 17.8498 19.7253 16.8201 20.85 16.0516C21.9745 15.2833 23.2716 14.7995 24.6279 14.6426C25.9842 14.4857 27.3586 14.6604 28.6312 15.1515C28.7239 15.183 28.8236 15.1876 28.9189 15.1649C29.0142 15.1423 29.1009 15.0932 29.1691 15.0234C29.2209 14.9704 29.2593 14.9059 29.2813 14.8354C29.3033 14.7648 29.3082 14.6901 29.2956 14.6173C29.283 14.5446 29.2533 14.4757 29.2089 14.4165C29.1645 14.3572 29.1066 14.3092 29.04 14.2763C27.704 13.55 26.2242 13.1222 24.7042 13.0226C23.1841 12.923 21.6605 13.1542 20.2398 13.6999Z" fill="#FAF1E4"/>
</svg>
