<svg width="48" height="48" viewBox="0 0 48 48" fill="none" xmlns="http://www.w3.org/2000/svg">
<rect width="48" height="48" rx="24" fill="#1969FF"/>
<path d="M22.5447 7.63221C23.3532 7.20593 24.5835 7.20593 25.3921 7.63221L33.6429 11.982C34.1299 12.2387 34.3973 12.6212 34.4452 13.0162H34.4531V34.8802C34.4424 35.311 34.1724 35.7389 33.6429 36.018L25.3921 40.3678C24.5835 40.7941 23.3532 40.7941 22.5447 40.3678L14.2939 36.018C13.7666 35.74 13.5135 35.3092 13.501 34.8802C13.4997 34.8362 13.4996 34.7999 13.501 34.77L13.501 13.1634C13.4998 13.133 13.4998 13.1027 13.501 13.0726L13.501 13.0162H13.5047C13.5413 12.6169 13.7967 12.2441 14.2939 11.982L22.5447 7.63221ZM33.1406 25.1719L25.3896 29.2716C24.5822 29.6986 23.3537 29.6986 22.5463 29.2716L14.8125 25.181V34.8126L22.5463 38.8815C23.0033 39.126 23.4785 39.3643 23.9412 39.3746L23.9679 39.375C24.4298 39.3765 24.8782 39.1417 25.3328 38.9194L33.1406 34.7775V25.1719ZM12.2074 34.4062C12.2074 35.2444 12.3039 35.7953 12.4956 36.1834C12.6545 36.5051 12.8929 36.7509 13.3282 37.05L13.3531 37.067C13.4486 37.132 13.5538 37.2001 13.6819 37.2801L13.833 37.3734L14.2969 37.6559L13.6315 38.7656L13.1123 38.4493L13.0251 38.3952C12.875 38.3017 12.7505 38.2214 12.6345 38.1424C11.3938 37.2985 10.9311 36.3785 10.922 34.4646L10.9219 34.4062H12.2074ZM23.3438 19.3594C23.2837 19.38 23.2274 19.404 23.1761 19.4311L14.938 23.7949C14.9293 23.7994 14.9211 23.804 14.9132 23.8084L14.9062 23.8125L14.9192 23.8199L14.938 23.8301L23.1761 28.1939C23.2274 28.221 23.2837 28.245 23.3438 28.2656V19.3594ZM24.6562 19.3594V28.2656C24.7163 28.245 24.7726 28.221 24.8239 28.1939L33.062 23.8301C33.0707 23.8256 33.0789 23.821 33.0867 23.8166L33.0938 23.8125L33.0808 23.8051L33.062 23.7949L24.8239 19.4311C24.7726 19.404 24.7163 19.38 24.6562 19.3594ZM33.1406 14.5781L25.7344 18.4688L33.1406 22.3594V14.5781ZM14.8125 14.5781V22.3594L22.2188 18.4688L14.8125 14.5781ZM24.8167 8.79502C24.3879 8.56833 23.6121 8.56833 23.1833 8.79502L14.938 13.1542C14.9293 13.1588 14.9211 13.1633 14.9132 13.1678L14.9062 13.1719L14.9192 13.1793L14.938 13.1895L23.1833 17.5487C23.6121 17.7754 24.3879 17.7754 24.8167 17.5487L33.062 13.1895C33.0706 13.1849 33.0789 13.1804 33.0867 13.1759L33.0938 13.1719L33.0808 13.1645L33.062 13.1542L24.8167 8.79502ZM34.3685 9.23438L34.8877 9.55075L34.9749 9.6048C35.125 9.69829 35.2495 9.77862 35.3655 9.85756C36.6062 10.7014 37.0689 11.6215 37.078 13.5354L37.0781 13.5938H35.7926C35.7926 12.7556 35.6961 12.2047 35.5044 11.8166C35.3455 11.4949 35.1071 11.2491 34.6718 10.95L34.6469 10.933C34.5514 10.868 34.4462 10.7999 34.3181 10.7199L34.167 10.6266L33.7031 10.3441L34.3685 9.23438Z" fill="white"/>
</svg>
