<svg width="48" height="48" viewBox="0 0 48 48" fill="none" xmlns="http://www.w3.org/2000/svg">
<rect width="48" height="48" rx="24" fill="#37775D"/>
<path fill-rule="evenodd" clip-rule="evenodd" d="M37.2 13.7064C30.622 5.0338 16.9308 5.0492 10.4 13.6448C14.9008 18.035 19.3701 22.4252 23.8236 26.8L37.2 13.7064ZM29.0207 18.686C27.2818 20.3766 25.5448 22.0652 23.8079 23.75L13.4215 13.5832C18.6462 8.09925 28.5447 7.82197 34.21 13.6448C32.4771 15.3257 30.7481 17.0066 29.0211 18.6855L29.0209 18.6858L29.0207 18.686ZM10.9446 16.9102L10.9444 16.91L10.9444 16.91C10.5001 16.4733 10.0578 16.0386 9.61553 15.6C5.85825 21.4743 6.13888 30.7649 12.9207 36.701C19.4219 42.4052 29.6024 42.1115 35.7294 36.0981C42.1215 29.8374 41.8252 20.8405 38.3954 15.6464C37.5223 16.5275 36.6336 17.4087 35.745 18.2898C37.8653 20.9951 37.382 24.3496 35.3396 26.421C33.3908 28.3997 29.9454 29.1417 26.9208 26.8384C25.9387 27.7968 24.9565 28.7707 23.9431 29.791C23.452 29.2963 22.9609 28.8094 22.4718 28.3244C21.9826 27.8394 21.4954 27.3563 21.0121 26.8693C18.2838 28.9717 15.041 28.5079 12.9986 26.7302C11.9853 25.8491 11.2993 24.736 11.0343 23.4221C10.6289 21.5052 11.0966 19.7738 12.2971 18.2434C11.843 17.7932 11.3928 17.3508 10.9447 16.9102L10.9446 16.9102ZM34.2902 19.6C35.6576 21.1416 35.4646 23.454 33.8397 24.8671C32.231 26.2517 29.6409 26.3801 28 25.1811C29.3948 23.9341 30.7967 22.6934 32.1962 21.4548L32.1984 21.4529C32.8967 20.8349 33.5943 20.2175 34.2902 19.6ZM13.7251 24.8195C15.3186 26.2391 17.9261 26.3969 19.6 25.1924L19.5994 25.1919C17.4911 23.3136 15.3988 21.4496 13.3066 19.6C11.9546 21.077 12.1316 23.3856 13.7251 24.8195Z" fill="white"/>
</svg>
