<svg width="48" height="48" viewBox="0 0 48 48" fill="none" xmlns="http://www.w3.org/2000/svg">
<g clip-path="url(#clip0_14250_560)">
<mask id="mask0_14250_560" style="mask-type:alpha" maskUnits="userSpaceOnUse" x="0" y="0" width="48" height="48">
<circle cx="24" cy="24" r="24" fill="#D9D9D9"/>
</mask>
<g mask="url(#mask0_14250_560)">
<rect width="48" height="48" fill="url(#paint0_linear_14250_560)"/>
<rect x="5" y="4.99999" width="38" height="38" rx="19" fill="black" stroke="url(#paint1_linear_14250_560)" stroke-width="0.4"/>
<path fill-rule="evenodd" clip-rule="evenodd" d="M15.0148 36.0495C11.3461 33.3085 8.97085 28.9314 8.97085 24C8.97085 15.7001 15.7001 8.97086 24 8.97086C30.8524 8.97086 38.3324 13.0669 40.1417 19.3342C38.1206 12.3278 31.6609 7.20001 24 7.20001C14.7223 7.20001 7.2 14.7223 7.2 24C7.2 33.2777 14.7223 40.8 24 40.8C33.2777 40.8 40.8 33.2777 40.8 24V23.1146H39.8761C39.8491 23.1146 39.8068 23.1146 39.7529 23.1146C39.6451 23.1146 39.4873 23.1107 39.2871 23.103C38.8906 23.0915 38.3401 23.0645 37.7241 23.0106C36.4653 22.9029 35.0255 22.6873 34.0477 22.2946C32.4731 21.6671 31.5839 20.8317 30.5676 19.8578L30.5098 19.8C29.4935 18.8222 28.3501 17.725 26.3676 16.7896C24.4158 15.8695 22.2561 16.0196 20.67 16.343C19.8654 16.5085 19.1725 16.728 18.6836 16.9051C18.4372 16.9936 18.2409 17.0744 18.1023 17.1322C17.3054 17.4671 16.5278 17.8675 15.7463 18.2332C15.7463 18.2332 17.2823 18.6567 18.0445 18.8915C18.0715 18.8992 18.1138 18.9146 18.1716 18.9338C18.2832 18.9723 18.4488 19.0301 18.6489 19.1109C19.0493 19.2726 19.5767 19.519 20.0964 19.8539C20.9164 20.3813 21.5978 21.0435 21.875 21.8596C20.1349 22.0867 18.5027 22.8528 17.2785 23.5727C16.5393 24.0077 15.9234 24.4427 15.4922 24.7699C15.2766 24.9316 15.1034 25.0702 14.9879 25.1665C14.8878 25.2473 13.3171 26.6332 13.3171 26.6332C13.3171 26.6332 15.3459 26.8488 16.3468 27.049C17.0128 27.1837 17.9098 27.3993 18.8453 27.7265C19.7846 28.0537 20.7355 28.4849 21.5247 29.0354C22.3138 29.5859 22.8951 30.2249 23.18 30.9525C24.0116 33.0776 23.1954 35.1487 21.5555 36.3113C19.9347 37.4662 17.4748 37.7395 15.0148 36.0495ZM20.747 38.6788C21.4092 38.4633 22.0251 38.1514 22.5833 37.7588C24.8123 36.1727 25.9864 33.27 24.8277 30.3135C24.3734 29.1509 23.5034 28.2616 22.5371 27.5879C21.5709 26.9142 20.4583 26.4176 19.4266 26.0596C18.749 25.8248 18.0946 25.64 17.5248 25.5014C17.7289 25.3705 17.9483 25.2319 18.1793 25.0972C19.5421 24.2964 21.2552 23.5611 22.899 23.5611C25.3782 23.5611 27.2222 24.3195 28.9815 25.1357C29.1432 25.2088 29.301 25.2858 29.4627 25.3628C31.0372 26.1019 32.6887 26.8757 34.6097 26.8757C36.473 26.8757 37.9243 26.3483 38.9252 25.8055C38.0359 33.2585 31.6917 39.033 24 39.033C22.8836 39.033 21.7941 38.9098 20.747 38.6788ZM37.0158 24.7161C36.3536 24.9432 35.5529 25.1049 34.6136 25.1049C33.1083 25.1049 31.811 24.5005 30.1672 23.7344C30.0209 23.6651 29.8746 23.5996 29.7245 23.5304C28.0768 22.7681 26.1751 21.9597 23.6959 21.8134C23.3648 20.1734 22.1214 19.0493 21.055 18.3679C20.9357 18.2909 20.8163 18.2178 20.7008 18.1523C20.8086 18.1293 20.9164 18.1023 21.028 18.0792C22.4601 17.7828 24.1694 17.7096 25.6169 18.391C27.3338 19.1995 28.3039 20.1311 29.3126 21.0974L29.3472 21.132C30.3866 22.1291 31.4838 23.1723 33.3971 23.9384C34.4557 24.3619 35.8339 24.589 37.0158 24.7161Z" fill="url(#paint2_linear_14250_560)"/>
</g>
<rect x="12" y="38.4" width="24" height="9.6" rx="4.8" fill="#FF0420"/>
<path d="M14.9872 41.9104V41.464H17.3152V41.9104H16.4272V44.8H15.88V41.9104H14.9872ZM18.983 42.5728C18.6134 42.5728 18.3158 42.8224 18.2582 43.24H19.7222C19.7126 42.832 19.391 42.5728 18.983 42.5728ZM20.2214 44.0128C20.0726 44.4736 19.655 44.8432 19.007 44.8432C18.2486 44.8432 17.687 44.3056 17.687 43.4752C17.687 42.6448 18.2246 42.112 19.007 42.112C19.7606 42.112 20.2934 42.6352 20.2934 43.4128C20.2934 43.504 20.2886 43.5904 20.2742 43.6816H18.2534C18.2918 44.1184 18.6038 44.3824 19.007 44.3824C19.343 44.3824 19.5302 44.2192 19.631 44.0128H20.2214ZM22.8047 44.0608C22.8047 44.5072 22.4159 44.8432 21.7919 44.8432C21.1583 44.8432 20.7119 44.4688 20.6879 43.9888H21.2543C21.2735 44.2048 21.4799 44.3824 21.7823 44.3824C22.0991 44.3824 22.2671 44.248 22.2671 44.0656C22.2671 43.5472 20.7311 43.8448 20.7311 42.8752C20.7311 42.4528 21.1247 42.112 21.7487 42.112C22.3487 42.112 22.7423 42.4336 22.7711 42.9616H22.2239C22.2047 42.7312 22.0271 42.5728 21.7295 42.5728C21.4367 42.5728 21.2831 42.6928 21.2831 42.8704C21.2831 43.4032 22.7759 43.1056 22.8047 44.0608ZM23.4823 44.0656V42.6016H23.1703V42.1552H23.4823V41.4976H24.0343V42.1552H24.6775V42.6016H24.0343V44.0656C24.0343 44.2624 24.1111 44.344 24.3415 44.344H24.6775V44.8H24.2455C23.7751 44.8 23.4823 44.6032 23.4823 44.0656ZM27.0587 44.8V43.3216C27.0587 42.8368 26.7947 42.5872 26.3963 42.5872C25.9931 42.5872 25.7291 42.8368 25.7291 43.3216V44.8H25.1819V42.1552H25.7291V42.4576C25.9067 42.2416 26.1995 42.112 26.5163 42.112C27.1355 42.112 27.6011 42.5008 27.6011 43.24V44.8H27.0587ZM29.4127 42.5728C29.0431 42.5728 28.7455 42.8224 28.6879 43.24H30.1519C30.1423 42.832 29.8207 42.5728 29.4127 42.5728ZM30.6511 44.0128C30.5023 44.4736 30.0847 44.8432 29.4367 44.8432C28.6783 44.8432 28.1167 44.3056 28.1167 43.4752C28.1167 42.6448 28.6543 42.112 29.4367 42.112C30.1903 42.112 30.7231 42.6352 30.7231 43.4128C30.7231 43.504 30.7183 43.5904 30.7039 43.6816H28.6831C28.7215 44.1184 29.0335 44.3824 29.4367 44.3824C29.7727 44.3824 29.9599 44.2192 30.0607 44.0128H30.6511ZM31.348 44.0656V42.6016H31.036V42.1552H31.348V41.4976H31.9V42.1552H32.5432V42.6016H31.9V44.0656C31.9 44.2624 31.9768 44.344 32.2072 44.344H32.5432V44.8H32.1112C31.6408 44.8 31.348 44.6032 31.348 44.0656Z" fill="white"/>
</g>
<defs>
<linearGradient id="paint0_linear_14250_560" x1="24" y1="0" x2="24" y2="48" gradientUnits="userSpaceOnUse">
<stop stop-color="#101922"/>
<stop offset="1" stop-color="#330B26"/>
</linearGradient>
<linearGradient id="paint1_linear_14250_560" x1="24" y1="4.79999" x2="24" y2="43.2" gradientUnits="userSpaceOnUse">
<stop stop-color="#69B2DB"/>
<stop offset="1" stop-color="#CB6499"/>
</linearGradient>
<linearGradient id="paint2_linear_14250_560" x1="6.90152" y1="24.3138" x2="41.1018" y2="23.6889" gradientUnits="userSpaceOnUse">
<stop stop-color="#29CCB9"/>
<stop offset="0.4948" stop-color="#0091FF"/>
<stop offset="1" stop-color="#FF66B7"/>
</linearGradient>
<clipPath id="clip0_14250_560">
<rect width="48" height="48" rx="24" fill="white"/>
</clipPath>
</defs>
</svg>
