<svg width="48" height="48" viewBox="0 0 48 48" fill="none" xmlns="http://www.w3.org/2000/svg">
<rect width="48" height="48" rx="24" fill="#1B1B1B"/>
<path fill-rule="evenodd" clip-rule="evenodd" d="M24 35.4651V41.2C23.1061 41.2 22.1995 41.1359 21.3057 40.9821L22.2102 35.2955C21.8585 35.2353 21.509 35.16 21.1625 35.0706L22.7058 29.4107C23.1944 29.5385 23.6831 29.6024 24.1847 29.6024V35.4667C24.1231 35.4667 24.0615 35.4661 24 35.4651ZM29.3119 40.3669C28.4564 40.6489 27.5753 40.8539 26.6815 40.9949L25.7749 35.2018C26.2409 35.1306 26.7069 35.0272 27.1601 34.8979L25.6765 29.4107C26.1523 29.283 26.6153 29.0913 27.0396 28.8486L29.8985 33.7087C30.1588 33.5501 30.4108 33.3796 30.6527 33.2024L34.1004 37.9317C33.3725 38.4572 32.6064 38.9314 31.8019 39.3416L29.2393 34.3326C28.7004 34.5894 28.1437 34.8021 27.5693 34.9707L29.3119 40.3669ZM20.4885 34.8045L18.688 40.3669C17.8325 40.0849 16.9897 39.7389 16.1853 39.3416L18.8413 34.1252C19.3776 34.3943 19.9266 34.625 20.4885 34.8045ZM17.299 33.2383L13.8868 37.9189C13.1718 37.3934 12.4822 36.8039 11.8438 36.1758L15.9323 32.0848L15.9156 32.0682L18.2304 29.8579L20.108 27.9031L20.1594 27.9542C20.5195 28.2992 20.9182 28.6058 21.3426 28.8486L18.359 33.9207C17.9938 33.7127 17.6399 33.4846 17.299 33.2383ZM36.169 36.163L36.1306 36.2015L33.9727 33.9714L31.9807 32.0873L32.0445 32.0232C32.0936 31.974 32.1425 31.924 32.1912 31.8733L28.2099 27.9542C28.57 27.5965 28.8787 27.2132 29.123 26.7916L34.2799 29.7301C34.0455 30.1362 33.7829 30.5256 33.4962 30.8982L37.9183 34.1252C37.3948 34.8429 36.8074 35.535 36.169 36.163ZM14.819 30.6647L10.0944 34.1124C9.55812 33.3818 9.08566 32.6128 8.67705 31.8054L13.8041 29.1945C13.53 28.6619 13.2953 28.1093 13.1081 27.5449L7.64275 29.3189C7.3746 28.4602 7.15752 27.5758 7.01706 26.6915L12.8015 25.7815C12.8603 26.1696 12.9413 26.5522 13.0408 26.9292L18.6805 25.4501C18.8091 25.9228 19.002 26.37 19.2464 26.7916L14.1704 29.6714C14.3702 30.0145 14.5889 30.3482 14.819 30.6647ZM40.3572 29.3189C40.0763 30.1776 39.7315 31.0235 39.3229 31.8182L34.1131 29.1651C34.3813 28.6396 34.6111 28.0885 34.7899 27.5246L40.3572 29.3189ZM41.2 24.0128C41.2 24.91 41.1234 25.82 40.9829 26.7043L35.6892 25.8697C35.6267 26.2393 35.5466 26.6067 35.4502 26.9705L29.7017 25.4629C29.8303 24.9902 29.8946 24.4919 29.8946 24.0064H35.8489C35.8489 24.0085 35.8489 24.0107 35.8489 24.0128H41.2ZM12.661 23.9936C12.661 23.9957 12.661 23.9979 12.661 24H6.79999C6.81276 23.1028 6.8766 22.1928 7.01706 21.3085L12.6815 22.1996C12.7456 21.8066 12.8296 21.416 12.932 21.0295L18.6934 22.5371C18.5648 23.0098 18.5005 23.5081 18.5005 23.9936H12.661ZM40.9957 21.3213L35.2113 22.2313C35.1567 21.871 35.083 21.5155 34.9931 21.1619L29.6888 22.5499C29.5602 22.0772 29.3673 21.63 29.1359 21.1956L33.9219 18.4803C33.7012 18.0883 33.4548 17.7072 33.1938 17.3481L37.9311 13.9004C38.4674 14.631 38.9399 15.4 39.3485 16.2074L34.5113 18.6647C34.7974 19.2052 35.0433 19.768 35.2401 20.3472L40.37 18.6939C40.6509 19.5526 40.8552 20.4369 40.9957 21.3213ZM13.8868 18.8477C13.6187 19.3732 13.3889 19.9243 13.2101 20.4882L7.64275 18.6939C7.92367 17.8352 8.26844 16.9893 8.67705 16.1946L13.8868 18.8477ZM15.9386 15.9087L11.8566 11.8241L11.8438 11.8369C11.2053 12.4778 10.618 13.1571 10.0944 13.8876L14.7492 17.2844C14.518 17.5989 14.3024 17.9241 14.1023 18.2571L19.2592 21.1956C19.5036 20.7868 19.7993 20.3907 20.1594 20.0457L20.1723 20.033L18.0375 17.9377L15.9927 15.8551L15.9541 15.8935C15.9489 15.8985 15.9438 15.9036 15.9386 15.9087ZM30.8547 14.594C30.5849 14.4081 30.3075 14.2326 30.0232 14.0665L27.0396 19.1386C27.464 19.3814 27.8498 19.6752 28.2099 20.0202V20.0457L30.319 17.9632L32.4795 15.9446L32.4281 15.8935C32.3815 15.8472 32.3346 15.8015 32.2873 15.7562L33.2959 14.7335L36.169 11.8626L36.1562 11.8498C35.5177 11.2217 34.841 10.6322 34.1259 10.1067L30.8547 14.594ZM18.4092 14.1302C18.0389 14.3375 17.6834 14.5642 17.3473 14.8104L13.9124 10.0811C14.6402 9.55558 15.4064 9.08136 16.2108 8.67122L18.8304 13.8161C19.3644 13.5403 19.9163 13.3089 20.4861 13.122L18.7136 7.64589C19.5691 7.36392 20.4629 7.15886 21.344 7.01787L22.2506 12.7982C21.903 12.8513 21.5553 12.9224 21.2129 13.0087L22.7058 18.5765C22.2299 18.7042 21.767 18.8959 21.3426 19.1386L18.4092 14.1302ZM31.8402 8.68404L29.1715 13.9004C28.6352 13.6313 28.0861 13.4006 27.537 13.2083L29.3502 7.64589C30.2058 7.92786 31.0358 8.27391 31.8402 8.68404ZM24.1975 12.6587V18.3976C24.6862 18.3976 25.1878 18.4615 25.6636 18.5893L27.2068 12.9294C26.7489 12.8097 26.2824 12.7152 25.8115 12.6486L26.707 7.01787C25.826 6.87689 24.9194 6.79999 24.0255 6.79999V12.6572C24.0828 12.6572 24.1401 12.6577 24.1975 12.6587Z" fill="white"/>
</svg>
