<svg width="48" height="48" viewBox="0 0 48 48" fill="none" xmlns="http://www.w3.org/2000/svg">
<rect width="48" height="48" rx="24" fill="#313042"/>
<path d="M18.4344 35.564C18.6067 35.0431 18.9514 34.5222 19.1237 33.8277C19.1237 33.654 19.1237 33.3068 18.9514 33.1331C17.9174 31.744 17.5727 30.1813 17.9174 28.6186C17.9174 28.4449 17.9174 28.2713 18.0897 28.2713C18.0897 28.0977 18.2621 28.0977 18.2621 27.924C19.4684 29.1395 19.8131 30.7022 19.9854 32.2649C20.3301 31.5704 20.8471 30.8758 21.1918 30.0077C21.1918 29.834 21.0194 29.6604 21.0194 29.4868C19.9854 27.924 19.8131 26.1877 20.5024 24.2776C21.7088 25.4931 22.0535 27.0558 22.0535 28.6186C22.5705 27.924 22.9151 27.2295 23.4321 26.7086C23.4321 26.5349 23.4321 26.3613 23.2598 26.1877C22.7428 24.6249 22.7428 23.0622 23.6045 21.4995C23.7768 21.3258 23.7768 21.1522 23.9492 20.9785C24.8108 22.3676 24.6385 23.7567 24.4662 25.1458H24.6385C24.9832 24.6249 25.3278 24.2776 25.5002 23.7567C26.1895 21.8467 27.2235 20.4576 29.1192 19.5895C29.4639 19.4158 29.6362 19.4158 29.9809 19.2422C29.9809 19.5895 29.9809 19.7631 29.8086 20.1104C29.2916 21.8467 28.0852 23.2358 26.3619 24.104C25.6725 24.4513 25.1555 24.9722 24.8108 25.6667C26.1895 24.9722 27.5682 24.6249 29.2916 25.1458C28.9469 25.4931 28.7746 25.6667 28.4299 25.8404C27.2235 26.7086 25.8448 27.0558 24.4662 26.8822C23.9492 26.8822 23.7768 26.8822 23.6045 27.2295C23.2598 27.7504 22.9151 28.4449 22.5705 29.1395C24.1215 28.4449 25.6725 28.0977 27.3959 28.9658C26.8789 29.3131 26.5342 29.6604 26.1895 29.834C24.9832 30.3549 23.7768 30.5286 22.3981 30.1813C22.0535 30.0077 21.8811 30.1813 21.7088 30.5286C21.3641 31.2231 21.0194 31.9177 20.5024 32.7859C22.0535 32.0913 23.6045 31.5704 25.3278 32.2649L25.5002 32.4386C25.3278 32.6122 25.1555 32.6122 24.8108 32.7859C23.4321 33.654 22.0535 34.0013 20.5024 33.8277C20.1578 33.654 19.8131 33.8277 19.8131 34.1749C19.2961 35.564 18.7791 36.9531 18.2621 38.1686C18.0897 38.6895 17.7451 39.2104 17.4004 39.7313C17.2281 40.0786 16.8834 40.2522 16.5387 40.0786C11.8856 37.6477 8.61127 34.0013 7.40492 28.9658C4.99222 19.7631 9.98995 10.5603 18.9514 7.95578C29.2916 4.83032 39.4594 11.7758 41.0104 21.8467C42.2167 30.0077 37.5637 37.8213 29.9809 40.5995C29.4639 40.7731 29.1192 40.9468 28.7746 40.5995C28.4299 40.0786 28.4299 39.7313 28.6022 39.2104C29.2916 37.474 29.8086 35.7377 30.3256 34.0013C30.6702 32.9595 31.0149 32.6122 32.0489 32.6122C33.0829 32.4386 34.117 32.4386 35.151 32.2649C36.0126 32.0913 36.3573 31.744 36.3573 30.8758C36.3573 30.7022 36.3573 30.3549 36.3573 30.1813C36.185 29.834 36.3573 29.4868 36.702 29.1395C37.0467 28.7922 37.0467 28.6186 36.702 28.2713C36.5297 28.0977 36.5297 27.7504 36.702 27.7504C37.0467 27.4031 37.0467 27.0558 36.702 26.7086C36.3573 26.3613 36.5297 26.014 36.8743 25.8404C37.219 25.6667 37.3913 25.4931 37.5637 25.1458C38.0807 24.7986 37.9083 24.4513 37.5637 24.104C36.8743 23.4095 36.0127 22.8886 35.3233 22.194C34.8063 21.8467 34.634 21.1522 34.8063 20.6313C34.9786 19.5894 34.8063 18.7213 34.2893 17.8531C33.7723 17.1585 33.4276 16.2903 33.0829 15.5958C32.5659 14.3803 31.7043 13.5122 30.4979 13.1649C29.2916 12.8176 28.0852 12.644 26.7065 12.4703C25.8448 12.2967 24.9832 12.2967 24.1215 12.1231C21.8811 11.7758 19.8131 12.2967 18.0897 13.8594C17.5727 14.2067 17.0557 14.7276 16.3664 14.9013C15.8494 15.0749 15.5047 15.5958 15.16 15.9431C14.9877 16.464 14.643 16.8113 14.126 16.9849C13.2643 17.6794 12.4027 18.2004 11.7133 19.0685C11.541 19.4158 11.024 19.5894 10.8516 19.7631C9.81762 20.4576 9.64528 21.1522 9.98996 22.194C10.1623 22.8886 10.3346 23.5831 10.1623 24.2776C9.98995 24.7986 9.98995 25.4931 10.1623 26.014C10.1623 26.7086 10.6793 27.4031 11.3686 27.5767C11.8856 27.7504 12.2303 28.0977 12.2303 28.6186C12.4027 29.3131 12.7473 30.0077 13.2643 30.5286C13.7813 31.0495 14.126 31.744 14.4707 32.4386C14.8154 33.3068 15.3324 33.8277 16.194 34.1749C17.0557 34.5222 17.7451 34.8695 18.6067 35.2168C18.0897 35.3904 18.2621 35.3904 18.4344 35.564Z" fill="#00DACC"/>
</svg>
