<svg width="48" height="48" viewBox="0 0 48 48" fill="none" xmlns="http://www.w3.org/2000/svg">
<rect width="48" height="48" rx="24" fill="#0E1027"/>
<path d="M32.1409 8.20101C36.7382 10.1514 39.8031 14.9576 39.4548 19.8335C31.2354 19.8335 23.016 19.9032 14.7966 19.7639C14.7966 16.4901 15.9111 13.1466 18.2794 10.8479C21.7622 7.29548 27.5437 6.18099 32.1409 8.20101Z" fill="#5FC0C1"/>
<path d="M31.7927 39.5462C32.2803 39.5462 32.6982 39.8248 32.6982 40.1731C32.6982 40.5214 32.2803 40.8 31.7927 40.8H18.5581C18.0705 40.8 17.6525 40.5214 17.6525 40.1731C17.6525 39.8248 18.0705 39.5462 18.5581 39.5462H31.7927Z" fill="#E1177C"/>
<path d="M15.7022 40.8C16.2023 40.8 16.6077 40.3946 16.6077 39.8945C16.6077 39.3944 16.2023 38.989 15.7022 38.989C15.2021 38.989 14.7966 39.3944 14.7966 39.8945C14.7966 40.3946 15.2021 40.8 15.7022 40.8Z" fill="#E1177C"/>
<path d="M23.6429 37.4566C24.143 37.4566 24.5484 37.0511 24.5484 36.551C24.5484 36.0509 24.143 35.6455 23.6429 35.6455C23.1428 35.6455 22.7374 36.0509 22.7374 36.551C22.7374 37.0511 23.1428 37.4566 23.6429 37.4566Z" fill="#E1177C"/>
<path d="M39.1762 35.6455C39.6638 35.6455 40.0817 36.0634 40.0817 36.551C40.0817 37.0386 39.6638 37.4566 39.1762 37.4566H26.2202C25.7326 37.4566 25.3147 37.0386 25.3147 36.551C25.3147 36.0634 25.7326 35.6455 26.2202 35.6455H39.1762Z" fill="#E1177C"/>
<path d="M6.64692 34.113C7.14703 34.113 7.55244 33.7076 7.55244 33.2075C7.55244 32.7074 7.14703 32.3019 6.64692 32.3019C6.14681 32.3019 5.74139 32.7074 5.74139 33.2075C5.74139 33.7076 6.14681 34.113 6.64692 34.113Z" fill="#E1177C"/>
<path d="M19.5332 32.3019C20.0208 32.3019 20.4387 32.7199 20.4387 33.2075C20.4387 33.6951 20.0208 34.113 19.5332 34.113H8.87585C8.38826 34.113 7.97032 33.6951 7.97032 33.2075C7.97032 32.7199 8.38826 32.3019 8.87585 32.3019H19.5332Z" fill="#E1177C"/>
<path d="M43.4251 32.3019C43.9127 32.3019 44.3307 32.7199 44.3307 33.2075C44.3307 33.6951 43.9127 34.113 43.4251 34.113H22.2498C21.7622 34.113 21.3442 33.6951 21.3442 33.2075C21.3442 32.7199 21.7622 32.3019 22.2498 32.3019H43.4251Z" fill="#E1177C"/>
<path d="M39.4548 28.9584C39.9423 28.9584 40.3603 29.3764 40.3603 29.864C40.3603 30.3516 39.9423 30.7695 39.4548 30.7695H13.4731C12.9855 30.7695 12.5676 30.3516 12.5676 29.864C12.5676 29.3764 12.9855 28.9584 13.4731 28.9584H39.4548Z" fill="#E1177C"/>
<path d="M10.6173 30.7695C11.1174 30.7695 11.5228 30.3641 11.5228 29.864C11.5228 29.3639 11.1174 28.9584 10.6173 28.9584C10.1172 28.9584 9.71175 29.3639 9.71175 29.864C9.71175 30.3641 10.1172 30.7695 10.6173 30.7695Z" fill="#E1177C"/>
<path d="M34.0216 25.6846C34.5092 25.6846 34.9272 26.1026 34.9272 26.5902C34.9272 27.0778 34.5092 27.4957 34.0216 27.4957H8.04001C7.55242 27.4957 7.13448 27.0778 7.13448 26.5902C7.13448 26.1026 7.55242 25.6846 8.04001 25.6846H34.0216Z" fill="#E1177C"/>
<path d="M4.90551 27.4957C5.40562 27.4957 5.81103 27.0903 5.81103 26.5902C5.81103 26.0901 5.40562 25.6846 4.90551 25.6846C4.4054 25.6846 3.99998 26.0901 3.99998 26.5902C3.99998 27.0903 4.4054 27.4957 4.90551 27.4957Z" fill="#E1177C"/>
<path d="M10.6173 24.1522C11.1174 24.1522 11.5228 23.7468 11.5228 23.2467C11.5228 22.7466 11.1174 22.3412 10.6173 22.3412C10.1172 22.3412 9.71175 22.7466 9.71175 23.2467C9.71175 23.7468 10.1172 24.1522 10.6173 24.1522Z" fill="#E1177C"/>
<path d="M41.9624 22.3412C42.45 22.3412 42.8679 22.7591 42.8679 23.2467C42.8679 23.7343 42.45 24.1522 41.9624 24.1522H13.6821C13.1945 24.1522 12.7766 23.7343 12.7766 23.2467C12.7766 22.7591 13.1945 22.3412 13.6821 22.3412H41.9624Z" fill="#E1177C"/>
</svg>
