<svg width="48" height="48" viewBox="0 0 48 48" fill="none" xmlns="http://www.w3.org/2000/svg">
<rect width="48" height="48" rx="24" fill="white"/>
<path d="M36.4133 11.8346C34.9529 10.3449 33.2253 9.12086 31.312 8.22975C31.2342 8.18975 31.1551 8.1533 31.0733 8.11908C30.6973 7.95108 30.3173 7.79108 29.928 7.64975C28.8387 7.25375 27.6987 6.96486 26.5209 6.79286C25.6973 6.67286 24.856 6.60797 24 6.60797C14.4102 6.60797 6.608 14.4097 6.608 24C6.608 31.4711 11.344 37.856 17.9711 40.3129C18.7507 40.6017 19.5564 40.8355 20.3836 41.0111C21.5507 41.2591 22.76 41.392 23.9996 41.392C30.6053 41.392 36.3622 37.6893 39.3058 32.2506C40.6351 29.7942 41.3916 26.984 41.3916 24C41.3916 19.268 39.4898 14.9737 36.4129 11.8346H36.4133ZM11.7956 33.3044C9.74045 30.5937 8.65422 27.36 8.65422 23.9524C8.65422 18.1337 11.88 13.0551 16.6369 10.4102C16.7627 10.34 16.8871 10.5071 16.7822 10.6057C16.3476 11.0151 15.9307 11.4524 15.532 11.9182C12.7751 15.1426 11.1867 19.5275 11.1729 23.9524C11.1729 29.6973 15.0156 35.8978 21.224 35.8978C26.7644 35.8978 31.2716 30.5391 31.2716 23.9524C31.2716 20.8577 30.2342 17.8862 28.4627 15.6809C28.4 15.6031 28.4742 15.4929 28.5698 15.5209C31.5644 16.4066 33.804 19.8506 33.804 23.9524C33.804 27.5737 32.4902 31.1786 30.1991 33.844C27.8244 36.6062 24.6369 38.1284 21.224 38.1297C17.6298 38.1297 14.1902 36.3675 11.7951 33.3049L11.7956 33.3044ZM36.48 14.6097C38.5333 17.3137 39.6169 20.5426 39.6138 23.9493C39.6138 29.7675 36.388 34.8466 31.6307 37.4915C31.5049 37.5618 31.3804 37.3946 31.4853 37.296C31.92 36.8866 32.3369 36.4489 32.7356 35.9835C35.4924 32.7595 37.0809 28.3742 37.0947 23.9493C37.0947 18.2044 33.252 12.004 27.0436 12.004C21.5031 12.004 16.996 17.3626 16.996 23.9493C16.996 27.044 18.0338 30.016 19.8053 32.2213C19.8676 32.2991 19.7938 32.4093 19.6982 32.3813C16.7031 31.496 14.4636 28.0529 14.4636 23.9529C14.4636 20.3324 15.7773 16.728 18.0689 14.0635C20.4444 11.3009 23.6329 9.77908 27.0471 9.77908C30.6387 9.77908 34.0769 11.54 36.4804 14.6097H36.48ZM29.4538 23.9529C29.4538 28.0555 27.4609 31.596 24.6044 33.1857C24.2507 33.3826 23.8147 33.3582 23.4871 33.1195L22.876 32.6737C20.3707 30.8457 18.8142 27.5026 18.8142 23.9497C18.8142 19.8475 20.8071 16.3071 23.664 14.7173C24.0182 14.5204 24.4542 14.5449 24.7813 14.7835L25.392 15.2293C27.8973 17.0573 29.4538 20.4 29.4538 23.9533V23.9529Z" fill="#007BFF"/>
</svg>
