<svg width="48" height="48" viewBox="0 0 48 48" fill="none" xmlns="http://www.w3.org/2000/svg">
<g clip-path="url(#clip0_14250_561)">
<path fill-rule="evenodd" clip-rule="evenodd" d="M24 0C37.2558 0 48 10.7442 48 24C48 37.2558 37.2558 48 24 48C10.7442 48 0 37.2558 0 24C0 10.7442 10.7442 0 24 0Z" fill="#F0B90B"/>
<path d="M13.1904 24L13.2077 30.3462L18.6 33.5192V37.2346L10.0519 32.2212V22.1442L13.1904 24ZM13.1904 17.6539V21.3519L10.05 19.4942V15.7962L13.1904 13.9385L16.3462 15.7962L13.1904 17.6539ZM20.8519 15.7962L23.9923 13.9385L27.1481 15.7962L23.9923 17.6539L20.8519 15.7962Z" fill="white"/>
<path d="M15.4596 29.0308V25.3154L18.6 27.1731V30.8712L15.4596 29.0308ZM20.8519 34.85L23.9923 36.7077L27.1481 34.85V38.5481L23.9923 40.4058L20.8519 38.5481V34.85ZM31.6519 15.7962L34.7923 13.9385L37.9481 15.7962V19.4942L34.7923 21.3519V17.6539L31.6519 15.7962ZM34.7923 30.3462L34.8096 24L37.95 22.1423V32.2192L29.4019 37.2327V33.5173L34.7923 30.3462Z" fill="white"/>
<path d="M32.5404 29.0308L29.4 30.8711V27.1731L32.5404 25.3154V29.0308Z" fill="white"/>
<path d="M32.5404 18.9692L32.5577 22.6846L27.15 25.8577V32.2192L24.0096 34.0596L20.8692 32.2192V25.8577L15.4615 22.6846V18.9692L18.6154 17.1115L23.9904 20.3L29.3981 17.1115L32.5539 18.9692H32.5404ZM15.4596 12.625L23.9923 7.59424L32.5404 12.625L29.4 14.4827L23.9923 11.2942L18.6 14.4827L15.4596 12.625Z" fill="white"/>
<path fill-rule="evenodd" clip-rule="evenodd" d="M24 0C37.2558 0 48 10.7442 48 24C48 37.2558 37.2558 48 24 48C10.7442 48 0 37.2558 0 24C0 10.7442 10.7442 0 24 0Z" fill="#F0B90B"/>
<path d="M13.1901 24.0001L13.2074 30.3463L18.5997 33.5194V37.2348L10.0516 32.2213V22.1444L13.1901 24.0001ZM13.1901 17.654V21.3521L10.0497 19.4944V15.7963L13.1901 13.9386L16.3458 15.7963L13.1901 17.654ZM20.8516 15.7963L23.992 13.9386L27.1478 15.7963L23.992 17.654L20.8516 15.7963Z" fill="white"/>
<path d="M15.4595 29.0309V25.3155L18.5999 27.1732V30.8713L15.4595 29.0309ZM20.8519 34.8501L23.9922 36.7078L27.148 34.8501V38.5482L23.9922 40.4059L20.8519 38.5482V34.8501ZM31.6519 15.7963L34.7922 13.9386L37.948 15.7963V19.4944L34.7922 21.3521V17.654L31.6519 15.7963ZM34.7922 30.3463L34.8095 24.0001L37.9499 22.1424V32.2194L29.4019 37.2328V33.5174L34.7922 30.3463Z" fill="white"/>
<path d="M32.5402 29.0308L29.3998 30.8712V27.1731L32.5402 25.3154V29.0308Z" fill="white"/>
<path d="M32.5403 18.9692L32.5576 22.6846L27.1499 25.8576V32.2192L24.0095 34.0596L20.8692 32.2192V25.8576L15.4615 22.6846V18.9692L18.6153 17.1115L23.9903 20.2999L29.398 17.1115L32.5538 18.9692H32.5403ZM15.4595 12.6249L23.9922 7.59418L32.5403 12.6249L29.3999 14.4826L23.9922 11.2942L18.5999 14.4826L15.4595 12.6249Z" fill="white"/>
<path fill-rule="evenodd" clip-rule="evenodd" d="M24 0C37.2558 0 48 10.7442 48 24C48 37.2558 37.2558 48 24 48C10.7442 48 0 37.2558 0 24C0 10.7442 10.7442 0 24 0Z" fill="#F0B90B"/>
<path fill-rule="evenodd" clip-rule="evenodd" d="M34.1304 40.8023H32.9702L29.4794 35.5204V40.8023H28.3192V33.719H29.4794L32.9702 38.9908V33.719H34.1304V40.8023ZM39.4395 37.169C39.8195 37.2369 40.1418 37.437 40.4064 37.7695C40.671 38.1019 40.8033 38.4785 40.8033 38.8991C40.8033 39.2587 40.7083 39.5844 40.5183 39.8761C40.3351 40.1611 40.0671 40.3884 39.7143 40.558C39.3615 40.7209 38.951 40.8023 38.4829 40.8023H35.6536V33.7291H38.3506C38.8323 33.7291 39.2462 33.8105 39.5922 33.9734C39.9382 34.1362 40.1994 34.3567 40.3758 34.6349C40.5522 34.9063 40.6404 35.2116 40.6404 35.5508C40.6404 35.9579 40.5319 36.2972 40.3148 36.5686C40.0977 36.84 39.8059 37.0401 39.4395 37.169ZM36.8138 36.7009H38.2488C38.6287 36.7009 38.9239 36.6161 39.1342 36.4464C39.3513 36.27 39.4599 36.019 39.4599 35.6933C39.4599 35.3744 39.3513 35.1268 39.1342 34.9504C38.9239 34.7672 38.6287 34.6756 38.2488 34.6756H36.8138V36.7009ZM38.3811 39.8558C38.7746 39.8558 39.0833 39.7608 39.3072 39.5708C39.5311 39.3809 39.6431 39.1163 39.6431 38.777C39.6431 38.431 39.5243 38.1562 39.2869 37.9527C39.0494 37.7491 38.7339 37.6473 38.3404 37.6473H36.8138V39.8558H38.3811ZM26.6615 37.7695C26.3969 37.437 26.0747 37.2369 25.6947 37.169C26.0611 37.0401 26.3528 36.84 26.5699 36.5686C26.7871 36.2972 26.8956 35.9579 26.8956 35.5508C26.8956 35.2116 26.8074 34.9063 26.631 34.6349C26.4546 34.3567 26.1934 34.1362 25.8474 33.9734C25.5013 33.8105 25.0875 33.7291 24.6057 33.7291H21.9088V40.8023H24.7381C25.2062 40.8023 25.6167 40.7209 25.9695 40.558C26.3223 40.3884 26.5903 40.1611 26.7735 39.8761C26.9635 39.5844 27.0585 39.2587 27.0585 38.8991C27.0585 38.4785 26.9262 38.1019 26.6615 37.7695ZM24.504 36.7009H23.069V34.6756H24.504C24.8839 34.6756 25.1791 34.7672 25.3894 34.9504C25.6065 35.1268 25.7151 35.3744 25.7151 35.6933C25.7151 36.019 25.6065 36.27 25.3894 36.4464C25.1791 36.6161 24.8839 36.7009 24.504 36.7009ZM25.5624 39.5708C25.3385 39.7608 25.0298 39.8558 24.6363 39.8558H23.069V37.6473H24.5956C24.9891 37.6473 25.3046 37.7491 25.542 37.9527C25.7795 38.1562 25.8983 38.431 25.8983 38.777C25.8983 39.1163 25.7863 39.3809 25.5624 39.5708ZM16.1717 36.019C16.3685 35.7612 16.6365 35.5441 16.9757 35.3677C17.315 35.1912 17.6983 35.103 18.1258 35.103C18.6143 35.103 19.0587 35.2252 19.459 35.4694C19.8661 35.7069 20.1849 36.0427 20.4156 36.477C20.6463 36.9112 20.7617 37.4099 20.7617 37.973C20.7617 38.5362 20.6463 39.0416 20.4156 39.4894C20.1849 39.9304 19.8661 40.2765 19.459 40.5275C19.0587 40.7718 18.6143 40.8939 18.1258 40.8939C17.6983 40.8939 17.3184 40.8091 16.9859 40.6394C16.6535 40.463 16.3821 40.2459 16.1717 39.9881V43.4687H15.0115V35.1946H16.1717V36.019ZM19.5811 37.973C19.5811 37.5863 19.4997 37.2538 19.3368 36.9757C19.1808 36.6907 18.9705 36.477 18.7059 36.3345C18.448 36.1852 18.1699 36.1106 17.8713 36.1106C17.5796 36.1106 17.3014 36.1852 17.0368 36.3345C16.779 36.4838 16.5686 36.7009 16.4058 36.9858C16.2498 37.2708 16.1717 37.6066 16.1717 37.9934C16.1717 38.3801 16.2498 38.7193 16.4058 39.0111C16.5686 39.2961 16.779 39.5132 17.0368 39.6624C17.3014 39.8117 17.5796 39.8863 17.8713 39.8863C18.1699 39.8863 18.448 39.8117 18.7059 39.6624C18.9705 39.5064 19.1808 39.2825 19.3368 38.9907C19.4997 38.699 19.5811 38.3598 19.5811 37.973ZM9.51856 40.5377C9.946 40.7751 10.4243 40.8939 10.9535 40.8939C11.4895 40.8939 11.9781 40.7751 12.4191 40.5377C12.8669 40.2934 13.2197 39.9508 13.4775 39.5098C13.7353 39.0688 13.8642 38.5633 13.8642 37.9934C13.8642 37.4235 13.7387 36.918 13.4877 36.477C13.2366 36.036 12.894 35.6967 12.4598 35.4592C12.0255 35.2218 11.5404 35.103 11.0044 35.103C10.4684 35.103 9.98332 35.2218 9.54909 35.4592C9.11487 35.6967 8.77223 36.036 8.52119 36.477C8.27016 36.918 8.14464 37.4235 8.14464 37.9934C8.14464 38.5701 8.26676 39.0789 8.51102 39.52C8.75527 39.9542 9.09112 40.2934 9.51856 40.5377ZM11.7881 39.6726C11.5303 39.8151 11.2521 39.8863 10.9535 39.8863C10.4854 39.8863 10.0953 39.7235 9.78317 39.3978C9.47785 39.0654 9.32519 38.5972 9.32519 37.9934C9.32519 37.5863 9.39983 37.2437 9.54909 36.9655C9.69836 36.6805 9.89851 36.4668 10.1495 36.3243C10.4074 36.1818 10.6855 36.1106 10.9841 36.1106C11.2826 36.1106 11.5608 36.1818 11.8186 36.3243C12.0764 36.4668 12.2834 36.6805 12.4394 36.9655C12.5955 37.2437 12.6735 37.5863 12.6735 37.9934C12.6735 38.4005 12.5921 38.7465 12.4292 39.0314C12.2664 39.3164 12.0527 39.5301 11.7881 39.6726Z" fill="white"/>
<path fill-rule="evenodd" clip-rule="evenodd" d="M31.208 16.8886L31.1934 13.7595H31.2048L28.5469 12.1949L23.9925 14.8803L19.4656 12.1949L16.8093 13.7595V16.8886L21.3638 19.5611V24.9189L24.0087 26.4689L26.6536 24.9189V19.5611L31.208 16.8886ZM23.9941 4.17926L16.8077 8.41626L19.4526 9.98084L23.9941 7.29546L28.5486 9.98084L31.1934 8.41626L23.9941 4.17926ZM14.9111 23.3417L14.8966 17.9968L12.2533 16.4339V24.9208L19.4526 29.1433V26.0141L14.9111 23.3417ZM14.8966 15.7666V12.652L17.5544 11.0874L14.8966 9.52282L12.2517 11.0874V14.202L14.8966 15.7666ZM23.9941 9.52282L21.3492 11.0874L23.9941 12.652L26.652 11.0874L23.9941 9.52282ZM19.4526 20.6693L16.8077 19.1047V22.2338L19.4526 23.7838V20.6693ZM23.9941 28.6995L21.3492 27.1349V30.2495L23.9941 31.8141L26.6519 30.2495V27.1349L23.9941 28.6995ZM33.0901 9.52282L30.4452 11.0874L33.0901 12.652V15.7666L35.7479 14.202V11.0874L33.0901 9.52282ZM35.7495 16.4322L33.1046 17.9968L33.0901 23.3417L28.5502 26.0125V29.1416L35.7495 24.9192V16.4322ZM31.1935 22.2337L28.5487 23.7837V20.6692L31.1935 19.1046V22.2337Z" fill="white"/>
<rect x="12" y="38.4" width="24" height="9.6" rx="4.8" fill="#FF0420"/>
<path d="M14.9872 41.9104V41.464H17.3152V41.9104H16.4272V44.8H15.88V41.9104H14.9872ZM18.983 42.5728C18.6134 42.5728 18.3158 42.8224 18.2582 43.24H19.7222C19.7126 42.832 19.391 42.5728 18.983 42.5728ZM20.2214 44.0128C20.0726 44.4736 19.655 44.8432 19.007 44.8432C18.2486 44.8432 17.687 44.3056 17.687 43.4752C17.687 42.6448 18.2246 42.112 19.007 42.112C19.7606 42.112 20.2934 42.6352 20.2934 43.4128C20.2934 43.504 20.2886 43.5904 20.2742 43.6816H18.2534C18.2918 44.1184 18.6038 44.3824 19.007 44.3824C19.343 44.3824 19.5302 44.2192 19.631 44.0128H20.2214ZM22.8047 44.0608C22.8047 44.5072 22.4159 44.8432 21.7919 44.8432C21.1583 44.8432 20.7119 44.4688 20.6879 43.9888H21.2543C21.2735 44.2048 21.4799 44.3824 21.7823 44.3824C22.0991 44.3824 22.2671 44.248 22.2671 44.0656C22.2671 43.5472 20.7311 43.8448 20.7311 42.8752C20.7311 42.4528 21.1247 42.112 21.7487 42.112C22.3487 42.112 22.7423 42.4336 22.7711 42.9616H22.2239C22.2047 42.7312 22.0271 42.5728 21.7295 42.5728C21.4367 42.5728 21.2831 42.6928 21.2831 42.8704C21.2831 43.4032 22.7759 43.1056 22.8047 44.0608ZM23.4823 44.0656V42.6016H23.1703V42.1552H23.4823V41.4976H24.0343V42.1552H24.6775V42.6016H24.0343V44.0656C24.0343 44.2624 24.1111 44.344 24.3415 44.344H24.6775V44.8H24.2455C23.7751 44.8 23.4823 44.6032 23.4823 44.0656ZM27.0587 44.8V43.3216C27.0587 42.8368 26.7947 42.5872 26.3963 42.5872C25.9931 42.5872 25.7291 42.8368 25.7291 43.3216V44.8H25.1819V42.1552H25.7291V42.4576C25.9067 42.2416 26.1995 42.112 26.5163 42.112C27.1355 42.112 27.6011 42.5008 27.6011 43.24V44.8H27.0587ZM29.4127 42.5728C29.0431 42.5728 28.7455 42.8224 28.6879 43.24H30.1519C30.1423 42.832 29.8207 42.5728 29.4127 42.5728ZM30.6511 44.0128C30.5023 44.4736 30.0847 44.8432 29.4367 44.8432C28.6783 44.8432 28.1167 44.3056 28.1167 43.4752C28.1167 42.6448 28.6543 42.112 29.4367 42.112C30.1903 42.112 30.7231 42.6352 30.7231 43.4128C30.7231 43.504 30.7183 43.5904 30.7039 43.6816H28.6831C28.7215 44.1184 29.0335 44.3824 29.4367 44.3824C29.7727 44.3824 29.9599 44.2192 30.0607 44.0128H30.6511ZM31.348 44.0656V42.6016H31.036V42.1552H31.348V41.4976H31.9V42.1552H32.5432V42.6016H31.9V44.0656C31.9 44.2624 31.9768 44.344 32.2072 44.344H32.5432V44.8H32.1112C31.6408 44.8 31.348 44.6032 31.348 44.0656Z" fill="white"/>
</g>
<defs>
<clipPath id="clip0_14250_561">
<rect width="48" height="48" rx="24" fill="white"/>
</clipPath>
</defs>
</svg>
