<svg width="48" height="48" viewBox="0 0 48 48" fill="none" xmlns="http://www.w3.org/2000/svg">
<rect width="48" height="48" rx="24" fill="#F0B90B"/>
<path fill-rule="evenodd" clip-rule="evenodd" d="M31.1935 13.7594L31.208 16.8886L26.6536 19.561V24.9188L24.0087 26.4688L21.3638 24.9188V19.561L16.8093 16.8886V13.7594L19.4656 12.1948L23.9925 14.8802L28.5469 12.1948L31.2048 13.7594H31.1935ZM16.8077 8.4162L23.9941 4.1792L31.1935 8.4162L28.5486 9.98078L23.9941 7.2954L19.4526 9.98078L16.8077 8.4162ZM14.8966 17.9968L14.9111 23.3416L19.4526 26.014V29.1432L12.2533 24.9208V16.4338L14.8966 17.9968ZM14.8966 12.6519V15.7665L12.2517 14.2019V11.0873L14.8966 9.52276L17.5544 11.0873L14.8966 12.6519ZM21.3492 11.0873L23.9941 9.52276L26.652 11.0873L23.9941 12.6519L21.3492 11.0873ZM16.8077 19.1046L19.4526 20.6692V23.7838L16.8077 22.2338V19.1046ZM21.3492 27.1348L23.9941 28.6994L26.652 27.1348V30.2494L23.9941 31.814L21.3492 30.2494V27.1348ZM30.4452 11.0873L33.0901 9.52276L35.7479 11.0873V14.2019L33.0901 15.7665V12.6519L30.4452 11.0873ZM33.1046 17.9968L35.7495 16.4322V24.9192L28.5502 29.1416V26.0124L33.0901 23.3416L33.1046 17.9968ZM28.5487 23.7837L31.1936 22.2337V19.1045L28.5487 20.6691V23.7837ZM32.9702 40.8023H34.1304V33.719H32.9702V38.9908L29.4794 33.719H28.3192V40.8023H29.4794V35.5204L32.9702 40.8023ZM40.4063 37.7695C40.1417 37.437 39.8194 37.2369 39.4395 37.169C39.8059 37.0401 40.0976 36.84 40.3147 36.5686C40.5319 36.2972 40.6404 35.9579 40.6404 35.5508C40.6404 35.2116 40.5522 34.9063 40.3758 34.6349C40.1994 34.3567 39.9382 34.1362 39.5922 33.9734C39.2461 33.8105 38.8323 33.7291 38.3505 33.7291H35.6536V40.8023H38.4828C38.951 40.8023 39.3615 40.7209 39.7143 40.558C40.0671 40.3884 40.3351 40.1611 40.5183 39.8761C40.7083 39.5844 40.8032 39.2587 40.8032 38.8991C40.8032 38.4785 40.6709 38.1019 40.4063 37.7695ZM38.2488 36.7009H36.8138V34.6756H38.2488C38.6287 34.6756 38.9239 34.7672 39.1342 34.9504C39.3513 35.1268 39.4599 35.3744 39.4599 35.6933C39.4599 36.019 39.3513 36.27 39.1342 36.4464C38.9239 36.6161 38.6287 36.7009 38.2488 36.7009ZM39.3072 39.5708C39.0833 39.7608 38.7746 39.8558 38.3811 39.8558H36.8138V37.6473H38.3404C38.7339 37.6473 39.0494 37.7491 39.2868 37.9527C39.5243 38.1562 39.643 38.431 39.643 38.777C39.643 39.1163 39.5311 39.3809 39.3072 39.5708ZM25.6947 37.169C26.0746 37.2369 26.3969 37.437 26.6615 37.7695C26.9261 38.1019 27.0584 38.4785 27.0584 38.8991C27.0584 39.2587 26.9634 39.5844 26.7735 39.8761C26.5903 40.1611 26.3223 40.3884 25.9695 40.558C25.6166 40.7209 25.2062 40.8023 24.738 40.8023H21.9088V33.7291H24.6057C25.0874 33.7291 25.5013 33.8105 25.8473 33.9734C26.1934 34.1362 26.4546 34.3567 26.631 34.6349C26.8074 34.9063 26.8956 35.2116 26.8956 35.5508C26.8956 35.9579 26.787 36.2972 26.5699 36.5686C26.3528 36.84 26.0611 37.0401 25.6947 37.169ZM23.069 36.7009H24.5039C24.8839 36.7009 25.179 36.6161 25.3894 36.4464C25.6065 36.27 25.715 36.019 25.715 35.6933C25.715 35.3744 25.6065 35.1268 25.3894 34.9504C25.179 34.7672 24.8839 34.6756 24.5039 34.6756H23.069V36.7009ZM24.6362 39.8558C25.0298 39.8558 25.3385 39.7608 25.5624 39.5708C25.7863 39.3809 25.8982 39.1163 25.8982 38.777C25.8982 38.431 25.7795 38.1562 25.542 37.9527C25.3045 37.7491 24.9891 37.6473 24.5955 37.6473H23.069V39.8558H24.6362ZM16.9757 35.3677C16.6365 35.5441 16.3685 35.7612 16.1717 36.019V35.1946H15.0115V43.4687H16.1717V39.9881C16.382 40.2459 16.6534 40.463 16.9859 40.6394C17.3183 40.8091 17.6983 40.8939 18.1257 40.8939C18.6142 40.8939 19.0586 40.7718 19.4589 40.5275C19.866 40.2765 20.1849 39.9304 20.4156 39.4894C20.6463 39.0416 20.7616 38.5362 20.7616 37.973C20.7616 37.4099 20.6463 36.9112 20.4156 36.477C20.1849 36.0427 19.866 35.7069 19.4589 35.4694C19.0586 35.2252 18.6142 35.103 18.1257 35.103C17.6983 35.103 17.3149 35.1912 16.9757 35.3677ZM19.3368 36.9757C19.4996 37.2538 19.5811 37.5863 19.5811 37.973C19.5811 38.3598 19.4996 38.699 19.3368 38.9907C19.1808 39.2825 18.9704 39.5064 18.7058 39.6624C18.448 39.8117 18.1698 39.8863 17.8713 39.8863C17.5795 39.8863 17.3014 39.8117 17.0368 39.6624C16.7789 39.5132 16.5686 39.2961 16.4058 39.0111C16.2497 38.7193 16.1717 38.3801 16.1717 37.9934C16.1717 37.6066 16.2497 37.2708 16.4058 36.9858C16.5686 36.7009 16.7789 36.4838 17.0368 36.3345C17.3014 36.1852 17.5795 36.1106 17.8713 36.1106C18.1698 36.1106 18.448 36.1852 18.7058 36.3345C18.9704 36.477 19.1808 36.6907 19.3368 36.9757ZM10.9535 40.8939C10.4243 40.8939 9.94597 40.7751 9.51853 40.5377C9.09109 40.2934 8.75524 39.9542 8.51099 39.52C8.26673 39.0789 8.14461 38.5701 8.14461 37.9934C8.14461 37.4235 8.27012 36.918 8.52116 36.477C8.7722 36.036 9.11483 35.6967 9.54906 35.4592C9.98329 35.2218 10.4684 35.103 11.0044 35.103C11.5404 35.103 12.0255 35.2218 12.4597 35.4592C12.894 35.6967 13.2366 36.036 13.4876 36.477C13.7387 36.918 13.8642 37.4235 13.8642 37.9934C13.8642 38.5633 13.7353 39.0688 13.4775 39.5098C13.2196 39.9508 12.8668 40.2934 12.419 40.5377C11.978 40.7751 11.4895 40.8939 10.9535 40.8939ZM10.9535 39.8863C11.252 39.8863 11.5302 39.8151 11.788 39.6726C12.0527 39.5301 12.2664 39.3164 12.4292 39.0314C12.592 38.7465 12.6735 38.4005 12.6735 37.9934C12.6735 37.5863 12.5954 37.2437 12.4394 36.9655C12.2833 36.6805 12.0764 36.4668 11.8186 36.3243C11.5608 36.1818 11.2826 36.1106 10.984 36.1106C10.6855 36.1106 10.4073 36.1818 10.1495 36.3243C9.89848 36.4668 9.69833 36.6805 9.54906 36.9655C9.3998 37.2437 9.32516 37.5863 9.32516 37.9934C9.32516 38.5972 9.47782 39.0654 9.78314 39.3978C10.0952 39.7235 10.4854 39.8863 10.9535 39.8863Z" fill="white"/>
</svg>
