<svg width="48" height="48" viewBox="0 0 48 48" fill="none" xmlns="http://www.w3.org/2000/svg">
<rect width="48" height="48" rx="24" fill="#FF0420"/>
<path fill-rule="evenodd" clip-rule="evenodd" d="M8.258 31.4311C9.51319 32.3437 11.1235 32.8 13.0888 32.8C15.4671 32.8 17.3663 32.2541 18.7867 31.1622C20.2071 30.0541 21.2062 28.3837 21.7843 26.1511C22.1311 24.7822 22.4284 23.3726 22.6762 21.9222C22.7588 21.4008 22.8 20.9689 22.8 20.6267C22.8 19.4859 22.5109 18.5082 21.9329 17.6933C21.3549 16.8622 20.5622 16.243 19.5547 15.8356C18.5472 15.4119 17.4077 15.2 16.136 15.2C11.462 15.2 8.56354 17.4408 7.44048 21.9222C7.0441 23.5682 6.73856 24.9778 6.52386 26.1511C6.44128 26.6726 6.39999 27.1126 6.39999 27.4711C6.39999 29.1822 7.01933 30.5022 8.258 31.4311ZM15.7892 28.4733C15.145 29.0111 14.3605 29.28 13.4357 29.28C11.8501 29.28 11.0574 28.5303 11.0574 27.0311C11.0574 26.6726 11.0904 26.3303 11.1565 26.0045C11.4538 24.4237 11.7511 23.0874 12.0483 21.9956C12.3291 20.8874 12.7915 20.0645 13.4357 19.5267C14.0963 18.9889 14.889 18.72 15.8139 18.72C17.3828 18.72 18.1674 19.4615 18.1674 20.9445C18.1674 21.303 18.1344 21.6533 18.0683 21.9956C17.8701 23.1363 17.5811 24.4726 17.2012 26.0045C16.9204 27.1126 16.4497 27.9355 15.7892 28.4733ZM24.8882 32.232C24.9869 32.344 25.1267 32.4 25.3078 32.4H28.6649C28.8296 32.4 28.9859 32.344 29.134 32.232C29.2821 32.12 29.3726 31.976 29.4055 31.8L30.541 26.544H33.8735C36.0293 26.544 37.7244 26.104 38.9587 25.224C40.2094 24.344 41.0404 22.984 41.4519 21.144C41.5506 20.712 41.6 20.296 41.6 19.896C41.6 18.504 41.0404 17.44 39.9214 16.704C38.8187 15.968 37.3541 15.6 35.5274 15.6H28.9612C28.7967 15.6 28.6403 15.656 28.4922 15.768C28.3441 15.88 28.2535 16.024 28.2206 16.2L24.8141 31.8C24.7812 31.9601 24.8059 32.104 24.8882 32.232ZM35.8483 22.68C35.3382 23.048 34.7375 23.232 34.0463 23.232H31.2075L32.1456 18.936H35.1078C35.7825 18.936 36.2598 19.064 36.5395 19.32C36.8193 19.56 36.9592 19.912 36.9592 20.376C36.9592 20.584 36.9345 20.824 36.8851 21.096C36.7205 21.784 36.375 22.312 35.8483 22.68Z" fill="white"/>
</svg>
