<svg width="48" height="48" viewBox="0 0 48 48" fill="none" xmlns="http://www.w3.org/2000/svg">
<mask id="mask0_14248_3109" style="mask-type:alpha" maskUnits="userSpaceOnUse" x="0" y="0" width="48" height="48">
<circle cx="24" cy="24" r="24" fill="#D9D9D9"/>
</mask>
<g mask="url(#mask0_14248_3109)">
<rect width="48" height="48" fill="#FDF8F6"/>
<path d="M36.2059 29.0468V12.0267C36.1833 10.6026 35.0757 9.4563 33.6855 9.4563H16.3475C12.6064 9.51419 9.60001 12.6519 9.60001 16.4959C9.60001 17.7927 9.93908 18.9042 10.459 19.8768C10.8998 20.6873 11.5892 21.4515 12.2674 22.0189C12.4595 22.1809 12.3691 22.1115 12.9568 22.482C13.7706 22.9913 14.6974 23.2461 14.6974 23.2461L14.6861 33.4235C14.7087 33.9098 14.7539 34.3729 14.8782 34.8013C15.2625 36.2371 16.2345 37.337 17.5569 37.8695C18.1107 38.0896 18.7324 38.2401 19.3992 38.2517L33.2447 38.298C36.0024 38.298 38.2403 36.0055 38.2403 33.1687C38.2516 31.4899 37.4379 29.9847 36.2059 29.0468Z" fill="#FFEEDA"/>
<path d="M36.5448 33.2961C36.4883 35.1139 35.0303 36.5727 33.2445 36.5727L23.7166 36.538C24.4738 35.6349 24.9372 34.4655 24.9372 33.1919C24.9372 31.1889 23.7731 29.811 23.7731 29.811H33.2558C35.0755 29.811 36.5561 31.3277 36.5561 33.1919L36.5448 33.2961Z" fill="#EBC28E"/>
<path d="M13.1716 20.5831C12.0752 19.5179 11.3067 18.1401 11.3067 16.5075V16.3339C11.3971 13.5435 13.635 11.2973 16.3588 11.2162H33.6968C34.1489 11.2394 34.5106 11.5636 34.5106 12.0383V27.067C34.9061 27.1365 35.0982 27.1944 35.4825 27.3334C35.7878 27.4491 36.2059 27.6922 36.2059 27.6922V12.0383C36.1833 10.6141 35.0756 9.4679 33.6855 9.4679H16.3475C12.6064 9.52579 9.59999 12.6635 9.59999 16.5075C9.59999 18.7422 10.5946 20.6526 12.2221 21.9956C12.3352 22.0884 12.4369 22.2041 12.7308 22.2041C13.2394 22.2041 13.6011 21.7872 13.5784 21.3357C13.5671 20.9536 13.4089 20.8147 13.1716 20.5831Z" fill="#101010"/>
<path d="M33.2447 28.0511H19.6479C18.7324 28.0626 17.9977 28.8153 17.9977 29.7531V31.7561C18.0203 32.6825 18.7889 33.4698 19.7044 33.4698H20.7103V31.7561H19.7044V29.7995C19.7044 29.7995 19.9531 29.7995 20.2582 29.7995C21.9762 29.7995 23.2421 31.4319 23.2421 33.1803C23.2421 34.7318 21.8632 36.7116 19.5575 36.5496C17.5117 36.4107 16.4041 34.5465 16.4041 33.1803V16.2064C16.4041 15.4423 15.7938 14.817 15.0478 14.817H13.6915V16.5538H14.6974V33.1918C14.6409 36.5728 17.0483 38.2748 19.5575 38.2748L33.2561 38.3211C36.0138 38.3211 38.2517 36.0286 38.2517 33.1918C38.2517 30.3552 36.0025 28.0511 33.2447 28.0511ZM36.5449 33.2961C36.4885 35.1139 35.0304 36.5728 33.2447 36.5728L23.7168 36.538C24.4741 35.6349 24.9375 34.4654 24.9375 33.1918C24.9375 31.1888 23.7732 29.811 23.7732 29.811H33.2561C35.0756 29.811 36.5563 31.3278 36.5563 33.1918L36.5449 33.2961Z" fill="#101010"/>
<path d="M29.5824 16.8668H19.3311V15.13H29.5824C30.0458 15.13 30.4302 15.5121 30.4302 15.9984C30.4302 16.4731 30.0572 16.8668 29.5824 16.8668Z" fill="#101010"/>
<path d="M29.5824 25.0407H19.3311V23.3038H29.5824C30.0458 23.3038 30.4302 23.686 30.4302 24.1723C30.4302 24.647 30.0572 25.0407 29.5824 25.0407Z" fill="#101010"/>
<path d="M31.3909 20.9536H19.3311V19.2169H31.3795C31.843 19.2169 32.2272 19.5989 32.2272 20.0852C32.2385 20.5599 31.8543 20.9536 31.3909 20.9536Z" fill="#101010"/>
</g>
</svg>
