<svg width="48" height="48" viewBox="0 0 48 48" fill="none" xmlns="http://www.w3.org/2000/svg">
<rect width="48" height="48" rx="24" fill="black"/>
<path d="M36.864 31.1397L32.5025 35.6965C32.4077 35.7955 32.2929 35.8744 32.1655 35.9283C32.038 35.9823 31.9005 36.0101 31.7615 36.01H11.0859C10.9873 36.01 10.8908 35.9819 10.8083 35.9292C10.7258 35.8765 10.6609 35.8015 10.6216 35.7133C10.5822 35.6252 10.5702 35.5278 10.5869 35.4331C10.6037 35.3383 10.6484 35.2504 10.7157 35.1802L15.0805 30.6234C15.1751 30.5246 15.2894 30.4459 15.4165 30.392C15.5435 30.338 15.6806 30.3101 15.8192 30.3099H36.4937C36.5923 30.3099 36.6888 30.338 36.7714 30.3906C36.8538 30.4433 36.9186 30.5184 36.9581 30.6065C36.9974 30.6947 37.0094 30.7921 36.9927 30.8868C36.9759 30.9815 36.9312 31.0694 36.864 31.1397ZM32.5025 21.9635C32.4077 21.8646 32.2929 21.7856 32.1655 21.7317C32.038 21.6778 31.9005 21.65 31.7615 21.6501H11.0859C10.9873 21.6501 10.8908 21.6781 10.8083 21.7308C10.7258 21.7835 10.6609 21.8586 10.6216 21.9467C10.5822 22.0349 10.5702 22.1323 10.5869 22.227C10.6037 22.3217 10.6484 22.4096 10.7157 22.4799L15.0805 27.0367C15.1751 27.1354 15.2894 27.2141 15.4165 27.2681C15.5435 27.322 15.6806 27.35 15.8192 27.3502H36.4937C36.5923 27.3502 36.6888 27.3221 36.7714 27.2694C36.8538 27.2167 36.9186 27.1417 36.9581 27.0535C36.9974 26.9654 37.0094 26.868 36.9927 26.7732C36.9759 26.6785 36.9312 26.5907 36.864 26.5204L32.5025 21.9635ZM11.0859 18.6904H31.7615C31.9005 18.6904 32.038 18.6626 32.1655 18.6087C32.2929 18.5548 32.4077 18.4758 32.5025 18.3769L36.864 13.82C36.9312 13.7498 36.9759 13.6619 36.9927 13.5672C37.0094 13.4725 36.9974 13.375 36.9581 13.2869C36.9186 13.1988 36.8538 13.1237 36.7714 13.071C36.6888 13.0183 36.5923 12.9902 36.4937 12.9902H15.8192C15.6806 12.9905 15.5435 13.0184 15.4165 13.0723C15.2894 13.1263 15.1751 13.205 15.0805 13.3037L10.7169 17.8606C10.6496 17.9307 10.6049 18.0186 10.5881 18.1132C10.5713 18.2078 10.5833 18.3051 10.6225 18.3932C10.6616 18.4813 10.7264 18.5563 10.8087 18.6091C10.891 18.6619 10.9874 18.6901 11.0859 18.6904Z" fill="url(#paint0_linear_131_3087)"/>
<defs>
<linearGradient id="paint0_linear_131_3087" x1="12.8098" y1="36.5586" x2="33.8592" y2="12.2012" gradientUnits="userSpaceOnUse">
<stop offset="0.08" stop-color="#9945FF"/>
<stop offset="0.3" stop-color="#8752F3"/>
<stop offset="0.5" stop-color="#5497D5"/>
<stop offset="0.6" stop-color="#43B4CA"/>
<stop offset="0.72" stop-color="#28E0B9"/>
<stop offset="0.97" stop-color="#19FB9B"/>
</linearGradient>
</defs>
</svg>
