<svg width="48" height="48" viewBox="0 0 48 48" fill="none" xmlns="http://www.w3.org/2000/svg">
<g clip-path="url(#clip0_14250_551)">
<mask id="mask0_14250_551" style="mask-type:alpha" maskUnits="userSpaceOnUse" x="0" y="0" width="48" height="48">
<circle cx="24" cy="24" r="24" fill="#D9D9D9"/>
</mask>
<g mask="url(#mask0_14250_551)">
<rect width="48" height="48" fill="#EDF0F4"/>
<path d="M38.3696 31.3602L33.2289 24.4642C32.6704 23.7148 31.8435 23.266 30.9628 23.167C30.7624 23.144 30.5834 23.0292 30.4831 22.856C30.3811 22.6827 30.3704 22.4725 30.4509 22.2886C30.8036 21.4863 30.825 20.555 30.4456 19.7031L26.9677 11.8599C26.4523 10.6953 25.287 9.94415 23.9999 9.94415C22.713 9.94415 21.5477 10.697 21.0323 11.8599L17.5544 19.7031C17.1767 20.555 17.1964 21.4863 17.549 22.2886C17.6296 22.4725 17.6171 22.6827 17.5168 22.856C17.4148 23.0292 17.2376 23.144 17.0371 23.167C16.1565 23.266 15.3295 23.7148 14.7711 24.4642L9.63033 31.3602C8.86782 32.3834 8.79085 33.7548 9.43344 34.8559C10.0778 35.9551 11.32 36.5755 12.598 36.4359L21.2166 35.4886C22.1527 35.386 22.9601 34.9036 23.4863 34.2002C23.6062 34.0394 23.7978 33.9439 23.9999 33.9439C24.2022 33.9439 24.392 34.0394 24.5137 34.2002C25.04 34.9036 25.8473 35.386 26.7834 35.4886L35.4019 36.4359C36.68 36.5772 37.9222 35.9569 38.5666 34.8559C39.2091 33.7548 39.1322 32.3834 38.3696 31.3602ZM19.8026 20.6875L23.2857 12.8354C23.4111 12.5544 23.6921 12.3724 24.0017 12.3724C24.3114 12.3724 24.5924 12.5544 24.7178 12.8354L28.201 20.6875C28.3102 20.9349 28.2869 21.2212 28.1366 21.4474C27.9862 21.6736 27.7321 21.8097 27.4564 21.8097H20.5454C20.2715 21.8097 20.0156 21.6736 19.8652 21.4474C19.7149 21.2212 19.6916 20.9349 19.8008 20.6875H19.8026ZM21.5907 32.6414C21.4672 32.8836 21.2274 33.0462 20.9553 33.0762L12.3278 34.0235C12.0199 34.057 11.7192 33.9087 11.5635 33.6435C11.4077 33.3784 11.4274 33.0479 11.6118 32.8005L16.7579 25.8975C16.9208 25.6801 17.1821 25.5564 17.456 25.5723C17.7298 25.5864 17.9768 25.7366 18.1147 25.9717L18.12 25.9805L21.5657 31.8727L21.571 31.8815C21.7089 32.1166 21.716 32.4029 21.5925 32.6432L21.5907 32.6414ZM24.7088 29.9764C24.562 30.2255 24.2936 30.3811 23.9999 30.3811C23.7082 30.3811 23.438 30.2274 23.2912 29.9781L20.6438 25.4521C20.4971 25.203 20.4971 24.8937 20.6438 24.6445C20.7906 24.3952 21.0591 24.2398 21.3527 24.2398H26.6456C26.9373 24.2398 27.2075 24.3917 27.3543 24.6428C27.5011 24.8937 27.5011 25.2012 27.3543 25.4504L24.7088 29.9764ZM36.4383 33.6435C36.2826 33.9087 35.9836 34.0589 35.674 34.0252L27.0465 33.0779C26.7744 33.0479 26.5346 32.8853 26.4111 32.6432C26.2876 32.4012 26.2947 32.1148 26.4325 31.8815L26.4379 31.8727L29.8835 25.9805L29.8889 25.9717C30.0267 25.7366 30.2737 25.5864 30.5476 25.5723C30.8215 25.5582 31.0828 25.6801 31.2457 25.8975L36.3918 32.8005C36.5761 33.0479 36.594 33.3784 36.4401 33.6435H36.4383Z" fill="#E81899"/>
</g>
<rect x="11.8" y="38.4" width="24" height="9.6" rx="4.8" fill="#FF0420"/>
<path d="M14.7872 41.9104V41.464H17.1152V41.9104H16.2272V44.8H15.68V41.9104H14.7872ZM18.783 42.5728C18.4134 42.5728 18.1158 42.8224 18.0582 43.24H19.5222C19.5126 42.832 19.191 42.5728 18.783 42.5728ZM20.0214 44.0128C19.8726 44.4736 19.455 44.8432 18.807 44.8432C18.0486 44.8432 17.487 44.3056 17.487 43.4752C17.487 42.6448 18.0246 42.112 18.807 42.112C19.5606 42.112 20.0934 42.6352 20.0934 43.4128C20.0934 43.504 20.0886 43.5904 20.0742 43.6816H18.0534C18.0918 44.1184 18.4038 44.3824 18.807 44.3824C19.143 44.3824 19.3302 44.2192 19.431 44.0128H20.0214ZM22.6047 44.0608C22.6047 44.5072 22.2159 44.8432 21.5919 44.8432C20.9583 44.8432 20.5119 44.4688 20.4879 43.9888H21.0543C21.0735 44.2048 21.2799 44.3824 21.5823 44.3824C21.8991 44.3824 22.0671 44.248 22.0671 44.0656C22.0671 43.5472 20.5311 43.8448 20.5311 42.8752C20.5311 42.4528 20.9247 42.112 21.5487 42.112C22.1487 42.112 22.5423 42.4336 22.5711 42.9616H22.0239C22.0047 42.7312 21.8271 42.5728 21.5295 42.5728C21.2367 42.5728 21.0831 42.6928 21.0831 42.8704C21.0831 43.4032 22.5759 43.1056 22.6047 44.0608ZM23.2823 44.0656V42.6016H22.9703V42.1552H23.2823V41.4976H23.8343V42.1552H24.4775V42.6016H23.8343V44.0656C23.8343 44.2624 23.9111 44.344 24.1415 44.344H24.4775V44.8H24.0455C23.5751 44.8 23.2823 44.6032 23.2823 44.0656ZM26.8587 44.8V43.3216C26.8587 42.8368 26.5947 42.5872 26.1963 42.5872C25.7931 42.5872 25.5291 42.8368 25.5291 43.3216V44.8H24.9819V42.1552H25.5291V42.4576C25.7067 42.2416 25.9995 42.112 26.3163 42.112C26.9355 42.112 27.4011 42.5008 27.4011 43.24V44.8H26.8587ZM29.2127 42.5728C28.8431 42.5728 28.5455 42.8224 28.4879 43.24H29.9519C29.9423 42.832 29.6207 42.5728 29.2127 42.5728ZM30.4511 44.0128C30.3023 44.4736 29.8847 44.8432 29.2367 44.8432C28.4783 44.8432 27.9167 44.3056 27.9167 43.4752C27.9167 42.6448 28.4543 42.112 29.2367 42.112C29.9903 42.112 30.5231 42.6352 30.5231 43.4128C30.5231 43.504 30.5183 43.5904 30.5039 43.6816H28.4831C28.5215 44.1184 28.8335 44.3824 29.2367 44.3824C29.5727 44.3824 29.7599 44.2192 29.8607 44.0128H30.4511ZM31.148 44.0656V42.6016H30.836V42.1552H31.148V41.4976H31.7V42.1552H32.3432V42.6016H31.7V44.0656C31.7 44.2624 31.7768 44.344 32.0072 44.344H32.3432V44.8H31.9112C31.4408 44.8 31.148 44.6032 31.148 44.0656Z" fill="white"/>
</g>
<defs>
<clipPath id="clip0_14250_551">
<rect width="48" height="48" rx="24" fill="white"/>
</clipPath>
</defs>
</svg>
