<svg width="48" height="48" viewBox="0 0 48 48" fill="none" xmlns="http://www.w3.org/2000/svg">
<rect width="48" height="48" rx="24" fill="#E81899"/>
<path d="M38.7432 30.8106L33.4689 23.7875C32.8958 23.0245 32.0474 22.5672 31.144 22.4664C30.9383 22.4431 30.7546 22.3261 30.6517 22.1497C30.547 21.9733 30.5361 21.7591 30.6187 21.5719C30.9804 20.7549 31.0025 19.8063 30.6133 18.9388L27.0448 10.951C26.5161 9.76494 25.3205 9 24 9C22.6795 9 21.484 9.76675 20.9552 10.951L17.3869 18.9388C16.9994 19.8063 17.0196 20.7549 17.3813 21.5719C17.464 21.7591 17.4511 21.9733 17.3483 22.1497C17.2436 22.3261 17.0618 22.4431 16.8561 22.4664C15.9526 22.5672 15.1041 23.0245 14.5311 23.7875L9.25677 30.8106C8.47443 31.8527 8.39545 33.2493 9.05475 34.3708C9.7159 35.4902 10.9904 36.122 12.3017 35.9798L21.1444 35.0149C22.1048 34.9106 22.933 34.4191 23.4729 33.7029C23.596 33.5391 23.7925 33.4419 24 33.4419C24.2076 33.4419 24.4022 33.5391 24.5271 33.7029C25.067 34.4191 25.8952 34.9106 26.8557 35.0149L35.6984 35.9798C37.0096 36.1238 38.2842 35.492 38.9453 34.3708C39.6047 33.2493 39.5257 31.8527 38.7432 30.8106ZM19.6935 19.9412L23.2672 11.9446C23.3958 11.6584 23.6841 11.473 24.0018 11.473C24.3196 11.473 24.6079 11.6584 24.7365 11.9446L28.3102 19.9412C28.4222 20.1933 28.3983 20.4849 28.2442 20.7152C28.0899 20.9456 27.8291 21.0841 27.5462 21.0841H20.4557C20.1746 21.0841 19.912 20.9456 19.7578 20.7152C19.6035 20.4849 19.5796 20.1933 19.6916 19.9412H19.6935ZM21.5281 32.1155C21.4013 32.362 21.1553 32.5276 20.8763 32.5582L12.0243 33.5229C11.7085 33.5571 11.3999 33.4058 11.2402 33.1359C11.0804 32.866 11.1006 32.5294 11.2897 32.2775L16.5696 25.2473C16.7368 25.0258 17.0049 24.8998 17.2858 24.916C17.5668 24.9304 17.8203 25.0835 17.9617 25.3229L17.9672 25.3318L21.5024 31.3324L21.5079 31.3416C21.6494 31.5809 21.6567 31.8725 21.5299 32.1173L21.5281 32.1155ZM24.7272 29.4012C24.5767 29.6551 24.3011 29.8135 24 29.8135C23.7007 29.8135 23.4233 29.6568 23.2728 29.403L20.5567 24.7937C20.406 24.54 20.406 24.2249 20.5567 23.9712C20.7072 23.7174 20.9828 23.5589 21.2839 23.5589H26.7143C27.0136 23.5589 27.291 23.7138 27.4415 23.9693C27.5922 24.2249 27.5922 24.5382 27.4415 24.7919L24.7272 29.4012ZM36.7618 33.1359C36.602 33.4058 36.2952 33.5589 35.9775 33.5247L27.1256 32.56C26.8466 32.5294 26.6005 32.3638 26.4738 32.1173C26.347 31.8707 26.3543 31.5791 26.4958 31.3416L26.5013 31.3324L30.0365 25.3318L30.042 25.3229C30.1834 25.0835 30.4369 24.9304 30.718 24.916C30.9988 24.9017 31.2669 25.0258 31.434 25.2473L36.714 32.2775C36.9031 32.5294 36.9215 32.866 36.7636 33.1359H36.7618Z" fill="#FAFAFA"/>
</svg>
