<svg width="120" height="120" viewBox="0 0 120 120" fill="none" xmlns="http://www.w3.org/2000/svg">
<rect width="120" height="120" rx="12" fill="black"/>
<path d="M42.4817 93C58.0724 93 68.2144 84.86 68.2144 72.6133C68.2144 63.1167 62.0471 57.0813 51.0177 54.5807L43.9411 52.487C37.7297 51.112 34.1034 49.462 34.9577 45.2453C35.6691 41.7363 37.7921 39.7563 42.7384 39.7563C58.4501 39.7563 64.2727 45.2453 64.2727 45.2453V32.0453C64.2727 32.0453 58.6041 27 42.7384 27C27.7784 27 19.6641 34.59 19.6641 46.3343C19.6641 55.831 25.2887 61.3567 36.6957 63.9783L37.9204 64.2827C39.6547 64.8107 41.9977 65.511 44.9457 66.38C50.7757 67.755 52.2754 69.2143 52.2754 73.5887C52.2754 77.5853 48.0587 79.8587 42.4854 79.8587C26.4144 79.8587 19.6641 71.847 19.6641 71.847V86.4733C19.6641 86.4733 23.8881 93 42.4817 93Z" fill="white"/>
<path d="M90.7066 92.0093C96.225 92.0093 100.335 88.075 100.335 82.7474C100.335 77.306 96.3423 73.4854 90.7066 73.4854C85.1883 73.4854 81.1953 77.306 81.1953 82.7474C81.1953 88.1887 85.1883 92.0093 90.7066 92.0093Z" fill="#E80000"/>
</svg>
