<svg width="48" height="48" viewBox="0 0 48 48" fill="none" xmlns="http://www.w3.org/2000/svg">
<rect width="48" height="48" rx="24" fill="#F7931A"/>
<path d="M34.5757 20.5808C35.0534 17.3873 32.6219 15.6705 29.2972 14.5253L30.3757 10.1993L27.7424 9.543L26.6924 13.755C26.0002 13.5825 25.2892 13.4198 24.5827 13.2585L25.6402 9.01875L23.0084 8.3625L21.9292 12.687C21.3562 12.5565 20.7937 12.4275 20.2477 12.2918L20.2507 12.2783L16.6192 11.3715L15.9187 14.184C15.9187 14.184 17.8724 14.6318 17.8312 14.6595C18.8977 14.9258 19.0904 15.6315 19.0582 16.191L17.8297 21.1193C17.9032 21.138 17.9984 21.165 18.1034 21.207C18.0157 21.1853 17.9219 21.1613 17.8252 21.138L16.1032 28.0418C15.9727 28.3658 15.6419 28.8518 14.8964 28.6673C14.9227 28.7055 12.9824 28.1895 12.9824 28.1895L11.6752 31.2038L15.1019 32.058C15.7394 32.2178 16.3642 32.385 16.9792 32.5425L15.8894 36.918L18.5197 37.5742L19.5989 33.2453C20.3174 33.4403 21.0149 33.6203 21.6974 33.7898L20.6219 38.0985L23.2552 38.7548L24.3449 34.3875C28.8352 35.2372 32.2117 34.8945 33.6329 30.8333C34.7782 27.5633 33.5759 25.677 31.2134 24.447C32.9339 24.0503 34.2299 22.9185 34.5757 20.5808ZM28.5592 29.0175C27.7454 32.2875 22.2397 30.5198 20.4547 30.0765L21.9007 24.2798C23.6857 24.7253 29.4097 25.6073 28.5592 29.0175ZM29.3737 20.5335C28.6312 23.508 24.0487 21.9968 22.5622 21.6263L23.8732 16.3688C25.3597 16.7393 30.1469 17.4308 29.3737 20.5335Z" fill="white"/>
</svg>
