<svg width="48" height="48" viewBox="0 0 48 48" fill="none" xmlns="http://www.w3.org/2000/svg">
<rect width="48" height="48" rx="24" fill="#F0B90B"/>
<path fill-rule="evenodd" clip-rule="evenodd" d="M28.1 11.45L23.95 7.2L13.5 17.75L17.65 21.9L28.1 11.45ZM34.4 17.75L30.25 13.5L13.5 30.35L17.65 34.5L34.4 17.75ZM11.35 19.8L15.5 24.05L11.35 28.2L7.2 24.05L11.35 19.8ZM40.7 24.05L36.55 19.8L19.8 36.65L23.95 40.8L40.7 24.05Z" fill="white"/>
<path d="M23.95 7.2L23.9858 7.16506L23.9503 7.12869L23.9145 7.16481L23.95 7.2ZM28.1 11.45L28.1354 11.4854L28.1703 11.4504L28.1358 11.4151L28.1 11.45ZM13.5 17.75L13.4645 17.7148L13.4295 17.7502L13.4646 17.7854L13.5 17.75ZM17.65 21.9L17.6146 21.9354L17.65 21.9707L17.6854 21.9354L17.65 21.9ZM30.25 13.5L30.2858 13.4651L30.2503 13.4288L30.2145 13.4647L30.25 13.5ZM34.4 17.75L34.4354 17.7854L34.4703 17.7504L34.4358 17.7151L34.4 17.75ZM13.5 30.35L13.4645 30.3147L13.4294 30.3501L13.4646 30.3854L13.5 30.35ZM17.65 34.5L17.6146 34.5354L17.65 34.5707L17.6854 34.5354L17.65 34.5ZM15.5 24.05L15.5354 24.0854L15.5703 24.0504L15.5358 24.0151L15.5 24.05ZM11.35 19.8L11.3858 19.7651L11.35 19.7284L11.3142 19.7651L11.35 19.8ZM11.35 28.2L11.3146 28.2353L11.35 28.2707L11.3854 28.2353L11.35 28.2ZM7.2 24.05L7.16423 24.0151L7.12971 24.0504L7.16464 24.0854L7.2 24.05ZM36.55 19.8L36.5858 19.7651L36.5503 19.7288L36.5145 19.7647L36.55 19.8ZM40.7 24.05L40.7354 24.0854L40.7703 24.0504L40.7358 24.0151L40.7 24.05ZM19.8 36.65L19.7645 36.6147L19.7294 36.6501L19.7646 36.6854L19.8 36.65ZM23.95 40.8L23.9146 40.8354L23.95 40.8707L23.9854 40.8354L23.95 40.8ZM23.9142 7.23493L28.0642 11.4849L28.1358 11.4151L23.9858 7.16506L23.9142 7.23493ZM13.5355 17.7852L23.9855 7.23518L23.9145 7.16481L13.4645 17.7148L13.5355 17.7852ZM17.6854 21.8646L13.5354 17.7146L13.4646 17.7854L17.6146 21.9354L17.6854 21.8646ZM28.0646 11.4146L17.6146 21.8646L17.6854 21.9354L28.1354 11.4854L28.0646 11.4146ZM30.2142 13.5349L34.3642 17.7849L34.4358 17.7151L30.2858 13.4651L30.2142 13.5349ZM13.5355 30.3852L30.2855 13.5352L30.2145 13.4647L13.4645 30.3147L13.5355 30.3852ZM17.6854 34.4646L13.5354 30.3146L13.4646 30.3854L17.6146 34.5354L17.6854 34.4646ZM34.3646 17.7146L17.6146 34.4646L17.6854 34.5354L34.4354 17.7854L34.3646 17.7146ZM15.5358 24.0151L11.3858 19.7651L11.3142 19.8349L15.4642 24.0849L15.5358 24.0151ZM11.3854 28.2353L15.5354 24.0854L15.4646 24.0146L11.3146 28.1646L11.3854 28.2353ZM7.16464 24.0854L11.3146 28.2353L11.3854 28.1646L7.23535 24.0146L7.16464 24.0854ZM11.3142 19.7651L7.16423 24.0151L7.23577 24.0849L11.3858 19.8349L11.3142 19.7651ZM36.5142 19.8349L40.6642 24.0849L40.7358 24.0151L36.5858 19.7651L36.5142 19.8349ZM19.8355 36.6852L36.5855 19.8352L36.5145 19.7647L19.7645 36.6147L19.8355 36.6852ZM23.9854 40.7646L19.8354 36.6146L19.7646 36.6854L23.9146 40.8354L23.9854 40.7646ZM40.6646 24.0146L23.9146 40.7646L23.9854 40.8354L40.7354 24.0854L40.6646 24.0146Z" fill="#F0B90B"/>
</svg>
