<svg width="48" height="48" viewBox="0 0 48 48" fill="none" xmlns="http://www.w3.org/2000/svg">
<rect width="48" height="48" rx="24" fill="#EDF0F4"/>
<g clip-path="url(#clip0_14246_2145)">
<path fill-rule="evenodd" clip-rule="evenodd" d="M13.2416 12.45C12.7117 9.72 14.8315 7.2 17.5874 7.2C20.0252 7.2 22.0391 9.195 22.0391 11.61V17.07C22.6751 17.07 23.311 16.965 23.947 16.965C24.583 16.965 25.1129 16.965 25.7489 17.07V11.61C25.7489 9.195 27.7628 7.2 30.2006 7.2C32.9565 7.2 35.0763 9.72 34.6524 12.45L33.4864 18.855C37.6202 20.64 40.8 23.79 40.8 27.675V30.09C40.8 33.345 38.6801 36.075 35.6063 37.86C32.5325 39.75 28.5047 40.8 23.947 40.8C19.3893 40.8 15.3615 39.75 12.2877 37.86C9.31987 36.075 7.2 33.345 7.2 30.09V27.675C7.2 23.79 10.2738 20.64 14.4076 18.855L13.2416 12.45ZM31.8965 19.695L33.2744 12.135C33.5924 10.245 32.2145 8.46 30.2006 8.46C28.5047 8.46 27.1268 9.825 27.1268 11.505V18.435C26.7035 18.435 26.1729 18.33 25.7489 18.33C25.1129 18.33 24.583 18.225 23.947 18.225C23.311 18.225 22.6751 18.225 22.0391 18.33C21.6151 18.33 20.8088 18.54 20.3848 18.54L20.5975 11.82C20.5975 10.14 19.2833 8.565 17.5874 8.565C15.6795 8.565 14.1956 10.35 14.6196 12.24L15.9975 19.8C11.5457 21.48 8.57791 24.42 8.57791 27.78V30.195C8.57791 35.34 15.4675 39.54 23.947 39.54C32.4265 39.54 39.3161 35.34 39.3161 30.195V27.78C39.4221 24.315 36.4543 21.375 31.8965 19.695Z" fill="#633001"/>
<path d="M39.5241 30.195C39.5241 35.34 32.4822 39.54 23.9467 39.54C15.4111 39.54 8.47595 35.34 8.47595 30.195V27.78H39.5241V30.195Z" fill="#FEDC90"/>
<path fill-rule="evenodd" clip-rule="evenodd" d="M14.4714 12.135C14.0432 10.245 15.5421 8.46 17.4692 8.46C19.1822 8.46 20.5975 9.93 20.5975 11.82L20.574 18.435C21.6446 18.33 22.7153 18.225 23.8929 18.225C24.9636 18.225 26.0342 18.33 27.1048 18.435V11.505C27.1048 9.825 28.4966 8.46 30.2096 8.46C32.1367 8.46 33.6356 10.245 33.3144 12.135L31.9226 19.695C36.4192 21.375 39.5241 24.315 39.5241 27.675C39.5241 32.82 32.565 37.02 24 37.02C15.435 37.02 8.47595 32.82 8.47595 27.675C8.47595 24.315 11.4737 21.375 15.9703 19.695L14.4714 12.135Z" fill="#D1884F"/>
<path d="M19.7073 27.045C19.7073 28.41 18.9653 29.565 18.0114 29.565C17.0574 29.565 16.3155 28.41 16.3155 27.045C16.3155 25.68 17.0574 24.525 18.0114 24.525C18.9653 24.525 19.7073 25.68 19.7073 27.045Z" fill="#633001"/>
<path d="M31.4726 27.045C31.4726 28.41 30.7306 29.565 29.7767 29.565C28.8227 29.565 28.0808 28.41 28.0808 27.045C28.0808 25.68 28.8227 24.525 29.7767 24.525C30.7306 24.525 31.4726 25.68 31.4726 27.045Z" fill="#633001"/>
</g>
<defs>
<clipPath id="clip0_14246_2145">
<rect width="33.6" height="33.6" fill="white" transform="translate(7.2 7.2)"/>
</clipPath>
</defs>
</svg>
