<svg width="48" height="48" viewBox="0 0 48 48" fill="none" xmlns="http://www.w3.org/2000/svg">
<rect width="48" height="48" rx="24" fill="#EDF0F4"/>
<path d="M13.4173 21.0988L16.0654 9.8L27.0111 15.6259L13.4173 21.0988Z" fill="#BACFF6"/>
<path d="M27.0111 15.6259L16.0654 9.8H32.6605L27.0111 15.6259Z" fill="#C7F8FE"/>
<path d="M40.958 24.1L32.6605 9.8L27.0111 15.6259L40.958 24.1Z" fill="#BACFF6"/>
<path d="M28.6 32.0444L27.0111 15.6259L40.958 24.1L28.6 32.0444Z" fill="#B6C1EA"/>
<path d="M27.0111 15.6259L28.6 32.0444L13.4173 21.0988L27.0111 15.6259Z" fill="#B2B4DD"/>
<path d="M16.0654 38.4L13.4173 21.0988L28.6 32.0444L16.0654 38.4Z" fill="#AE99C6"/>
<path d="M13.4173 21.0988L7.7679 24.2765L16.0654 38.4L13.4173 21.0988Z" fill="#B0A6D2"/>
<path d="M32.837 38.4H16.0654L28.6 32.0444L32.837 38.4Z" fill="#AA7DAC"/>
<path d="M40.958 24.1L28.6 32.0444L32.837 38.4L40.958 24.1Z" fill="#AB8BBA"/>
<path d="M13.4173 21.0988L16.0654 9.8L7.7679 24.2765L13.4173 21.0988Z" fill="#C7F8FE"/>
</svg>
