<svg width="48" height="48" viewBox="0 0 48 48" fill="none" xmlns="http://www.w3.org/2000/svg">
<g clip-path="url(#clip0_14253_1823)">
<path d="M39.5136 24C39.5136 15.4321 32.5679 8.4864 24 8.4864C15.4321 8.4864 8.4864 15.4321 8.4864 24C8.4864 32.5679 15.4321 39.5136 24 39.5136C32.5679 39.5136 39.5136 32.5679 39.5136 24Z" fill="#D9D9D9" stroke="#B7F7B0" stroke-width="15.6672"/>
<path d="M36.9024 24C36.9024 16.8742 31.1258 11.0976 24 11.0976C16.8742 11.0976 11.0976 16.8742 11.0976 24C11.0976 31.1258 16.8742 36.9024 24 36.9024C31.1258 36.9024 36.9024 31.1258 36.9024 24Z" fill="#D9D9D9" stroke="#07DC10" stroke-width="10.4448"/>
<path d="M34.2912 24C34.2912 18.3163 29.6837 13.7088 24 13.7088C18.3163 13.7088 13.7088 18.3163 13.7088 24C13.7088 29.6837 18.3163 34.2912 24 34.2912C29.6837 34.2912 34.2912 29.6837 34.2912 24Z" fill="#D9D9D9" stroke="#0C9B00" stroke-width="5.2224"/>
<path d="M31.68 24C31.68 19.7585 28.2416 16.32 24 16.32C19.7585 16.32 16.32 19.7585 16.32 24C16.32 28.2416 19.7585 31.68 24 31.68C28.2416 31.68 31.68 28.2416 31.68 24Z" fill="#EAEAEA"/>
</g>
<defs>
<clipPath id="clip0_14253_1823">
<rect width="48" height="48" rx="24" fill="white"/>
</clipPath>
</defs>
</svg>
