<svg width="48" height="48" viewBox="0 0 48 48" fill="none" xmlns="http://www.w3.org/2000/svg">
<rect width="48" height="48" rx="24" fill="#F5AC37"/>
<path d="M24.8845 25.6945H34.0041C34.1985 25.6945 34.2903 25.6945 34.3044 25.4397C34.3789 24.5119 34.3789 23.5788 34.3044 22.65C34.3044 22.4696 34.2147 22.3951 34.0192 22.3951H15.8697C15.645 22.3951 15.5845 22.4696 15.5845 22.6802V25.35C15.5845 25.6945 15.5845 25.6945 15.9442 25.6945H24.8845ZM33.2859 19.275C33.3118 19.2069 33.3118 19.1324 33.2859 19.0654C33.1336 18.7339 32.9533 18.4174 32.7438 18.1204C32.4284 17.6128 32.0569 17.1452 31.6335 16.725C31.4337 16.4712 31.2026 16.2434 30.9434 16.05C29.6452 14.9452 28.1019 14.1633 26.443 13.7701C25.606 13.5822 24.7506 13.4926 23.8931 13.5001H15.8383C15.6137 13.5001 15.5835 13.5898 15.5835 13.7853V19.1097C15.5835 19.3344 15.5835 19.3948 15.8686 19.3948H33.1779C33.1779 19.3948 33.328 19.3646 33.3583 19.275H33.2848H33.2859ZM33.2859 28.8147C33.031 28.7866 32.774 28.7866 32.5191 28.8147H15.8848C15.6601 28.8147 15.5845 28.8147 15.5845 29.1149V34.3206C15.5845 34.5603 15.5845 34.6208 15.8848 34.6208H23.5647C23.9319 34.6489 24.2992 34.623 24.6588 34.5463C25.7734 34.4664 26.8696 34.2245 27.915 33.8259C28.2952 33.6942 28.6624 33.5225 29.0091 33.3162H29.1138C30.9142 32.3798 32.3766 30.9088 33.2989 29.1031C33.2989 29.1031 33.4036 28.8762 33.2859 28.8168V28.8147ZM12.5702 37.3198V37.2301V33.7352V32.5504V29.0253C12.5702 28.8298 12.5702 28.8006 12.3305 28.8006H9.07532C8.89496 28.8006 8.82043 28.8006 8.82043 28.5609V25.7107H12.3002C12.4946 25.7107 12.5702 25.7107 12.5702 25.4559V22.6359C12.5702 22.4556 12.5702 22.4113 12.3305 22.4113H9.07532C8.89496 22.4113 8.82043 22.4113 8.82043 22.1715V19.532C8.82043 19.3668 8.82043 19.3225 9.0602 19.3225H12.2851C12.5098 19.3225 12.5702 19.3225 12.5702 19.0374V10.9524C12.5702 10.7126 12.5702 10.6521 12.8705 10.6521H24.1199C24.9364 10.6845 25.7474 10.7742 26.5499 10.9221C28.2034 11.2278 29.7921 11.8186 31.2447 12.662C32.2081 13.2291 33.0948 13.9138 33.8842 14.7022C34.4783 15.3189 35.0139 15.9863 35.4891 16.697C35.9611 17.4173 36.3532 18.1874 36.661 18.992C36.6988 19.2015 36.8996 19.343 37.1092 19.3074H39.7941C40.1386 19.3074 40.1386 19.3074 40.1537 19.6378V22.0981C40.1537 22.3379 40.0641 22.3983 39.8232 22.3983H37.7528C37.5433 22.3983 37.4828 22.3983 37.498 22.6683C37.58 23.582 37.58 24.499 37.498 25.4127C37.498 25.6675 37.498 25.6978 37.7842 25.6978H40.1526C40.2574 25.8328 40.1526 25.9678 40.1526 26.1039C40.1677 26.2777 40.1677 26.4538 40.1526 26.6277V28.4432C40.1526 28.698 40.0781 28.7736 39.8524 28.7736H37.0174C36.8197 28.7358 36.6275 28.8622 36.5821 29.0588C35.9071 30.8138 34.8271 32.3874 33.4317 33.6488C32.922 34.1078 32.3863 34.5398 31.8268 34.9383C31.2263 35.284 30.6421 35.6436 30.0264 35.9287C28.8935 36.4385 27.7055 36.8143 26.4862 37.053C25.3284 37.2604 24.1544 37.3543 22.9761 37.3381H12.5659V37.323L12.5702 37.3198Z" fill="#FEFEFD"/>
</svg>
