<svg width="48" height="48" viewBox="0 0 48 48" fill="none" xmlns="http://www.w3.org/2000/svg">
<rect width="48" height="48" rx="24" fill="#1B165F"/>
<path d="M40.7263 25.9746L39.4502 20.9948C39.4137 20.8483 39.2958 20.7344 39.1494 20.6978L34.2195 19.4813C34.1829 19.4732 34.1422 19.4691 34.1058 19.4691C33.9879 19.4569 33.866 19.4935 33.7766 19.5831L25.4569 27.9112L24.3555 23.6067C24.3188 23.4603 24.2012 23.3464 24.0547 23.3097L19.8197 22.2641L28.1353 13.9401C28.1841 13.8913 28.2125 13.8302 28.2328 13.7692C28.2694 13.6878 28.2816 13.5942 28.2573 13.5047L26.981 8.52493C26.9444 8.37847 26.8265 8.26456 26.6802 8.22794L21.7503 7.01147C21.6527 6.98705 21.5552 7.00333 21.4698 7.04402H21.4658C21.4414 7.05623 21.4211 7.0725 21.3967 7.08878C21.3764 7.10504 21.3479 7.11318 21.3317 7.13351L7.13923 21.3324C7.13923 21.3324 7.11484 21.3732 7.09858 21.3935C7.00917 21.4993 6.97666 21.6376 7.0173 21.7718L8.3951 26.5848C8.43573 26.7232 8.54144 26.829 8.67554 26.8656L13.2926 28.1919L14.6175 32.8096C14.6581 32.9479 14.7638 33.0537 14.898 33.0903L19.5312 34.4207L20.8602 39.0587C20.9009 39.1971 21.0065 39.3029 21.1406 39.3395L25.969 40.7268C26.0056 40.7391 26.0463 40.7432 26.0828 40.7432C26.0909 40.7432 26.0991 40.7391 26.1112 40.7391C26.1112 40.7391 26.1153 40.7391 26.1194 40.7391C26.225 40.7391 26.3307 40.6984 26.412 40.617L40.6084 26.4058C40.6573 26.357 40.6858 26.296 40.706 26.2349C40.7426 26.1536 40.7549 26.06 40.7304 25.9705L40.7263 25.9746ZM34.3618 31.4955L33.3254 27.4474L35.6217 25.1528L39.568 26.2879L34.3658 31.4996L34.3618 31.4955ZM26.3105 39.5551L25.274 35.507L29.4277 31.349L33.3741 32.4841L26.3105 39.5551ZM29.5132 30.1L28.5213 26.6418L32.0857 27.5206L29.5132 30.0959V30.1ZM32.6506 28.1227L33.5611 31.6745L30.0943 30.6777L32.6506 28.1187V28.1227ZM32.7685 26.8412L28.7285 25.8444L33.9188 20.649L35.0405 24.5669L32.7685 26.8412ZM27.7247 26.8452L28.8466 30.7631L24.7131 34.9008L20.6733 33.904L27.7247 26.8452ZM38.7146 21.4301L39.7509 25.4783L35.8329 24.3512L34.7112 20.4415L38.7146 21.4301ZM20.0636 33.3019L19.0273 29.2538L20.5229 27.7566L24.4692 28.8917L20.0636 33.3019ZM20.6082 26.5076L19.6165 23.0493L23.1809 23.9282L20.6082 26.5035V26.5076ZM24.6562 28.0861L21.1894 27.0893L23.7459 24.5303L24.6562 28.0821V28.0861ZM19.9458 27.1748L18.4705 28.6516L14.4305 27.6549L18.824 23.2568L19.9458 27.1748ZM15.2962 14.3307L16.418 18.2486L12.248 22.4228L8.20814 21.426L15.2962 14.3307ZM21.4536 8.16692L22.5754 12.0848L20.34 14.3225L16.3001 13.3257L21.4536 8.16692ZM21.9332 18.9768L20.8968 14.9328L23.1566 12.6707L27.1029 13.8017L21.9332 18.9768ZM17.0845 17.5854L16.0928 14.1272L19.6572 15.006L17.0845 17.5814V17.5854ZM20.2221 15.6081L21.1325 19.1599L17.6698 18.1631L20.2262 15.6041L20.2221 15.6081ZM17.0032 18.8304L20.9497 19.9614L13.8494 27.069L12.8129 23.0249L17.0032 18.8304ZM26.2495 8.95619L27.2858 13.0043L23.3678 11.8773L22.2462 7.96756L26.2495 8.95619ZM8.00494 22.2275L11.5693 23.1063L8.99661 25.6816L8.00494 22.2235V22.2275ZM9.5778 26.2675L12.1342 23.7085L13.0446 27.2602L9.58187 26.2634L9.5778 26.2675ZM15.345 32.3661L14.2233 28.4564L18.2266 29.445L19.2629 33.4931L15.345 32.3661ZM20.47 34.7055L24.0344 35.5843L21.4618 38.1596L20.47 34.7015V34.7055ZM22.043 38.7455L24.5993 36.1865L25.5097 39.7382L22.043 38.7414V38.7455Z" fill="url(#paint0_linear_14255_1861)"/>
<defs>
<linearGradient id="paint0_linear_14255_1861" x1="36" y1="18" x2="14.5" y2="32.5" gradientUnits="userSpaceOnUse">
<stop stop-color="#9D72FF"/>
<stop offset="1" stop-color="#63C0FF"/>
</linearGradient>
</defs>
</svg>
