<svg width="48" height="48" viewBox="0 0 48 48" fill="none" xmlns="http://www.w3.org/2000/svg">
<rect width="48" height="48" rx="24" fill="#1FEFA4"/>
<path fill-rule="evenodd" clip-rule="evenodd" d="M8 17.8462C8 12.4083 12.4083 8 17.8462 8H30.1538C35.5918 8 40 12.4083 40 17.8462V30.1538C40 35.5918 35.5918 40 30.1538 40H17.8462C12.4083 40 8 35.5918 8 30.1538V17.8462ZM17.8462 11.9385H30.1538C33.4166 11.9385 36.0615 14.5834 36.0615 17.8462V30.1538C36.0615 33.4166 33.4166 36.0615 30.1538 36.0615H17.8462C14.5834 36.0615 11.9385 33.4166 11.9385 30.1538V17.8462C11.9385 14.5834 14.5834 11.9385 17.8462 11.9385ZM29.9713 18.3384C28.6118 18.3384 27.5098 19.4405 27.5098 20.7999V21.7845C27.5098 23.144 28.6118 24.2461 29.9713 24.2461H30.9559C32.3154 24.2461 33.4174 23.144 33.4174 21.7845V20.7999C33.4174 19.4405 32.3154 18.3384 30.9559 18.3384H29.9713ZM27.5098 29.6615C27.5098 28.302 28.6118 27.2 29.9713 27.2H30.9559C32.3154 27.2 33.4174 28.302 33.4174 29.6615V30.6461C33.4174 32.0056 32.3154 33.1076 30.9559 33.1076H29.9713C28.6118 33.1076 27.5098 32.0056 27.5098 30.6461V29.6615Z" fill="black"/>
</svg>
