<svg width="48" height="48" viewBox="0 0 48 48" fill="none" xmlns="http://www.w3.org/2000/svg">
<rect width="48" height="48" rx="24" fill="#151716"/>
<path d="M9.7632 22.5839L19.2332 8.88501L23.9994 15.8252L19.1657 22.7678H9.85954C9.8384 22.7674 9.81776 22.7613 9.79976 22.7502C9.78177 22.739 9.76708 22.7232 9.75723 22.7045C9.74739 22.6857 9.74275 22.6646 9.7438 22.6434C9.74485 22.6222 9.75155 22.6016 9.7632 22.5839Z" fill="#7E49FC"/>
<path d="M38.2363 22.5839L28.7663 8.88501L24.0024 15.8252L28.8337 22.7678H38.1399C38.1611 22.7674 38.1817 22.7613 38.1997 22.7502C38.2177 22.739 38.2324 22.7232 38.2422 22.7045C38.2521 22.6857 38.2567 22.6646 38.2556 22.6434C38.2546 22.6222 38.2479 22.6016 38.2363 22.5839Z" fill="#7E49FC"/>
<path d="M38.3989 24.5636C38.4236 26.4785 38.0694 28.3793 37.3568 30.1557C36.6442 31.932 35.5876 33.5485 34.2481 34.9114C32.9086 36.2743 31.3129 37.3565 29.5537 38.095C27.7945 38.8336 25.9068 39.214 24.0001 39.214C22.0934 39.214 20.2057 38.8336 18.4465 38.095C16.6873 37.3565 15.0916 36.2743 13.7521 34.9114C12.4126 33.5485 11.356 31.932 10.6434 30.1557C9.93086 28.3793 9.57664 26.4785 9.6013 24.5636H18.7534C18.7384 25.2645 18.8629 25.9614 19.1196 26.6133C19.3763 27.2652 19.7601 27.8591 20.2483 28.3601C20.7365 28.8612 21.3195 29.2592 21.9629 29.5309C22.6063 29.8027 23.2973 29.9427 23.9953 29.9427C24.6933 29.9427 25.3843 29.8027 26.0277 29.5309C26.6711 29.2592 27.254 28.8612 27.7423 28.3601C28.2305 27.8591 28.6142 27.2652 28.871 26.6133C29.1277 25.9614 29.2522 25.2645 29.2372 24.5636H38.3989Z" fill="#0066FF"/>
</svg>
