<svg width="48" height="48" viewBox="0 0 48 48" fill="none" xmlns="http://www.w3.org/2000/svg">
<path d="M24 0C10.7455 0 0 10.7455 0 24C0 37.2545 10.7455 48 24 48C37.2545 48 48 37.2545 48 24C48 10.7455 37.2545 0 24 0ZM16.3826 30.6715L13.1143 27.1137C12.9006 26.8819 12.6413 26.6968 12.3526 26.57C12.064 26.4432 11.7522 26.3775 11.4369 26.377H9.61113V30.653H7.64006V24.4049H11.4369C12.0255 24.4056 12.6076 24.5282 13.1465 24.765C13.6854 25.0017 14.1694 25.3475 14.5682 25.7805L18.4279 29.9833L19.1038 30.6684L16.3826 30.6715ZM18.4309 18.0446L14.563 22.2556C14.1644 22.687 13.681 23.0315 13.1431 23.2673C12.6051 23.5031 12.0243 23.6252 11.4369 23.626H7.64006V17.3779H9.61113V21.6549H11.4369C11.7526 21.6546 12.0648 21.5888 12.3539 21.4619C12.6429 21.3349 12.9026 21.1494 13.1164 20.9172L16.3826 17.3594H19.1069L18.4309 18.0446ZM25.1818 30.6623H23.2077V19.4118H20.0084V17.4408H25.1787L25.1818 30.6623ZM28.9138 19.418H26.1936V17.4459H28.9138V19.418ZM40.363 21.8208H38.3889V20.1836C38.3886 19.9492 38.2954 19.7245 38.1296 19.5588C37.9639 19.393 37.7392 19.2998 37.5048 19.2995H33.0558C32.8214 19.2998 32.5967 19.393 32.431 19.5588C32.2652 19.7245 32.172 19.9492 32.1717 20.1836V27.7783C32.1723 28.0125 32.2656 28.2369 32.4313 28.4024C32.597 28.568 32.8216 28.661 33.0558 28.6613H37.5048C37.739 28.661 37.9636 28.568 38.1293 28.4024C38.295 28.2369 38.3883 28.0125 38.3889 27.7783V26.14H40.3599V27.7783C40.3588 28.5351 40.0577 29.2606 39.5224 29.7956C38.9872 30.3306 38.2616 30.6316 37.5048 30.6324H33.0558C32.299 30.6316 31.5734 30.3306 31.0382 29.7956C30.5029 29.2606 30.2018 28.5351 30.2007 27.7783V20.1836C30.2015 19.4266 30.5025 18.7009 31.0378 18.1656C31.5731 17.6304 32.2988 17.3293 33.0558 17.3285H37.5048C38.2618 17.3293 38.9875 17.6304 39.5228 18.1656C40.0581 18.7009 40.3591 19.4266 40.3599 20.1836L40.363 21.8208Z" fill="url(#paint0_linear_13046_58120)"/>
<defs>
<linearGradient id="paint0_linear_13046_58120" x1="24" y1="1.66402" x2="24" y2="51.8175" gradientUnits="userSpaceOnUse">
<stop stop-color="#54F5FF"/>
<stop offset="1" stop-color="#38CDEE"/>
</linearGradient>
</defs>
</svg>
