<svg width="48" height="48" viewBox="0 0 48 48" fill="none" xmlns="http://www.w3.org/2000/svg">
<g clip-path="url(#clip0_13044_2131)">
<path d="M24 48C37.2548 48 48 37.2548 48 24C48 10.7452 37.2548 0 24 0C10.7452 0 0 10.7452 0 24C0 37.2548 10.7452 48 24 48Z" fill="#F9FAFB"/>
<g clip-path="url(#clip1_13044_2131)">
<path d="M17.6309 19.9235L24.0002 16.6385V7.65955L17.6309 19.9235Z" fill="#FF596E"/>
<path d="M24 16.6385V23.7929L30.3693 19.9235L24 16.6385Z" fill="#FF596E"/>
<path d="M24.0002 16.6385V23.7929L17.6309 19.9235L24.0002 16.6385Z" fill="#800010"/>
<path d="M30.3693 19.9235L24 16.6385V7.65955L30.3693 19.9235Z" fill="#800010"/>
<path d="M23.9992 26.5547V34.18L17.5074 22.6105L23.9992 26.5547Z" fill="#FF596E"/>
<path d="M24 26.5547V34.18L30.4918 22.6105L24 26.5547Z" fill="#800010"/>
<path d="M31.5637 24.3579L33.0344 28.9467L36.2553 22.9645L31.5637 24.3579Z" fill="#800010"/>
<path d="M33.0339 28.9467L36.2548 27.8857V22.9645L33.0339 28.9467Z" fill="#FF596E"/>
<path d="M36.2538 27.8857L31.5623 36.6015L27.9985 38.2979L33.033 28.9467L36.2538 27.8857Z" fill="#800010"/>
<path d="M11.7446 27.8857L16.4362 36.6015L19.9999 38.2978L14.9655 28.9467L11.7446 27.8857Z" fill="#FF596E"/>
<path d="M24 38.2978L16.4367 24.3579L14.9661 28.9467L20.0005 38.2978H24Z" fill="#800010"/>
<path d="M16.4362 24.3579L14.9655 28.9467L11.7446 22.9645L16.4362 24.3579Z" fill="#FF596E"/>
<path d="M14.9655 28.9467L11.7446 27.8857V22.9645L14.9655 28.9467Z" fill="#800010"/>
<path d="M24 38.2978L31.5633 24.3579L33.034 28.9467L27.9996 38.2978H24Z" fill="#FF596E"/>
</g>
</g>
<defs>
<clipPath id="clip0_13044_2131">
<rect width="48" height="48" fill="white"/>
</clipPath>
<clipPath id="clip1_13044_2131">
<rect width="24.5106" height="30.6383" fill="white" transform="translate(11.7446 7.65955)"/>
</clipPath>
</defs>
</svg>
