<svg width="48" height="48" viewBox="0 0 48 48" fill="none" xmlns="http://www.w3.org/2000/svg">
<rect width="48" height="48" rx="24" fill="#2775CA"/>
<path fill-rule="evenodd" clip-rule="evenodd" d="M11.5682 19.6584C9.01196 26.4413 12.5366 34.1058 19.4082 36.5733C19.6725 36.7509 19.9368 37.1018 19.9368 37.3682V38.6009C19.9368 38.7785 19.9368 38.8652 19.848 38.954C19.7592 39.3071 19.4082 39.4826 19.0551 39.3071C14.1224 37.7213 10.3334 33.9324 8.74767 28.9996C6.10473 20.6289 10.6865 11.7317 19.0551 9.0888C19.1439 9 19.3194 9 19.4082 9C19.7613 9.08669 19.9368 9.35098 19.9368 9.70408V10.9367C19.9368 11.3786 19.7613 11.6429 19.4082 11.8184C15.7969 13.1399 12.8897 15.9583 11.5682 19.6584ZM27.9523 9.43979C28.0411 9.08669 28.3921 8.9112 28.7452 9.08669C33.5913 10.6725 37.4669 14.4614 39.0527 19.4808C41.6956 27.8516 37.1138 36.7487 28.7452 39.3917C28.6564 39.4805 28.4809 39.4805 28.3921 39.4805C28.039 39.3938 27.8635 39.1295 27.8635 38.7764V37.5437C27.8635 37.1018 28.039 36.8375 28.3921 36.6621C32.0034 35.3406 34.9107 32.5222 36.2321 28.822C38.7884 22.0392 35.2637 14.3747 28.3921 11.9072C28.1278 11.7296 27.8635 11.3786 27.8635 11.0255V9.79288C27.8635 9.61528 27.8635 9.52859 27.9523 9.43979ZM24.1656 22.7412C27.8657 23.1831 29.7157 24.2402 29.7157 27.323C29.7157 29.7016 27.9524 31.5517 25.3115 31.9936V34.1079C25.2248 34.5477 24.9606 34.812 24.6075 34.812H23.286C22.8462 34.7253 22.5819 34.461 22.5819 34.1079V31.9936C19.6747 31.5538 18.2665 29.968 17.9134 27.7649V27.6761C17.9134 27.323 18.1777 27.0587 18.5308 27.0587H20.0278C20.2921 27.0587 20.5564 27.2342 20.6452 27.5873C20.9095 28.9087 21.7023 29.8771 23.9922 29.8771C25.6667 29.8771 26.8994 28.9087 26.8994 27.4985C26.8994 26.0882 26.1065 25.5596 23.6391 25.1198C19.939 24.68 18.1777 23.534 18.1777 20.6268C18.1777 18.4237 19.8523 16.6624 22.4952 16.3093V14.2838C22.5819 13.844 22.8462 13.5797 23.1993 13.5797H24.5208C24.9606 13.6664 25.2248 13.9307 25.2248 14.2838V16.3981C27.2504 16.5736 28.8362 18.0706 29.1893 20.0094V20.0982C29.1893 20.4513 28.925 20.7156 28.5719 20.7156H27.1616C26.8973 20.7156 26.633 20.5401 26.5442 20.2758C26.1044 18.9544 25.2227 18.4258 23.637 18.4258C21.8757 18.4258 20.994 19.2187 20.994 20.4513C20.994 21.684 21.5226 22.3881 24.1656 22.7412Z" fill="white"/>
</svg>
