<svg width="48" height="48" viewBox="0 0 48 48" fill="none" xmlns="http://www.w3.org/2000/svg">
<rect width="48" height="48" rx="24" fill="#53AE94"/>
<path fill-rule="evenodd" clip-rule="evenodd" d="M26.433 26.346V26.343C26.268 26.355 25.4174 26.406 23.52 26.406C22.005 26.406 20.9384 26.361 20.5634 26.343V26.3476C14.7314 26.091 10.3785 25.0754 10.3785 23.8604C10.3785 22.647 14.7314 21.6314 20.5634 21.3706V25.3364C20.9444 25.3634 22.0364 25.428 23.5454 25.428C25.356 25.428 26.2636 25.353 26.433 25.338V21.3736C32.253 21.633 36.5956 22.6484 36.5956 23.8604C36.5956 25.0754 32.253 26.088 26.433 26.346ZM26.433 20.961V17.412H34.554V12H12.4426V17.412H20.5634V20.9594C13.9634 21.2626 9 22.5704 9 24.1364C9 25.7024 13.9634 27.009 20.5634 27.3134V38.6866H26.433V27.3104C33.0226 27.0074 37.974 25.701 37.974 24.1364C37.974 22.572 33.0226 21.2656 26.433 20.961Z" fill="white"/>
</svg>
