<svg width="48" height="48" viewBox="0 0 48 48" fill="none" xmlns="http://www.w3.org/2000/svg">
<rect width="48" height="48" rx="24" fill="#141413"/>
<path fill-rule="evenodd" clip-rule="evenodd" d="M25.9859 7.23889C24.757 6.52942 23.243 6.52942 22.0142 7.23889L10.4773 13.8997C9.24851 14.6092 8.49152 15.9203 8.49152 17.3393V30.6609C8.49152 32.0798 9.24851 33.391 10.4773 34.1004L22.0142 40.7612C23.243 41.4707 24.757 41.4707 25.9859 40.7612L37.5227 34.1004C38.7515 33.391 39.5085 32.0798 39.5085 30.6609V17.3393C39.5085 15.9203 38.7515 14.6092 37.5227 13.8997L25.9859 7.23889ZM11.608 32.1421C11.3072 31.9684 11.072 31.711 10.925 31.4089L23.3179 9.94385V38.8901C23.259 38.8645 23.2012 38.8354 23.1449 38.8029L11.608 32.1421ZM24.6822 38.8901V9.94385L37.075 31.4089C36.9281 31.711 36.6929 31.9684 36.3921 32.1421L24.8552 38.8029C24.7988 38.8354 24.7411 38.8645 24.6822 38.8901ZM11.608 15.858L21.6878 10.0384L10.7528 28.9785V17.3393C10.7528 16.7282 11.0788 16.1636 11.608 15.858ZM37.2472 28.9785L26.3122 10.0384L36.3921 15.858C36.9212 16.1636 37.2472 16.7282 37.2472 17.3393V28.9785Z" fill="white"/>
</svg>
