<svg width="48" height="48" viewBox="0 0 48 48" fill="none" xmlns="http://www.w3.org/2000/svg">
<rect width="48" height="48" rx="24" fill="black"/>
<path fill-rule="evenodd" clip-rule="evenodd" d="M39.5773 15.0001L23.9886 6L8.40001 15.0001V33.0003L23.9886 42.0004L39.5773 33.0003V15.0001ZM37.055 15.3572L24.7723 22.4486V8.26575L37.055 15.3572ZM23.2019 14.819H11.8544L23.2019 8.26751V14.819ZM9.97038 30.3371V16.3894H22.2191L9.97038 30.3371ZM38.0069 31.3795L25.2256 24.0002L38.0069 16.6209V31.3795ZM23.2019 31.611L10.9416 31.611L23.2019 17.6501L23.2019 31.611ZM24.7723 39.7346V25.5518L37.055 32.6432L24.7723 39.7346ZM23.2019 39.7329L11.8543 33.1813L23.2019 33.1813V39.7329Z" fill="#F5F5F5"/>
</svg>
