<svg width="32" height="32" viewBox="0 0 32 32" fill="none" xmlns="http://www.w3.org/2000/svg">
<rect width="32" height="32" rx="16" fill="#F5F5F5"/>
<path fill-rule="evenodd" clip-rule="evenodd" d="M17.324 4.82593C16.5048 4.35295 15.4955 4.35295 14.6763 4.82593L6.98502 9.26647C6.1658 9.73944 5.66113 10.6135 5.66113 11.5595V20.4406C5.66113 21.3865 6.16579 22.2606 6.98502 22.7336L14.6763 27.1742C15.4955 27.6471 16.5048 27.6471 17.324 27.1742L25.0153 22.7336C25.8345 22.2606 26.3391 21.3865 26.3391 20.4406V11.5595C26.3391 10.6135 25.8345 9.73945 25.0153 9.26647L17.324 4.82593ZM7.73878 21.4281C7.53824 21.3123 7.38145 21.1407 7.28348 20.9392L15.5454 6.62923V25.9268C15.5061 25.9097 15.4676 25.8903 15.43 25.8686L7.73878 21.4281ZM16.4549 25.9268V6.62923L24.7168 20.9392C24.6188 21.1407 24.462 21.3123 24.2615 21.4281L16.5703 25.8686C16.5327 25.8903 16.4942 25.9097 16.4549 25.9268ZM7.73879 10.572L14.4587 6.6923L7.16867 19.319V11.5595C7.16867 11.1521 7.386 10.7757 7.73879 10.572ZM24.8316 19.319L17.5416 6.6923L24.2615 10.572C24.6143 10.7757 24.8316 11.1521 24.8316 11.5595V19.319Z" fill="black"/>
</svg>
