<svg width="48" height="48" viewBox="0 0 48 48" fill="none" xmlns="http://www.w3.org/2000/svg">
<rect width="48" height="48" rx="24" fill="#0A0A0A"/>
<path d="M29.7809 26.7549C32.1003 25.403 33.6559 22.8906 33.6559 20.0095V16.7051C33.6559 11.3661 29.3304 7.02396 23.9818 7.02396C18.6331 7.02396 14.3077 11.3525 14.3077 16.7051V20.2417H20.2022V20.4738C19.4927 20.6513 18.8104 20.9243 18.1828 21.2931C15.8632 22.6449 14.3077 25.1574 14.3077 28.0384V31.3429C14.3077 36.6818 18.6331 41.024 23.9818 41.024C29.3304 41.024 33.6559 36.6955 33.6559 31.3429V27.8063H27.7614V27.5743C28.471 27.3967 29.1532 27.1237 29.7809 26.7549ZM25.8784 32.5171C25.8784 33.555 25.0324 34.4015 23.9955 34.4015C22.9584 34.4015 22.1124 33.555 22.1124 32.5171V15.5308C22.1124 14.493 22.9584 13.6465 23.9955 13.6465C25.0324 13.6465 25.8784 14.493 25.8784 15.5308V32.5171Z" fill="white"/>
</svg>
