<svg width="512" height="256" viewBox="0 0 512 256" fill="none" xmlns="http://www.w3.org/2000/svg">
<rect width="512" height="256" fill="#141413"/>
<path fill-rule="evenodd" clip-rule="evenodd" d="M96.5145 98C111.068 98 123.015 109.158 124.267 123.386C132.523 124.633 138.852 131.758 138.852 140.362C138.852 149.844 131.165 157.531 121.683 157.531L121.662 157.53L121.642 157.53L121.612 157.53C121.589 157.53 121.565 157.531 121.541 157.531H71.1688C61.6867 157.531 54 149.844 54 140.362C54 136.822 55.074 133.526 56.9142 130.79C59.5697 126.842 63.83 124.052 68.7643 123.36C69.1912 118.566 70.8337 114.117 73.3816 110.329C78.3798 102.898 86.8747 98 96.5145 98ZM94.7011 103.409C87.6666 103.969 81.5414 107.76 77.8097 113.307C75.3976 116.893 73.9901 121.209 73.9901 125.861C73.9901 125.98 73.9822 126.098 73.9671 126.213L94.7011 150.406V103.409ZM71.3217 128.529C71.4794 128.529 71.6338 128.516 71.784 128.49L92.0994 152.194H71.1688C64.6341 152.194 59.3367 146.896 59.3367 140.362C59.3367 137.916 60.0758 135.651 61.3424 133.768C63.4715 130.603 67.0785 128.53 71.1688 128.53C71.1955 128.53 71.2221 128.529 71.2487 128.528C71.2729 128.529 71.2973 128.529 71.3217 128.529ZM100.995 152.194H121.541C121.553 152.194 121.565 152.194 121.576 152.194C121.588 152.194 121.6 152.195 121.612 152.195C121.636 152.194 121.659 152.194 121.683 152.194C128.218 152.194 133.515 146.896 133.515 140.362C133.515 133.827 128.218 128.53 121.683 128.53C121.554 128.529 121.426 128.518 121.302 128.499L100.995 152.194ZM97.8401 151.051L97.8401 103.375C109.663 104.061 119.039 113.866 119.039 125.861C119.039 126.003 119.05 126.142 119.071 126.278L97.8401 151.051Z" fill="white"/>
<path d="M428.98 135.083C428.98 126.066 435.08 120.126 442.823 120.126C446.642 120.126 450.673 121.929 452.901 124.687V110.579H459V149.827H452.901V145.425C451.044 148.077 447.544 150.305 442.77 150.305C435.08 150.305 428.98 144.099 428.98 135.083ZM452.901 135.189C452.901 128.93 448.605 125.377 444.043 125.377C439.535 125.377 435.186 128.771 435.186 135.083C435.186 141.394 439.535 145.054 444.043 145.054C448.605 145.054 452.901 141.5 452.901 135.189Z" fill="white"/>
<path d="M423.018 120.603V149.827H416.972V146.326C415.063 148.819 411.774 150.251 408.327 150.251C401.485 150.251 396.287 145.955 396.287 137.787V120.603H402.28V136.886C402.28 142.242 405.197 145 409.6 145C414.055 145 416.972 142.242 416.972 136.886V120.603H423.018Z" fill="white"/>
<path d="M390.575 135.189C390.575 144.364 383.786 150.304 375.406 150.304C367.079 150.304 360.768 144.364 360.768 135.189C360.768 126.013 367.345 120.126 375.671 120.126C383.998 120.126 390.575 126.013 390.575 135.189ZM366.92 135.189C366.92 141.818 370.845 145.054 375.406 145.054C379.915 145.054 384.37 141.818 384.37 135.189C384.37 128.559 380.074 125.376 375.565 125.376C371.004 125.376 366.92 128.559 366.92 135.189Z" fill="white"/>
<path d="M348.746 149.827V110.579H354.792V149.827H348.746Z" fill="white"/>
<path d="M306.032 130.362C306.032 118.771 314.389 110.579 324.691 110.579C332.313 110.579 338.883 114.647 341.668 122.226H334.468C332.523 118.102 329.054 116.152 324.691 116.152C317.438 116.152 312.182 121.613 312.182 130.362C312.182 139.111 317.438 144.628 324.691 144.628C329.054 144.628 332.523 142.678 334.468 138.554H341.668C338.883 146.133 332.313 150.145 324.691 150.145C314.389 150.145 306.032 142.009 306.032 130.362Z" fill="white"/>
<path d="M277.079 149.827V125.978H273.631V121.045H277.079V118.535C277.079 111.799 280.526 108.882 288.164 108.882V113.921C284.451 113.921 283.178 115.194 283.178 118.535V121.045H288.588V125.978H283.178V149.827H277.079Z" fill="white"/>
<path d="M270.359 135.189C270.359 144.364 263.57 150.304 255.19 150.304C246.863 150.304 240.552 144.364 240.552 135.189C240.552 126.013 247.128 120.126 255.455 120.126C263.782 120.126 270.359 126.013 270.359 135.189ZM246.704 135.189C246.704 141.818 250.629 145.054 255.19 145.054C259.698 145.054 264.154 141.818 264.154 135.189C264.154 128.559 259.858 125.376 255.349 125.376C250.788 125.376 246.704 128.559 246.704 135.189Z" fill="white"/>
<path d="M236.537 135.189C236.537 144.364 229.748 150.304 221.368 150.304C213.041 150.304 206.73 144.364 206.73 135.189C206.73 126.013 213.306 120.126 221.633 120.126C229.96 120.126 236.537 126.013 236.537 135.189ZM212.882 135.189C212.882 141.818 216.807 145.054 221.368 145.054C225.876 145.054 230.332 141.818 230.332 135.189C230.332 128.559 226.036 125.376 221.527 125.376C216.966 125.376 212.882 128.559 212.882 135.189Z" fill="white"/>
<path fill-rule="evenodd" clip-rule="evenodd" d="M194.286 149.827V134.693C194.286 128.587 197.028 126.684 201.411 126.684C201.805 126.684 203.029 126.684 204.217 127.178L205.705 121.208C204.779 120.668 203.56 120.603 202.897 120.603C198.826 120.603 195.956 122.377 194.286 125.247V121.073H188.337V149.827H194.286Z" fill="white"/>
<path fill-rule="evenodd" clip-rule="evenodd" d="M161.363 128.607H170.103C175.14 128.607 177.981 126.173 177.981 122.212C177.981 118.138 175.14 115.761 170.103 115.761H161.363V128.607ZM183.487 122.212C183.487 127.815 180.346 133.869 170.103 133.869H161.363V149.827L155.846 149.827V110.499L170.103 110.499C179.44 110.499 183.487 115.818 183.487 122.212Z" fill="white"/>
</svg>
