<svg width="256" height="256" viewBox="0 0 256 256" fill="none" xmlns="http://www.w3.org/2000/svg">
<rect width="256" height="256" fill="#F5F5F5"/>
<path fill-rule="evenodd" clip-rule="evenodd" d="M128.413 62C159.705 62 185.393 85.992 188.085 116.584C205.837 119.264 219.444 134.585 219.444 153.084C219.444 173.472 202.917 190 182.529 190L182.483 190L182.44 189.999L182.377 189.998C182.326 189.999 182.275 190 182.224 190H73.9156C53.5277 190 37 173.472 37 153.084C37 145.474 39.3092 138.385 43.2661 132.503C48.9758 124.014 58.1361 118.016 68.7454 116.528C69.6635 106.22 73.1951 96.6532 78.6734 88.5088C89.4203 72.5315 107.686 62 128.413 62ZM124.514 73.6293C109.388 74.8337 96.2182 82.9845 88.1946 94.9131C83.0082 102.624 79.9817 111.903 79.9817 121.906C79.9817 122.162 79.9649 122.415 79.9323 122.663L124.514 174.681V73.6293ZM74.2444 127.643C74.5834 127.643 74.9155 127.614 75.2383 127.557L118.92 178.525H73.9156C59.865 178.525 48.4747 167.135 48.4747 153.084C48.4747 147.826 50.0639 142.956 52.7873 138.907C57.3651 132.101 65.1208 127.644 73.9156 127.644C73.973 127.644 74.0303 127.643 74.0873 127.641C74.1395 127.642 74.1919 127.643 74.2444 127.643ZM138.046 178.525H182.224C182.249 178.525 182.275 178.525 182.3 178.526C182.325 178.526 182.351 178.527 182.377 178.527C182.427 178.526 182.478 178.525 182.529 178.525C196.579 178.525 207.97 167.135 207.97 153.084C207.97 139.034 196.579 127.644 182.529 127.644C182.251 127.641 181.977 127.618 181.71 127.577L138.046 178.525ZM131.263 176.068L131.263 73.5572C156.684 75.0325 176.844 96.1148 176.844 121.906C176.844 122.211 176.868 122.51 176.914 122.802L131.263 176.068Z" fill="#141413"/>
</svg>
