<svg width="96" height="96" viewBox="0 0 96 96" fill="none" xmlns="http://www.w3.org/2000/svg">
<g clip-path="url(#clip0_21802_3891)">
<path d="M73.8009 34.9377C78.1302 37.4372 81.6397 43.5159 81.6397 48.5148V74.9372C81.6397 77.785 80.5007 79.668 78.7201 80.2992V79.6785C80.2208 78.9883 81.1646 77.1755 81.1646 74.6629V48.2406C81.1646 43.5446 77.8678 37.8343 73.8009 35.4863L70.2173 33.4172V32.8686L73.8009 34.9377Z" fill="#141413"/>
<path d="M31.543 13.8567C32.9805 12.6619 35.1636 12.6304 37.608 14.0417L39.6344 15.2116L39.4137 15.6328L37.608 14.5902C35.4121 13.3224 33.4407 13.2941 32.0915 14.2757L31.543 13.8567Z" fill="#141413"/>
<path d="M38.0722 22.7642C38.0464 22.3611 38.0332 21.9613 38.0332 21.5656C38.0332 13.2063 43.9019 9.81797 51.1413 13.9976C57.542 17.6931 62.8712 26.0673 64.02 33.7356" stroke="#141413" stroke-width="0.548571"/>
<path d="M51.1418 13.9975L51.283 13.7623L51.279 13.76L51.1418 13.9975ZM57.0405 10.5919L57.1922 10.3634L57.185 10.3587L57.1776 10.3544L57.0405 10.5919ZM47.7717 9.67377L47.6345 9.43623L47.6345 9.43623L47.7717 9.67377ZM42.0102 13.3169C44.4489 11.9089 47.6915 12.3222 51.0047 14.235L51.279 13.76C47.8829 11.7992 44.4162 11.2943 41.7359 12.8418L42.0102 13.3169ZM57.1776 10.3544C53.7815 8.39364 50.3148 7.88876 47.6345 9.43623L47.9088 9.91131C50.3475 8.50332 53.5901 8.9166 56.9033 10.8295L57.1776 10.3544ZM47.6345 9.43623L41.7359 12.8418L42.0102 13.3169L47.9088 9.91131L47.6345 9.43623ZM51.0007 14.2327L52.2489 14.9815L52.5311 14.5111L51.2829 13.7623L51.0007 14.2327ZM58.3373 11.1237L57.1922 10.3634L56.8887 10.8204L58.0338 11.5807L58.3373 11.1237ZM56.9035 10.8295C60.4716 12.8896 63.7175 16.4357 66.0719 20.5136C68.4263 24.5916 69.8744 29.1756 69.8744 33.2958H70.423C70.423 29.0566 68.9367 24.3786 66.5469 20.2393C64.1572 16.1001 60.849 12.474 57.1777 10.3544L56.9035 10.8295ZM64.292 33.6947C63.1321 25.9533 57.7601 17.5018 51.2791 13.76L51.0048 14.2351C57.3252 17.8841 62.6115 26.1808 63.7495 33.776L64.292 33.6947ZM69.8743 33.2958C69.8743 34.7294 69.6963 36.0534 69.3438 37.2218L69.869 37.3803C70.2395 36.1521 70.4229 34.7735 70.4229 33.2958L69.8743 33.2958Z" fill="#141413"/>
<path d="M60.8906 38.5576C67.8343 42.95 73.3619 52.7635 73.3619 60.8763C73.3619 65.8781 71.2608 69.1002 68.0221 69.9862" stroke="#141413" stroke-width="0.548571"/>
<path d="M66.1517 34.7667L66.3034 34.5382L66.2962 34.5335L66.2888 34.5292L66.1517 34.7667ZM75.4202 65.9567L75.5573 66.1942L75.4202 65.9567ZM67.4484 35.2985L66.3034 34.5382L65.9999 34.9952L67.145 35.7555L67.4484 35.2985ZM66.2888 34.5292C63.6434 33.0018 60.9616 32.3595 58.6356 32.8783L58.755 33.4137C60.9005 32.9352 63.4393 33.5175 66.0145 35.0043L66.2888 34.5292ZM60.736 38.7819L61.3601 39.1563L61.6423 38.6859L61.0182 38.3115L60.736 38.7819ZM66.0147 35.0043C69.5828 37.0644 72.8287 40.6105 75.1831 44.6884C77.5375 48.7664 78.9856 53.3504 78.9856 57.4706H79.5342C79.5342 53.2314 78.0479 48.5534 75.6581 44.4142C73.2684 40.2749 69.9601 36.6488 66.2889 34.5292L66.0147 35.0043ZM73.6355 60.8762C73.6355 56.7618 72.2355 52.2342 69.9686 48.1874C67.7017 44.1405 64.5548 40.5512 61.0362 38.3255L60.743 38.7891C64.1682 40.9557 67.2572 44.4694 69.49 48.4555C71.7231 52.4419 73.087 56.8776 73.087 60.8762H73.6355ZM69.6587 69.5998C72.339 68.0523 73.6351 64.7977 73.6351 60.8762L73.0865 60.8762C73.0865 64.7019 71.8231 67.7167 69.3844 69.1247L69.6587 69.5998ZM78.9851 57.4706C78.9852 61.2963 77.7218 64.3111 75.2831 65.7191L75.5573 66.1942C78.2376 64.6467 79.5337 61.3921 79.5337 57.4706L78.9851 57.4706ZM75.2831 65.7191L69.3844 69.1247L69.6587 69.5998L75.5573 66.1942L75.2831 65.7191Z" fill="#141413"/>
<path d="M32.2266 26.5258C34.58 23.8425 38.5773 23.4908 43.1125 26.1092C47.683 28.748 51.7072 33.7724 54.0531 39.222" stroke="#141413" stroke-width="0.548571"/>
<path d="M43.1125 26.1098L43.2537 25.8746L43.2497 25.8723L43.1125 26.1098ZM49.0112 22.7042L49.1629 22.4757L49.1557 22.471L49.1483 22.4667L49.0112 22.7042ZM39.7424 21.7861L39.6052 21.5485L39.6052 21.5485L39.7424 21.7861ZM33.9809 25.4292C36.4196 24.0212 39.6622 24.4345 42.9754 26.3474L43.2497 25.8723C39.8536 23.9115 36.3869 23.4066 33.7066 24.9541L33.9809 25.4292ZM49.1483 22.4667C45.7522 20.5059 42.2855 20.0011 39.6052 21.5485L39.8795 22.0236C42.3182 20.6156 45.5608 21.0289 48.874 22.9418L49.1483 22.4667ZM39.6052 21.5485L33.7066 24.9541L33.9809 25.4292L39.8795 22.0236L39.6052 21.5485ZM42.9714 26.345L44.2197 27.0938L44.5018 26.6234L43.2536 25.8746L42.9714 26.345ZM50.308 23.236L49.1629 22.4757L48.8594 22.9327L50.0045 23.693L50.308 23.236ZM54.2451 38.9755C51.8736 33.539 47.8443 28.5249 43.2498 25.8723L42.9755 26.3474C47.4452 28.9279 51.4057 33.8383 53.7423 39.1949L54.2451 38.9755ZM48.8742 22.9418C52.2279 24.878 55.2972 28.1273 57.6095 31.8983C59.9215 35.6688 61.4642 39.9407 61.7835 43.9072L62.3303 43.8632C62.0028 39.7947 60.4251 35.4405 58.0772 31.6115C55.7296 27.783 52.5997 24.4593 49.1485 22.4667L48.8742 22.9418Z" fill="#141413"/>
<rect width="59.3463" height="43.9766" rx="8.77714" transform="matrix(0.866025 0.5 0 1 16.7285 17.624)" stroke="#141413" stroke-width="0.548571" stroke-linecap="round" stroke-linejoin="round"/>
<path d="M49.3105 58.531C49.3105 54.067 52.4445 52.2576 56.3104 54.4896L68.0762 61.2826V77.4482L56.3104 70.6552C52.4445 68.4232 49.3105 62.995 49.3105 58.531V58.531Z" stroke="#141413" stroke-width="0.548571" stroke-linecap="round" stroke-linejoin="round"/>
<circle cx="2.83208" cy="2.83208" r="2.83208" transform="matrix(0.866025 0.5 0 1 53.0879 57.708)" stroke="#141413" stroke-width="0.548571" stroke-linecap="round" stroke-linejoin="round"/>
<path d="M18.8242 21.5234C24.0697 18.4949 27.4108 16.5659 31.995 13.9193" stroke="#141413" stroke-width="0.548571"/>
<path d="M65.8809 87.4375C71.1264 84.409 74.4675 82.48 79.0516 79.8333" stroke="#141413" stroke-width="0.548571"/>
</g>
<defs>
<clipPath id="clip0_21802_3891">
<rect width="96" height="96" fill="white"/>
</clipPath>
</defs>
</svg>
