<svg width="96" height="96" viewBox="0 0 96 96" fill="none" xmlns="http://www.w3.org/2000/svg">
<circle cx="47.9998" cy="48.0008" r="29.9833" stroke="#141413" stroke-width="0.548571"/>
<path d="M64.6527 48.0008C64.6527 56.3183 62.766 63.8348 59.7297 69.2623C56.6884 74.6986 52.5301 77.9841 47.9996 77.9841C43.4691 77.9841 39.3109 74.6986 36.2695 69.2623C33.2332 63.8348 31.3466 56.3183 31.3466 48.0008C31.3466 39.6833 33.2332 32.1668 36.2695 26.7393C39.3109 21.303 43.4691 18.0174 47.9996 18.0174C52.5301 18.0174 56.6884 21.303 59.7297 26.7393C62.766 32.1668 64.6527 39.6833 64.6527 48.0008Z" stroke="#141413" stroke-width="0.548571"/>
<path d="M48.0002 64.6537C39.6827 64.6537 32.1662 62.767 26.7387 59.7307C21.3023 56.6893 18.0168 52.5311 18.0168 48.0006C18.0168 43.4701 21.3023 39.3118 26.7387 36.2705C32.1662 33.2342 39.6827 31.3475 48.0002 31.3475C56.3176 31.3475 63.8342 33.2342 69.2616 36.2705C74.698 39.3119 77.9835 43.4701 77.9835 48.0006C77.9835 52.5311 74.698 56.6893 69.2616 59.7307C63.8342 62.767 56.3176 64.6537 48.0002 64.6537Z" stroke="#141413" stroke-width="0.548571"/>
<line x1="17.7422" y1="47.7257" x2="78.2575" y2="47.7257" stroke="#141413" stroke-width="0.548571"/>
<path d="M48 88.414C56.2979 88.414 64.0116 85.9132 70.4287 81.6242M48 7.58594C70.3201 7.58594 88.414 25.6799 88.414 48C88.414 57.5096 85.1295 66.2522 79.633 73.155" stroke="#141413" stroke-width="0.548571"/>
<path d="M48 88.414C25.6799 88.414 7.58596 70.32 7.58596 48C7.58596 25.6799 25.6799 7.58594 48 7.58594" stroke="#141413" stroke-width="0.548571" stroke-dasharray="3.29 3.29"/>
<circle cx="48.0482" cy="7.72691" r="1.69273" fill="#141413"/>
<circle cx="14.5677" cy="70.8529" r="1.69273" fill="#141413"/>
<circle cx="88.4154" cy="48.0004" r="1.69273" fill="#141413"/>
<circle cx="75.0841" cy="77.4112" r="6.07347" stroke="#141413" stroke-width="0.548571"/>
<path d="M75.1045 78.6588H75.2473L75.2415 78.5161C75.2327 78.2988 75.3027 78.1154 75.4206 77.9495C75.5601 77.7535 75.7645 77.5846 75.9764 77.4144L76.0127 77.3853L76.0127 77.3853L76.0189 77.3803C76.2164 77.2219 76.4175 77.0606 76.5728 76.8737C76.739 76.6736 76.8525 76.4442 76.8525 76.1576C76.8525 75.7229 76.6804 75.367 76.3747 75.12C76.0693 74.8732 75.6315 74.7359 75.101 74.7359C74.3371 74.7359 73.7717 75.0482 73.2939 75.5233L73.1925 75.6241L73.2975 75.7212L73.5127 75.9202L73.6075 76.0078L73.7007 75.9185C74.1104 75.5259 74.5523 75.3301 75.0335 75.3301C75.414 75.3301 75.6939 75.4234 75.8784 75.5793C76.0627 75.735 76.1534 75.9544 76.1534 76.21C76.1534 76.4191 76.0458 76.5971 75.8849 76.7669C75.7662 76.8923 75.6158 77.0152 75.4595 77.1427L75.4592 77.143C75.4076 77.1851 75.3555 77.2276 75.3049 77.27C74.9197 77.5931 74.5515 77.9645 74.6012 78.5336L74.6121 78.6588H74.7378H75.1045ZM74.6014 80.3684C74.6901 80.4552 74.8131 80.5031 74.951 80.5031C75.0812 80.5031 75.2055 80.4581 75.298 80.3683C75.3913 80.2777 75.443 80.1503 75.443 80.0036C75.443 79.697 75.2201 79.4891 74.951 79.4891C74.6819 79.4891 74.459 79.697 74.459 80.0036C74.459 80.1566 74.5127 80.2816 74.6014 80.3684Z" fill="#141413" stroke="#141413" stroke-width="0.274286"/>
</svg>
