<svg width="96" height="96" viewBox="0 0 96 96" fill="none" xmlns="http://www.w3.org/2000/svg">
<g clip-path="url(#clip0_4947_4175)">
<path d="M78.3454 47.9724C90.0589 57.6249 96.1958 67.3494 93.0536 73.0805C88.3972 81.5735 65.1262 78.0804 41.0764 65.2784C17.0267 52.4764 1.30531 35.2133 5.96178 26.7203C8.6562 21.8059 17.5832 20.9047 29.2873 23.4981" stroke="#141413" stroke-width="0.548571" stroke-linecap="round" stroke-linejoin="bevel"/>
<path d="M78.1719 53.2055C86.0434 60.633 89.8406 67.7629 87.4013 72.212C83.248 79.7873 62.5876 76.7228 41.2551 65.3672C19.9226 54.0117 5.99613 38.6651 10.1494 31.0898C12.2113 27.3292 18.3412 26.1907 26.6018 27.387" stroke="#141413" stroke-width="0.548571" stroke-linecap="round" stroke-linejoin="bevel"/>
<path d="M77.415 57.2569C82.6164 62.9087 84.8961 68.1593 82.9996 71.6184C79.2817 78.3996 60.9218 75.728 41.9918 65.6513C23.0617 55.5746 10.7299 41.9085 14.4478 35.1273C15.8885 32.4997 19.5277 31.2913 24.5467 31.3832" stroke="#141413" stroke-width="0.548571" stroke-linecap="round" stroke-linejoin="bevel"/>
<path d="M76.5469 60.7035C79.3318 64.6378 80.3052 68.204 78.9033 70.7609C75.4652 77.0317 59.0428 74.8568 42.2227 65.9033C25.4026 56.9497 14.5544 44.608 17.9924 38.3372C18.8996 36.6827 20.7106 35.6161 23.1944 35.1069" stroke="#141413" stroke-width="0.548571" stroke-linecap="round" stroke-linejoin="bevel"/>
<mask id="mask0_4947_4175" style="mask-type:alpha" maskUnits="userSpaceOnUse" x="4" y="11" width="91" height="67">
<path d="M93.303 72.5788C88.8859 81.0266 65.67 77.6082 41.4489 64.9437C17.2278 52.2792 1.17341 35.1643 5.59049 26.7165C10.0076 18.2688 45.1338 3.24322 69.355 15.9077C93.5761 28.5723 97.7201 64.1311 93.303 72.5788Z" fill="#D9D9D9"/>
</mask>
<g mask="url(#mask0_4947_4175)">
<path d="M46.2463 14.8292C47.7103 14.4557 51.5068 14.3644 53.0518 14.349C66.864 14.2111 78.2105 29.0799 78.395 47.5595C78.5035 58.4304 74.7251 68.1291 68.7836 74.3009" stroke="#141413" stroke-width="0.548571" stroke-linecap="round" stroke-linejoin="bevel"/>
<path d="M21.2913 49.6078C21.2779 49.2297 21.2692 48.8499 21.2653 48.4686C21.0769 30.0167 32.1486 14.9489 45.9947 14.8138C59.8408 14.6787 71.2179 29.5274 71.4064 47.9794C71.5103 58.1555 68.1895 67.3023 62.8673 73.4828" stroke="#141413" stroke-width="0.548571" stroke-linecap="round" stroke-linejoin="bevel"/>
<g clip-path="url(#clip1_4947_4175)">
<path d="M58.1469 34.4448L58.1469 39.4373L48.4293 39.5928L48.4293 42.9967C55.2194 43.2983 60.4238 44.7749 60.4645 46.6028L60.4645 50.4171C60.4238 52.245 55.2194 53.7247 48.4293 54.0262L48.4293 62.3792L42.1584 62.2237L42.1584 53.9672C35.6748 53.5444 30.9114 52.0553 30.877 50.3207L30.877 46.7053C30.9114 44.9707 35.6748 43.4817 42.1552 43.062L42.1552 39.6984L32.9725 39.8446L32.9725 35.0728L58.1469 34.4448ZM45.2735 51.446C52.4452 51.4833 58.5816 50.2306 60.1048 48.5115C58.8131 47.0535 54.1904 45.9282 48.4293 45.6453L48.4293 49.2078C47.4097 49.2607 46.3525 49.2886 45.2766 49.2886C44.2007 49.2886 43.1592 49.2576 42.1584 49.2016L42.1584 45.6795C36.6381 46.0121 32.3688 47.125 31.1991 48.5115C32.5784 50.1497 38.2863 51.4056 45.2766 51.4429L45.2735 51.446Z" stroke="#141413" stroke-width="0.548571"/>
</g>
</g>
<path d="M84.0615 19.5954C83.84 19.6461 83.4976 19.8113 83.2815 19.8958C80.3504 21.0418 79.1275 24.9206 80.5502 28.5593C81.9729 32.198 85.5024 34.2186 88.4336 33.0726C88.7351 32.9547 89.5573 32.6596 89.8216 32.4871" stroke="#141413" stroke-width="0.548571" stroke-linecap="round" stroke-linejoin="bevel"/>
<path d="M81.9534 27.9796C83.3731 31.6132 86.734 33.6941 89.4601 32.6275C92.1862 31.5609 93.2451 27.7507 91.8254 24.1171C90.4056 20.4835 87.0447 18.4026 84.3187 19.4692C81.5926 20.5358 80.5336 24.346 81.9534 27.9796Z" stroke="#141413" stroke-width="0.548571" stroke-linecap="round" stroke-linejoin="bevel"/>
<path d="M85.9982 23.5539L87.3531 25.6527L89.5862 25.6089L87.7575 26.6535L88.1975 28.9974L86.8425 26.8986L84.6094 26.9424L86.4382 25.8979L85.9982 23.5539Z" fill="#141413"/>
<path d="M23.3177 65.4373C23.7618 65.5796 24.1941 65.7684 24.6095 66.0057C28.5881 68.278 29.5216 74.1327 26.6946 79.0825C23.8676 84.0324 18.1768 86.2713 14.1982 83.999C13.9337 83.8479 13.6826 83.681 13.4452 83.4996" stroke="#141413" stroke-width="0.548571" stroke-linecap="round" stroke-linejoin="bevel"/>
<path d="M24.769 78.1066C21.9473 83.0497 16.6538 85.3391 12.9455 83.2201C9.23728 81.1011 8.51856 75.3761 11.3402 70.433C14.1619 65.4899 19.4555 63.2005 23.1637 65.3195C26.872 67.4385 27.5907 73.1635 24.769 78.1066Z" stroke="#141413" stroke-width="0.548571" stroke-linecap="round" stroke-linejoin="bevel"/>
<path d="M19.9014 70.7196L17.4995 73.461L14.2854 72.9232L16.7031 74.8196L15.5698 78.1094L17.9717 75.368L21.1858 75.9059L18.7681 74.0094L19.9014 70.7196Z" fill="#141413"/>
</g>
<defs>
<clipPath id="clip0_4947_4175">
<rect width="96" height="96" fill="white"/>
</clipPath>
<clipPath id="clip1_4947_4175">
<rect width="29.8971" height="28.2514" fill="white" transform="translate(30.7207 34.2861)"/>
</clipPath>
</defs>
</svg>
