<svg width="349" height="113" viewBox="0 0 349 113" fill="none" xmlns="http://www.w3.org/2000/svg">
<path d="M184.149 0C193.509 2.34744e-05 201.712 1.94585 208.758 5.83691C215.804 9.72796 221.272 15.1963 225.163 22.2422C226.25 24.1813 227.184 26.1989 227.968 28.2939L211.378 38.0225C210.133 32.7382 207.736 28.3196 204.183 24.7666C198.819 19.1929 191.3 16.4053 181.625 16.4053C173.002 16.4053 165.325 18.6145 158.595 23.0312C151.969 27.343 146.816 33.1795 143.135 40.541C139.454 47.9025 137.614 56.0003 137.614 64.834C137.614 74.4039 140.296 81.9761 145.659 87.5498C151.128 93.1234 158.647 95.9101 168.217 95.9102C176.84 95.9102 184.464 93.7011 191.09 89.2842C192.953 88.0615 194.699 86.7256 196.328 85.2773L204.124 100.488C202.527 101.604 200.865 102.656 199.135 103.64C189.25 109.318 178.102 112.158 165.693 112.158C156.439 112.158 148.288 110.212 141.242 106.321C134.196 102.43 128.728 96.9618 124.837 89.916C120.946 82.8701 119 74.8773 119 65.9385C119 53.424 121.787 42.1712 127.36 32.1807C133.039 22.0849 140.822 14.1974 150.707 8.51855C160.698 2.83967 171.845 0 184.149 0ZM230.633 39.5312C230.877 41.6455 231 43.8228 231 46.0625C231 58.5769 228.16 69.8819 222.481 79.9775C219.768 84.8918 216.53 89.2807 212.771 93.1484L204.089 76.209C205.033 74.7477 205.907 73.2176 206.707 71.6172C210.063 64.9991 211.929 57.885 212.311 50.2754L230.633 39.5312Z" fill="black"/>
<path d="M1 87.7778L3.28205 74.6389L67.3316 1H88.3265L75.8513 72.6528H90L87.2615 87.7778H73.1128L69.0051 111H51.9658L56.0735 87.7778H1ZM69.0051 18.7222L23.6684 72.6528H59.5727L69.0051 18.7222Z" stroke="black"/>
<path d="M259 87.7778L261.282 74.6389L325.332 1H346.327L333.851 72.6528H348L345.262 87.7778H331.113L327.005 111H309.966L314.074 87.7778H259ZM327.005 18.7222L281.668 72.6528H317.573L327.005 18.7222Z" stroke="black"/>
</svg>
