<svg width="120" height="120" viewBox="0 0 120 120" fill="none" xmlns="http://www.w3.org/2000/svg">
<rect width="120" height="120" fill="#010101"/>
<path fill-rule="evenodd" clip-rule="evenodd" d="M87.3446 29.1414C95.6854 37.6187 100.171 48.824 99.995 60.6895V60.6749C99.6289 84.5669 79.5604 104 55.27 104H21.1434C20.4984 104 20.1759 103.223 20.6303 102.753L37.2392 86.048C37.5177 85.7693 37.8842 85.608 38.28 85.608H55.5925C69.5189 85.608 81.1874 74.4613 81.5981 60.7774C81.8032 53.7962 79.2379 47.1961 74.3711 42.1801C69.5039 37.1641 62.9808 34.4067 56.0177 34.4067H38.3973V62.8893C38.3973 63.1389 38.2067 63.3292 37.9575 63.3292H20.4398C20.1906 63.3292 20 63.1389 20 62.8893V16.44C20 16.1907 20.1906 16 20.4398 16H56.0177C67.8769 16 79.0032 20.664 87.3446 29.1414Z" fill="white"/>
<path d="M99.995 60.6895C100.171 48.824 95.6854 37.6187 87.3446 29.1414C79.0032 20.664 67.8769 16 56.0177 16H20.4398C20.1906 16 20 16.1907 20 16.44V62.8893C20 63.1389 20.1906 63.3292 20.4398 63.3292H37.9575C38.2067 63.3292 38.3973 63.1389 38.3973 62.8893V34.4067H56.0177C62.9808 34.4067 69.5039 37.1641 74.3711 42.1801C79.2379 47.1961 81.8032 53.7962 81.5981 60.7774C81.1874 74.4613 69.5189 85.608 55.5925 85.608H38.28C37.8842 85.608 37.5177 85.7693 37.2392 86.048L20.6303 102.753C20.1759 103.223 20.4984 104 21.1434 104H55.27C79.5604 104 99.6289 84.5669 99.995 60.6749V60.6895Z" fill="white"/>
</svg>
