<svg width="231" height="54" viewBox="0 0 231 54" fill="none" xmlns="http://www.w3.org/2000/svg">
<path fill-rule="evenodd" clip-rule="evenodd" d="M26.3093 9.52158C29.568 12.829 31.3204 17.2007 31.2518 21.8299V21.8242C31.1086 31.1457 23.2683 38.7275 13.7789 38.7275H0.446699C0.194714 38.7275 0.0687228 38.4242 0.246257 38.2412L6.73484 31.7235C6.84364 31.6148 6.98682 31.552 7.14144 31.552H13.9049C19.3455 31.552 23.9041 27.203 24.0645 21.8642C24.1446 19.1405 23.1424 16.5656 21.2411 14.6086C19.3398 12.6516 16.7913 11.5758 14.071 11.5758H7.18726V22.6882C7.18726 22.7855 7.11281 22.8599 7.01545 22.8599H0.171807C0.0744497 22.8599 0 22.7855 0 22.6882V4.56618C0 4.46891 0.0744497 4.39453 0.171807 4.39453H14.071C18.704 4.39453 23.0508 6.21418 26.3093 9.52158ZM45.8497 13.6022C37.4655 13.6022 33.6399 20.0224 33.6399 26.2939L33.6342 26.2996C33.6342 32.5253 37.9524 39.0888 46.3365 39.0888C52.3383 39.0888 57 35.747 58.0652 30.5283C58.0881 30.4196 58.0022 30.3166 57.8933 30.3166H51.5652C51.4907 30.3166 51.4277 30.3682 51.4048 30.4426C50.8263 32.4681 49.0282 33.5039 46.3365 33.5039C42.906 33.5039 40.7012 31.3466 40.2087 27.8675H57.8017C57.8933 27.8675 57.9679 27.8046 57.9736 27.7131C58.0193 27.1866 58.0595 26.5056 58.0595 25.6588C58.0595 20.0224 54.2339 13.6022 45.8497 13.6022ZM45.8497 18.5976C49.1369 18.5976 51.0497 20.8007 51.2445 23.5474H40.306C40.8959 20.114 42.7628 18.5976 45.8497 18.5976ZM61.0484 26.2939C61.0484 20.0224 64.874 13.6022 73.2582 13.6022C81.6424 13.6022 85.4679 20.0224 85.4679 25.6588C85.4679 26.5056 85.4279 27.1866 85.382 27.7131C85.3763 27.8046 85.3018 27.8675 85.2102 27.8675H67.6172C68.1097 31.3466 70.3147 33.5039 73.745 33.5039C76.4366 33.5039 78.2349 32.4681 78.8132 30.4426C78.8362 30.3682 78.8992 30.3166 78.9737 30.3166H85.3018C85.4107 30.3166 85.4966 30.4196 85.4736 30.5283C84.4085 35.747 79.7467 39.0888 73.745 39.0888C65.3608 39.0888 61.0427 32.5253 61.0427 26.2996L61.0484 26.2939ZM78.653 23.5474C78.4582 20.8007 76.5455 18.5976 73.2582 18.5976C70.1715 18.5976 68.3045 20.114 67.7146 23.5474H78.653ZM95.909 13.997H89.4375V13.9856C89.3402 13.9856 89.2657 14.06 89.2657 14.1572V48.5074C89.2657 48.6047 89.3402 48.6791 89.4375 48.6791H95.909C96.0063 48.6791 96.0808 48.6047 96.0808 48.5074V36.4794C97.4037 38.1445 99.8089 39.0772 102.604 39.0772C109.716 39.0772 114.521 34.0303 114.521 26.3398C114.521 18.6492 110.106 13.6022 103.142 13.6022C99.9521 13.6022 97.5526 14.7809 96.0808 16.6921V14.1687C96.0808 14.0714 96.0063 13.997 95.909 13.997ZM107.752 26.3455C107.752 30.4596 105.353 33.2063 101.722 33.2063C98.0967 33.2063 95.6913 30.5054 95.6913 26.3455C95.6913 22.1854 98.0967 19.4387 101.722 19.4387C105.347 19.4387 107.752 22.2311 107.752 26.3455ZM124.485 43.5116C124.594 43.4029 124.737 43.3456 124.892 43.3456H131.845C133.952 43.3456 135.424 41.6805 135.424 39.4261V36.193C134.147 38.0069 131.547 39.0827 128.655 39.0827C121.347 39.0827 116.983 34.0357 116.983 26.3451C116.983 18.6546 121.347 13.6076 128.557 13.6076C131.598 13.6076 133.998 14.7349 135.424 16.4515V14.1741C135.424 14.0768 135.498 14.0024 135.596 14.0024H142.067C142.164 14.0024 142.239 14.0768 142.239 14.1741V40.1699C142.239 45.2683 138.562 48.696 132.973 48.696H120.013C119.755 48.696 119.629 48.387 119.812 48.2095L124.485 43.523V43.5116ZM129.737 33.2003C133.465 33.2003 135.819 30.5052 135.819 26.3395C135.819 22.1737 133.465 19.4327 129.737 19.4327C126.009 19.4327 123.707 22.1794 123.707 26.3395C123.707 30.4995 126.112 33.2003 129.737 33.2003ZM154.077 38.5155V26.682H154.083C154.083 22.4648 155.6 19.6724 158.985 19.6724H162.885C162.982 19.6724 163.058 19.598 163.058 19.5007V14.162C163.058 14.0647 162.982 13.9903 162.885 13.9903H160.308C157.267 13.9903 155.4 15.0146 154.077 18.1046V14.162C154.077 14.0647 154.002 13.9903 153.905 13.9903H147.434C147.336 13.9903 147.262 14.0647 147.262 14.162V38.5155C147.262 38.6128 147.336 38.6872 147.434 38.6872H153.905C154.002 38.6872 154.077 38.6128 154.077 38.5155ZM165.239 31.6836C165.239 26.8312 168.869 23.8901 174.31 23.8901H178.427C179.653 23.8901 180.289 23.1061 180.289 22.0761C180.289 20.0161 178.72 18.597 175.925 18.597C173.13 18.597 171.446 20.3651 171.321 22.3564C171.321 22.4481 171.245 22.5167 171.155 22.5167H165.421C165.318 22.5167 165.239 22.4308 165.244 22.3278C165.583 17.464 169.586 13.5958 176.269 13.5958C182.545 13.5958 187.104 17.2237 187.104 22.8085V38.5101C187.104 38.6075 187.029 38.6818 186.933 38.6818H180.46C180.364 38.6818 180.289 38.6075 180.289 38.5101V35.2543C179.452 37.5545 176.71 39.0766 173.324 39.0766C168.565 39.0766 165.233 35.8894 165.233 31.6779L165.239 31.6836ZM175.095 34.1327C178.381 34.1327 180.294 31.6836 180.294 28.5479V28.2045H175.34C173.233 28.2045 171.807 29.4806 171.807 31.3917C171.807 33.0111 173.182 34.1384 175.095 34.1384V34.1327ZM197.905 13.997H191.433L191.445 13.9913C191.347 13.9913 191.273 14.0657 191.273 14.163V38.5165C191.273 38.6138 191.347 38.6881 191.445 38.6881H197.916C198.013 38.6881 198.087 38.6138 198.087 38.5165V24.6745C198.087 21.4873 199.897 19.3816 202.744 19.3816C205.389 19.3816 207.107 21.4873 207.107 24.6745V38.5165C207.107 38.6138 207.182 38.6881 207.28 38.6881H213.751C213.847 38.6881 213.923 38.6138 213.923 38.5165V24.6745C213.923 21.4873 215.732 19.3816 218.578 19.3816C221.225 19.3816 222.942 21.4873 222.942 24.6745V38.5165C222.942 38.6138 223.016 38.6881 223.114 38.6881H229.586C229.684 38.6881 229.758 38.6138 229.758 38.5165V22.5174C229.758 17.5733 226.276 13.6022 220.932 13.6022C216.964 13.6022 213.871 15.7079 212.645 18.1113C211.466 15.17 208.963 13.6022 205.092 13.6022C201.753 13.6022 199.399 15.2215 198.076 17.476V14.1687C198.076 14.0714 198.002 13.997 197.905 13.997Z" fill="#010101"/>
</svg>
