<svg width="81" height="80" viewBox="0 0 81 80" fill="none" xmlns="http://www.w3.org/2000/svg">
<path d="M38.2561 13.6667V13.4167H38.0061H28.0061C27.1884 13.4167 26.4041 13.0918 25.8259 12.5136C25.2476 11.9353 24.9228 11.1511 24.9228 10.3333C24.9228 9.51558 25.2476 8.73132 25.8259 8.15309C26.4041 7.57485 27.1884 7.25 28.0061 7.25H54.6728C55.4905 7.25 56.2748 7.57485 56.853 8.15309C57.4313 8.73132 57.7561 9.51558 57.7561 10.3333C57.7561 11.1511 57.4313 11.9353 56.853 12.5136C56.2748 13.0918 55.4905 13.4167 54.6728 13.4167H44.6728H44.4228V13.6667V16.9957L44.4163 17.1847L44.4083 17.4146L44.6367 17.4416C49.0185 17.96 53.2165 19.5037 56.8904 21.9474C60.5643 24.3911 63.6106 27.666 65.7825 31.5068C67.9544 35.3476 69.1908 39.6461 69.3913 44.0539C69.5919 48.4617 68.751 52.8548 66.9369 56.8769C65.1227 60.8991 62.3864 64.4372 58.9496 67.2044C55.5128 69.9716 51.4724 71.8901 47.1558 72.8043C42.8391 73.7185 38.3679 73.6028 34.1043 72.4664C29.8408 71.33 25.9051 69.205 22.6161 66.2637L22.4495 66.45L22.6161 66.2636C22.0431 65.7513 21.6972 65.0324 21.6543 64.265C21.6114 63.4976 21.8752 62.7446 22.3875 62.1716C22.8998 61.5987 23.6187 61.2527 24.3861 61.2099C25.1535 61.167 25.9065 61.4307 26.4795 61.943L26.4796 61.9431C30.5281 65.5591 35.757 67.5731 41.1851 67.6074C46.6132 67.6416 51.8671 65.6936 55.9609 62.129C60.0546 58.5644 62.7067 53.6283 63.4194 48.2471C64.132 42.866 62.8563 37.4097 59.8315 32.9023C56.8068 28.395 52.241 25.1465 46.9912 23.7666C41.7413 22.3867 36.1684 22.9702 31.3182 25.4076C26.468 27.8451 22.6742 31.9688 20.6487 37.0049C18.6239 42.0393 18.5054 47.6394 20.3152 52.7548C20.5317 53.468 20.4653 54.2372 20.1297 54.9028C19.7932 55.57 19.2123 56.0816 18.5079 56.3309C17.8034 56.5802 17.03 56.548 16.3488 56.241C15.6692 55.9348 15.1337 55.3786 14.8533 54.6881C13.4505 50.7163 12.959 46.4799 13.4152 42.2924C13.8716 38.103 15.2649 34.0701 17.4918 30.4924C19.7187 26.9147 22.7221 23.884 26.2795 21.6248C29.8369 19.3656 33.8571 17.9359 38.0421 17.4416L38.2873 17.4127L38.2614 17.1672C38.2564 17.1191 38.2561 17.069 38.2561 17V13.6667ZM44.8261 53.1761V53.1798L38.2726 46.6263L38.2561 35.3363C38.2549 34.5185 38.5786 33.7338 39.1559 33.1547C39.7333 32.5756 40.5171 32.2496 41.3348 32.2483C42.1526 32.2471 42.9373 32.5708 43.5164 33.1482C44.0955 33.7255 44.4216 34.5093 44.4228 35.327V43.95V44.0536L44.4961 44.1268L49.6159 49.2434C50.1941 49.822 50.5187 50.6065 50.5185 51.4244C50.5182 52.2424 50.193 53.0267 49.6144 53.6048C49.0358 54.183 48.2513 54.5076 47.4334 54.5073C46.6154 54.5071 45.8311 54.1819 45.253 53.6033L44.8261 53.1761Z" fill="#14101C" stroke="#F5F5F5" stroke-width="0.5"/>
</svg>
