<svg width="120" height="120" viewBox="0 0 120 120" fill="none" xmlns="http://www.w3.org/2000/svg">
<rect width="120" height="120" rx="12" fill="black"/>
<path d="M40.2934 37.1022V58.2044C28.471 58.2044 18.7422 48.6777 18.7422 37.1022C18.7422 25.5267 28.471 16 40.2934 16C52.1157 16 61.8445 25.5267 61.8445 37.1022H40.2934Z" fill="white"/>
<path d="M80.7035 82.8981V104C68.8812 104 59.1523 94.4736 59.1523 82.8981C59.1523 71.3226 68.8812 61.7959 80.7035 61.7959C92.5259 61.7959 102.255 71.3226 102.255 82.8981H80.7035Z" fill="white"/>
<path d="M80.703 58.2044L103.152 16H58.2539L80.703 58.2044Z" fill="white"/>
<path d="M40.2968 104L62.7459 61.7959H17.8477L40.2968 104Z" fill="white"/>
</svg>
