<svg width="256" height="256" viewBox="0 0 256 256" fill="none" xmlns="http://www.w3.org/2000/svg">
<rect width="256" height="256" fill="#F5F5F5"/>
<path fill-rule="evenodd" clip-rule="evenodd" d="M142.504 46.0258L205.816 155.686C210.432 163.68 207.693 173.902 199.699 178.518L136.387 215.071C131.215 218.057 124.843 218.057 119.672 215.071L56.36 178.518C48.3656 173.902 45.6266 163.68 50.2421 155.686L113.554 46.0258C119.988 34.8828 136.071 34.8829 142.504 46.0258ZM62.4652 162.743C61.7471 163.986 62.1732 165.577 63.417 166.295L124.45 201.532L124.45 55.3818L62.4652 162.743ZM131.609 55.3828L131.609 201.532L192.642 166.295C193.885 165.577 194.311 163.986 193.593 162.743L131.609 55.3828Z" fill="#141413"/>
</svg>
