<svg width="512" height="256" viewBox="0 0 512 256" fill="none" xmlns="http://www.w3.org/2000/svg">
<rect width="512" height="256" fill="#F5F5F5"/>
<path fill-rule="evenodd" clip-rule="evenodd" d="M132.216 142.064L100.637 87.3672C97.4285 81.8093 89.4063 81.8092 86.1974 87.3672L54.6183 142.064C52.3162 146.051 53.6823 151.15 57.6698 153.452L89.2489 171.684C91.8283 173.174 95.0064 173.174 97.5859 171.684L129.165 153.452C133.152 151.15 134.519 146.051 132.216 142.064ZM61.1898 147.356C60.5694 146.997 60.3568 146.204 60.715 145.584L91.6321 92.0338V164.931L61.1898 147.356ZM95.203 164.931V92.0343L126.12 145.584C126.478 146.204 126.265 146.997 125.645 147.356L95.203 164.931Z" fill="black"/>
<path d="M328.173 103.631V152.519H335.265V133.357C335.265 127.073 338.687 123.838 343.913 123.838C349.076 123.838 352.498 127.073 352.498 133.357V152.519H359.528V132.299C359.528 122.718 353.556 117.679 345.903 117.679C341.486 117.679 337.629 119.359 335.265 122.221V103.631H328.173Z" fill="black"/>
<path d="M410.74 118.239V152.519H417.832V118.239H410.74Z" fill="black"/>
<path d="M409.807 109.156C409.807 111.707 411.798 113.697 414.348 113.697C416.837 113.697 418.828 111.707 418.828 109.156C418.828 106.605 416.837 104.614 414.348 104.614C411.798 104.614 409.807 106.605 409.807 109.156Z" fill="black"/>
<path d="M451.47 133.357V152.519H458.5V132.299C458.5 122.718 452.465 117.679 444.44 117.679C440.333 117.679 436.538 119.359 434.237 122.158V118.239H427.144V152.519H434.237V133.357C434.237 127.073 437.658 123.838 442.884 123.838C448.048 123.838 451.47 127.073 451.47 133.357Z" fill="black"/>
<path fill-rule="evenodd" clip-rule="evenodd" d="M366.212 135.223C366.212 124.647 373.366 117.679 382.387 117.679C388.173 117.679 392.155 120.416 394.27 123.216V118.239H401.425V152.519H394.27V147.417C392.092 150.341 387.986 153.079 382.263 153.079C373.366 153.079 366.212 145.8 366.212 135.223ZM394.27 135.348C394.27 128.007 389.231 123.838 383.88 123.838C378.592 123.838 373.491 127.82 373.491 135.223C373.491 142.627 378.592 146.92 383.88 146.92C389.231 146.92 394.27 142.751 394.27 135.348Z" fill="black"/>
<path fill-rule="evenodd" clip-rule="evenodd" d="M246.786 103.619V152.587H254.488V132.558H266.021C272.409 132.558 276.722 130.671 279.438 127.937C282.155 125.202 283.296 121.598 283.296 118.124C283.296 114.16 281.876 110.539 279.018 107.908C276.159 105.277 271.843 103.619 266.021 103.619H246.786ZM254.488 109.829H266.021C269.209 109.829 271.556 110.581 273.107 112.012C274.66 113.446 275.381 115.531 275.381 118.124C275.381 120.647 274.659 122.714 273.107 124.147C271.557 125.577 269.21 126.348 266.021 126.348H254.488V109.829Z" fill="black"/>
<path d="M213.571 128.139L198.281 103.619H206.906L218.244 121.846L228.864 103.619H237.414L222.125 128.139L237.344 152.587H228.718L217.451 134.503L206.903 152.587H198.352L213.571 128.139Z" fill="black"/>
<path d="M157.879 103.548V152.587H189.529V146.377H165.581V130.853H187.398V124.643H165.581V109.758H189.529V103.548H157.879Z" fill="black"/>
<path d="M305.357 117.692C295.531 117.692 288.565 124.657 288.565 135.354C288.565 146.113 295.531 153.079 305.357 153.079C313.753 153.079 319.226 148.414 321.154 141.698H313.504C312.198 145.243 309.586 147.108 305.357 147.108C299.635 147.108 295.842 142.879 295.842 135.354C295.842 127.891 299.635 123.662 305.357 123.662C309.586 123.662 312.323 125.777 313.504 129.073H321.154C319.226 121.859 313.753 117.692 305.357 117.692Z" fill="black"/>
<path fill-rule="evenodd" clip-rule="evenodd" d="M132.216 142.064L100.637 87.3672C97.4285 81.8093 89.4063 81.8092 86.1974 87.3672L54.6183 142.064C52.3162 146.051 53.6823 151.15 57.6698 153.452L89.2489 171.684C91.8283 173.174 95.0064 173.174 97.5859 171.684L129.165 153.452C133.152 151.15 134.519 146.051 132.216 142.064ZM61.1898 147.356C60.5694 146.997 60.3568 146.204 60.715 145.584L91.6321 92.0338V164.931L61.1898 147.356ZM95.203 164.931V92.0343L126.12 145.584C126.478 146.204 126.265 146.997 125.645 147.356L95.203 164.931Z" fill="#141413"/>
<path d="M328.173 103.631V152.519H335.265V133.357C335.265 127.073 338.687 123.838 343.913 123.838C349.076 123.838 352.498 127.073 352.498 133.357V152.519H359.528V132.299C359.528 122.718 353.556 117.679 345.903 117.679C341.486 117.679 337.629 119.359 335.265 122.221V103.631H328.173Z" fill="#141413"/>
<path d="M410.74 118.239V152.519H417.832V118.239H410.74Z" fill="#141413"/>
<path d="M409.807 109.156C409.807 111.707 411.798 113.697 414.348 113.697C416.837 113.697 418.828 111.707 418.828 109.156C418.828 106.605 416.837 104.614 414.348 104.614C411.798 104.614 409.807 106.605 409.807 109.156Z" fill="#141413"/>
<path d="M451.47 133.357V152.519H458.5V132.299C458.5 122.718 452.465 117.679 444.44 117.679C440.333 117.679 436.538 119.359 434.237 122.158V118.239H427.144V152.519H434.237V133.357C434.237 127.073 437.658 123.838 442.884 123.838C448.048 123.838 451.47 127.073 451.47 133.357Z" fill="#141413"/>
<path fill-rule="evenodd" clip-rule="evenodd" d="M366.212 135.223C366.212 124.647 373.366 117.679 382.387 117.679C388.173 117.679 392.155 120.416 394.27 123.216V118.239H401.425V152.519H394.27V147.417C392.092 150.341 387.986 153.079 382.263 153.079C373.366 153.079 366.212 145.8 366.212 135.223ZM394.27 135.348C394.27 128.007 389.231 123.838 383.88 123.838C378.592 123.838 373.491 127.82 373.491 135.223C373.491 142.627 378.592 146.92 383.88 146.92C389.231 146.92 394.27 142.751 394.27 135.348Z" fill="#141413"/>
<path fill-rule="evenodd" clip-rule="evenodd" d="M246.786 103.619V152.587H254.488V132.558H266.021C272.409 132.558 276.722 130.671 279.438 127.937C282.155 125.202 283.296 121.598 283.296 118.124C283.296 114.16 281.876 110.539 279.018 107.908C276.159 105.277 271.843 103.619 266.021 103.619H246.786ZM254.488 109.829H266.021C269.209 109.829 271.556 110.581 273.107 112.012C274.66 113.446 275.381 115.531 275.381 118.124C275.381 120.647 274.659 122.714 273.107 124.147C271.557 125.577 269.21 126.348 266.021 126.348H254.488V109.829Z" fill="#141413"/>
<path d="M213.571 128.139L198.281 103.619H206.906L218.244 121.846L228.864 103.619H237.414L222.125 128.139L237.344 152.587H228.718L217.451 134.503L206.903 152.587H198.352L213.571 128.139Z" fill="#141413"/>
<path d="M157.879 103.548V152.587H189.529V146.377H165.581V130.853H187.398V124.643H165.581V109.758H189.529V103.548H157.879Z" fill="#141413"/>
<path d="M305.357 117.692C295.531 117.692 288.565 124.657 288.565 135.354C288.565 146.113 295.531 153.079 305.357 153.079C313.753 153.079 319.226 148.414 321.154 141.698H313.504C312.198 145.243 309.586 147.108 305.357 147.108C299.635 147.108 295.842 142.879 295.842 135.354C295.842 127.891 299.635 123.662 305.357 123.662C309.586 123.662 312.323 125.777 313.504 129.073H321.154C319.226 121.859 313.753 117.692 305.357 117.692Z" fill="#141413"/>
</svg>
