<svg width="256" height="256" viewBox="0 0 256 256" fill="none" xmlns="http://www.w3.org/2000/svg">
<rect width="256" height="256" fill="#141413"/>
<path fill-rule="evenodd" clip-rule="evenodd" d="M138.358 38.8379C131.8 35.054 123.721 35.054 117.163 38.8379L55.5973 74.3622C49.0397 78.146 45 85.1388 45 92.7065V163.755C45 171.323 49.0396 178.316 55.5972 182.099L117.163 217.624C123.721 221.408 131.8 221.408 138.358 217.624L199.923 182.099C206.481 178.316 210.521 171.323 210.521 163.755V92.7065C210.521 85.1388 206.481 78.146 199.923 74.3622L138.358 38.8379ZM61.6309 171.655C60.0256 170.729 58.7706 169.356 57.9863 167.744L124.12 53.2643V207.645C123.806 207.508 123.498 207.353 123.197 207.179L61.6309 171.655ZM131.401 207.645V53.2643L197.534 167.744C196.75 169.356 195.495 170.729 193.89 171.655L132.324 207.179C132.023 207.353 131.715 207.508 131.401 207.645ZM61.6309 84.8067L115.421 53.7689L57.0673 154.782V92.7065C57.0673 89.4476 58.8069 86.4362 61.6309 84.8067ZM198.453 154.782L140.099 53.7689L193.89 84.8067C196.714 86.4362 198.453 89.4476 198.453 92.7065V154.782Z" fill="white"/>
</svg>
