<?xml version="1.0" encoding="UTF-8"?>
<svg id="Layer_1" xmlns="http://www.w3.org/2000/svg" version="1.1" viewBox="0 0 32 32">
  <!-- Generator: Adobe Illustrator 29.5.0, SVG Export Plug-In . SVG Version: 2.1.0 Build 137)  -->
  <defs>
    <style>
      .st0 {
        fill: #f5f5f5;
      }

      .st1 {
        fill: #141413;
        fill-rule: evenodd;
      }
    </style>
  </defs>
  <rect class="st0" width="32" height="32"/>
  <path class="st1" d="M17.29,4.85c-.82-.47-1.83-.47-2.65,0l-7.7,4.44c-.82.47-1.32,1.35-1.32,2.29v8.88c0,.95.5,1.82,1.32,2.29l7.7,4.44c.82.47,1.83.47,2.65,0l7.7-4.44c.82-.47,1.32-1.35,1.32-2.29v-8.88c0-.95-.5-1.82-1.32-2.29l-7.7-4.44ZM7.7,21.46c-.2-.12-.36-.29-.46-.49L15.52,6.66v19.3s-.08-.04-.12-.06l-7.7-4.44ZM16.43,25.96V6.66l8.27,14.31c-.1.2-.25.37-.46.49l-7.7,4.44s-.08.04-.12.06ZM7.7,10.6l6.72-3.88-7.29,12.63v-7.76c0-.41.22-.78.57-.99ZM24.81,19.35l-7.29-12.63,6.72,3.88c.35.2.57.58.57.99v7.76Z"/>
</svg>