<svg width="512" height="256" viewBox="0 0 512 256" fill="none" xmlns="http://www.w3.org/2000/svg">
<rect width="512" height="256" fill="#141413"/>
<path fill-rule="evenodd" clip-rule="evenodd" d="M101.197 81.4659C97.8117 79.5114 93.6406 79.5113 90.2552 81.4659L58.471 99.8166C55.0855 101.771 53 105.383 53 109.293V145.994C53 149.903 55.0855 153.515 58.471 155.47L90.2552 173.821C93.6406 175.775 97.8117 175.775 101.197 173.821L132.981 155.47C136.367 153.515 138.452 149.903 138.452 145.994V109.293C138.452 105.383 136.367 101.771 132.981 99.8166L101.197 81.4659ZM61.5859 150.075C60.7572 149.596 60.1093 148.887 59.7044 148.055L93.8468 88.9181V168.666C93.6846 168.595 93.5255 168.515 93.3701 168.425L61.5859 150.075ZM97.6056 168.666V88.9181L131.748 148.055C131.343 148.887 130.695 149.596 129.866 150.075L98.0822 168.425C97.9268 168.515 97.7677 168.595 97.6056 168.666ZM61.5859 105.212L89.356 89.1788L59.2299 141.359V109.293C59.2299 107.609 60.128 106.054 61.5859 105.212ZM132.222 141.359L102.096 89.1788L129.866 105.212C131.324 106.054 132.222 107.609 132.222 109.293V141.359ZM240.09 150.973V103.774H246.707V150.973H240.09ZM363.065 134.836C363.065 124.969 369.74 118.468 378.214 118.468C382.393 118.468 386.805 120.442 389.243 123.46V103.791H395.918V150.972H389.243V146.155C387.211 149.057 383.38 151.495 378.156 151.495C369.74 151.495 363.065 144.704 363.065 134.836ZM389.243 134.952C389.243 128.103 384.541 124.214 379.549 124.214C374.616 124.214 369.856 127.929 369.856 134.836C369.856 141.744 374.616 145.749 379.549 145.749C384.541 145.749 389.243 141.86 389.243 134.952ZM411.226 150.974V134.141C411.226 127.35 414.275 125.232 419.151 125.232C419.588 125.232 420.95 125.232 422.271 125.783L423.926 119.143C422.896 118.542 421.541 118.469 420.803 118.469C416.276 118.469 413.083 120.443 411.226 123.635V118.992H404.609V150.974H411.226ZM440.415 118.469C431.998 118.469 425.324 124.97 425.324 134.838C425.324 144.705 431.998 151.496 440.299 151.496C445.639 151.496 449.47 148.942 451.501 146.214V150.974H458.176V118.992H451.501V123.635C449.528 121.023 445.813 118.469 440.415 118.469ZM441.808 124.216C446.8 124.216 451.501 128.104 451.501 134.954C451.501 141.861 446.8 145.75 441.808 145.75C436.874 145.75 432.115 141.745 432.115 134.838C432.115 127.93 436.874 124.216 441.808 124.216ZM333.505 132.109C334.201 127.06 337.8 124.041 342.269 124.041C347.203 124.041 351.092 127.176 351.208 132.109H333.505ZM342.56 151.496C350.395 151.496 355.445 147.027 357.245 141.454H350.105C348.886 143.95 346.623 145.924 342.56 145.924C337.684 145.924 333.911 142.731 333.447 137.449H357.883C358.057 136.347 358.115 135.302 358.115 134.199C358.115 124.796 351.672 118.469 342.56 118.469C333.098 118.469 326.598 124.912 326.598 134.954C326.598 144.995 333.389 151.496 342.56 151.496ZM290.465 150.974V103.798H297.082V122.706C299.288 120.036 302.887 118.469 307.008 118.469C314.147 118.469 319.719 123.171 319.719 132.109V150.974H313.16V133.096C313.16 127.234 309.968 124.216 305.15 124.216C300.275 124.216 297.082 127.234 297.082 133.096V150.974H290.465ZM278.015 118.992L268.67 143.37L259.673 118.992H252.302L264.897 150.451L258.396 166.007H265.246L284.864 118.992H278.015ZM217.149 151.496C226.434 151.496 233.957 144.995 233.957 134.954C233.957 124.912 226.669 118.469 217.443 118.469C208.216 118.469 200.928 124.912 200.928 134.954C200.928 144.995 207.922 151.496 217.149 151.496ZM217.149 145.75C212.095 145.75 207.593 142.26 207.593 135.005C207.593 127.749 212.271 124.216 217.325 124.216C222.32 124.216 227.314 127.698 227.314 134.954C227.314 142.209 222.144 145.75 217.149 145.75ZM172.43 125.516H182.913C188.954 125.516 192.362 122.598 192.362 117.847C192.362 112.96 188.954 110.11 182.913 110.11H172.43V125.516ZM198.966 117.847C198.966 124.566 195.198 131.828 182.913 131.828H172.43V150.968L165.813 150.968V103.798L182.913 103.798C194.112 103.798 198.966 110.178 198.966 117.847Z" fill="white"/>
</svg>
