<svg width="48" height="48" viewBox="0 0 48 48" fill="none" xmlns="http://www.w3.org/2000/svg">
<path d="M21.0425 9.5677C21.3091 8.5826 22.7066 8.5826 22.9731 9.5677L23.6548 12.0871C25.1404 17.5781 29.4297 21.8674 34.9207 23.353L37.4401 24.0347C38.4252 24.3012 38.4252 25.6988 37.4401 25.9653L34.9207 26.647C29.4297 28.1326 25.1404 32.4219 23.6548 37.9129L22.9731 40.4323C22.7066 41.4174 21.3091 41.4174 21.0425 40.4323L20.3609 37.9129C18.8752 32.4219 14.5859 28.1326 9.09495 26.647L6.57552 25.9653C5.59041 25.6988 5.59041 24.3012 6.57552 24.0347L9.09495 23.353C14.5859 21.8674 18.8752 17.5781 20.3609 12.0871L21.0425 9.5677Z" stroke="#141413" stroke-width="2"/>
<path d="M38.5078 4L39.2922 6.89913C39.6636 8.27187 40.7359 9.34419 42.1087 9.7156L45.0078 10.5L42.1087 11.2844C40.7359 11.6558 39.6636 12.7281 39.2922 14.1009L38.5078 17L37.7234 14.1009C37.352 12.7281 36.2797 11.6558 34.9069 11.2844L32.0078 10.5L34.9069 9.7156C36.2797 9.34419 37.352 8.27186 37.7234 6.89913L38.5078 4Z" stroke="#141413" stroke-width="1.5" stroke-linejoin="round"/>
</svg>
