<svg width="49" height="49" viewBox="0 0 49 49" fill="none" xmlns="http://www.w3.org/2000/svg">
<path d="M26.7256 6.16383L26.1521 5.68058L26.1519 5.68074L26.7256 6.16383ZM29.3731 21.7673H28.6231V22.5173H29.3731V21.7673ZM38.6231 24.2341L39.1967 24.7172L39.1968 24.7172L38.6231 24.2341ZM23.3506 42.3699L23.9243 42.853L23.9243 42.853L23.3506 42.3699ZM20.7031 41.4041L19.9531 41.4041L19.9531 41.4042L20.7031 41.4041ZM20.7031 26.7664H21.4531V26.0164H20.7031V26.7664ZM11.4531 24.3005L12.0268 24.7836L12.0268 24.7836L11.4531 24.3005ZM27.2992 6.64708C27.7497 6.11234 28.6231 6.43102 28.6231 7.13062H30.1231C30.1231 5.03232 27.5041 4.07587 26.1521 5.68058L27.2992 6.64708ZM28.6231 7.13062V21.7673H30.1231V7.13062H28.6231ZM29.3731 22.5173H37.4756V21.0173H29.3731V22.5173ZM37.4756 22.5173C38.1131 22.5173 38.4603 23.2631 38.0494 23.751L39.1968 24.7172C40.4289 23.2541 39.3889 21.0173 37.4756 21.0173V22.5173ZM38.0494 23.751L22.7769 41.8868L23.9243 42.853L39.1967 24.7172L38.0494 23.751ZM22.7769 41.8868C22.3262 42.4219 21.4533 42.1031 21.4531 41.4039L19.9531 41.4042C19.9536 43.5027 22.5727 44.4579 23.9243 42.853L22.7769 41.8868ZM21.4531 41.4041V26.7664H19.9531V41.4041H21.4531ZM20.7031 26.0164H12.6006V27.5164H20.7031V26.0164ZM12.6006 26.0164C11.9627 26.0164 11.6162 25.2712 12.0268 24.7836L10.8795 23.8174C9.64702 25.281 10.6878 27.5164 12.6006 27.5164V26.0164ZM12.0268 24.7836L27.2993 6.64692L26.1519 5.68074L10.8795 23.8175L12.0268 24.7836Z" fill="#141413"/>
<line x1="25.3438" y1="21.4062" x2="25.3438" y2="26.9062" stroke="#141413" stroke-width="1.5" stroke-linecap="round"/>
</svg>
