<svg width="48" height="48" viewBox="0 0 48 48" fill="none" xmlns="http://www.w3.org/2000/svg">
<path d="M24 12.6805C24 14.2405 22.34 15.6405 19.78 16.5005C17.7549 17.1688 15.6322 17.4933 13.5 17.4605C11.3678 17.4933 9.24506 17.1688 7.22 16.5005C4.66 15.6405 3 14.2405 3 12.6805C3 10.0405 7.7 7.90049 13.5 7.90049C19.3 7.90049 24 10.0405 24 12.6805Z" stroke="#141413" stroke-width="2" stroke-miterlimit="10" stroke-linecap="square"/>
<path d="M24 12.6805V20.3205C24 21.8805 22.34 23.2805 19.78 24.1405C17.7526 24.7992 15.6316 25.1234 13.5 25.1005C11.3684 25.1234 9.24736 24.7992 7.22 24.1405C4.66 23.2805 3 21.8805 3 20.3205V12.6805C3 14.2405 4.66 15.6405 7.22 16.5005C9.24506 17.1688 11.3678 17.4933 13.5 17.4605C15.6322 17.4933 17.7549 17.1688 19.78 16.5005C22.34 15.6405 24 14.2405 24 12.6805Z" stroke="#141413" stroke-width="2" stroke-miterlimit="10" stroke-linecap="square"/>
<path d="M24 20.3205V27.9605C24 29.5205 22.34 30.9205 19.78 31.7805C17.7514 32.4317 15.6304 32.7492 13.5 32.7205C11.3696 32.7492 9.24865 32.4317 7.22 31.7805C4.66 31.0005 3 29.5205 3 27.9605V20.3205C3 21.8805 4.66 23.2805 7.22 24.1405C9.24736 24.7992 11.3684 25.1234 13.5 25.1005C15.6316 25.1234 17.7526 24.7992 19.78 24.1405C22.34 23.2805 24 21.8805 24 20.3205Z" stroke="#141413" stroke-width="2" stroke-miterlimit="10" stroke-linecap="square"/>
<path d="M24 27.9605V35.6005C24 38.2205 19.3 40.3605 13.5 40.3605C7.7 40.3605 3 38.2205 3 35.6005V27.9605C3 29.5205 4.66 30.9205 7.22 31.7805C9.24865 32.4317 11.3696 32.7492 13.5 32.7205C15.6304 32.7492 17.7514 32.4317 19.78 31.7805C22.34 31.0005 24 29.5205 24 27.9605Z" stroke="#141413" stroke-width="2" stroke-miterlimit="10" stroke-linecap="square"/>
<path d="M45 27.9605V35.6005C45 38.2205 40.3 40.3605 34.5 40.3605C28.7 40.3605 24 38.2205 24 35.6005V27.9605C24 29.5205 25.66 30.9205 28.22 31.7805C30.2486 32.4317 32.3696 32.7492 34.5 32.7205C36.6304 32.7492 38.7514 32.4317 40.78 31.7805C43.34 31.0005 45 29.5205 45 27.9605Z" stroke="#141413" stroke-width="2" stroke-miterlimit="10" stroke-linecap="square"/>
<path d="M45 27.9605C45 29.5205 43.34 30.9205 40.78 31.7805C38.7514 32.4317 36.6304 32.7492 34.5 32.7205C32.3696 32.7492 30.2486 32.4317 28.22 31.7805C25.66 31.0005 24 29.5205 24 27.9605C24 26.4005 25.38 25.2405 27.56 24.3605C29.4716 26.0614 31.9412 27.0011 34.5 27.0011C37.0588 27.0011 39.5284 26.0614 41.44 24.3605C43.62 25.2405 45 26.5205 45 27.9605Z" stroke="#141413" stroke-width="2" stroke-miterlimit="10" stroke-linecap="square"/>
<path d="M45 16.5005C45 18.5772 44.3842 20.6073 43.2304 22.334C42.0767 24.0607 40.4368 25.4065 38.5182 26.2012C36.5996 26.9959 34.4884 27.2039 32.4516 26.7987C30.4148 26.3936 28.5438 25.3936 27.0754 23.9251C25.6069 22.4567 24.6069 20.5857 24.2018 18.5489C23.7966 16.5121 24.0046 14.4009 24.7993 12.4823C25.594 10.5637 26.9398 8.92381 28.6665 7.77006C30.3932 6.6163 32.4233 6.00049 34.5 6.00049C35.8826 5.98713 37.254 6.2496 38.5339 6.77254C39.8139 7.29549 40.9767 8.06841 41.9544 9.04609C42.9321 10.0238 43.705 11.1866 44.228 12.4666C44.7509 13.7465 45.0134 15.1179 45 16.5005Z" stroke="#141413" stroke-width="2" stroke-linejoin="bevel"/>
</svg>
