<svg width="48" height="48" viewBox="0 0 48 48" fill="none" xmlns="http://www.w3.org/2000/svg">
<path fill-rule="evenodd" clip-rule="evenodd" d="M43.4433 33.111L43.4443 33.1106H43.4433C43.4433 33.1107 43.4433 33.1109 43.4433 33.111ZM17.5014 16.5V18.5H19.5014C19.7666 18.5 20.021 18.6054 20.2085 18.7929C20.3961 18.9804 20.5014 19.2348 20.5014 19.5C20.5014 19.7652 20.3961 20.0196 20.2085 20.2071C20.021 20.3946 19.7666 20.5 19.5014 20.5H17.5014V22.5C17.5014 22.7652 17.3961 23.0196 17.2085 23.2071C17.021 23.3946 16.7666 23.5 16.5014 23.5C16.2362 23.5 15.9818 23.3946 15.7943 23.2071C15.6068 23.0196 15.5014 22.7652 15.5014 22.5V20.5H13.5014C13.2362 20.5 12.9818 20.3946 12.7943 20.2071C12.6068 20.0196 12.5014 19.7652 12.5014 19.5C12.5014 19.2348 12.6068 18.9804 12.7943 18.7929C12.9818 18.6054 13.2362 18.5 13.5014 18.5H15.5014V16.5C15.5014 16.2348 15.6068 15.9804 15.7943 15.7929C15.9818 15.6054 16.2362 15.5 16.5014 15.5C16.7666 15.5 17.021 15.6054 17.2085 15.7929C17.3961 15.9804 17.5014 16.2348 17.5014 16.5ZM45.8483 35.1028C45.6729 35.9043 45.3402 36.663 44.8694 37.335C44.346 38.0825 43.6651 38.7063 42.8749 39.1626C42.0846 39.6189 41.204 39.8966 40.2949 39.9762C39.3859 40.0557 38.4704 39.9353 37.6129 39.6233C36.7554 39.3113 35.9766 38.8153 35.3312 38.1702L35.3082 38.1469C35.3005 38.139 35.2967 38.1348 35.2938 38.1313L27.6923 29.5H20.3028L12.7213 38.1173L12.667 38.1748C11.494 39.3426 9.90656 39.9988 8.25126 40C7.33894 39.9996 6.43776 39.7995 5.61102 39.4137C4.78418 39.0279 4.05185 38.4657 3.46546 37.7666C2.87908 37.0676 2.45286 36.2486 2.21677 35.3672C1.98067 34.4859 1.94041 33.5635 2.09882 32.6649L2.11094 32.5961L2.10964 32.5835L5.16665 16.8806L5.16824 16.8715C5.60471 14.3868 6.90288 12.1354 8.83465 10.513C10.7664 8.89051 13.2082 8.00075 15.7309 8L32.251 8C34.7664 8.0041 37.2009 8.88891 39.1319 10.5008C41.0515 12.1032 42.3531 14.3236 42.8139 16.7803V16.8163L45.8801 32.5816L45.8786 32.5957L45.8914 32.6658C46.0384 33.473 46.0237 34.3013 45.8483 35.1028ZM32.2514 10L15.7308 10C13.6762 10.0018 11.6875 10.7282 10.1156 12.0513C8.54371 13.3744 7.48874 15.2094 7.13632 17.2336L7.12891 17.2762V17.2955L4.06678 33.015L4.06503 33.0251C3.91118 33.911 4.04226 34.8228 4.43941 35.6295C4.83657 36.4362 5.47934 37.0961 6.27528 37.5144C7.07122 37.9327 7.97931 38.0878 8.86895 37.9573C9.75859 37.8269 10.5839 37.4176 11.2263 36.7884L11.2394 36.7756L19.1116 27.8386C19.2054 27.7322 19.3208 27.647 19.45 27.5886C19.5793 27.5303 19.7196 27.5 19.8615 27.5H32.2514C34.5721 27.5 36.7976 26.5781 38.4386 24.9372C40.0795 23.2962 41.0014 21.0706 41.0014 18.75C41.0014 16.4294 40.0795 14.2038 38.4386 12.5628C36.7976 10.9219 34.5721 10 32.2514 10ZM44.0516 33.6106H43.996C44.0263 34.527 43.7593 35.4345 43.2263 36.1934C42.5798 37.1139 41.5948 37.7406 40.4871 37.9361L40.4861 37.9363C39.8215 38.0522 39.1389 38.0089 38.4942 37.8099C37.8496 37.6109 37.2614 37.2619 36.7778 36.7915L36.7639 36.778L30.3577 29.5H32.251C34.0802 29.4985 35.8788 29.0302 37.4765 28.1395C39.0742 27.2487 40.4182 25.965 41.3813 24.4099L42.0537 23.3241L44.0516 33.6106ZM33.0014 20.5H28.5014C28.2362 20.5 27.9818 20.3946 27.7943 20.2071C27.6068 20.0196 27.5014 19.7652 27.5014 19.5C27.5014 19.2348 27.6068 18.9804 27.7943 18.7929C27.9818 18.6054 28.2362 18.5 28.5014 18.5H33.0014C33.2666 18.5 33.521 18.6054 33.7085 18.7929C33.8961 18.9804 34.0014 19.2348 34.0014 19.5C34.0014 19.7652 33.8961 20.0196 33.7085 20.2071C33.521 20.3946 33.2666 20.5 33.0014 20.5Z" fill="#141413"/>
<path d="M45.8474 35.1028C45.672 35.9043 45.3392 36.663 44.8685 37.3349C44.345 38.0824 43.6642 38.7063 42.8739 39.1625C42.0837 39.6188 41.2031 39.8965 40.294 39.9761C39.3849 40.0557 38.4695 39.9352 37.6119 39.6232C36.7544 39.3112 35.9756 38.8153 35.3303 38.1701L35.3072 38.1469C35.2995 38.139 35.2958 38.1347 35.2929 38.1313L27.6914 29.4999H30.3568L36.763 36.778L36.7769 36.7915C37.2605 37.2619 37.8487 37.6109 38.4933 37.8099C39.1379 38.0089 39.8206 38.0522 40.4852 37.9363L40.4861 37.9361C41.5939 37.7406 42.5789 37.1139 43.2254 36.1933C43.7584 35.4345 44.0254 34.5269 43.9951 33.6106H44.0507L42.0528 23.324C42.0528 23.324 42.1881 22.4226 42.5005 20.9999C42.813 19.5772 42.813 16.8162 42.813 16.8162L45.8791 32.5815L45.8777 32.5956L45.8905 32.6658C46.0375 33.473 46.0228 34.3013 45.8474 35.1028Z" fill="#141413"/>
</svg>
