<svg width="49" height="49" viewBox="0 0 49 49" fill="none" xmlns="http://www.w3.org/2000/svg">
<path fill-rule="evenodd" clip-rule="evenodd" d="M24.5924 6.39136L41.2591 9.72469V22.7562C41.2587 27.5051 39.6122 32.1071 36.6001 35.7784C33.5879 39.4498 29.3963 41.9636 24.739 42.8917L24.5924 42.921L24.4459 42.8917C19.7886 41.9636 15.597 39.4498 12.5848 35.7784C9.57268 32.1071 7.92621 27.5052 7.92578 22.7563V9.72469L24.5924 6.39136ZM9.42578 10.9544V22.7561C9.42578 22.7562 9.42578 22.7561 9.42578 22.7561C9.42619 27.1581 10.9524 31.4239 13.7445 34.827C16.5049 38.1916 20.3341 40.5074 24.5924 41.3909C28.8508 40.5074 32.68 38.1916 35.4404 34.827C38.2325 31.4239 39.7587 27.1582 39.7591 22.7562C39.7591 22.7562 39.7591 22.7562 39.7591 22.7562V10.9544L24.5924 7.92106L9.42578 10.9544Z" fill="#141413"/>
<path fill-rule="evenodd" clip-rule="evenodd" d="M33.0744 18.3589C33.3676 18.6515 33.368 19.1264 33.0753 19.4195L22.6116 29.9008L16.1142 23.4033C15.8213 23.1104 15.8213 22.6355 16.1142 22.3427C16.4071 22.0498 16.882 22.0498 17.1749 22.3427L22.6108 27.7785L32.0138 18.3598C32.3064 18.0666 32.7813 18.0662 33.0744 18.3589Z" fill="#141413"/>
</svg>
