<svg width="48" height="49" viewBox="0 0 48 49" fill="none" xmlns="http://www.w3.org/2000/svg">
<path fill-rule="evenodd" clip-rule="evenodd" d="M30.1523 39.6562C30.1523 39.242 30.4881 38.9063 30.9023 38.9063L38.2476 38.9063L38.2476 31.561C38.2476 31.1468 38.5834 30.811 38.9976 30.811C39.4118 30.811 39.7476 31.1468 39.7476 31.561L39.7476 39.6563C39.7476 40.0705 39.4118 40.4063 38.9976 40.4063L30.9023 40.4063C30.4881 40.4063 30.1523 40.0705 30.1523 39.6562Z" fill="#141413"/>
<path fill-rule="evenodd" clip-rule="evenodd" d="M39.5303 40.1866C39.2374 40.4795 38.7626 40.4795 38.4697 40.1866L29.0252 30.7421C28.7323 30.4492 28.7323 29.9744 29.0252 29.6815C29.3181 29.3886 29.793 29.3886 30.0859 29.6815L39.5303 39.1259C39.8232 39.4188 39.8232 39.8937 39.5303 40.1866Z" fill="#141413"/>
<path fill-rule="evenodd" clip-rule="evenodd" d="M9 18.501C8.58579 18.501 8.25 18.1652 8.25 17.751L8.25 9.65574C8.25 9.24152 8.58579 8.90574 9 8.90574L17.0952 8.90574C17.5095 8.90574 17.8452 9.24153 17.8452 9.65574C17.8452 10.07 17.5095 10.4057 17.0952 10.4057L9.75 10.4057L9.75 17.751C9.75 18.1652 9.41421 18.501 9 18.501Z" fill="#141413"/>
<path fill-rule="evenodd" clip-rule="evenodd" d="M18.9756 19.631C18.6827 19.9239 18.2079 19.9239 17.915 19.631L8.47054 10.1866C8.17764 9.89369 8.17764 9.41881 8.47054 9.12592C8.76343 8.83303 9.2383 8.83303 9.5312 9.12592L18.9756 18.5704C19.2685 18.8633 19.2685 19.3381 18.9756 19.631Z" fill="#141413"/>
<path fill-rule="evenodd" clip-rule="evenodd" d="M39.5295 9.12592C39.8224 9.41881 39.8224 9.89369 39.5295 10.1866L30.085 19.631C29.7921 19.9239 29.3173 19.9239 29.0244 19.631C28.7315 19.3381 28.7315 18.8633 29.0244 18.5704L38.4688 9.12592C38.7617 8.83303 39.2366 8.83303 39.5295 9.12592Z" fill="#141413"/>
<path fill-rule="evenodd" clip-rule="evenodd" d="M39 18.502C38.5858 18.502 38.25 18.1662 38.25 17.752L38.25 10.4067L30.9048 10.4067C30.4906 10.4067 30.1548 10.0709 30.1548 9.65671C30.1548 9.2425 30.4906 8.90671 30.9048 8.90671L39 8.90672C39.4142 8.90672 39.75 9.2425 39.75 9.65672L39.75 17.752C39.75 18.1662 39.4142 18.502 39 18.502Z" fill="#141413"/>
<path fill-rule="evenodd" clip-rule="evenodd" d="M18.0813 29.6816C18.3742 29.9745 18.3742 30.4494 18.0813 30.7422L8.97564 39.8479C8.68275 40.1408 8.20788 40.1408 7.91498 39.8479C7.62209 39.555 7.62209 39.0802 7.91498 38.7873L17.0207 29.6816C17.3136 29.3887 17.7884 29.3887 18.0813 29.6816Z" fill="#141413"/>
<path fill-rule="evenodd" clip-rule="evenodd" d="M17.2891 39.418C17.2891 39.8322 16.9533 40.168 16.5391 40.168L8.44382 40.168C8.02961 40.168 7.69382 39.8322 7.69382 39.418L7.69382 31.3227C7.69382 30.9085 8.02961 30.5727 8.44382 30.5727C8.85804 30.5727 9.19383 30.9085 9.19383 31.3227L9.19382 38.668L16.5391 38.668C16.9533 38.668 17.2891 39.0038 17.2891 39.418Z" fill="#141413"/>
</svg>
