<svg width="256" height="256" viewBox="0 0 256 256" fill="none" xmlns="http://www.w3.org/2000/svg">
<rect width="256" height="256" fill="#F5F5F5"/>
<path fill-rule="evenodd" clip-rule="evenodd" d="M208.934 156.337L143.061 42.2407C136.367 30.647 119.633 30.647 112.939 42.2407L47.0659 156.337C42.2637 164.654 45.1135 175.29 53.4314 180.093L119.305 218.125C124.685 221.231 131.315 221.231 136.695 218.125L202.569 180.093C210.886 175.29 213.736 164.654 208.934 156.337ZM60.7738 167.375C59.4798 166.628 59.0364 164.973 59.7835 163.679L123.339 53.5983V203.497L60.7738 167.375ZM132.661 203.497L195.226 167.375C196.52 166.628 196.964 164.973 196.216 163.679L132.661 53.5982V203.497Z" fill="#141413"/>
</svg>
