<svg width="149" height="40" viewBox="0 0 149 40" fill="none" xmlns="http://www.w3.org/2000/svg">
<path fill-rule="evenodd" clip-rule="evenodd" d="M21.4423 1.86086L35.5397 26.2783C36.5674 28.0583 35.9575 30.3345 34.1774 31.3622L20.08 39.5014C18.9285 40.1662 17.5098 40.1662 16.3583 39.5014L2.2609 31.3622C0.48081 30.3345 -0.129064 28.0583 0.898649 26.2783L14.9961 1.86086C16.4285 -0.620287 20.0098 -0.620285 21.4423 1.86086ZM3.62031 27.8496C3.46042 28.1266 3.5553 28.4807 3.83225 28.6406L17.4222 36.4867V3.94413L3.62031 27.8496ZM19.0163 3.94433V36.4867L32.6061 28.6406C32.883 28.4807 32.9779 28.1266 32.818 27.8496L19.0163 3.94433ZM48.5352 3.85693V19.9574H58.9265V17.9185H51.0637V12.8216H58.2269V10.7828H51.0637V5.89578H58.9265V3.85693H48.5352ZM66.8197 11.931L61.7999 3.8808H64.6317L68.354 9.86485L71.8408 3.8808H74.648L69.6282 11.931L74.6248 19.9579H71.7929L68.0939 14.0206L64.6304 19.9579H61.8231L66.8197 11.931ZM77.7246 3.88086V19.958H80.2532V13.3819H84.0396C86.1369 13.3819 87.5529 12.7623 88.4446 11.8649C89.3369 10.9669 89.7112 9.78358 89.7112 8.64305C89.7112 7.34144 89.2451 6.15278 88.3068 5.2891C87.3683 4.42519 85.9512 3.88086 84.0396 3.88086H77.7246ZM80.2532 5.9197H84.0396C85.0864 5.9197 85.857 6.16664 86.366 6.6365C86.876 7.10723 87.1127 7.79172 87.1127 8.64305C87.1127 9.47152 86.8757 10.15 86.366 10.6204C85.8572 11.0901 85.0868 11.3431 84.0396 11.3431H80.2532V5.9197ZM104.311 19.9356V3.88475H106.639V9.98811C107.415 9.04851 108.682 8.49701 110.132 8.49701C112.644 8.49701 114.605 10.1515 114.605 13.2971V19.9356H112.297V13.6444C112.297 11.5813 111.174 10.5192 109.478 10.5192C107.763 10.5192 106.639 11.5813 106.639 13.6444V19.9356H104.311ZM131.42 19.9356V8.68082H133.748V19.9356H131.42ZM132.604 7.18972C131.767 7.18972 131.113 6.53609 131.113 5.69862C131.113 4.86115 131.767 4.20752 132.604 4.20752C133.421 4.20752 134.075 4.86115 134.075 5.69862C134.075 6.53609 133.421 7.18972 132.604 7.18972ZM144.791 19.9356V13.6444C144.791 11.5814 143.668 10.5192 141.972 10.5192C140.257 10.5192 139.133 11.5814 139.133 13.6444V19.9356H136.805V8.6809H139.133V9.96774C139.889 9.04857 141.135 8.49707 142.483 8.49707C145.118 8.49707 147.099 10.1516 147.099 13.2972V19.9356H144.791ZM122.111 8.49707C119.149 8.49707 116.8 10.7848 116.8 14.2572C116.8 17.7296 119.149 20.1195 122.07 20.1195C123.949 20.1195 125.297 19.2207 126.012 18.2607V19.9356H128.361V8.6809H126.012V10.315C125.318 9.39581 124.01 8.49707 122.111 8.49707ZM122.601 10.5192C124.358 10.5192 126.012 11.8878 126.012 14.2981C126.012 16.7288 124.358 18.0973 122.601 18.0973C120.865 18.0973 119.19 16.6879 119.19 14.2572C119.19 11.8265 120.865 10.5192 122.601 10.5192ZM91.4023 14.2891C91.4023 10.7703 93.6936 8.479 96.926 8.479C99.6879 8.479 101.488 9.8497 102.122 12.2228H99.606C99.2173 11.1386 98.3172 10.443 96.926 10.443C95.0439 10.443 93.796 11.8341 93.796 14.2891C93.796 16.7645 95.0439 18.1557 96.926 18.1557C98.3172 18.1557 99.1764 17.5419 99.606 16.3758H102.122C101.488 18.5853 99.6879 20.1197 96.926 20.1197C93.6936 20.1197 91.4023 17.8284 91.4023 14.2891Z" fill="#141413"/>
<path opacity="0.6" fill-rule="evenodd" clip-rule="evenodd" d="M55.8688 32.7228C55.8688 30.0242 54.1072 28.3501 51.2462 28.3501H48.5352V37.058H51.2462C54.1072 37.058 55.8688 35.4214 55.8688 32.7228ZM51.2462 36.121H49.6721V29.2746H51.2462C53.52 29.2746 54.7069 30.5989 54.7069 32.7228C54.7069 34.8467 53.52 36.121 51.2462 36.121ZM88.1073 31.1484V35.1838C88.1073 36.5581 88.7945 37.0578 90.0063 37.0578H91.0308V36.0958H90.1937C89.4941 36.0958 89.2442 35.8584 89.2442 35.1838V31.1484H91.0308V30.2114H89.2442V28.4874H88.1073V30.2114H87.2203V31.1484H88.1073ZM80.8598 33.1347C80.9847 31.7979 81.9092 31.0608 83.0211 31.0608C84.1955 31.0608 85.195 31.7979 85.1825 33.1347H80.8598ZM83.0711 37.1701C84.7702 37.1701 85.8696 36.1956 86.2194 34.9463H84.9951C84.7452 35.6834 84.0956 36.2081 83.0711 36.2081C81.9092 36.2081 80.9347 35.446 80.8473 34.0592H86.3194C86.3444 33.8219 86.3569 33.622 86.3569 33.3721C86.3569 31.4981 85.0576 30.0988 83.0711 30.0988C81.0722 30.0988 79.6854 31.4606 79.6854 33.622C79.6854 35.7958 81.1221 37.1701 83.0711 37.1701ZM77.1288 37.058V33.185C77.1288 31.7857 76.3667 31.0736 75.2173 31.0736C74.0554 31.0736 73.2559 31.7982 73.2559 33.2725V37.058H72.119V30.2116H73.2559V31.1861C73.7056 30.4739 74.5302 30.0866 75.4547 30.0866C77.0414 30.0866 78.2532 31.0611 78.2532 33.0226V37.058H77.1288ZM65.5278 30.2112H64.3034L66.9895 37.0576H68.3138L70.9999 30.2112H69.7881L67.6642 36.0081L65.5278 30.2112ZM60.2792 31.0608C59.1673 31.0608 58.2427 31.7979 58.1178 33.1347H62.4405C62.453 31.7979 61.4536 31.0608 60.2792 31.0608ZM63.4775 34.9463C63.1277 36.1956 62.0282 37.1701 60.3291 37.1701C58.3802 37.1701 56.9434 35.7958 56.9434 33.622C56.9434 31.4606 58.3302 30.0988 60.3291 30.0988C62.3156 30.0988 63.6149 31.4981 63.6149 33.3721C63.6149 33.622 63.6024 33.8219 63.5774 34.0592H58.1053C58.1928 35.446 59.1673 36.2081 60.3291 36.2081C61.3536 36.2081 62.0033 35.6834 62.2531 34.9463H63.4775Z" fill="#141413"/>
</svg>
