<svg width="64" height="64" viewBox="0 0 64 64" fill="none" xmlns="http://www.w3.org/2000/svg">
<rect width="64" height="64" rx="32" fill="#F5F5F5"/>
<path fill-rule="evenodd" clip-rule="evenodd" d="M35.6261 11.5063L51.4541 38.9212C52.608 40.9198 51.9232 43.4754 49.9246 44.6293L34.0967 53.7676C32.8038 54.514 31.2109 54.5141 29.918 53.7676L14.09 44.6293C12.0914 43.4754 11.4066 40.9198 12.5605 38.9212L28.3885 11.5063C29.9969 8.72056 34.0177 8.72056 35.6261 11.5063ZM15.6163 40.6855C15.4368 40.9964 15.5433 41.394 15.8543 41.5735L31.1125 50.3829L31.1125 13.8453L15.6163 40.6855ZM32.9023 13.8455L32.9023 50.3828L48.1604 41.5735C48.4713 41.394 48.5779 40.9964 48.3983 40.6855L32.9023 13.8455Z" fill="#141413"/>
</svg>
