<svg width="149" height="40" viewBox="0 0 149 40" fill="none" xmlns="http://www.w3.org/2000/svg">
<path opacity="0.6" fill-rule="evenodd" clip-rule="evenodd" d="M48.8352 28.3486V29.2711H51.2162V37.0374H52.3506V29.2711H54.7191V28.3486H48.8352ZM70.6082 35.167V31.1405H69.7231V30.2055H70.6082V28.4852H71.7425V30.2055H73.5252V31.1405H71.7425V35.167C71.7425 35.8401 71.9919 36.077 72.69 36.077H73.5252V37.0368H72.503C71.2938 37.0368 70.6082 36.5382 70.6082 35.167ZM90.8529 35.167V31.1405H89.9679V30.2055H90.8529V28.4852H91.9873V30.2055H93.77V31.1405H91.9873V35.167C91.9873 35.8401 92.2367 36.077 92.9347 36.077H93.77V37.0368H92.7478C91.5386 37.0368 90.8529 36.5382 90.8529 35.167ZM85.7778 31.0527C84.6684 31.0527 83.7459 31.7882 83.6212 33.1221H87.9344C87.9469 31.7882 86.9496 31.0527 85.7778 31.0527ZM88.9691 34.9296C88.6201 36.1762 87.5231 37.1485 85.8277 37.1485C83.883 37.1485 82.4494 35.7773 82.4494 33.6082C82.4494 31.4516 83.8332 30.0928 85.8277 30.0928C87.8098 30.0928 89.1062 31.489 89.1062 33.3589C89.1062 33.6082 89.0938 33.8077 89.0688 34.0445H83.6088C83.696 35.4283 84.6684 36.1887 85.8277 36.1887C86.8499 36.1887 87.4981 35.6651 87.7474 34.9296H88.9691ZM79.8984 33.1727V37.0371H81.0204V33.0106C81.0204 31.0535 79.8112 30.0811 78.228 30.0811C77.3055 30.0811 76.4828 30.4676 76.034 31.1781V30.2058H74.8996V37.0371H76.034V33.2599C76.034 31.7889 76.8318 31.0659 77.9911 31.0659C79.138 31.0659 79.8984 31.7765 79.8984 33.1727ZM66.264 37.1485C67.7724 37.1485 68.7572 36.3009 68.7572 35.1789C68.7298 33.834 67.5163 33.4976 66.4309 33.1966C65.5444 32.9508 64.7432 32.7287 64.7432 32.0001C64.7432 31.4516 65.2418 31.0527 66.077 31.0527C66.9871 31.0527 67.5106 31.5514 67.5605 32.237H68.6949C68.6201 30.9031 67.6228 30.0928 66.1144 30.0928C64.5936 30.0928 63.6088 30.953 63.6088 32.0001C63.6088 33.4342 64.8932 33.7781 66.0134 34.0781C66.8796 34.31 67.6477 34.5157 67.6477 35.1789C67.6477 35.7399 67.1491 36.1887 66.2516 36.1887C65.2917 36.1887 64.7058 35.69 64.6435 35.0293H63.4717C63.5465 36.2759 64.6684 37.1485 66.264 37.1485ZM59.0198 31.0527C57.9104 31.0527 56.9879 31.7882 56.8632 33.1221H61.1764C61.1889 31.7882 60.1916 31.0527 59.0198 31.0527ZM62.2111 34.9296C61.8621 36.1762 60.7651 37.1485 59.0697 37.1485C57.125 37.1485 55.6914 35.7773 55.6914 33.6082C55.6914 31.4516 57.0752 30.0928 59.0697 30.0928C61.0518 30.0928 62.3482 31.489 62.3482 33.3589C62.3482 33.6082 62.3358 33.8077 62.3108 34.0445H56.8508C56.938 35.4283 57.9104 36.1887 59.0697 36.1887C60.0919 36.1887 60.7401 35.6651 60.9894 34.9296H62.2111Z" fill="#141413"/>
<path fill-rule="evenodd" clip-rule="evenodd" d="M48.8352 3.9668V20.0672H59.2265V18.0284H51.3638V12.9315H58.5269V10.8927H51.3638V6.00564H59.2265V3.9668H48.8352ZM67.1197 12.0409L62.0999 3.99066H64.9317L68.6541 9.97472L72.1408 3.99066H74.9481L69.9283 12.0409L74.9249 20.0678H72.0929L68.3939 14.1305L64.9305 20.0678H62.1231L67.1197 12.0409ZM78.025 3.99066V20.0678H80.5536V13.4917H84.34C86.4373 13.4917 87.8534 12.8721 88.7451 11.9747C89.6373 11.0767 90.0117 9.89338 90.0117 8.75285C90.0117 7.45125 89.5455 6.26258 88.6072 5.3989C87.6687 4.535 86.2516 3.99066 84.34 3.99066H78.025ZM80.5536 6.0295H84.34C85.3869 6.0295 86.1574 6.27644 86.6665 6.74631C87.1764 7.21703 87.4132 7.90152 87.4132 8.75285C87.4132 9.58132 87.1762 10.2598 86.6665 10.7302C86.1576 11.1999 85.3873 11.4529 84.34 11.4529H80.5536V6.0295ZM104.611 20.0454V3.99462H106.94V10.098C107.716 9.15837 108.982 8.60687 110.432 8.60687C112.945 8.60687 114.906 10.2614 114.906 13.407V20.0454H112.598V13.7542C112.598 11.6912 111.474 10.629 109.779 10.629C108.063 10.629 106.94 11.6912 106.94 13.7542V20.0454H104.611ZM131.719 20.0454V8.79068H134.048V20.0454H131.719ZM132.904 7.29958C132.067 7.29958 131.413 6.64595 131.413 5.80848C131.413 4.97102 132.067 4.31738 132.904 4.31738C133.721 4.31738 134.375 4.97102 134.375 5.80848C134.375 6.64595 133.721 7.29958 132.904 7.29958ZM145.092 20.0455V13.7543C145.092 11.6913 143.968 10.6291 142.273 10.6291C140.557 10.6291 139.434 11.6913 139.434 13.7543V20.0455H137.105V8.79077H139.434V10.0776C140.189 9.15844 141.435 8.60693 142.784 8.60693C145.418 8.60693 147.4 10.2614 147.4 13.407V20.0455H145.092ZM122.411 8.60693C119.449 8.60693 117.1 10.8946 117.1 14.3671C117.1 17.8395 119.449 20.2293 122.37 20.2293C124.249 20.2293 125.597 19.3306 126.312 18.3706V20.0455H128.661V8.79077H126.312V10.4248C125.618 9.50568 124.31 8.60693 122.411 8.60693ZM122.901 10.6291C124.658 10.6291 126.312 11.9977 126.312 14.4079C126.312 16.8386 124.658 18.2072 122.901 18.2072C121.165 18.2072 119.49 16.7978 119.49 14.3671C119.49 11.9364 121.165 10.6291 122.901 10.6291Z" fill="black"/>
<path fill-rule="evenodd" clip-rule="evenodd" d="M21.7427 1.86086L35.8401 26.2783C36.8678 28.0583 36.2579 30.3345 34.4778 31.3622L20.3805 39.5014C19.2289 40.1662 17.8102 40.1662 16.6587 39.5014L2.56131 31.3622C0.781225 30.3345 0.171351 28.0583 1.19906 26.2783L15.2965 1.86086C16.729 -0.620287 20.3102 -0.620285 21.7427 1.86086ZM3.92073 27.8496C3.76083 28.1266 3.85572 28.4807 4.13266 28.6406L17.7226 36.4867L17.7226 3.94413L3.92073 27.8496ZM19.3167 3.94433L19.3167 36.4867L32.9065 28.6406C33.1834 28.4807 33.2783 28.1266 33.1184 27.8496L19.3167 3.94433Z" fill="black"/>
<path d="M97.2266 8.58887C93.9942 8.58887 91.7029 10.8802 91.7029 14.399C91.7029 17.9382 93.9942 20.2295 97.2266 20.2295C99.9884 20.2295 101.789 18.6952 102.423 16.4857H99.9066C99.477 17.6518 98.6177 18.2656 97.2266 18.2656C95.3444 18.2656 94.0965 16.8744 94.0965 14.399C94.0965 11.944 95.3444 10.5528 97.2266 10.5528C98.6177 10.5528 99.5179 11.2484 99.9066 12.3327H102.423C101.789 9.95956 99.9884 8.58887 97.2266 8.58887Z" fill="black"/>
</svg>
