<svg width="512" height="256" viewBox="0 0 512 256" fill="none" xmlns="http://www.w3.org/2000/svg">
<rect width="512" height="256" fill="#F5F5F5"/>
<path d="M412.034 121.912C407.813 121.912 404.414 124.762 403.756 129.532H420.476C420.367 124.872 416.694 121.912 412.034 121.912ZM426.178 138.358C424.478 143.621 419.709 147.842 412.308 147.842C403.646 147.842 397.232 141.702 397.232 132.218C397.232 122.734 403.372 116.649 412.308 116.649C420.915 116.649 427 122.624 427 131.505C427 132.547 426.945 133.534 426.781 134.575H403.701C404.14 139.564 407.703 142.579 412.308 142.579C416.145 142.579 418.283 140.715 419.435 138.358H426.178Z" fill="black"/>
<path d="M360.078 132.108C360.078 122.789 366.383 116.649 374.332 116.649C379.265 116.649 382.938 118.951 384.802 121.528V117.142H391.107V147.842C391.107 156.065 385.789 162.26 376.36 162.26C368.301 162.26 362.326 158.258 361.558 151.57H367.753C368.685 154.695 372.029 156.833 376.36 156.833C381.184 156.833 384.802 153.872 384.802 147.842V142.799C382.884 145.375 379.265 147.842 374.332 147.842C366.383 147.842 360.078 141.428 360.078 132.108ZM384.802 132.218C384.802 125.749 380.362 122.076 375.647 122.076C370.988 122.076 366.492 125.585 366.492 132.108C366.492 138.632 370.988 142.415 375.647 142.415C380.362 142.415 384.802 138.742 384.802 132.218Z" fill="black"/>
<path d="M322.924 132.108C322.924 122.789 329.228 116.649 337.232 116.649C341.179 116.649 345.346 118.513 347.648 121.363L347.648 103.076H353.953L353.953 147.349H347.648V142.798C345.73 145.54 342.111 147.842 337.178 147.842C329.228 147.842 322.924 141.428 322.924 132.108ZM347.648 132.218C347.648 125.749 343.208 122.076 338.493 122.076C333.833 122.076 329.338 125.585 329.338 132.108C329.338 138.632 333.833 142.415 338.493 142.415C343.208 142.415 347.648 138.742 347.648 132.218Z" fill="black"/>
<path d="M310.553 147.349V117.142H316.802V147.349H310.553ZM313.732 113.14C311.485 113.14 309.73 111.386 309.73 109.138C309.73 106.891 311.485 105.137 313.732 105.137C315.925 105.137 317.679 106.891 317.679 109.138C317.679 111.386 315.925 113.14 313.732 113.14Z" fill="black"/>
<path d="M295.762 131.451V147.349H289.513V117.142H295.762V121.528C297.517 118.513 300.532 116.649 304.808 116.649V123.118H303.218C298.613 123.118 295.762 125.037 295.762 131.451Z" fill="black"/>
<path fill-rule="evenodd" clip-rule="evenodd" d="M250.514 147.346V103.141H267.3C271.984 103.141 275.537 104.431 277.913 106.47C280.287 108.507 281.51 111.309 281.51 114.386C281.51 117.03 280.709 119.14 279.391 120.778C278.07 122.419 276.218 123.6 274.098 124.36L273.073 124.727L274.145 124.915C278.762 125.727 282.541 130.364 282.541 135.585C282.541 138.917 281.191 141.849 278.728 143.952C276.261 146.057 272.659 147.346 268.138 147.346H250.514ZM266.656 108.556H257.282V121.956H266.656C269.081 121.956 271.071 121.383 272.461 120.248C273.858 119.106 274.612 117.423 274.612 115.288C274.612 113.185 273.858 111.488 272.463 110.323C271.075 109.163 269.085 108.556 266.656 108.556ZM267.236 127.371H257.282V141.93H267.494C270.02 141.93 272.091 141.291 273.536 140.066C274.987 138.836 275.772 137.043 275.772 134.812C275.772 132.511 274.902 130.64 273.383 129.349C271.869 128.062 269.735 127.371 267.236 127.371Z" fill="black"/>
<path d="M219.878 147.349V103.095H226.128V130.354L237.092 117.142H245.754L231.829 132.273L245.754 147.349H237.311L226.128 134.356V147.349H219.878Z" fill="black"/>
<path d="M213.316 117.142V122.241L199.611 142.25H213.316V147.349H192.375V142.25L206.135 122.241H192.375V117.142H213.316Z" fill="black"/>
<path fill-rule="evenodd" clip-rule="evenodd" d="M145.408 93.9841C143.411 90.4897 138.076 91.9066 138.076 95.9313V133.574C132.464 132.999 126.805 133.018 121.196 133.63V95.9968C121.196 91.9563 115.827 90.5523 113.849 94.0755L86.503 142.786C85.4601 144.644 86.0897 146.995 87.9216 148.082L115.268 164.319C117.884 165.873 121.196 163.987 121.196 160.945V137.105C126.804 136.465 132.465 136.446 138.076 137.047V160.962C138.076 163.991 141.362 165.879 143.978 164.352L171.848 148.095C173.709 147.009 174.347 144.627 173.278 142.757L145.408 93.9841ZM143.682 137.858V158.034L165.441 145.341C158.519 141.721 151.18 139.226 143.682 137.858ZM166.342 141.919L143.682 102.265V134.349C151.481 135.709 159.123 138.233 166.342 141.919ZM115.59 134.442V102.429L93.4058 141.944C100.478 138.327 107.956 135.826 115.59 134.442ZM94.3191 145.36C101.09 141.814 108.261 139.346 115.59 137.955V157.99L94.3191 145.36Z" fill="black"/>
</svg>
