<svg width="256" height="256" viewBox="0 0 256 256" fill="none" xmlns="http://www.w3.org/2000/svg">
<rect width="256" height="256" fill="#F5F5F5"/>
<path fill-rule="evenodd" clip-rule="evenodd" d="M161.974 51.5123C157.6 43.8581 145.913 46.9618 145.913 55.7776V138.232C133.62 136.973 121.225 137.013 108.94 138.353V55.9212C108.94 47.0707 97.1789 43.9952 92.8463 51.7127L32.9456 158.411C30.6611 162.48 32.0402 167.629 36.0529 170.011L95.9536 205.577C101.684 208.98 108.94 204.85 108.94 198.185V145.966C121.221 144.565 133.623 144.523 145.913 145.839V198.224C145.913 204.859 153.11 208.993 158.841 205.65L219.89 170.038C223.965 167.661 225.363 162.443 223.022 158.347L161.974 51.5123ZM158.194 147.615V191.809L205.854 164.007C190.693 156.077 174.616 150.612 158.194 147.615ZM207.828 156.512L158.194 69.6513V139.93C175.275 142.909 192.015 148.437 207.828 156.512ZM96.6583 140.134V70.0102L48.0656 156.566C63.5559 148.642 79.9368 143.165 96.6583 140.134ZM50.0663 164.049C64.8978 156.281 80.6062 150.874 96.6583 147.828V191.713L50.0663 164.049Z" fill="#141413"/>
</svg>
