<svg width="48" height="48" viewBox="0 0 48 48" fill="none" xmlns="http://www.w3.org/2000/svg">
<rect width="48" height="48" fill="#171717"/>
<path d="M38.5254 28.5851C38.9431 27.2101 39.1707 25.7529 39.1707 24.2437C39.1707 24.076 39.1644 23.9114 39.1582 23.7437C33.1641 20.2742 28.6443 12.8414 26.7523 9.31402C25.7299 9.10671 24.6701 9 23.5853 9C22.5006 9 21.5125 9.10366 20.5212 9.29573C19.6765 10.8567 18.3144 13.189 16.5252 15.6066C14.4617 18.3962 11.5036 21.7316 8.01247 23.7559C8.00623 23.9175 8 24.0791 8 24.2437C8 25.7559 8.22755 27.2162 8.64835 28.5943C11.2386 27.4022 13.5889 25.637 15.6555 23.6461C14.1811 27.0577 12.5384 30.3686 10.8272 32.9936C11.7498 34.2802 12.872 35.4204 14.1469 36.3716C16.0171 33.6948 17.906 30.1735 19.8013 25.8229C19.131 30.2985 18.1586 34.2161 16.7558 37.9508C18.146 38.6154 19.6547 39.0819 21.2413 39.3166C22.245 36.8106 23.0367 34.3198 23.6601 31.079C24.2867 34.3076 25.0815 36.7923 26.0852 39.2893C27.6656 39.0392 29.1649 38.5575 30.5457 37.8807C29.1898 34.2802 28.236 30.5058 27.5628 26.1613C29.4018 30.3443 31.2377 33.7436 33.0519 36.3472C34.3267 35.393 35.4458 34.2466 36.3653 32.957C34.6665 30.3412 33.0363 27.0547 31.5713 23.6675C33.6223 25.6461 35.9507 27.3991 38.5223 28.5851H38.5254Z" fill="#F2F2F2"/>
</svg>
