<svg width="48" height="48" viewBox="0 0 48 48" fill="none" xmlns="http://www.w3.org/2000/svg">
<rect width="48" height="48" fill="#4520E6"/>
<path fill-rule="evenodd" clip-rule="evenodd" d="M33.3666 29.9948C33.3666 32.5756 31.2673 34.675 28.6864 34.675H19.7131L29.0387 25.3498C31.4526 25.5336 33.3666 27.5345 33.3666 29.9948ZM18.3898 24.9276V14.0818H28.6864C28.8623 14.0818 29.0359 14.0915 29.2068 14.1107L18.3898 24.9276ZM35.238 18.7626C35.238 16.5778 34.1634 14.6397 32.515 13.4487L36.9637 9L34.3023 9.01516L30.7679 12.5495C30.1137 12.3297 29.4137 12.2106 28.6864 12.2106H16.5185V29.4452L31.1682 14.7955C32.4876 15.6243 33.3666 17.0927 33.3666 18.7626C33.3666 21.3434 31.2673 23.4427 28.6864 23.4427H28.299L12 39.7417H14.6462L17.8417 36.5463H28.6864C32.2989 36.5463 35.238 33.6073 35.238 29.9948C35.238 27.6123 33.9557 25.5292 32.0494 24.3824C33.9577 23.2359 35.238 21.1462 35.238 18.7626Z" fill="white"/>
</svg>
