<svg width="48" height="48" viewBox="0 0 48 48" fill="none" xmlns="http://www.w3.org/2000/svg">
<rect width="48" height="48" fill="white"/>
<path fill-rule="evenodd" clip-rule="evenodd" d="M25.7187 16.4914C24.6002 15.8339 23.2268 15.8364 22.1107 16.498L3.91903 27.2816C3.35044 27.6186 3.00002 28.2425 3 28.9177C2.99993 31.0628 5.08388 32.5459 7.03402 31.7888L9.79322 30.7175C18.8957 27.1833 28.9351 27.1692 38.0469 30.6778L40.9676 31.8024C42.9194 32.5539 45.0001 31.0687 45 28.9241C44.9999 28.2453 44.6465 27.6187 44.0738 27.2822L25.7187 16.4914ZM23.8669 19.3676C22.4127 19.3676 21.2338 20.5807 21.2338 22.0773C21.2338 23.5738 22.4127 24.787 23.8669 24.787C25.3211 24.787 26.4999 23.5738 26.4999 22.0773C26.4999 20.5808 25.3211 19.3676 23.8669 19.3676Z" fill="#FF5001"/>
</svg>
