<svg width="48" height="48" viewBox="0 0 48 48" fill="none" xmlns="http://www.w3.org/2000/svg">
<rect width="48" height="48" fill="#2E0C61"/>
<g filter="url(#filter0_d_22899_1434)">
<mask id="mask0_22899_1434" style="mask-type:luminance" maskUnits="userSpaceOnUse" x="7" y="6" width="33" height="36">
<path d="M8.32104 26.6098C8.32104 26.1192 8.71877 25.7212 9.20939 25.7212C9.69997 25.7212 10.0974 26.1192 10.0974 26.6098C10.0974 27.1004 9.6997 27.4986 9.20939 27.4986C8.71904 27.4986 8.32104 27.1007 8.32104 26.6098ZM8.32104 21.4648C8.32104 20.9739 8.71877 20.5758 9.20939 20.5758C9.69997 20.5758 10.0974 20.9739 10.0974 21.4648C10.0974 21.9557 9.6997 22.3536 9.20939 22.3536C8.71904 22.3536 8.32104 21.9556 8.32104 21.4648ZM26.8146 8.11018C26.8146 8.60093 27.2122 8.99898 27.7027 8.99898C28.1932 8.99898 28.5909 8.60093 28.5909 8.11018C28.5909 7.61938 28.1932 7.22124 27.7027 7.22124C27.2122 7.22124 26.8146 7.61924 26.8146 8.11018ZM22.5611 7.22124C23.0517 7.22124 23.4492 7.61924 23.4492 8.11018C23.4492 8.60111 23.0517 8.99898 22.5611 8.99898C22.0705 8.99898 21.6729 8.60093 21.6729 8.11018C21.6729 7.61938 22.0705 7.22124 22.5611 7.22124ZM28.591 39.9644C28.591 40.4551 28.1933 40.8531 27.7028 40.8531C27.2124 40.8531 26.8148 40.4551 26.8148 39.9644C26.8148 39.4738 27.2124 39.0756 27.7028 39.0756C28.1933 39.0756 28.591 39.4736 28.591 39.9644ZM23.4492 39.9644C23.4492 40.4551 23.0517 40.8531 22.5611 40.8531C22.0705 40.8531 21.6729 40.4551 21.6729 39.9644C21.6729 39.4738 22.0705 39.0756 22.5611 39.0756C23.0517 39.0756 23.4492 39.4736 23.4492 39.9644ZM28.9882 9.55827V13.4208C31.3186 14.2685 33.2908 15.8628 34.6162 17.9144H36.087C34.7625 15.5468 32.6941 13.6527 30.1981 12.5488V9.78195C34.4457 11.2937 37.8179 14.6521 39.3506 18.8921H34.0686C33.6969 18.247 33.2574 17.6461 32.76 17.0988L31.8388 18.0207L31.8285 18.0309L31.8183 18.0412L31.8081 18.0514L31.7978 18.0617L31.7874 18.072L31.7772 18.0822L31.7669 18.0925L31.7566 18.1028L31.7464 18.113L31.7361 18.1233L31.7259 18.1336L31.7156 18.1438L31.7052 18.154L31.695 18.1643L31.6847 18.1746L31.6745 18.1848L31.6642 18.1951L31.6539 18.2054L31.6437 18.2156L31.6333 18.2259L31.623 18.2362L31.6128 18.2464L31.6026 18.2567L31.5923 18.2669L31.5908 18.2685L31.183 18.6765L31.1825 18.6769C29.702 17.004 27.5394 15.9493 25.1305 15.9493C20.6661 15.9493 17.0472 19.5708 17.0472 24.038C17.0472 28.5052 20.6659 32.1265 25.1305 32.1265C27.5394 32.1265 29.702 31.072 31.1826 29.3989L31.1829 29.3995L31.6221 29.839L31.6228 29.8396L31.633 29.8499L31.6434 29.8602L31.6537 29.8704L31.6639 29.8808L31.6742 29.8911L31.6845 29.9014L31.6947 29.9116L31.7049 29.9219L31.7153 29.9322L31.7256 29.9424L31.7358 29.9527L31.7461 29.9631L31.7564 29.9733L31.7666 29.9836L31.7769 29.9939L31.7871 30.0041L31.7975 30.0144L31.8078 30.0247L31.818 30.0351L31.8283 30.0453L31.8386 30.0556L32.7596 30.9772C33.257 30.4299 33.6965 29.829 34.068 29.184H39.3502C37.8176 33.424 34.4452 36.7824 30.1978 38.2941V35.5271C32.6934 34.4232 34.7615 32.5291 36.0855 30.1616H34.6149C33.2894 32.2132 31.3179 33.8073 28.9878 34.6551V38.5177C29.3868 38.8726 29.6382 39.3899 29.6382 39.966C29.6382 41.0357 28.7713 41.9029 27.7023 41.9029C26.6332 41.9029 25.7666 41.0356 25.7666 39.966C25.7666 39.3897 26.018 38.8726 26.4169 38.5177V34.2752C28.5789 34.0063 30.5326 33.0669 32.065 31.6723L31.1439 30.7505C29.5493 32.1823 27.4423 33.0533 25.1313 33.0533C22.8204 33.0533 20.7131 32.1823 19.1183 30.7508L18.8257 31.044L18.4897 31.38L18.1974 31.6724C19.7299 33.0673 21.6841 34.0063 23.8462 34.2753V38.5178C24.2451 38.8727 24.4965 39.39 24.4965 39.9661C24.4965 41.0359 23.6297 41.903 22.5607 41.903C21.4917 41.903 20.625 41.0357 20.625 39.9661C20.625 39.3899 20.8765 38.8727 21.2753 38.5178V34.6551C20.86 34.504 20.4562 34.3288 20.0653 34.132V38.2935C15.7925 36.7728 12.4056 33.3839 10.886 29.1084H13.6515C14.766 31.6321 16.6874 33.719 19.0883 35.0424V33.5774C17.0016 32.251 15.3798 30.2579 14.5222 27.8976H10.6565C10.302 28.2968 9.7849 28.5484 9.20939 28.5484C8.14019 28.5484 7.27344 27.681 7.27344 26.6112C7.27344 25.5414 8.14019 24.6743 9.20939 24.6743C9.7849 24.6743 10.302 24.9258 10.6565 25.3249H14.8961C14.9042 25.3908 14.9132 25.4564 14.9226 25.5219H14.9287C15.2289 27.6069 16.1521 29.4902 17.5035 30.977L17.7955 30.6848L18.1315 30.3486L18.4241 30.0557C16.9938 28.4601 16.1232 26.3512 16.1232 24.0388C16.1232 21.7264 16.9937 19.6176 18.4243 18.0218L18.2222 17.8196L17.8188 17.416L17.5035 17.1005C16.1521 18.5872 15.2288 20.4706 14.9286 22.5556H14.9223C14.9129 22.6211 14.9041 22.6867 14.896 22.7524H10.6565C10.302 23.1517 9.7849 23.4031 9.20939 23.4031C8.14019 23.4031 7.27344 22.5358 7.27344 21.4662C7.27344 20.3965 8.14019 19.5291 9.20939 19.5291C9.7849 19.5291 10.302 19.7806 10.6565 20.1799H14.5229C15.3873 17.8012 17.0275 15.7957 19.1379 14.4693H19.0888V13.0352C16.6878 14.3585 14.7663 16.4454 13.6517 18.9691H10.8863C12.4059 14.6936 15.7928 11.3041 20.0658 9.7836V13.9454C20.4567 13.7485 20.8605 13.5736 21.2759 13.4224V9.55827C20.877 9.20338 20.6256 8.68609 20.6256 8.11018C20.6256 7.0404 21.4923 6.17307 22.5613 6.17307C23.6302 6.17307 24.497 7.0404 24.497 8.11018C24.497 8.68609 24.2457 9.20338 23.8468 9.55827V13.8008C23.7036 13.8185 23.5616 13.8393 23.4205 13.8629L23.4157 13.8637C23.3475 13.8752 23.2797 13.8873 23.2121 13.8999L23.1992 13.9024C23.1349 13.9146 23.071 13.9275 23.007 13.9408L22.9834 13.9458C22.9246 13.9584 22.866 13.9713 22.8075 13.9848L22.7657 13.9946C22.7108 14.0075 22.6562 14.0208 22.6019 14.0346L22.5538 14.0469C22.5046 14.0597 22.4555 14.0727 22.4065 14.086L22.3369 14.1054C22.2943 14.1175 22.2519 14.1297 22.2094 14.1423C22.18 14.1511 22.1505 14.16 22.1213 14.1688C22.0887 14.1788 22.0561 14.1889 22.0237 14.1992C21.9858 14.2111 21.948 14.2233 21.9103 14.2356L21.8266 14.2637C21.7856 14.2776 21.7449 14.2916 21.7042 14.306L21.6384 14.3294C21.5939 14.3455 21.5496 14.3619 21.5054 14.3785L21.4668 14.3931L21.4574 14.3967C21.3996 14.4187 21.3422 14.4413 21.285 14.4644C20.1399 14.9256 19.0967 15.5867 18.1983 16.4042L18.5135 16.7197L18.917 17.1232L19.119 17.3255C20.7136 15.8939 22.8208 15.0229 25.1319 15.0229C27.443 15.0229 29.5499 15.8941 31.1445 17.3257L32.0657 16.4036C31.1699 15.5884 30.1297 14.9289 28.9884 14.4678C28.8997 14.432 28.8104 14.3972 28.7205 14.364L28.6818 14.3496C28.6433 14.3355 28.6045 14.3216 28.5658 14.3079L28.527 14.2942L28.449 14.2674L28.4101 14.2542L28.398 14.2502C28.3683 14.2404 28.3385 14.2305 28.3087 14.221L28.2408 14.1992L28.1715 14.1776L28.0965 14.1547L28.0273 14.1341L27.9404 14.1092L27.8895 14.0949C27.8575 14.086 27.8256 14.0774 27.7936 14.0688L27.749 14.0569C27.7145 14.0479 27.68 14.039 27.6453 14.0304L27.6025 14.0197C27.5633 14.0102 27.5242 14.0006 27.4848 13.9915L27.463 13.9864C27.4208 13.9768 27.3784 13.967 27.3361 13.9579L27.3135 13.9529C27.2724 13.944 27.2312 13.9354 27.1901 13.9271L27.1658 13.9221C27.1221 13.9134 27.0785 13.9049 27.0345 13.8967L27.0181 13.8937C26.9722 13.8851 26.9262 13.877 26.8799 13.8691L26.8774 13.8687L26.875 13.8682L26.8687 13.8672C26.8217 13.8593 26.7745 13.8515 26.7272 13.8442L26.7205 13.8432C26.6721 13.8357 26.6238 13.8285 26.5753 13.8217L26.5659 13.8203C26.5167 13.8135 26.4672 13.807 26.4176 13.8008V9.55827C26.0187 9.20338 25.7674 8.68609 25.7674 8.11018C25.7674 7.0404 26.6341 6.17307 27.703 6.17307C28.7719 6.17307 29.6389 7.0404 29.6389 8.11018C29.6389 8.68609 29.3875 9.20338 28.9885 9.55827H28.9882Z" fill="white"/>
</mask>
<g mask="url(#mask0_22899_1434)">
<path d="M39.3508 6.17307H7.27344V41.9015H39.3508V6.17307Z" fill="url(#paint0_linear_22899_1434)"/>
</g>
</g>
<defs>
<filter id="filter0_d_22899_1434" x="7.27344" y="6.17307" width="32.0771" height="35.9485" filterUnits="userSpaceOnUse" color-interpolation-filters="sRGB">
<feFlood flood-opacity="0" result="BackgroundImageFix"/>
<feColorMatrix in="SourceAlpha" type="matrix" values="0 0 0 0 0 0 0 0 0 0 0 0 0 0 0 0 0 0 127 0" result="hardAlpha"/>
<feOffset dy="0.220085"/>
<feComposite in2="hardAlpha" operator="out"/>
<feColorMatrix type="matrix" values="0 0 0 0 1 0 0 0 0 1 0 0 0 0 1 0 0 0 1 0"/>
<feBlend mode="normal" in2="BackgroundImageFix" result="effect1_dropShadow_22899_1434"/>
<feBlend mode="normal" in="SourceGraphic" in2="effect1_dropShadow_22899_1434" result="shape"/>
</filter>
<linearGradient id="paint0_linear_22899_1434" x1="23.3121" y1="36.5264" x2="23.3121" y2="3.87806" gradientUnits="userSpaceOnUse">
<stop stop-color="#8741F3"/>
<stop offset="1" stop-color="#D0A0FF"/>
</linearGradient>
</defs>
</svg>
