<svg width="48" height="48" viewBox="0 0 48 48" fill="none" xmlns="http://www.w3.org/2000/svg">
<rect width="48" height="48" fill="white"/>
<path fill-rule="evenodd" clip-rule="evenodd" d="M6.89548 20.3767C4.89439 22.3778 4.89439 25.6222 6.89548 27.6233L20.3768 41.1046C22.3779 43.1057 25.6223 43.1057 27.6234 41.1046L41.1047 27.6233C43.1058 25.6222 43.1058 22.3778 41.1047 20.3767L27.6234 6.89541C25.6223 4.89432 22.3779 4.89432 20.3768 6.89541L6.89548 20.3767ZM28.0194 26.5263C28.1195 26.3674 28.2904 26.2634 28.4782 26.2634H32.9637C33.294 26.2634 33.5383 26.572 33.4418 26.8879C32.2069 30.9304 28.4469 33.8708 24.0001 33.8708C18.5486 33.8708 14.1292 29.4515 14.1292 24C14.1292 18.5485 18.5486 14.1292 24.0001 14.1292C28.4469 14.1292 32.2069 17.0696 33.4418 21.1121C33.5383 21.428 33.294 21.7366 32.9637 21.7366H28.4782C28.2904 21.7366 28.1195 21.6326 28.0194 21.4737C27.1792 20.1397 25.6931 19.2533 24.0001 19.2533C21.3785 19.2533 19.2533 21.3785 19.2533 24C19.2533 26.6215 21.3785 28.7467 24.0001 28.7467C25.6931 28.7467 27.1792 27.8603 28.0194 26.5263Z" fill="#FF8201"/>
</svg>
