<svg width="48" height="48" viewBox="0 0 48 48" fill="none" xmlns="http://www.w3.org/2000/svg">
<rect width="48" height="48" fill="white"/>
<g clip-path="url(#clip0_22048_3177)">
<path d="M40.9551 20.5531L35.7746 11.6122C34.3825 9.18464 31.836 7.70493 29.0549 7.70493H18.7251C15.9409 7.70493 13.3975 9.18464 11.9741 11.5841L6.82485 20.5531C5.43273 22.9494 5.43273 25.9088 6.82485 28.3082L12.0054 37.2459C13.3975 39.6454 15.9721 41.1251 18.7532 41.1251H29.083C31.8673 41.1251 34.4137 39.6454 35.8027 37.2459L40.9833 28.3082C42.3441 25.9088 42.3441 22.9494 40.9551 20.5531ZM24.2591 35.9727C24.0527 35.9727 23.8743 35.7975 23.8743 35.5879V34.0206C23.8743 33.8141 24.0214 33.664 24.231 33.6358C29.083 33.4575 33.1092 29.3719 33.1092 24.4009C33.1092 19.1015 28.6388 14.8407 23.2831 15.166C15.9127 15.6103 12.0335 24.3415 16.5634 30.0538L18.2214 28.4271C14.7583 23.6908 18.6938 16.8209 24.6752 17.5029C27.9005 17.8595 30.4752 20.4936 30.8005 23.7189C31.1853 27.7451 28.107 31.1206 24.2904 31.3271C24.0808 31.3271 23.9056 31.1488 23.9056 30.9423V29.3719C23.9056 29.1967 24.0527 29.0184 24.2591 29.0184C26.6273 28.8682 28.5512 26.8567 28.5512 24.4009C28.5512 21.6761 26.1831 19.4863 23.3707 19.8116C20.0859 20.1683 18.2214 23.9849 19.9389 26.7691L21.6845 25.0203C21.3279 23.7784 22.1569 22.3863 23.4614 22.1516C24.9411 21.8544 26.2425 22.9807 26.2425 24.4291C26.2738 25.9401 24.7628 27.0631 23.3112 26.6502L22.7513 27.2133L17.333 32.6003C16.8887 33.0445 16.1504 33.0445 15.7062 32.6003C15.409 32.3031 15.1431 32.0059 14.9367 31.74C8.98654 24.6355 13.8417 13.4486 23.1642 12.9168C29.8526 12.5007 35.4179 17.8283 35.4179 24.4604C35.4492 30.6764 30.4157 35.7975 24.2591 35.9727Z" fill="#006CFF"/>
<path d="M35.418 24.4604C35.4492 30.6764 30.4157 35.7975 24.2591 35.9727C24.0527 35.9727 23.8744 35.7975 23.8744 35.5879V34.0206C23.8744 33.8141 24.0214 33.664 24.231 33.6358C29.0831 33.4575 33.1092 29.3719 33.1092 24.4009C33.1092 19.1015 28.6388 14.8407 23.2831 15.166C15.9127 15.6103 12.0336 24.3415 16.5634 30.0539L18.2214 28.4271C14.7584 23.6908 18.6938 16.8209 24.6752 17.5029C27.9005 17.8596 30.4752 20.4936 30.8005 23.7189C31.1853 27.7451 28.107 31.1206 24.2904 31.3271C24.0808 31.3271 23.9056 31.1488 23.9056 30.9423V29.3719C23.9056 29.1967 24.0527 29.0184 24.2591 29.0184C26.6273 28.8682 28.5512 26.8567 28.5512 24.4009C28.5512 21.6761 26.1831 19.4863 23.3707 19.8116C20.0859 20.1683 18.2214 23.9849 19.9389 26.7691L21.6845 25.0203C21.3279 23.7784 22.1569 22.3863 23.4614 22.1516C24.9411 21.8545 26.2425 22.9807 26.2425 24.4291C26.2738 25.9401 24.7628 27.0632 23.3113 26.6502L22.7513 27.2133L17.333 32.6003C16.8888 33.0445 16.1505 33.0445 15.7062 32.6003C15.4091 32.3031 15.1431 32.0059 14.9367 31.74C8.98656 24.6356 13.8418 13.4486 23.1642 12.9168C29.8526 12.5007 35.418 17.8283 35.418 24.4604Z" fill="white"/>
</g>
<defs>
<clipPath id="clip0_22048_3177">
<rect width="36.22" height="33.4201" fill="white" transform="translate(5.78003 7.70493)"/>
</clipPath>
</defs>
</svg>
