<svg width="48" height="48" viewBox="0 0 48 48" fill="none" xmlns="http://www.w3.org/2000/svg">
<rect width="48" height="48" fill="#4779FF"/>
<path d="M21.9405 13.9521C21.3881 14.4721 20.8452 14.9825 20.3023 15.4905C17.7806 17.8546 15.2589 20.2212 12.7349 22.5805C12.1562 23.1222 11.5562 23.6422 10.8299 23.96C9.96554 24.338 9.47025 24.1021 9.19165 23.1607C8.80352 21.8438 9.01068 20.616 9.76076 19.4845C10.3989 18.5215 11.2038 17.7198 12.03 16.9398C13.3468 15.6975 14.6732 14.4673 16.0161 13.2588C16.6043 12.7291 17.2472 12.2452 18.033 12.0839C20.3856 11.6048 21.8858 13.8823 21.943 13.9497L21.9405 13.9521Z" fill="white"/>
<path d="M10.6203 25.9811C12.0514 25.5646 13.1253 24.6473 14.1706 23.682C17.5043 20.61 20.8332 17.5356 24.1811 14.4806C24.9193 13.8065 25.6957 13.1613 26.5171 12.5979C27.5625 11.8805 28.6983 11.777 29.8174 12.4607C30.2222 12.7063 30.6199 12.9927 30.9485 13.3346C32.0891 14.5263 33.2154 15.7373 34.3131 16.9699C35.48 18.2796 36.6276 19.6085 37.7444 20.9615C38.1277 21.4261 38.4421 21.9678 38.7017 22.5167C39.1851 23.5375 39.0612 24.5462 38.4731 25.4972C37.9468 26.3495 37.242 27.0476 36.5158 27.7096C33.6726 30.3049 30.8294 32.9003 27.953 35.4593C27.1815 36.1478 26.3314 36.7642 25.4551 37.3083C23.8049 38.3363 22.15 38.2087 20.6451 36.9906C19.7688 36.2827 18.9449 35.4906 18.1925 34.648C15.7684 31.9348 13.3896 29.1831 10.9941 26.4433C10.8727 26.3062 10.7631 26.1569 10.6203 25.9787V25.9811Z" fill="white"/>
</svg>
