<svg width="48" height="48" viewBox="0 0 48 48" fill="none" xmlns="http://www.w3.org/2000/svg">
<rect width="48" height="48" fill="#7300FB"/>
<path d="M36.9227 15.6669H32.3546L32.4073 15.034C32.4073 15.0337 32.4069 15.0334 32.407 15.033L32.6567 12.034L32.8301 9.95165C32.8737 9.42608 32.3847 9 31.7374 9H18.7343C18.0869 9 17.5266 9.42608 17.4828 9.95164L17.3204 11.9022L17.3095 12.0338L17.0598 15.0327C17.0598 15.0332 17.0598 15.0336 17.0597 15.034L17.0071 15.6669H12.4403C11.7902 15.6669 11.2171 16.2208 11.1603 16.904L10.9588 19.3229C10.902 20.006 11.3828 20.5599 12.0329 20.5599H16.5999L16.0498 27.167H11.4777C10.8305 27.167 10.2599 27.7183 10.2033 28.3985L10.0045 30.7854C9.94794 31.4656 10.4267 32.017 11.0739 32.017H15.6461L15.2505 36.7684C15.1938 37.4486 15.6726 38 16.3198 38H18.5912C19.2384 38 19.809 37.4486 19.8656 36.7684L20.2612 32.017H26.3782L25.9826 36.7684C25.926 37.4486 26.4048 38 27.052 38H29.3233C29.9705 38 30.5412 37.4486 30.5978 36.7684L30.9934 32.017H35.5653C36.2125 32.017 36.7831 31.4656 36.8397 30.7854L37.0384 28.3985C37.095 27.7183 36.6162 27.167 35.969 27.167H31.3971L31.9472 20.5599H36.5153C37.1646 20.5599 37.737 20.0067 37.7939 19.3244L37.9954 16.9024C38.0523 16.2201 37.572 15.6669 36.9227 15.6669ZM21.704 14.6858L21.7987 13.5479C21.7987 13.5475 21.7988 13.5472 21.7988 13.5469L21.8047 13.4758C21.8485 12.9502 22.4085 12.5241 23.0558 12.5241H26.829C27.4763 12.5241 27.9658 12.9502 27.922 13.4758L27.9132 13.5813L27.8206 14.6858C27.7736 15.2513 27.1711 15.7096 26.4749 15.7096H22.8793C22.183 15.7096 21.6569 15.2513 21.704 14.6858ZM21.7863 27.1669C21.1391 27.1669 20.6603 26.6155 20.7169 25.9353L21.0619 21.7915C21.1183 21.1142 21.6918 20.5599 22.3364 20.5599H26.2105C26.8578 20.5599 27.3365 21.1114 27.2799 21.7915L26.935 25.9353C26.8785 26.6127 26.305 27.1669 25.6605 27.1669H21.7863Z" fill="#00E4B5"/>
</svg>
