<svg width="48" height="48" viewBox="0 0 48 48" fill="none" xmlns="http://www.w3.org/2000/svg">
<rect width="48" height="48" fill="#51FFD6"/>
<g clip-path="url(#clip0_22901_1074)">
<path fill-rule="evenodd" clip-rule="evenodd" d="M4.77429 28.159L6.60144 19.841H10.6928L8.86552 28.159H4.77429ZM26.6293 23.0387L28.8527 19.841H33.285L27.9115 26.1862L27.4752 28.159H23.3834L23.8203 26.1862L21.2291 19.841H25.6614L26.4661 23.0387H26.6293ZM41.1132 19.841H35.2087C33.8451 19.841 33.0672 20.3291 32.8493 21.3354L32.6031 22.4313C32.5739 22.5627 32.5602 22.697 32.5623 22.8316C32.5784 23.5376 33.0962 23.9909 33.7833 24.2706C34.5172 24.5697 35.4438 24.6708 36.1577 24.6708H38.4369L38.3504 25.071L38.0032 26.4654H35.8211L36.1215 25.0708H32.0296L31.7571 26.3661C31.498 27.5711 32.1661 28.159 33.8161 28.159H39.68C41.0575 28.159 41.8349 27.6612 42.0527 26.6646L42.3966 25.0708C42.4272 24.9288 42.44 24.7957 42.4378 24.6706C42.4217 23.9647 41.9039 23.5114 41.2163 23.2316C40.4825 22.9331 39.5557 22.8314 38.8419 22.8314H36.5979L36.6843 22.4313L36.8844 21.5346H39.0665L38.8758 22.4313H42.9677L43.1584 21.6341C43.4313 20.4287 42.7638 19.841 41.1132 19.841ZM11.2629 19.841H19.0887C20.7387 19.841 21.3779 20.4215 21.1059 21.627L20.8981 22.5866C20.6919 23.5245 19.9904 24.0206 18.7588 24.0753C18.6824 24.0788 18.605 24.0805 18.5248 24.0805H18.3079L18.2295 24.4881H18.205C18.3429 24.488 18.4737 24.4922 18.5973 24.5007C19.9546 24.589 20.4717 25.1685 20.2217 26.273L20.0527 27.0282L19.7997 28.159H15.7086L16.3902 25.0708H14.2095L13.5263 28.159H9.43507L11.2629 19.841ZM14.5634 23.4469H16.6095L17.032 21.5341H14.9864L14.5634 23.4469Z" fill="black"/>
</g>
<defs>
<clipPath id="clip0_22901_1074">
<rect width="38.4514" height="8.31806" fill="white" transform="translate(4.77429 19.841)"/>
</clipPath>
</defs>
</svg>
