<svg width="48" height="48" viewBox="0 0 48 48" fill="none" xmlns="http://www.w3.org/2000/svg">
<rect width="48" height="48" fill="#FF3300"/>
<mask id="mask0_22048_3212" style="mask-type:alpha" maskUnits="userSpaceOnUse" x="12" y="12" width="24" height="24">
<path fill-rule="evenodd" clip-rule="evenodd" d="M12 12H36V36H12V12Z" fill="white"/>
</mask>
<g mask="url(#mask0_22048_3212)">
<path fill-rule="evenodd" clip-rule="evenodd" d="M27.0007 16.7711C27.0007 16.7711 26.8676 18.0049 25.0607 18.0049H22.8047C20.9978 18.0049 21.0011 16.7711 21.0011 16.7711V12H12V36H21.0011V31.2369C21.0011 31.2369 20.9978 30.0032 22.8047 30.0032H25.0381C26.8338 30.0032 26.9781 31.2211 26.9781 31.2363V36H36V30.0071H28.8254C27.0298 30.0071 27.0219 28.7893 27.0218 28.7741L26.9782 26.997H22.8047C20.9978 26.997 21.0011 25.7633 21.0011 25.7633V22.2361C21.0011 22.2361 20.9978 21.0024 22.8047 21.0024H27.0007V19.2386C27.0007 19.2386 26.9973 18.0049 28.8043 18.0049H36V12H27.0007V16.7711Z" fill="white"/>
</g>
</svg>
