<svg width="48" height="48" viewBox="0 0 48 48" fill="none" xmlns="http://www.w3.org/2000/svg">
<rect width="48" height="48" fill="black"/>
<g clip-path="url(#clip0_22900_2096)">
<path d="M17.7633 28.6939C20.2701 30.1152 22.4699 30.5951 22.4917 30.6001L21.9971 32.9455C21.8952 32.9243 19.4719 32.4037 16.6534 30.8199C14.9902 29.8854 13.5261 28.7695 12.3021 27.5037C11.9382 27.1272 11.5964 26.7371 11.2754 26.3347C11.2131 26.486 11.1525 26.6379 11.0959 26.7918C10.2649 29.0487 10.7017 32.1858 10.7063 32.2174L8.33432 32.5616C8.31212 32.4093 7.80282 28.7986 8.84674 25.9636C9.09591 25.287 9.39199 24.6323 9.73214 23.9999C9.39199 23.3674 9.0956 22.7127 8.84674 22.0361C7.8022 19.2011 8.31149 15.5907 8.33369 15.4381L10.7057 15.7836C10.7013 15.8139 10.2646 18.951 11.0956 21.208C11.1522 21.3618 11.2128 21.5137 11.275 21.665C11.5961 21.2627 11.9378 20.8725 12.3018 20.4961C13.5258 19.2302 14.9899 18.1147 16.6531 17.1799C19.4719 15.5963 21.8952 15.0758 21.9971 15.0545L22.4917 17.4C22.4699 17.4046 20.2701 17.8846 17.7633 19.3061C16.3155 20.1271 15.0474 21.0988 13.9947 22.194C13.4489 22.7621 12.9605 23.3655 12.5306 24.0002C12.9605 24.6348 13.4489 25.2382 13.9947 25.8063C15.0474 26.9015 16.3155 27.8732 17.7633 28.6942V28.6939ZM38.2681 23.9999C38.6082 23.3674 38.9046 22.7127 39.1535 22.0361C40.1974 19.2011 39.6881 15.5904 39.6659 15.4381L37.2939 15.7823C37.2982 15.8139 37.7353 18.951 36.9043 21.208C36.8477 21.3618 36.7871 21.5137 36.7248 21.665C36.4038 21.2627 36.062 20.8725 35.6981 20.4961C34.4741 19.2302 33.01 18.1147 31.3468 17.1799C28.528 15.5963 26.1047 15.0758 26.0027 15.0545L25.5081 17.4C25.53 17.4046 27.7298 17.8846 30.2366 19.3061C31.6844 20.1271 32.9525 21.0988 34.0052 22.194C34.551 22.7621 35.0394 23.3655 35.4693 24.0002C35.0394 24.6348 34.551 25.2382 34.0052 25.8063C32.9525 26.9015 31.6844 27.8732 30.2366 28.6942C27.7298 30.1155 25.53 30.5954 25.5081 30.6004L26.0027 32.9458C26.1047 32.9246 28.528 32.404 31.3464 30.8202C33.0097 29.8857 34.4738 28.7699 35.6978 27.504C36.0617 27.1275 36.4034 26.7374 36.7245 26.335C36.7867 26.4863 36.8474 26.6383 36.904 26.7921C37.735 29.0491 37.2982 32.1861 37.2939 32.2164L39.6659 32.5619C39.6881 32.4097 40.1974 28.7989 39.1535 25.9639C38.9043 25.2873 38.6082 24.6326 38.2681 24.0002V23.9999ZM28.7177 23.9999C28.7177 21.3984 26.6014 19.2821 23.9999 19.2821C21.3984 19.2821 19.2822 21.3984 19.2822 23.9999C19.2822 26.6014 21.3984 28.7176 23.9999 28.7176C26.6014 28.7176 28.7177 26.6011 28.7177 23.9999ZM26.3207 23.9999C26.3207 25.2795 25.2796 26.3206 23.9999 26.3206C22.7203 26.3206 21.6792 25.2795 21.6792 23.9999C21.6792 22.7202 22.7203 21.6791 23.9999 21.6791C25.2796 21.6791 26.3207 22.7202 26.3207 23.9999Z" fill="white"/>
</g>
<defs>
<clipPath id="clip0_22900_2096">
<rect width="31.6195" height="17.891" fill="white" transform="translate(8.19019 15.0545)"/>
</clipPath>
</defs>
</svg>
