<svg width="48" height="48" viewBox="0 0 48 48" fill="none" xmlns="http://www.w3.org/2000/svg">
<rect width="48" height="48" fill="black"/>
<path fill-rule="evenodd" clip-rule="evenodd" d="M26.4567 30.0231C27.2554 30.0231 28.0214 30.3404 28.5862 30.9052C29.151 31.47 29.4683 32.236 29.4683 33.0347C29.4683 33.8334 29.151 34.5994 28.5862 35.1642C28.0214 35.729 27.2554 36.0463 26.4567 36.0463C25.658 36.0463 24.892 35.729 24.3272 35.1642C23.7624 34.5994 23.4451 33.8334 23.4451 33.0347C23.4451 32.236 23.7624 31.47 24.3272 30.9052C24.892 30.3404 25.658 30.0231 26.4567 30.0231ZM16.4181 22.4929C17.6166 22.4929 18.7659 22.969 19.6133 23.8164C20.4607 24.6638 20.9368 25.8131 20.9368 27.0116C20.9368 28.21 20.4607 29.3594 19.6133 30.2068C18.7659 31.0542 17.6166 31.5303 16.4181 31.5303C15.2391 31.5016 14.118 31.013 13.2942 30.169C12.4705 29.3249 12.0094 28.1923 12.0094 27.0129C12.0094 25.8335 12.4705 24.7009 13.2942 23.8568C14.118 23.0128 15.2391 22.5243 16.4181 22.4956V22.4929ZM29.2139 11.9537C30.1039 11.9537 30.9851 12.129 31.8073 12.4696C32.6295 12.8101 33.3765 13.3093 34.0058 13.9386C34.6351 14.5678 35.1342 15.3149 35.4748 16.1371C35.8154 16.9593 35.9907 17.8405 35.9907 18.7304C35.9907 19.6204 35.8154 20.5016 35.4748 21.3238C35.1342 22.1459 34.6351 22.893 34.0058 23.5223C33.3765 24.1516 32.6295 24.6507 31.8073 24.9913C30.9851 25.3318 30.1039 25.5071 29.2139 25.5071C27.4167 25.5071 25.693 24.7932 24.4221 23.5223C23.1512 22.2514 22.4372 20.5277 22.4372 18.7304C22.4372 16.9331 23.1512 15.2094 24.4221 13.9386C25.693 12.6677 27.4167 11.9537 29.2139 11.9537Z" fill="url(#paint0_radial_22054_1864)"/>
<defs>
<radialGradient id="paint0_radial_22054_1864" cx="0" cy="0" r="1" gradientUnits="userSpaceOnUse" gradientTransform="translate(23.9457 24) scale(24.6169 24.6169)">
<stop stop-color="#FFDB00"/>
<stop offset="1" stop-color="#F5B42E"/>
</radialGradient>
</defs>
</svg>
