<svg width="48" height="48" viewBox="0 0 48 48" fill="none" xmlns="http://www.w3.org/2000/svg">
<rect width="48" height="48" fill="#FCFEFF"/>
<path fill-rule="evenodd" clip-rule="evenodd" d="M7.05908 24C7.05908 27.0503 7.86526 29.9123 9.27617 32.3846C10.3927 29.9341 11.4803 28.1335 12.887 26.4766C13.0769 26.2529 13.0729 25.9278 12.9681 25.6537C12.8993 25.4737 12.8616 25.2783 12.8616 25.0742C12.8616 24.1777 13.5883 23.451 14.4847 23.451C14.8158 23.451 15.1238 23.5501 15.3805 23.7204C15.4627 23.7749 15.5725 23.7741 15.6465 23.7088C16.3492 23.0898 17.1239 22.4508 17.989 21.7654C20.9121 19.4496 23.7869 17.9749 26.2182 16.9702C30.6784 15.127 33.7956 15.0122 34.8679 15.0346C36.0738 15.0597 37.5541 15.6151 38.4967 15.9688C38.6996 16.0449 38.8775 16.1117 39.0225 16.1619C36.1938 10.7515 30.5281 7.05908 24 7.05908C14.6438 7.05908 7.05908 14.6438 7.05908 24ZM40.9409 24C40.9409 33.3562 33.3562 40.9409 24 40.9409C21.667 40.9409 19.4442 40.4693 17.4216 39.6163C19.8075 39.0439 22.9156 38.0988 25.9814 36.539C31.8839 33.536 36.4831 28.5554 38.009 26.2527C38.6127 25.3416 39.6857 23.2089 40.6899 21.0782C40.8549 22.0273 40.9409 23.0036 40.9409 24ZM31.7708 20.434C33.5368 23.1121 30.2694 28.3817 24.4728 32.2041C18.6763 36.0265 12.5457 36.9541 10.7797 34.2761C9.59821 32.4844 10.6697 29.5326 13.2443 26.6303C13.3823 26.4749 13.6156 26.461 13.8042 26.5482C14.0112 26.644 14.2417 26.6974 14.4847 26.6974C15.3812 26.6974 16.1079 25.9706 16.1079 25.0742C16.1079 24.8013 16.0406 24.5442 15.9216 24.3185C15.8734 24.2269 15.8887 24.1115 15.9692 24.0464C16.6265 23.5147 17.3311 22.9984 18.0777 22.5061C23.8743 18.6837 30.0049 17.756 31.7708 20.434Z" fill="#439CD6"/>
</svg>
