<svg width="48" height="48" viewBox="0 0 48 48" fill="none" xmlns="http://www.w3.org/2000/svg">
<rect width="48" height="48" fill="#020101"/>
<path fill-rule="evenodd" clip-rule="evenodd" d="M16.1995 27.3985C12.5606 24.1631 11.6367 18.9055 13.9607 14.6582C16.7571 9.56679 23.6189 7.44604 29.0502 10.0036C34.0853 12.3865 36.51 17.9227 34.7319 23.0062C32.9619 28.0736 27.5307 31.1395 21.9944 30.1864C21.4448 30.0912 21.0811 29.6066 21.1619 29.0903C21.5283 26.9671 23.1516 25.2656 25.2839 24.7695C27.5254 24.2911 29.2219 22.4842 29.527 20.2499C29.7886 18.0199 28.5764 15.8737 26.5124 14.9123C24.43 13.9132 21.9399 14.2489 20.2082 15.7622C18.5085 17.2438 17.9704 19.6313 18.8747 21.6796C19.6986 23.6547 19.2007 25.9244 17.6219 27.3906C17.234 27.756 16.6036 27.7639 16.1995 27.3985ZM12.7582 35.7486C12.8359 37.03 13.6098 38.1698 14.7815 38.7286C16.543 39.5687 18.6622 38.8646 19.5494 37.1444C20.4366 35.4242 19.7658 33.3201 18.0402 32.4104C16.8924 31.8053 15.5027 31.8595 14.4069 32.552C13.3111 33.2445 12.6805 34.4672 12.7582 35.7486Z" fill="url(#paint0_linear_22048_3202)"/>
<defs>
<linearGradient id="paint0_linear_22048_3202" x1="29.0102" y1="33.7683" x2="38.2342" y2="14.4278" gradientUnits="userSpaceOnUse">
<stop stop-color="#F54703"/>
<stop offset="1" stop-color="#FAC902"/>
</linearGradient>
</defs>
</svg>
