<svg width="48" height="48" viewBox="0 0 48 48" fill="none" xmlns="http://www.w3.org/2000/svg">
<rect width="48" height="48" fill="#EFEAE4"/>
<path fill-rule="evenodd" clip-rule="evenodd" d="M35.0825 24.8102V19.6018C35.0825 19.2605 34.897 18.9454 34.5996 18.7771L17.9872 9.43132V8.47399C17.9872 8.11144 18.3797 7.88396 18.6961 8.06168L36.1649 17.8909C36.4648 18.0591 36.648 18.3743 36.648 18.7155V24.8789C36.648 25.2415 36.2554 25.469 35.939 25.2913L35.0825 24.8102ZM30.4079 30.5541L29.1089 29.829V38.2744L29.9416 38.7388C30.258 38.9167 30.6505 38.6868 30.6505 38.3266V30.9665C30.6505 30.7959 30.5577 30.6371 30.4079 30.5541ZM32.0881 26.5163V21.3079C32.0881 20.9667 31.9026 20.6515 31.6053 20.4833L14.9904 11.1375V10.1825C14.9904 9.81994 15.383 9.59246 15.6994 9.77018L33.1682 19.5994C33.468 19.7676 33.6511 20.0828 33.6511 20.424V26.5874C33.6511 26.95 33.2585 27.1775 32.9423 26.9997L32.0858 26.5187L32.0881 26.5163ZM27.6799 29.0566L26.1145 28.1751V38.6701L26.971 39.1512C27.2874 39.3289 27.6799 39.1014 27.6799 38.7388V29.0566ZM30.6631 28.2627V22.0994L30.6607 22.1017C30.6607 21.7605 30.4776 21.4453 30.1778 21.2771L12.7089 11.4479C12.3925 11.2702 12 11.4976 12 11.8602V18.0236C12 18.3648 12.1832 18.68 12.4829 18.8482L17.7357 21.8032C17.8856 21.8861 17.9784 22.0448 17.9784 22.2155V36.8977C17.9784 37.2389 18.1616 37.554 18.4613 37.7223L23.9806 40.8288C24.297 41.0067 24.6895 40.7792 24.6895 40.4166V26.1182C24.6895 25.9358 24.8846 25.822 25.044 25.9121L29.9542 28.6751C30.2706 28.8528 30.6631 28.6253 30.6631 28.2627Z" fill="#1C1C1C"/>
</svg>
