<svg width="48" height="48" viewBox="0 0 48 48" fill="none" xmlns="http://www.w3.org/2000/svg">
<rect width="48" height="48" fill="#6F4CFF"/>
<path d="M22.2958 28.7692C17.1728 28.7692 13 24.6308 13 19.5385C13 14.4461 17.1728 10.3077 22.2958 10.3077C27.4188 10.3077 31.5915 14.4461 31.5915 19.5385C31.5915 24.6308 27.4188 28.7692 22.2958 28.7692ZM22.2958 13.3846C18.877 13.3846 16.0986 16.1436 16.0986 19.5385C16.0986 22.9333 18.877 25.6923 22.2958 25.6923C25.7146 25.6923 28.493 22.9333 28.493 19.5385C28.493 16.1436 25.7146 13.3846 22.2958 13.3846ZM24.9399 37.5487L31.1371 31.3949C31.7413 30.7949 31.7413 29.8205 31.1371 29.2205C30.5329 28.6205 29.5516 28.6205 28.9474 29.2205L22.7502 35.3744C22.146 35.9744 22.146 36.9487 22.7502 37.5487C23.0549 37.8513 23.4474 38 23.8451 38C24.2427 38 24.6404 37.8513 24.9399 37.5487ZM33.1408 10C32.1183 10 31.2817 10.8308 31.2817 11.8461C31.2817 12.8615 32.1183 13.6923 33.1408 13.6923C34.1634 13.6923 35 12.8615 35 11.8461C35 10.8308 34.1634 10 33.1408 10Z" fill="white"/>
</svg>
