<svg width="48" height="48" viewBox="0 0 48 48" fill="none" xmlns="http://www.w3.org/2000/svg">
<rect width="48" height="48" fill="#131418"/>
<path d="M24.7726 14.9956C24.954 15.0334 25.1256 15.1097 25.2752 15.2194C25.4427 15.3521 25.5711 15.528 25.6465 15.7282C26.1223 16.9188 26.5981 18.1087 27.0741 19.2979C27.6007 20.6204 28.1299 21.9432 28.6619 23.2663C28.9389 23.9598 29.2148 24.6544 29.4963 25.3464C29.5561 25.488 29.5871 25.6404 29.5871 25.7942C29.5871 25.9479 29.5561 26.1 29.4963 26.2416L27.0775 32.2753C26.9174 32.6746 26.6274 32.9229 26.2009 32.9876C25.6702 33.0674 25.1954 32.8055 25.0038 32.34C24.5499 31.2238 24.1061 30.1043 23.6587 28.9853L21.3837 23.2936C20.71 21.6046 20.0355 19.916 19.36 18.2279C19.1359 17.6674 18.919 17.1039 18.685 16.5477C18.6205 16.3965 18.59 16.2329 18.5956 16.0685C18.6013 15.9042 18.6429 15.7431 18.7176 15.5966C18.7923 15.4502 18.8982 15.322 19.0278 15.2211C19.1574 15.1202 19.3076 15.0492 19.4677 15.0129C19.4871 15.0086 19.5058 15.0014 19.5244 14.9956H24.7726Z" fill="url(#paint0_linear_22048_3204)"/>
<path d="M15.3468 14.9956C15.4064 15.0122 15.466 15.0266 15.5242 15.0467C15.6756 15.094 15.8146 15.1748 15.9308 15.283C16.047 15.3912 16.1375 15.5241 16.1956 15.672C16.7151 16.9615 17.2321 18.2519 17.7468 19.5433C18.2677 20.8452 18.7885 22.1473 19.3094 23.4499C19.5641 24.0882 19.82 24.7266 20.0771 25.3645C20.1346 25.5012 20.1643 25.6479 20.1643 25.7963C20.1643 25.9445 20.1346 26.0915 20.0771 26.2279C19.7898 26.9447 19.5026 27.6612 19.2153 28.3774C18.6887 29.6883 18.1621 30.9995 17.6355 32.3104C17.5528 32.5145 17.4115 32.6895 17.2294 32.8131C17.0473 32.9366 16.8327 33.003 16.6129 33.0042C16.3799 33.0083 16.1514 32.9402 15.9586 32.8091C15.7658 32.6781 15.6181 32.4906 15.5357 32.2723C15.0488 31.0368 14.5519 29.805 14.0592 28.5717C13.399 26.9017 12.7355 25.2332 12.0686 23.5656C11.3897 21.8685 10.7111 20.171 10.0327 18.4733C9.77563 17.8307 9.52069 17.1867 9.26002 16.5449C9.14612 16.2774 9.1406 15.9761 9.24462 15.7046C9.34864 15.4332 9.55401 15.2129 9.81727 15.0906C9.9128 15.0519 10.0109 15.0202 10.111 14.9956H15.3468Z" fill="url(#paint1_linear_22048_3204)"/>
<path d="M38.8296 25.9694C38.6858 26.4552 38.4705 26.9134 38.2874 27.3819C37.7574 28.7146 37.2245 30.0465 36.6887 31.3776C36.5659 31.6828 36.4409 31.9872 36.3218 32.2936C36.2378 32.503 36.0933 32.6825 35.9063 32.8087C35.7195 32.9349 35.4993 33.0018 35.274 33.0013C35.0487 33.0005 34.829 32.9319 34.643 32.8048C34.4569 32.6776 34.3132 32.4972 34.2306 32.2872L31.9054 26.4716L29.8946 21.4484C29.2382 19.8083 28.5825 18.1684 27.927 16.5288C27.8648 16.3788 27.8359 16.217 27.8428 16.0548C27.8496 15.8925 27.8921 15.7337 27.9668 15.5897C28.0415 15.4456 28.147 15.3197 28.2756 15.2209C28.4043 15.122 28.5529 15.0527 28.7111 15.0177C28.7326 15.0126 28.7536 15.0054 28.7751 14.999H34.0231C34.0395 15.004 34.0554 15.0105 34.072 15.0141C34.256 15.0526 34.4274 15.137 34.5702 15.2595C34.713 15.382 34.8229 15.5387 34.8893 15.7149C35.1947 16.4825 35.5005 17.2478 35.8069 18.0111C36.6088 20.0153 37.41 22.0196 38.2105 24.0238C38.4209 24.5518 38.6551 25.0706 38.8274 25.6133L38.8296 25.9694Z" fill="url(#paint2_linear_22048_3204)"/>
<defs>
<linearGradient id="paint0_linear_22048_3204" x1="17.7815" y1="16.4578" x2="30.4234" y2="29.0744" gradientUnits="userSpaceOnUse">
<stop stop-color="#FF00A8"/>
<stop offset="1" stop-color="#6200C6"/>
</linearGradient>
<linearGradient id="paint1_linear_22048_3204" x1="8.36093" y1="16.4535" x2="21" y2="29.0673" gradientUnits="userSpaceOnUse">
<stop stop-color="#FF00A8"/>
<stop offset="1" stop-color="#6200C6"/>
</linearGradient>
<linearGradient id="paint2_linear_22048_3204" x1="27.0301" y1="16.4532" x2="39.6699" y2="29.0678" gradientUnits="userSpaceOnUse">
<stop stop-color="#FF00A8"/>
<stop offset="1" stop-color="#6200C6"/>
</linearGradient>
</defs>
</svg>
