<svg width="48" height="48" viewBox="0 0 48 48" fill="none" xmlns="http://www.w3.org/2000/svg">
<rect width="48" height="48" fill="black"/>
<path fill-rule="evenodd" clip-rule="evenodd" d="M27.109 11.7391H34.9219L34.4278 12.5957H26.6154L27.109 11.7391ZM18.8652 17.4769H18.3382L18.3306 17.4133L17.7007 11.7981L18.2313 11.8247L18.8652 17.4769ZM20.4904 12.3197L19.9433 12.2028L19.6835 17.4774H20.2367L20.4904 12.3197ZM22.1691 13.1272L22.6746 13.4843L21.6239 17.477H21.0246L22.1691 13.1272ZM23.0361 17.477L24.3035 15.2146L23.9099 14.675L22.3401 17.477H23.0361ZM24.1575 17.4606L25.1831 16.9405L25.2845 17.2956L23.1328 18.8654L23.1208 18.8744L22.5476 19.866L25.4259 17.7656L25.3296 17.4215L31.9534 16.8929L31.991 16.8899L32.4459 16.0895L25.134 16.77L25.142 16.7986L25.136 16.7831C25.1204 16.7429 25.0653 16.6311 24.988 16.4781L24.8832 16.254L23.181 17.5013L24.1575 17.4606ZM17.4953 17.4774L16.1427 11.8021H15.6317L16.9848 17.4774H17.4953ZM14.2023 11.8021L16.1302 17.4774H15.6347L13.7063 11.8021H14.2023ZM14.7629 17.477L12.3626 11.8017H11.8831L14.2835 17.477H14.7629ZM10.1398 11.8017H10.6007L13.3962 17.477H12.9348L12.9147 17.4369L10.1398 11.8017ZM25.6432 18.6342L21.9695 20.9297L21.9338 20.9518L21.35 21.8957L25.6958 19.2045L25.7605 19.7396L30.7472 19.0806L31.1917 18.2982L25.6908 19.0339L25.6862 18.9919L25.6862 18.9918C25.6834 18.9661 25.6805 18.9401 25.6773 18.9136L25.6432 18.6342ZM25.8084 21.4126L25.8019 21.9079L29.5598 21.2097L29.9712 20.4455L25.8315 21.2273V21.0638L25.8295 20.7925L20.7253 23.0243L20.2584 23.8353L25.8084 21.4126ZM25.3411 25.9022L25.3528 25.8456C25.3631 25.7956 25.3735 25.7453 25.3833 25.6951L25.4374 25.4198L18.3387 27.1556L17.8859 27.939L25.2629 26.139L25.1727 26.5994L26.765 26.0833L27.1803 25.3546L25.3331 25.9384L25.3411 25.9022ZM17.1812 29.212L24.8632 27.8699L24.778 28.1457C24.7484 28.2395 24.7183 28.3328 24.6881 28.426L25.6917 27.9732L25.2298 28.7851L24.4324 29.1312L24.5472 28.7355L24.5656 28.6697L24.5758 28.6332L24.5141 28.6427L16.6917 30.0069L17.1481 29.218L17.1812 29.212ZM23.9267 30.5388L15.9568 31.2801L15.4914 32.0845L23.5425 31.3357L23.5841 31.3317L23.6267 31.2359C23.6894 31.096 23.7501 30.956 23.8098 30.8146L23.9267 30.5388ZM14.2874 34.1711L14.7654 33.3431L14.8632 33.3381L22.7478 32.9986L22.2763 33.8281L22.2006 33.8311L14.2874 34.1711ZM13.0773 36.2609H20.8902L21.3772 35.4048H13.5713L13.0773 36.2609ZM23.6971 32.7853L24.9639 30.5229L25.6606 30.5224L24.0908 33.3249L23.9258 33.1063C23.8666 33.0281 23.8109 32.9508 23.7602 32.8771L23.6971 32.7853ZM25.326 34.5155L25.4228 34.5877C25.4814 34.6319 25.5467 34.678 25.6214 34.7296L25.831 34.8731L26.976 30.5228H26.3762L25.326 34.5155ZM27.5094 35.6813L27.5119 35.6277L27.7632 30.5236H28.3164L28.0566 35.7982L27.8479 35.7947L27.7787 35.7731C27.7306 35.7576 27.6835 35.7421 27.6358 35.7255L27.5094 35.6813ZM29.665 30.5228H29.1379L29.7648 36.1154L29.7713 36.175L29.9203 36.1851C29.987 36.1896 30.0451 36.1926 30.0948 36.1941L30.3019 36.2011L29.6714 30.5865L29.665 30.5228ZM30.5044 30.5228H31.0155L31.0285 30.578L32.3681 36.1987H31.8576L31.8445 36.1435L30.5044 30.5228ZM31.8742 30.5224L33.8026 36.1983H34.2981L32.3703 30.5224H31.8742ZM35.638 36.1983L33.2376 30.5224H33.7171L36.1175 36.1983H35.638ZM35.0656 30.5224H34.6042L37.3992 36.1983H37.8601L35.0656 30.5224ZM25.7439 23.1305C25.7413 23.1576 25.7308 23.2564 25.7228 23.3297L25.7488 23.3292L28.7154 22.6526L28.2826 23.4154L25.6164 23.9977L25.6696 23.5283L19.0705 25.8929L19.5298 25.0925L19.5916 25.0705L25.7709 22.8492L25.7439 23.1305ZM33.7319 13.8288L25.7008 14.1734L25.2329 15.0019L33.255 14.6579L33.7319 13.8288Z" fill="white"/>
</svg>
