<svg width="48" height="48" viewBox="0 0 48 48" fill="none" xmlns="http://www.w3.org/2000/svg">
<rect width="48" height="48" fill="black"/>
<path d="M20.1435 8.85725C20.038 8.79434 19.9077 8.79479 19.8025 8.85842L14.7149 11.9368C14.6115 11.9994 14.548 12.1136 14.548 12.237V15.0349C14.548 15.1585 14.6117 15.2728 14.7153 15.3353L16.7338 16.5531C16.9577 16.6882 16.9566 17.0216 16.7319 17.1551L14.8904 18.2492C14.7851 18.3118 14.6551 18.3114 14.5501 18.248L12.7937 17.1883C12.3162 16.9003 12.0229 16.3733 12.0229 15.8037V11.4693C12.0229 10.9004 12.3155 10.374 12.792 10.0857L19.1784 6.22143C19.6632 5.92814 20.2638 5.92607 20.7504 6.21602L35.2162 14.8353C35.6978 15.1222 35.9944 15.6516 35.9944 16.2243V23.689C35.9944 24.259 35.7007 24.7861 35.2228 25.0741L26.1516 30.5404C25.67 30.8307 25.0743 30.8339 24.5897 30.5489L20.7198 28.2731C20.4931 28.1398 20.4923 27.8036 20.7185 27.6693L22.5718 26.5681C22.676 26.5062 22.8043 26.5059 22.9088 26.5673L25.1877 27.9075C25.2928 27.9693 25.422 27.9686 25.5265 27.9057L33.3018 23.2202C33.4055 23.1578 33.4692 23.0434 33.4692 22.9198V16.9979C33.4692 16.8737 33.4049 16.7588 33.3004 16.6966L20.1435 8.85725Z" fill="white"/>
<path d="M27.569 20.4216C27.7952 20.2872 27.7944 19.951 27.5676 19.8177L23.4227 17.383C22.9386 17.0986 22.3439 17.1018 21.8626 17.3912L12.7727 22.8585C12.2941 23.1464 12 23.6739 12 24.2443V31.702C12 32.2729 12.2946 32.8008 12.7738 33.0885L27.2543 41.7813C27.7382 42.0718 28.3361 42.073 28.8209 41.7844L35.2211 37.9757C35.7031 37.6888 36 37.1592 36 36.5862V32.1734C36 31.6014 35.7042 31.0726 35.2235 30.7853L33.3964 29.6936C33.2917 29.6309 33.1624 29.6308 33.0574 29.6931L31.2115 30.7899C30.9863 30.9237 30.9859 31.2581 31.2108 31.3925L33.3064 32.6448C33.4107 32.7071 33.4748 32.8218 33.4748 32.9459V35.8121C33.4748 35.9364 33.4104 36.0513 33.3059 36.1136L28.2124 39.1446C28.1073 39.2072 27.9775 39.207 27.8726 39.144L14.693 31.2321C14.5891 31.1697 14.5252 31.0551 14.5252 30.9313V25.0142C14.5252 24.8905 14.589 24.7761 14.6928 24.7136L22.4866 20.0259C22.591 19.9631 22.72 19.9624 22.825 20.0241L25.3783 21.524C25.4828 21.5853 25.6111 21.585 25.7152 21.5231L27.569 20.4216Z" fill="white"/>
</svg>
