<svg width="56" height="56" viewBox="0 0 56 56" fill="none" xmlns="http://www.w3.org/2000/svg">
<path d="M47.5615 44.2939L47.566 45.2939L49.2891 45.2862L48.4275 43.7939L47.5615 44.2939ZM39.5 44.3301L39.4955 43.3301L38.9241 43.3326L38.6362 43.8262L39.5 44.3301ZM35.4375 51.2939L34.5715 51.794L35.433 53.2861L36.3013 51.7978L35.4375 51.2939ZM27.999 38.4111L28.865 37.9111L27.999 36.4112L27.133 37.9112L27.999 38.4111ZM20.5615 51.2939L19.6977 51.7977L20.5659 53.2864L21.4276 51.7939L20.5615 51.2939ZM16.5 44.3301L17.3638 43.8263L17.0759 43.3326L16.5045 43.3301L16.5 44.3301ZM8.4375 44.2939L7.57148 43.7939L6.70988 45.2862L8.43302 45.2939L8.4375 44.2939ZM17.4375 28.7061L17.9375 27.84L17.0715 27.34L16.5715 28.206L17.4375 28.7061ZM27.999 34.8037L27.499 35.6697L27.999 35.9584L28.499 35.6698L27.999 34.8037ZM38.5615 28.7061L39.4275 28.206L38.9276 27.3401L38.0616 27.84L38.5615 28.7061ZM47.5615 44.2939L47.557 43.294L39.4955 43.3301L39.5 44.3301L39.5045 45.3301L47.566 45.2939L47.5615 44.2939ZM39.5 44.3301L38.6362 43.8262L34.5737 50.7901L35.4375 51.2939L36.3013 51.7978L40.3638 44.834L39.5 44.3301ZM35.4375 51.2939L36.3035 50.7939L28.865 37.9111L27.999 38.4111L27.133 38.9112L34.5715 51.794L35.4375 51.2939ZM27.999 38.4111L27.133 37.9112L19.6955 50.794L20.5615 51.2939L21.4276 51.7939L28.8651 38.9111L27.999 38.4111ZM20.5615 51.2939L21.4253 50.7901L17.3638 43.8263L16.5 44.3301L15.6362 44.8339L19.6977 51.7977L20.5615 51.2939ZM16.5 44.3301L16.5045 43.3301L8.44198 43.294L8.4375 44.2939L8.43302 45.2939L16.4955 45.3301L16.5 44.3301ZM8.4375 44.2939L9.30352 44.794L18.3035 29.2061L17.4375 28.7061L16.5715 28.206L7.57148 43.7939L8.4375 44.2939ZM17.4375 28.7061L16.9375 29.5721L27.499 35.6697L27.999 34.8037L28.499 33.9377L17.9375 27.84L17.4375 28.7061ZM27.999 34.8037L28.499 35.6698L39.0615 29.5721L38.5615 28.7061L38.0616 27.84L27.4991 33.9377L27.999 34.8037ZM38.5615 28.7061L37.6955 29.2061L46.6955 44.794L47.5615 44.2939L48.4275 43.7939L39.4275 28.206L38.5615 28.7061Z" fill="black"/>
<circle cx="28" cy="22" r="16" stroke="black" stroke-width="2"/>
<path d="M28 13L30.0206 19.2188H36.5595L31.2694 23.0623L33.2901 29.2812L28 25.4377L22.7099 29.2812L24.7306 23.0623L19.4405 19.2188H25.9794L28 13Z" fill="url(#paint0_linear_2670_3975)" stroke="black" stroke-width="2" stroke-linecap="round"/>
<defs>
<linearGradient id="paint0_linear_2670_3975" x1="28" y1="14.2" x2="28" y2="28.6" gradientUnits="userSpaceOnUse">
<stop stop-color="#BFBFBF" stop-opacity="0"/>
<stop offset="1" stop-color="#595959" stop-opacity="0.49"/>
</linearGradient>
</defs>
</svg>
