<svg width="56" height="56" viewBox="0 0 56 56" fill="none" xmlns="http://www.w3.org/2000/svg">
<path d="M42 28C42 35.732 35.732 42 28 42M42 28C42 20.268 35.732 14 28 14M42 28H14M28 42C20.268 42 14 35.732 14 28M28 42C31.5018 38.1663 33.4928 33.1912 33.601 28C33.4928 22.8088 31.5018 17.8337 28 14M28 42C24.4982 38.1663 22.5091 33.1912 22.401 28C22.5091 22.8088 24.4982 17.8337 28 14M14 28C14 20.268 20.268 14 28 14" stroke="black" stroke-width="2" stroke-linecap="round" stroke-linejoin="round"/>
<circle cx="11" cy="11" r="5" fill="url(#paint0_linear_2670_3982)" stroke="black" stroke-width="2" stroke-linecap="round" stroke-linejoin="round"/>
<circle cx="11" cy="45" r="5" fill="url(#paint1_linear_2670_3982)" stroke="black" stroke-width="2" stroke-linecap="round" stroke-linejoin="round"/>
<circle cx="45" cy="11" r="5" fill="url(#paint2_linear_2670_3982)" stroke="black" stroke-width="2" stroke-linecap="round" stroke-linejoin="round"/>
<circle cx="45" cy="45" r="5" fill="url(#paint3_linear_2670_3982)" stroke="black" stroke-width="2" stroke-linecap="round" stroke-linejoin="round"/>
<defs>
<linearGradient id="paint0_linear_2670_3982" x1="11" y1="6" x2="11" y2="16" gradientUnits="userSpaceOnUse">
<stop stop-color="#BFBFBF" stop-opacity="0"/>
<stop offset="1" stop-color="#595959" stop-opacity="0.49"/>
</linearGradient>
<linearGradient id="paint1_linear_2670_3982" x1="11" y1="40" x2="11" y2="50" gradientUnits="userSpaceOnUse">
<stop stop-color="#BFBFBF" stop-opacity="0"/>
<stop offset="1" stop-color="#595959" stop-opacity="0.49"/>
</linearGradient>
<linearGradient id="paint2_linear_2670_3982" x1="45" y1="6" x2="45" y2="16" gradientUnits="userSpaceOnUse">
<stop stop-color="#BFBFBF" stop-opacity="0"/>
<stop offset="1" stop-color="#595959" stop-opacity="0.49"/>
</linearGradient>
<linearGradient id="paint3_linear_2670_3982" x1="45" y1="40" x2="45" y2="50" gradientUnits="userSpaceOnUse">
<stop stop-color="#BFBFBF" stop-opacity="0"/>
<stop offset="1" stop-color="#595959" stop-opacity="0.49"/>
</linearGradient>
</defs>
</svg>
