<svg width="56" height="56" viewBox="0 0 56 56" fill="none" xmlns="http://www.w3.org/2000/svg">
<path d="M28 6C39.0454 6.00005 47.999 9.02215 47.999 12.75V26.25L47.9932 26.4238C47.7195 30.0712 38.8729 33 28 33C17.127 33 8.28059 30.0712 8.00684 26.4238L8 26.25V12.75C8 9.02213 16.9544 6 28 6Z" fill="url(#paint0_linear_4238_17193)"/>
<path d="M32.4444 45.6C32.4444 48.0301 30.4546 50 28 50C25.5454 50 23.5556 48.0301 23.5556 45.6M32.4444 45.6C32.4444 43.1699 30.4546 41.2 28 41.2M32.4444 45.6H48M23.5556 45.6C23.5556 43.1699 25.5454 41.2 28 41.2M23.5556 45.6H8M28 41.2V32.4M48 12.6C48 16.2451 39.0457 19.2 28 19.2C16.9543 19.2 8 16.2451 8 12.6M48 12.6C48 8.95492 39.0457 6 28 6C16.9543 6 8 8.95492 8 12.6M48 12.6V25.8C48 29.452 39.1111 32.4 28 32.4M8 12.6V25.8C8 29.452 16.8889 32.4 28 32.4" stroke="black" stroke-width="2" stroke-linecap="round" stroke-linejoin="round"/>
<defs>
<linearGradient id="paint0_linear_4238_17193" x1="27.9995" y1="6" x2="27.9995" y2="33" gradientUnits="userSpaceOnUse">
<stop stop-color="#BFBFBF" stop-opacity="0"/>
<stop offset="1" stop-color="#595959" stop-opacity="0.49"/>
</linearGradient>
</defs>
</svg>
