<svg width="480" height="480" viewBox="0 0 480 480" fill="none" xmlns="http://www.w3.org/2000/svg">
<path d="M278.818 0C318.874 3.27094e-05 353.98 8.32593 384.135 24.9785C414.289 41.6311 437.693 65.0348 454.346 95.1895C458.998 103.488 462.999 112.12 466.352 121.086L395.352 162.722C390.025 140.107 379.762 121.196 364.557 105.991C341.603 82.1376 309.423 70.211 268.017 70.2109C231.111 70.2109 198.256 79.6625 169.451 98.5654C141.097 117.018 119.043 141.997 103.291 173.502C87.5386 205.007 79.6621 239.663 79.6621 277.469C79.6621 318.425 91.1393 350.83 114.093 374.684C137.496 398.537 169.676 410.465 210.633 410.465C247.538 410.465 280.168 401.013 308.522 382.11C316.496 376.878 323.967 371.161 330.94 364.963L364.31 430.071C357.474 434.845 350.355 439.337 342.953 443.545C300.647 467.849 252.939 480 199.831 480C160.225 480 125.344 471.674 95.1895 455.021C65.0349 438.369 41.6311 414.965 24.9785 384.811C8.32596 354.656 4.27373e-06 320.45 0 282.194C0 228.636 11.9266 180.478 35.7803 137.722C60.084 94.5149 93.3897 60.7599 135.696 36.4561C178.453 12.1523 226.16 0 278.818 0ZM477.755 169.183C478.8 178.23 479.324 187.546 479.324 197.131C479.324 250.689 467.172 299.072 442.868 342.278C431.256 363.311 417.404 382.104 401.312 398.657L364.154 326.157C368.197 319.902 371.933 313.349 375.358 306.498C389.72 278.174 397.715 247.729 399.347 215.162L477.755 169.183Z" fill="black"/>
</svg>
