<svg width="56" height="56" viewBox="0 0 56 56" fill="none" xmlns="http://www.w3.org/2000/svg">
<rect x="8" y="23" width="40" height="28" stroke="black" stroke-width="2"/>
<path d="M16 23H40V19C40 12.3726 34.6274 7 28 7V7C21.3726 7 16 12.3726 16 19V23Z" stroke="black" stroke-width="2"/>
<path d="M28 30C30.7614 30 33 32.2386 33 35C33 36.6355 32.2141 38.0868 31 38.999L33 45H23L24.999 38.999C23.7853 38.0868 23 36.6352 23 35C23 32.2386 25.2386 30 28 30Z" fill="url(#paint0_linear_2670_3960)"/>
<path d="M28 30L28 29H28V30ZM33 35L34 35V35H33ZM31 38.999L30.3993 38.1996L29.8236 38.6321L30.0513 39.3152L31 38.999ZM33 45V46H34.3874L33.9487 44.6838L33 45ZM23 45L22.0513 44.684L21.6129 46H23V45ZM24.999 38.999L25.9478 39.3151L26.1753 38.6321L25.5999 38.1996L24.999 38.999ZM23 35L22 35V35L23 35ZM28 30L28 31C30.2091 31 32 32.7909 32 35H33H34C34 31.6863 31.3137 29 28 29L28 30ZM33 35L32 35C32 36.3073 31.3732 37.4678 30.3993 38.1996L31 38.999L31.6007 39.7985C33.055 38.7058 34 36.9637 34 35L33 35ZM31 38.999L30.0513 39.3152L32.0513 45.3162L33 45L33.9487 44.6838L31.9487 38.6828L31 38.999ZM33 45V44H23V45V46H33V45ZM23 45L23.9487 45.316L25.9478 39.3151L24.999 38.999L24.0503 38.683L22.0513 44.684L23 45ZM24.999 38.999L25.5999 38.1996C24.6264 37.468 24 36.3073 24 35L23 35L22 35C22 36.9632 22.9442 38.7055 24.3982 39.7984L24.999 38.999ZM23 35H24C24 32.7909 25.7909 31 28 31V30V29C24.6863 29 22 31.6863 22 35H23Z" fill="black"/>
<defs>
<linearGradient id="paint0_linear_2670_3960" x1="28" y1="31" x2="28" y2="43" gradientUnits="userSpaceOnUse">
<stop stop-color="#BFBFBF" stop-opacity="0"/>
<stop offset="1" stop-color="#595959" stop-opacity="0.49"/>
</linearGradient>
</defs>
</svg>
