<svg width="56" height="56" viewBox="0 0 56 56" fill="none" xmlns="http://www.w3.org/2000/svg">
<path d="M35 28C35 31.866 31.866 35 28 35C24.134 35 21 31.866 21 28C21 24.134 24.134 21 28 21C31.866 21 35 24.134 35 28Z" fill="url(#paint0_linear_2670_3989)"/>
<path d="M17.918 18.0391C17.8873 18.057 17.8567 18.0748 17.8262 18.0928C14.5551 20.0196 11.7957 22.5044 9.84668 24.5215C8.87467 25.5275 8.10972 26.4113 7.58984 27.041C7.45936 27.1991 7.34692 27.343 7.24805 27.4668C7.24943 27.4687 7.25056 27.4708 7.25195 27.4727C7.53637 27.859 7.9589 28.4148 8.50391 29.083C9.59514 30.421 11.1725 32.2035 13.1182 33.9824C17.0448 37.5725 22.3075 41 28 41C31.4874 41 34.8122 39.7117 37.7686 37.8896L39.2188 39.3398C35.9411 41.4315 32.1176 43 28 43C21.5423 43 15.8043 39.1479 11.7686 35.458C9.73317 33.597 8.08935 31.7386 6.9541 30.3467C6.38589 29.65 5.94328 29.068 5.6416 28.6582C5.49085 28.4534 5.37478 28.2917 5.2959 28.1797C5.25644 28.1237 5.22587 28.0799 5.20508 28.0498C5.19477 28.0349 5.18727 28.0229 5.18164 28.0146C5.17883 28.0105 5.17643 28.0073 5.1748 28.0049C5.17401 28.0037 5.17336 28.0027 5.17285 28.002L5.17188 28.001C5.17181 28.0005 5.18354 27.9928 6 27.4404L5.17188 28L4.77734 27.417L5.19336 26.8486L5.19531 26.8467C5.19615 26.8455 5.19688 26.8436 5.19824 26.8418C5.20108 26.8379 5.20589 26.833 5.21094 26.8262C5.22106 26.8125 5.23506 26.7926 5.25391 26.7676C5.29169 26.7174 5.34697 26.6446 5.41895 26.5518C5.56284 26.3661 5.77409 26.0992 6.04785 25.7676C6.59534 25.1045 7.39454 24.1809 8.4082 23.1318C10.3621 21.1096 13.1363 18.5974 16.46 16.5811L17.918 18.0391ZM28 13C34.4294 13 40.1572 16.5431 44.2012 19.9561C46.2379 21.6749 47.8837 23.3911 49.0205 24.6777C49.5895 25.3217 50.0326 25.8601 50.335 26.2393C50.4861 26.4288 50.6025 26.5788 50.6816 26.6826C50.7212 26.7344 50.7516 26.7748 50.7725 26.8027C50.7828 26.8166 50.7912 26.8273 50.7969 26.835C50.7997 26.8388 50.8021 26.8425 50.8037 26.8447C50.8045 26.8457 50.8052 26.847 50.8057 26.8477V26.8486C50.8007 26.8527 50.7389 26.8989 50 27.4404L50.8281 28.001L50.8271 28.002C50.8266 28.0027 50.826 28.0037 50.8252 28.0049C50.8236 28.0073 50.8212 28.0105 50.8184 28.0146C50.8127 28.0229 50.8052 28.0349 50.7949 28.0498C50.7741 28.0799 50.7436 28.1237 50.7041 28.1797C50.6252 28.2917 50.5091 28.4534 50.3584 28.6582C50.0567 29.068 49.6141 29.65 49.0459 30.3467C47.9106 31.7386 46.2668 33.597 44.2314 35.458C43.4515 36.1711 42.607 36.8888 41.707 37.585L40.2812 36.1592C41.1997 35.4595 42.0697 34.7249 42.8818 33.9824C44.8275 32.2035 46.4049 30.421 47.4961 29.083C48.0411 28.4148 48.4636 27.859 48.748 27.4727C48.75 27.47 48.751 27.4665 48.7529 27.4639C48.4695 27.1091 48.0544 26.6052 47.5215 26.002C46.4318 24.7686 44.8555 23.1253 42.9111 21.4844C38.9927 18.1774 33.7208 15 28 15C25.469 15 23.022 15.6213 20.7314 16.6094L19.2188 15.0977C19.4072 15.0094 19.5969 14.9228 19.7881 14.8389C22.3117 13.7309 25.0816 13 28 13ZM23.6982 23.8193C22.6478 24.9 22 26.374 22 28C22 31.3137 24.6863 34 28 34C29.626 34 31.0991 33.3512 32.1797 32.3008L33.5947 33.7158C32.1521 35.1281 30.1783 36 28 36C23.5817 36 20 32.4183 20 28C20 25.8217 20.8709 23.8469 22.2832 22.4043L23.6982 23.8193ZM28 20C32.4183 20 36 23.5817 36 28C36 29.1409 35.7585 30.2249 35.3281 31.207L33.7686 29.6475C33.9178 29.1238 34 28.5716 34 28C34 24.6863 31.3137 22 28 22C27.4282 22 26.8754 22.0811 26.3516 22.2305L24.792 20.6709C25.7742 20.2404 26.8589 20 28 20ZM51.2227 27.417L50.8281 28L50 27.4404L50.8066 26.8486L51.2227 27.417Z" fill="black"/>
<path d="M11 11L44.9411 44.9411" stroke="black" stroke-width="2"/>
<defs>
<linearGradient id="paint0_linear_2670_3989" x1="28.3889" y1="21" x2="28.3889" y2="35" gradientUnits="userSpaceOnUse">
<stop stop-color="#BFBFBF" stop-opacity="0"/>
<stop offset="1" stop-color="#595959" stop-opacity="0.49"/>
</linearGradient>
</defs>
</svg>
