<svg width="56" height="56" viewBox="0 0 56 56" fill="none" xmlns="http://www.w3.org/2000/svg">
<path d="M15.4 15.4L19.6 11.2M19.6 11.2L15.4 7M19.6 11.2H15.4C10.7608 11.2 7 14.9608 7 19.6M40.6 40.6L36.4 44.8M36.4 44.8L40.6 49M36.4 44.8H40.6C45.2392 44.8 49 41.0392 49 36.4" stroke="black" stroke-width="2" stroke-linecap="square"/>
<circle cx="19.5" cy="36.5" r="12.5" fill="url(#paint0_linear_2670_3968)" stroke="black" stroke-width="2" stroke-linecap="round" stroke-linejoin="round"/>
<path d="M36.2891 7C43.3089 7 49 12.6911 49 19.7109C48.9998 26.7306 43.3088 32.4209 36.2891 32.4209C34.5857 32.4208 32.9611 32.0845 31.4766 31.4766C30.1871 28.3276 27.6716 25.8116 24.5225 24.5225C23.9149 23.0382 23.5792 21.4139 23.5791 19.7109C23.5791 12.6912 29.2694 7.00022 36.2891 7Z" fill="url(#paint1_linear_2670_3968)"/>
<path d="M36.2891 7L36.2891 6L36.289 6L36.2891 7ZM49 19.7109L50 19.711V19.7109H49ZM36.2891 32.4209L36.289 33.4209H36.2891V32.4209ZM31.4766 31.4766L30.5511 31.8555C30.6527 32.1035 30.8496 32.3004 31.0976 32.402L31.4766 31.4766ZM24.5225 24.5225L23.597 24.9013C23.6986 25.1494 23.8955 25.3464 24.1436 25.4479L24.5225 24.5225ZM23.5791 19.7109L22.5791 19.7109L22.5791 19.711L23.5791 19.7109ZM36.2891 7V8C42.7566 8 48 13.2434 48 19.7109H49H50C50 12.1388 43.8612 6 36.2891 6V7ZM49 19.7109L48 19.7109C47.9998 26.1782 42.7565 31.4209 36.2891 31.4209V32.4209V33.4209C43.861 33.4209 49.9998 27.2829 50 19.711L49 19.7109ZM36.2891 32.4209L36.2891 31.4209C34.7184 31.4208 33.2224 31.1109 31.8555 30.5511L31.4766 31.4766L31.0976 32.402C32.6998 33.0581 34.4529 33.4208 36.289 33.4209L36.2891 32.4209ZM31.4766 31.4766L32.402 31.0976C31.011 27.7007 28.2986 24.9877 24.9013 23.597L24.5225 24.5225L24.1436 25.4479C27.0445 26.6354 29.3633 28.9545 30.5511 31.8555L31.4766 31.4766ZM24.5225 24.5225L25.4479 24.1436C24.8886 22.7772 24.5792 21.2814 24.5791 19.7109L23.5791 19.7109L22.5791 19.711C22.5792 21.5464 22.9412 23.2992 23.597 24.9013L24.5225 24.5225ZM23.5791 19.7109H24.5791C24.5791 13.2435 29.8218 8.0002 36.2891 8L36.2891 7L36.289 6C28.7171 6.00024 22.5791 12.139 22.5791 19.7109H23.5791Z" fill="black"/>
<defs>
<linearGradient id="paint0_linear_2670_3968" x1="19.5" y1="25.6667" x2="19.5" y2="45.6667" gradientUnits="userSpaceOnUse">
<stop stop-color="#BFBFBF" stop-opacity="0"/>
<stop offset="1" stop-color="#595959" stop-opacity="0.49"/>
</linearGradient>
<linearGradient id="paint1_linear_2670_3968" x1="36.2896" y1="8.69473" x2="36.2896" y2="29.0314" gradientUnits="userSpaceOnUse">
<stop stop-color="#BFBFBF" stop-opacity="0"/>
<stop offset="1" stop-color="#595959" stop-opacity="0.49"/>
</linearGradient>
</defs>
</svg>
