<svg width="64" height="64" viewBox="0 0 64 64" fill="none" xmlns="http://www.w3.org/2000/svg">
<g clip-path="url(#clip0_24922_1498)">
<path d="M43.5 39V51M43.5 51L49 45.5455M43.5 51L38 45.5455" stroke="#141413" stroke-width="2.18" stroke-linecap="round" stroke-linejoin="round"/>
<path d="M18.1211 21.303V31.9091C18.1211 31.9091 18.1211 31.9091 18.1211 31.9091C18.1211 31.9091 18.1211 37.2121 30.8484 37.2121C43.5756 37.2121 43.5756 31.9091 43.5756 31.9091C43.5756 31.9091 43.5756 31.9091 43.5756 31.9091V21.303" stroke="#141413" stroke-width="2" stroke-miterlimit="10"/>
<path d="M30.8484 47.8182C18.1211 47.8182 18.1211 42.5152 18.1211 42.5152C18.1211 42.5152 18.1211 42.5152 18.1211 42.5152V31.9091M30.8484 16C43.5756 16 43.5756 21.303 43.5756 21.303V21.303C43.5756 21.303 43.5756 26.6061 30.8484 26.6061C18.1211 26.6061 18.1211 21.303 18.1211 21.303V21.303C18.1211 21.303 18.1211 16 30.8484 16Z" stroke="#141413" stroke-width="2" stroke-miterlimit="10"/>
</g>
<defs>
<clipPath id="clip0_24922_1498">
<rect width="40" height="40" fill="white" transform="translate(12 12)"/>
</clipPath>
</defs>
</svg>
