<svg width="64" height="64" viewBox="0 0 64 64" fill="none" xmlns="http://www.w3.org/2000/svg">
<path d="M34.5736 11.3455L35.3385 11.9896V11.9896L34.5736 11.3455ZM17.2657 31.8987L16.5008 31.2545H16.5008L17.2657 31.8987ZM30.3165 51.8762L29.5516 51.2321H29.5516L30.3165 51.8762ZM47.6245 31.323L46.8596 30.6789L47.6245 31.323ZM35.3385 11.9896C35.6389 11.6329 36.221 11.8453 36.221 12.3117H38.221C38.221 9.97987 35.3107 8.91772 33.8087 10.7014L35.3385 11.9896ZM18.0306 32.5428L35.3385 11.9896L33.8087 10.7014L16.5008 31.2545L18.0306 32.5428ZM18.413 33.3649C17.9879 33.3649 17.7567 32.868 18.0306 32.5428L16.5008 31.2545C15.1316 32.8805 16.2874 35.3649 18.413 35.3649V33.3649ZM24.8692 33.3649H18.413V35.3649H24.8692V33.3649ZM28.6692 50.91V37.1649H26.6692V50.91H28.6692ZM29.5516 51.2321C29.2512 51.5888 28.6692 51.3764 28.6692 50.91H26.6692C26.6692 53.2418 29.5794 54.304 31.0815 52.5203L29.5516 51.2321ZM46.8596 30.6789L29.5516 51.2321L31.0815 52.5203L48.3894 31.9671L46.8596 30.6789ZM46.4771 29.8568C46.9022 29.8568 47.1334 30.3537 46.8596 30.6789L48.3894 31.9671C49.7586 30.3412 48.6027 27.8568 46.4771 27.8568V29.8568ZM40.021 29.8568H46.4771V27.8568H40.021V29.8568ZM36.221 12.3117V26.0568H38.221V12.3117H36.221ZM40.021 27.8568C39.0269 27.8568 38.221 27.0509 38.221 26.0568H36.221C36.221 28.1555 37.9223 29.8568 40.021 29.8568V27.8568ZM24.8692 35.3649C25.8633 35.3649 26.6692 36.1708 26.6692 37.1649H28.6692C28.6692 35.0662 26.9679 33.3649 24.8692 33.3649V35.3649Z" fill="#141413"/>
<line x1="33.09" y1="29.09" x2="33.09" y2="33.91" stroke="#141413" stroke-width="2.18" stroke-linecap="round" stroke-linejoin="round"/>
</svg>
