<svg width="64" height="64" viewBox="0 0 64 64" fill="none" xmlns="http://www.w3.org/2000/svg">
<path d="M32.3988 49.9143C32.1362 49.9736 31.8638 49.9736 31.6012 49.9143C27.2503 48.9319 23.3435 46.4815 20.5124 42.9507C17.595 39.3124 16.0004 34.7519 16 30.0457V18.9065C16 17.9564 16.6683 17.1375 17.599 16.9471L31.599 14.0821C31.8636 14.0279 32.1364 14.0279 32.401 14.0821L46.401 16.9471C47.3317 17.1375 48 17.9564 48 18.9064V30.0457C47.9996 34.7519 46.405 39.3124 43.4876 42.9507C40.6565 46.4815 36.7497 48.9319 32.3988 49.9143Z" stroke="#141413" stroke-width="2" stroke-miterlimit="10"/>
<path d="M24.0508 30.2167L30.0174 36.1834L39.9508 26.2334" stroke="#141413" stroke-width="2.18" stroke-linecap="round" stroke-linejoin="round"/>
</svg>
