<svg width="28" height="28" viewBox="0 0 28 28" fill="none" xmlns="http://www.w3.org/2000/svg">
<path d="M22.348 6.5519C25.0585 10.5563 26.3971 15.0732 25.8967 20.2731C25.8946 20.2951 25.8832 20.3153 25.8652 20.3285C23.8126 21.843 21.8239 22.7621 19.8631 23.3716C19.8478 23.3763 19.8315 23.376 19.8164 23.3709C19.8012 23.3658 19.7881 23.356 19.7788 23.343C19.3258 22.7097 18.9142 22.042 18.5536 21.3408C18.5329 21.2995 18.5518 21.2498 18.5944 21.2335C19.2481 20.986 19.8697 20.6894 20.4676 20.3382C20.5147 20.3105 20.5177 20.2426 20.4742 20.2101C20.3473 20.1154 20.2216 20.0159 20.1013 19.9165C20.0788 19.8981 20.0485 19.8945 20.023 19.9068C16.1413 21.708 11.8891 21.708 7.9615 19.9068C7.936 19.8954 7.9057 19.8993 7.8838 19.9174C7.7638 20.0169 7.6378 20.1154 7.5121 20.2101C7.4686 20.2426 7.4722 20.3105 7.5196 20.3382C8.1175 20.6827 8.7391 20.986 9.3919 21.2347C9.4342 21.251 9.4543 21.2995 9.4333 21.3408C9.0805 22.0429 8.6689 22.7106 8.2075 23.3439C8.1874 23.3695 8.1544 23.3813 8.1232 23.3716C6.1717 22.7621 4.18301 21.843 2.13041 20.3285C2.11331 20.3153 2.10101 20.2942 2.09921 20.2722C1.68101 15.7743 2.53331 11.2201 5.6446 6.551C5.6521 6.53864 5.6635 6.52899 5.6767 6.52327C7.2076 5.81728 8.8477 5.29789 10.5619 5.00127C10.5931 4.99645 10.6243 5.01092 10.6405 5.03865C10.8523 5.41546 11.0944 5.89867 11.2582 6.29357C13.0651 6.01624 14.9002 6.01624 16.7449 6.29357C16.9087 5.90711 17.1424 5.41546 17.3533 5.03865C17.3608 5.02489 17.3724 5.01387 17.3866 5.00716C17.4007 5.00044 17.4165 4.99838 17.4319 5.00127C19.147 5.2988 20.7871 5.81819 22.3168 6.52327C22.3303 6.52899 22.3414 6.53864 22.348 6.5519ZM12.1768 15.1039C12.1957 13.7742 11.2309 12.674 10.0198 12.674C8.8186 12.674 7.8631 13.7646 7.8631 15.1039C7.8631 16.4429 8.8375 17.5335 10.0198 17.5335C11.2213 17.5335 12.1768 16.4429 12.1768 15.1039ZM20.1514 15.1039C20.1703 13.7742 19.2055 12.674 17.9947 12.674C16.7932 12.674 15.8377 13.7646 15.8377 15.1039C15.8377 16.4429 16.8121 17.5335 17.9947 17.5335C19.2055 17.5335 20.1514 16.4429 20.1514 15.1039Z" fill="#141413"/>
</svg>
