<svg width="28" height="28" viewBox="0 0 28 28" fill="none" xmlns="http://www.w3.org/2000/svg">
<path fill-rule="evenodd" clip-rule="evenodd" d="M14.0099 1.99756C7.36875 1.99756 2 7.3528 2 13.978C2 19.2738 5.43994 23.7566 10.2121 25.3432C10.8087 25.4625 11.0272 25.0855 11.0272 24.7683C11.0272 24.4905 11.0076 23.5385 11.0076 22.5466C7.6667 23.2608 6.97099 21.1184 6.97099 21.1184C6.43409 19.73 5.63858 19.3731 5.63858 19.3731C4.54511 18.6392 5.71823 18.6392 5.71823 18.6392C6.93117 18.7186 7.56763 19.869 7.56763 19.869C8.64118 21.6936 10.3711 21.1781 11.0671 20.8607C11.1664 20.0871 11.4847 19.5516 11.8228 19.2541C9.15817 18.9764 6.35469 17.945 6.35469 13.3431C6.35469 12.034 6.8316 10.963 7.58729 10.13C7.46807 9.83252 7.0504 8.60252 7.70677 6.95627C7.70677 6.95627 8.72083 6.63885 11.0073 8.18603C11.9863 7.92378 12.9958 7.79037 14.0099 7.78925C15.024 7.78925 16.0577 7.92824 17.0123 8.18603C19.299 6.63885 20.3131 6.95627 20.3131 6.95627C20.9695 8.60252 20.5515 9.83252 20.4323 10.13C21.2079 10.963 21.6652 12.034 21.6652 13.3431C21.6652 17.945 18.8617 18.9564 16.1772 19.2541C16.6148 19.6309 16.9924 20.3449 16.9924 21.4755C16.9924 23.0821 16.9727 24.3715 16.9727 24.768C16.9727 25.0855 17.1915 25.4625 17.7879 25.3435C22.56 23.7564 25.9999 19.2738 25.9999 13.978C26.0196 7.3528 20.6312 1.99756 14.0099 1.99756Z" fill="#141413"/>
</svg>
