<svg width="28" height="28" viewBox="0 0 28 28" fill="none" xmlns="http://www.w3.org/2000/svg">
<path fill-rule="evenodd" clip-rule="evenodd" d="M5 6H23C24.1046 6 25 6.89543 25 8V20C25 21.1046 24.1046 22 23 22H5C3.89543 22 3 21.1046 3 20V8C3 6.89543 3.89543 6 5 6ZM5.84454 7.89117C5.57552 7.65348 5.16475 7.67888 4.92706 7.9479C4.68937 8.21693 4.71477 8.6277 4.98379 8.86539L11.5834 14.6963C12.9637 15.9159 15.0365 15.9159 16.4168 14.6963L23.0164 8.86539C23.2854 8.6277 23.3108 8.21693 23.0732 7.9479C22.8355 7.67888 22.4247 7.65348 22.1557 7.89117L15.5561 13.7221C14.6674 14.5073 13.3329 14.5073 12.4441 13.7221L5.84454 7.89117Z" fill="#141413"/>
</svg>
