<svg width="28" height="28" viewBox="0 0 28 28" fill="none" xmlns="http://www.w3.org/2000/svg">
<path fill-rule="evenodd" clip-rule="evenodd" d="M8.27259 21.6363C12.49 21.6363 15.909 18.2173 15.909 13.9999C15.909 9.78244 12.49 6.36353 8.27259 6.36353C4.05515 6.36353 0.63623 9.78244 0.63623 13.9999C0.63623 18.2173 4.05515 21.6363 8.27259 21.6363ZM20.3636 21.6363C22.4723 21.6363 24.1818 18.2173 24.1818 13.9999C24.1818 9.78244 22.4723 6.36353 20.3636 6.36353C18.2549 6.36353 16.5454 9.78244 16.5454 13.9999C16.5454 18.2173 18.2549 21.6363 20.3636 21.6363ZM27.3638 14C27.3638 17.866 26.794 21 26.0911 21C25.3882 21 24.8184 17.866 24.8184 14C24.8184 10.134 25.3882 7 26.0911 7C26.794 7 27.3638 10.134 27.3638 14Z" fill="#141413"/>
</svg>
