<svg width="512" height="256" viewBox="0 0 512 256" fill="none" xmlns="http://www.w3.org/2000/svg">
<rect width="512" height="256" fill="#F5F5F5"/>
<path fill-rule="evenodd" clip-rule="evenodd" d="M58.1331 120.42L112.366 89.1087C116.32 86.826 121.375 88.1806 123.658 92.1343L141.736 123.446C143.212 126.003 143.212 129.154 141.736 131.712L123.658 163.023C121.375 166.977 116.32 168.332 112.366 166.049L58.1331 134.738C52.6223 131.556 52.6223 123.602 58.1331 120.42ZM115.856 160.004C116.471 160.359 117.258 160.148 117.613 159.533L135.04 129.349L62.7602 129.349L115.856 160.004ZM62.7607 125.808L135.04 125.808L117.613 95.6244C117.258 95.0093 116.471 94.7986 115.856 95.1537L62.7607 125.808Z" fill="#141413"/>
<path fill-rule="evenodd" clip-rule="evenodd" d="M375.227 117.776C366.173 117.776 359.042 124.721 359.042 135.263C359.042 145.805 366.173 153.06 375.165 153.06C380.746 153.06 384.839 150.456 387.009 147.355V152.502H394.141V102.379H387.009V123.109C384.405 119.884 379.692 117.776 375.227 117.776ZM376.653 123.915C381.986 123.915 387.009 128.07 387.009 135.387C387.009 142.767 381.986 146.921 376.653 146.921C371.382 146.921 366.297 142.643 366.297 135.263C366.297 127.884 371.382 123.915 376.653 123.915ZM197.142 109.515V102.892H165.641V152.455H197.142V145.833H173.131V130.958H195.005V124.335H173.131V109.515H197.142ZM448.768 152.502V134.519C448.768 127.264 451.993 125.093 457.202 125.093H459V117.776C454.163 117.776 450.752 119.884 448.768 123.295V118.334H441.699V152.502H448.768ZM417.813 123.729C413.038 123.729 409.193 126.954 408.449 132.349H427.362C427.238 127.078 423.084 123.729 417.813 123.729ZM433.812 142.333C431.889 148.286 426.494 153.061 418.123 153.061C408.325 153.061 401.069 146.115 401.069 135.387C401.069 124.659 408.015 117.776 418.123 117.776C427.859 117.776 434.742 124.535 434.742 134.581C434.742 135.759 434.68 136.876 434.494 138.054H408.387C408.883 143.697 412.914 147.107 418.123 147.107C422.464 147.107 424.882 144.999 426.184 142.333H433.812ZM345.374 152.502V133.403C345.374 127.14 341.963 123.915 336.816 123.915C331.607 123.915 328.197 127.14 328.197 133.403V152.502H321.127V118.334H328.197V122.241C330.491 119.45 334.274 117.776 338.367 117.776C346.366 117.776 352.381 122.799 352.381 132.349V152.502H345.374ZM292.866 117.776C283.875 117.776 276.743 124.721 276.743 135.263C276.743 145.805 283.875 153.061 292.742 153.061C298.447 153.061 302.54 150.332 304.711 147.417V152.502H311.842V118.334H304.711V123.295C302.602 120.504 298.634 117.776 292.866 117.776ZM294.355 123.915C299.688 123.915 304.711 128.07 304.711 135.387C304.711 142.767 299.688 146.921 294.355 146.921C289.084 146.921 283.999 142.643 283.999 135.263C283.999 127.884 289.084 123.915 294.355 123.915ZM244.142 123.357C246.312 120.504 250.467 117.776 256.048 117.776C265.04 117.776 272.109 124.721 272.109 135.263C272.109 145.805 265.04 153.061 256.048 153.061C250.405 153.061 246.374 150.208 244.142 147.542V168.749H237.072V118.334H244.142V123.357ZM264.916 135.263C264.916 127.884 259.831 123.915 254.498 123.915C249.227 123.915 244.142 128.07 244.142 135.387C244.142 142.767 249.227 146.921 254.498 146.921C259.831 146.921 264.916 142.643 264.916 135.263ZM216.421 140.907L223.801 152.503H231.8L220.762 135.201L231.8 118.334H224.421L217.475 129.93L210.096 118.334H202.096L213.135 135.698L202.096 152.503H209.476L216.421 140.907Z" fill="#141413"/>
</svg>
