<svg width="256" height="256" viewBox="0 0 256 256" fill="none" xmlns="http://www.w3.org/2000/svg">
<rect width="256" height="256" fill="#F5F5F5"/>
<path fill-rule="evenodd" clip-rule="evenodd" d="M45.3572 113.496L155.017 50.1835C163.011 45.568 173.234 48.307 177.849 56.3015L214.402 119.613C217.388 124.785 217.388 131.157 214.403 136.328L177.849 199.64C173.234 207.634 163.011 210.373 155.017 205.758L45.3572 142.446C34.2143 136.012 34.2143 119.929 45.3572 113.496ZM162.074 193.535C163.318 194.253 164.908 193.827 165.626 192.583L200.864 131.55L54.7133 131.55L162.074 193.535ZM54.7142 124.391L200.863 124.391L165.626 63.3585C164.908 62.1147 163.318 61.6886 162.074 62.4066L54.7142 124.391Z" fill="#141413"/>
</svg>
