<svg width="96" height="96" viewBox="0 0 96 96" fill="none" xmlns="http://www.w3.org/2000/svg">
<path d="M80.4362 73.5092C81.1369 71.8263 81.4418 70.0997 81.3508 68.3788V54.7109C81.6228 59.8536 78.3594 65.0471 71.5607 68.9723C58.4862 76.5208 37.2884 76.5208 24.214 68.9723C17.9382 65.349 14.6749 60.6451 14.4238 55.898V69.5658C14.6749 74.3129 17.9382 79.0168 24.214 82.6401C36.4943 89.7302 55.9412 90.1608 69.0921 83.932" stroke="#141413" stroke-width="0.548571"/>
<path fill-rule="evenodd" clip-rule="evenodd" d="M81.3508 41.1152C81.6228 46.2579 78.3594 51.4514 71.5607 55.3766C58.4862 62.9251 37.2884 62.9251 24.214 55.3766C17.9382 51.7533 14.6749 47.0494 14.4238 42.3023V55.9701C14.6749 60.7172 17.9382 65.4211 24.214 69.0444C37.2884 76.5929 58.4862 76.5929 71.5607 69.0444C78.3594 65.1192 81.6228 59.9257 81.3508 54.7831V41.1152Z" stroke="#141413" stroke-width="0.548571"/>
<path fill-rule="evenodd" clip-rule="evenodd" d="M81.3508 27.5381C81.6228 32.6808 78.3594 37.8742 71.5607 41.7994C58.4862 49.348 37.2884 49.348 24.214 41.7994C17.9382 38.1761 14.6749 33.4723 14.4238 28.7252V42.393C14.6749 47.1401 17.9382 51.844 24.214 55.4673C37.2884 63.0158 58.4862 63.0158 71.5607 55.4673C78.3594 51.542 81.6228 46.3486 81.3508 41.2059V27.5381Z" stroke="#141413" stroke-width="0.548571"/>
<circle cx="27.3356" cy="27.3356" r="27.3356" transform="matrix(0.866025 0.5 -0.866025 0.5 47.8906 0.794922)" stroke="#141413" stroke-width="0.548571"/>
<circle cx="0.970706" cy="0.970706" r="0.970706" transform="matrix(0.866025 0.5 0 1 18.7656 59.2715)" fill="#141413"/>
<circle cx="0.970706" cy="0.970706" r="0.970706" transform="matrix(0.866025 0.5 0 1 18.7656 72.6572)" fill="#141413"/>
<circle cx="0.970706" cy="0.970706" r="0.970706" transform="matrix(0.866025 0.5 0 1 18.7656 45.6074)" fill="#141413"/>
<path d="M75.8488 70.492C76.4822 69.3949 78.0658 69.3949 78.6992 70.492L85.5227 82.3106C86.1561 83.4077 85.3643 84.7792 84.0975 84.7792H70.4505C69.1837 84.7792 68.3919 83.4077 69.0253 82.3106L75.8488 70.492Z" stroke="#141413" stroke-width="0.548571" stroke-linecap="round" stroke-linejoin="round"/>
<path d="M76.8633 73.9678H77.7319L77.5148 80.4827H77.0804L76.8633 73.9678Z" fill="#141413"/>
<rect x="76.8633" y="81.3516" width="0.868652" height="0.868652" rx="0.434326" fill="#141413"/>
</svg>
