<svg width="96" height="96" viewBox="0 0 96 96" fill="none" xmlns="http://www.w3.org/2000/svg">
<path d="M60.5923 67.1303L71.3873 73.3629C72.7931 74.1745 72.7871 75.4915 71.3738 76.2988L57.3775 84.2941C55.9749 85.0954 53.7146 85.0919 52.3193 84.2864L24.6139 68.2906C23.2081 67.479 23.2142 66.162 24.6274 65.3547L32.1628 61.0502" stroke="#141413" stroke-width="0.548571"/>
<path d="M60.5923 67.1303L71.3873 73.3629C72.7931 74.1745 72.7871 75.4915 71.3738 76.2988L57.3775 84.2941C55.9749 85.0954 53.7146 85.0919 52.3193 84.2864L24.6139 68.2906C23.2081 67.479 23.2142 66.162 24.6274 65.3547L32.1628 61.0502" stroke="#141413" stroke-width="0.548571"/>
<circle cx="15.1871" cy="15.1871" r="14.9129" transform="matrix(0.866025 0.5 0 1 29.7812 36.0283)" stroke="#141413" stroke-width="0.548571"/>
<path d="M33.4805 42.9699C36.0487 41.4872 39.5673 41.6784 42.9333 43.6217C50.1972 47.8156 56.0857 58.0149 56.0857 66.4025C56.0857 70.2892 54.6282 73.3526 52.0601 74.8353L57.3772 71.6797C59.9454 70.197 61.1292 66.9175 61.1292 63.0308L61.129 63.0297C61.1285 54.6423 55.4577 44.778 48.1942 40.5844C44.8282 38.641 41.4623 38.1803 38.8941 39.663L33.4805 42.9699Z" stroke="#141413" stroke-width="0.548571"/>
<path fill-rule="evenodd" clip-rule="evenodd" d="M43.9225 49.5818C43.2922 48.7977 42.5157 48.3494 41.8854 48.4057L35.9678 48.9342C35.3375 48.9905 34.9492 49.5429 34.9492 50.3833V58.2734C34.9492 59.1138 35.3375 60.1145 35.9678 60.8986L41.8854 68.2602C42.5157 69.0443 43.2922 69.4927 43.9225 69.4364L49.8401 68.9078C50.4704 68.8515 50.8587 68.2991 50.8587 67.4587V59.5686C50.8587 58.7282 50.4704 57.7275 49.8401 56.9434L43.9225 49.5818ZM36.5477 60.0736C36.3934 59.8816 36.2728 59.6595 36.1974 59.4371L42.554 50.3938V67.538C42.5239 67.5055 42.4942 67.4711 42.4653 67.4351L36.5477 60.0736ZM43.2539 67.9421V50.7979L49.6105 67.1811C49.5351 67.3165 49.4145 67.3993 49.2602 67.4131L43.3426 67.9416C43.3137 67.9442 43.284 67.9443 43.2539 67.9421ZM36.5477 50.4289L41.718 49.9671L36.1091 57.9466V51.053C36.1091 50.6911 36.2763 50.4532 36.5477 50.4289ZM49.6988 65.7926L44.0899 51.3366L49.2602 57.7684C49.5316 58.1061 49.6988 58.5371 49.6988 58.899V65.7926Z" fill="black"/>
<path d="M61.6916 32.5111L71.3873 38.1089C72.7931 38.9206 72.7871 40.2376 71.3738 41.0449L57.3775 49.0402C55.9749 49.8415 53.7146 49.838 52.3193 49.0325L24.6139 33.0367C23.2081 32.2251 23.2142 30.9081 24.6274 30.1008L33.5781 24.9878L38.6237 22.1055C40.0264 21.3042 42.2867 21.3077 43.6819 22.1132L51.4256 26.584" stroke="#141413" stroke-width="0.548571"/>
<path d="M61.6916 32.5111L71.3873 38.1089C72.7931 38.9206 72.7871 40.2376 71.3738 41.0449L57.3775 49.0402C55.9749 49.8415 53.7146 49.838 52.3193 49.0325L24.6139 33.0367C23.2081 32.2251 23.2142 30.9081 24.6274 30.1008L33.5781 24.9878L38.6237 22.1055C40.0264 21.3042 42.2867 21.3077 43.6819 22.1132L51.4256 26.584" stroke="#141413" stroke-width="0.548571"/>
<path d="M37.3906 23.1155V33.1672L40.173 31.5888L42.9553 30.0104V22.0695V18.4136" stroke="#141413" stroke-width="0.548571"/>
<path d="M33.6641 20.0585C33.6641 14.0074 38.6677 11.9909 44.8399 15.5544C51.0122 19.118 56.0158 26.9122 56.0158 32.9633V43.9198L52.2905 41.769V38.1169V30.8125C52.2905 26.7785 48.9548 21.5823 44.8399 19.2066C40.7251 16.8309 37.3894 18.1753 37.3894 22.2093V29.5137V33.1658L35.5267 32.0904L33.6641 31.015V20.0585Z" stroke="#141413" stroke-opacity="0.2" stroke-width="0.548571"/>
<path d="M33.6641 20.0585C33.6641 14.0074 38.6677 11.9909 44.8399 15.5544C51.0122 19.118 56.0158 26.9122 56.0158 32.9633V43.9198L52.2905 41.769V38.1169V30.8125C52.2905 26.7785 48.9548 21.5823 44.8399 19.2066C40.7251 16.8309 37.3894 18.1753 37.3894 22.2093V29.5137V33.1658L35.5267 32.0904L33.6641 31.015V20.0585Z" stroke="#141413" stroke-width="0.548571"/>
<path d="M61.5907 29.8279C61.5907 23.7768 56.5871 15.9826 50.4148 12.4191C47.3131 10.6283 44.971 10.3272 42.7232 10.9465C41.3823 11.3159 36.9829 13.6116 35.4121 15.1855C37.4467 13.1468 40.6134 13.87 41.5678 14.1215C42.8378 14.4561 44.6273 15.4337 44.6273 15.4337C44.6982 15.4733 44.7692 15.5137 44.8403 15.5547C51.0126 19.1183 56.0162 26.9125 56.0162 32.9636V43.9201L61.5907 40.7844V29.8279Z" stroke="#141413" stroke-opacity="0.2" stroke-width="0.548571"/>
<path d="M61.5907 29.8279C61.5907 23.7768 56.5871 15.9826 50.4148 12.4191C47.3131 10.6283 44.971 10.3272 42.7232 10.9465C41.3823 11.3159 36.9829 13.6116 35.4121 15.1855C37.4467 13.1468 40.6134 13.87 41.5678 14.1215C42.8378 14.4561 44.6273 15.4337 44.6273 15.4337C44.6982 15.4733 44.7692 15.5137 44.8403 15.5547C51.0126 19.1183 56.0162 26.9125 56.0162 32.9636V43.9201L61.5907 40.7844V29.8279Z" stroke="#141413" stroke-width="0.548571"/>
<path d="M23.7266 31.6919L23.7266 66.9325" stroke="#141413" stroke-width="0.548571"/>
<path d="M23.7266 31.6919L23.7266 66.9325" stroke="#141413" stroke-width="0.548571"/>
<path d="M72.2812 39.5996L72.2743 74.9351" stroke="#141413" stroke-width="0.548571"/>
<path d="M72.2812 39.5996L72.2743 74.9351" stroke="#141413" stroke-width="0.548571"/>
<path d="M14.9868 24.4848C15.0633 24.2902 15.3558 24.4591 15.4323 24.7421L15.9594 26.6911C15.9834 26.78 16.0347 26.8688 16.0997 26.9341L17.5241 28.3651C17.7309 28.5728 17.7309 28.9106 17.5241 28.8796L16.0997 28.6658C16.0347 28.656 15.9834 28.6856 15.9594 28.7468L15.4323 30.0872C15.3558 30.2819 15.0633 30.113 14.9868 29.83L14.4597 27.881C14.4356 27.792 14.3844 27.7032 14.3194 27.6379L12.895 26.207C12.6882 25.9992 12.6882 25.6615 12.895 25.6925L14.3194 25.9062C14.3844 25.916 14.4356 25.8864 14.4597 25.8252L14.9868 24.4848Z" fill="#141413"/>
<path d="M76.0631 23.4094C76.1396 23.2148 76.4321 23.3836 76.5086 23.6666L76.8658 24.9876C76.8899 25.0766 76.9412 25.1654 77.0062 25.2307L77.9716 26.2006C78.1784 26.4083 78.1784 26.7461 77.9716 26.715L77.0062 26.5702C76.9412 26.5604 76.8899 26.59 76.8658 26.6512L76.5086 27.5597C76.4321 27.7543 76.1396 27.5854 76.0631 27.3024L75.7058 25.9815C75.6818 25.8925 75.6305 25.8037 75.5655 25.7384L74.6001 24.7685C74.3933 24.5607 74.3933 24.223 74.6001 24.254L75.5655 24.3989C75.6305 24.4087 75.6818 24.3791 75.7058 24.3179L76.0631 23.4094Z" fill="#141413"/>
</svg>
