<svg width="96" height="96" viewBox="0 0 96 96" fill="none" xmlns="http://www.w3.org/2000/svg">
<path d="M60.5923 67.1308L71.3873 73.3633C72.7931 74.175 72.7871 75.4919 71.3738 76.2992L57.3775 84.2946C55.9749 85.0959 53.7146 85.0924 52.3193 84.2869L24.6139 68.2911C23.2081 67.4795 23.2142 66.1625 24.6274 65.3552L32.1628 61.0506" stroke="#141413" stroke-width="0.548571"/>
<path d="M60.5923 67.1308L71.3873 73.3633C72.7931 74.175 72.7871 75.4919 71.3738 76.2992L57.3775 84.2946C55.9749 85.0959 53.7146 85.0924 52.3193 84.2869L24.6139 68.2911C23.2081 67.4795 23.2142 66.1625 24.6274 65.3552L32.1628 61.0506" stroke="#141413" stroke-width="0.548571"/>
<circle cx="15.1871" cy="15.1871" r="14.9129" transform="matrix(0.866025 0.5 0 1 29.7812 36.0278)" stroke="#141413" stroke-width="0.548571"/>
<path d="M33.4805 42.9694C36.0487 41.4867 39.5673 41.6779 42.9333 43.6212C50.1972 47.8151 56.0857 58.0144 56.0857 66.402C56.0857 70.2887 54.6282 73.3521 52.0601 74.8348L57.3772 71.6793C59.9454 70.1965 61.1292 66.917 61.1292 63.0303L61.129 63.0292C61.1285 54.6418 55.4577 44.7775 48.1942 40.5839C44.8282 38.6405 41.4623 38.1798 38.8941 39.6626L33.4805 42.9694Z" stroke="#141413" stroke-width="0.548571"/>
<path fill-rule="evenodd" clip-rule="evenodd" d="M50.6041 58.1234L42.9329 48.5803L35.2617 49.2655V59.4937L42.9329 69.0368L50.6041 68.3516V58.1234ZM49.3629 57.6097L43.3185 58.1496V50.0904L49.3629 57.6097ZM42.5458 53.368L36.9616 50.144L42.5458 49.6453V53.368ZM36.0345 58.4266V50.5011L42.0621 53.9811L36.0345 58.4266ZM49.8313 66.9845L43.5416 59.16L49.8313 58.5982V66.9845ZM42.5458 62.9097L36.5125 59.4264L42.5458 54.9767L42.5458 62.9097ZM43.3185 67.972V59.9128L49.3629 67.4321L43.3185 67.972ZM42.5458 67.5248L36.9616 60.578L42.5458 63.802V67.5248Z" fill="#141413"/>
<path d="M61.6916 32.5111L71.3873 38.1089C72.7931 38.9206 72.7871 40.2376 71.3738 41.0449L57.3775 49.0402C55.9749 49.8415 53.7146 49.838 52.3193 49.0325L24.6139 33.0367C23.2081 32.2251 23.2142 30.9081 24.6274 30.1008L33.5781 24.9878L38.6237 22.1055C40.0264 21.3042 42.2867 21.3077 43.6819 22.1132L51.4256 26.584" stroke="#141413" stroke-width="0.548571"/>
<path d="M61.6916 32.5111L71.3873 38.1089C72.7931 38.9206 72.7871 40.2376 71.3738 41.0449L57.3775 49.0402C55.9749 49.8415 53.7146 49.838 52.3193 49.0325L24.6139 33.0367C23.2081 32.2251 23.2142 30.9081 24.6274 30.1008L33.5781 24.9878L38.6237 22.1055C40.0264 21.3042 42.2867 21.3077 43.6819 22.1132L51.4256 26.584" stroke="#141413" stroke-width="0.548571"/>
<path d="M37.3906 23.116V33.1677L40.173 31.5893L42.9553 30.0109V22.07V18.4141" stroke="#141413" stroke-width="0.548571"/>
<path d="M33.6641 20.059C33.6641 14.0079 38.6677 11.9914 44.8399 15.5549C51.0122 19.1185 56.0158 26.9127 56.0158 32.9638V43.9203L52.2905 41.7695V38.1173V30.813C52.2905 26.7789 48.9548 21.5828 44.8399 19.2071C40.7251 16.8314 37.3894 18.1758 37.3894 22.2098V29.5141V33.1663L35.5267 32.0909L33.6641 31.0155V20.059Z" stroke="#141413" stroke-opacity="0.2" stroke-width="0.548571"/>
<path d="M33.6641 20.059C33.6641 14.0079 38.6677 11.9914 44.8399 15.5549C51.0122 19.1185 56.0158 26.9127 56.0158 32.9638V43.9203L52.2905 41.7695V38.1173V30.813C52.2905 26.7789 48.9548 21.5828 44.8399 19.2071C40.7251 16.8314 37.3894 18.1758 37.3894 22.2098V29.5141V33.1663L35.5267 32.0909L33.6641 31.0155V20.059Z" stroke="#141413" stroke-width="0.548571"/>
<path d="M61.5907 29.8284C61.5907 23.7773 56.5871 15.9831 50.4148 12.4195C47.3131 10.6287 44.971 10.3277 42.7232 10.947C41.3823 11.3164 36.9829 13.6121 35.4121 15.186C37.4467 13.1473 40.6134 13.8705 41.5678 14.122C42.8378 14.4566 44.6273 15.4342 44.6273 15.4342C44.6982 15.4738 44.7692 15.5141 44.8403 15.5552C51.0126 19.1188 56.0162 26.913 56.0162 32.9641V43.9206L61.5907 40.7849V29.8284Z" stroke="#141413" stroke-opacity="0.2" stroke-width="0.548571"/>
<path d="M61.5907 29.8284C61.5907 23.7773 56.5871 15.9831 50.4148 12.4195C47.3131 10.6287 44.971 10.3277 42.7232 10.947C41.3823 11.3164 36.9829 13.6121 35.4121 15.186C37.4467 13.1473 40.6134 13.8705 41.5678 14.122C42.8378 14.4566 44.6273 15.4342 44.6273 15.4342C44.6982 15.4738 44.7692 15.5141 44.8403 15.5552C51.0126 19.1188 56.0162 26.913 56.0162 32.9641V43.9206L61.5907 40.7849V29.8284Z" stroke="#141413" stroke-width="0.548571"/>
<path d="M23.7266 31.6924L23.7266 66.933" stroke="#141413" stroke-width="0.548571"/>
<path d="M23.7266 31.6924L23.7266 66.933" stroke="#141413" stroke-width="0.548571"/>
<path d="M72.2812 39.6001L72.2743 74.9355" stroke="#141413" stroke-width="0.548571"/>
<path d="M72.2812 39.6001L72.2743 74.9355" stroke="#141413" stroke-width="0.548571"/>
<path d="M14.9868 24.4853C15.0633 24.2907 15.3558 24.4596 15.4323 24.7425L15.9594 26.6915C15.9834 26.7805 16.0347 26.8693 16.0997 26.9346L17.5241 28.3656C17.7309 28.5733 17.7309 28.9111 17.5241 28.88L16.0997 28.6663C16.0347 28.6565 15.9834 28.6861 15.9594 28.7473L15.4323 30.0877C15.3558 30.2823 15.0633 30.1135 14.9868 29.8305L14.4597 27.8815C14.4356 27.7925 14.3844 27.7037 14.3194 27.6384L12.895 26.2075C12.6882 25.9997 12.6882 25.6619 12.895 25.693L14.3194 25.9067C14.3844 25.9165 14.4356 25.8869 14.4597 25.8257L14.9868 24.4853Z" fill="#141413"/>
<path d="M76.0631 23.4094C76.1396 23.2148 76.4321 23.3836 76.5086 23.6666L76.8658 24.9876C76.8899 25.0766 76.9412 25.1654 77.0062 25.2307L77.9716 26.2006C78.1784 26.4083 78.1784 26.7461 77.9716 26.715L77.0062 26.5702C76.9412 26.5604 76.8899 26.59 76.8658 26.6512L76.5086 27.5597C76.4321 27.7543 76.1396 27.5854 76.0631 27.3024L75.7058 25.9815C75.6818 25.8925 75.6305 25.8037 75.5655 25.7384L74.6001 24.7685C74.3933 24.5607 74.3933 24.223 74.6001 24.254L75.5655 24.3989C75.6305 24.4087 75.6818 24.3791 75.7058 24.3179L76.0631 23.4094Z" fill="#141413"/>
</svg>
