<svg width="72" height="72" viewBox="0 0 72 72" fill="none" xmlns="http://www.w3.org/2000/svg">
<rect width="72" height="72" fill="#F5F5F5"/>
<g filter="url(#filter0_iiiiii_16829_11183)">
<path fill-rule="evenodd" clip-rule="evenodd" d="M27 51.4656C27 46.2379 31.0294 42 36 42C40.9706 42 45 46.2379 45 51.4656V64H41.5117V51.4656C41.5117 48.2641 39.044 45.6688 36 45.6688C32.956 45.6688 30.4883 48.2641 30.4883 51.4656V64H27V51.4656Z" fill="#65605C"/>
</g>
<path d="M2 64H70" stroke="#141413" stroke-width="2" stroke-linecap="round"/>
<path d="M48.4517 30.1213C48.4979 27.7062 42.5201 24 42.2557 24C41.9912 24 35.9502 27.7062 35.9964 30.1213" stroke="#141413" stroke-width="2" stroke-linecap="round"/>
<path d="M35.9947 30.1213C36.0409 27.7062 30.0631 24 29.7987 24C29.5342 24 23.4932 27.7062 23.5393 30.1213" stroke="#141413" stroke-width="2" stroke-linecap="round"/>
<path d="M23.5398 30.1213C23.586 27.7062 17.6082 24 17.3438 24" stroke="#141413" stroke-width="2" stroke-linecap="round"/>
<path d="M48.4534 30.1213C48.4072 27.7062 54.4483 24 54.7127 24" stroke="#141413" stroke-width="2" stroke-linecap="round"/>
<path d="M5.00017 64V11.8044C4.97469 9.87453 7.85998 11.7748 9.49972 13.7497C10.7218 15.2216 10.7671 15.7349 11 15.7349C11.2416 15.7349 11.3636 15.1074 12.6364 13.5864C14.2377 11.6728 17.0246 9.92779 16.9998 11.8044V64" stroke="#141413" stroke-width="1.8"/>
<path d="M55.0002 64V11.8044C54.9747 9.87453 57.86 11.7748 59.4997 13.7497C60.7218 15.2216 60.7671 15.7349 61 15.7349C61.2416 15.7349 61.3636 15.1074 62.6364 13.5864C64.2377 11.6728 67.0246 9.92779 66.9998 11.8044V64" stroke="#141413" stroke-width="1.8"/>
<path d="M9 22C9 20.8954 9.89543 20 11 20V20C12.1046 20 13 20.8954 13 22V26H9V22Z" stroke="#141413"/>
<path d="M59 22C59 20.8954 59.8954 20 61 20V20C62.1046 20 63 20.8954 63 22V26H59V22Z" stroke="#141413"/>
<defs>
<filter id="filter0_iiiiii_16829_11183" x="26.4" y="41.4" width="19" height="23.2" filterUnits="userSpaceOnUse" color-interpolation-filters="sRGB">
<feFlood flood-opacity="0" result="BackgroundImageFix"/>
<feBlend mode="normal" in="SourceGraphic" in2="BackgroundImageFix" result="shape"/>
<feColorMatrix in="SourceAlpha" type="matrix" values="0 0 0 0 0 0 0 0 0 0 0 0 0 0 0 0 0 0 127 0" result="hardAlpha"/>
<feOffset dx="-1" dy="1.9"/>
<feGaussianBlur stdDeviation="0.3"/>
<feComposite in2="hardAlpha" operator="arithmetic" k2="-1" k3="1"/>
<feColorMatrix type="matrix" values="0 0 0 0 0.854902 0 0 0 0 0.843137 0 0 0 0 0.835294 0 0 0 1 0"/>
<feBlend mode="normal" in2="shape" result="effect1_innerShadow_16829_11183"/>
<feColorMatrix in="SourceAlpha" type="matrix" values="0 0 0 0 0 0 0 0 0 0 0 0 0 0 0 0 0 0 127 0" result="hardAlpha"/>
<feOffset dx="1" dy="1.5"/>
<feGaussianBlur stdDeviation="0.2"/>
<feComposite in2="hardAlpha" operator="arithmetic" k2="-1" k3="1"/>
<feColorMatrix type="matrix" values="0 0 0 0 0.103545 0 0 0 0 0.100032 0 0 0 0 0.0971579 0 0 0 1 0"/>
<feBlend mode="normal" in2="effect1_innerShadow_16829_11183" result="effect2_innerShadow_16829_11183"/>
<feColorMatrix in="SourceAlpha" type="matrix" values="0 0 0 0 0 0 0 0 0 0 0 0 0 0 0 0 0 0 127 0" result="hardAlpha"/>
<feOffset dx="0.8" dy="0.8"/>
<feGaussianBlur stdDeviation="0.15"/>
<feComposite in2="hardAlpha" operator="arithmetic" k2="-1" k3="1"/>
<feColorMatrix type="matrix" values="0 0 0 0 0.884618 0 0 0 0 0.876806 0 0 0 0 0.868994 0 0 0 1 0"/>
<feBlend mode="normal" in2="effect2_innerShadow_16829_11183" result="effect3_innerShadow_16829_11183"/>
<feColorMatrix in="SourceAlpha" type="matrix" values="0 0 0 0 0 0 0 0 0 0 0 0 0 0 0 0 0 0 127 0" result="hardAlpha"/>
<feOffset dx="-1" dy="-1"/>
<feGaussianBlur stdDeviation="0.3"/>
<feComposite in2="hardAlpha" operator="arithmetic" k2="-1" k3="1"/>
<feColorMatrix type="matrix" values="0 0 0 0 0.713726 0 0 0 0 0.694118 0 0 0 0 0.682353 0 0 0 1 0"/>
<feBlend mode="normal" in2="effect3_innerShadow_16829_11183" result="effect4_innerShadow_16829_11183"/>
<feColorMatrix in="SourceAlpha" type="matrix" values="0 0 0 0 0 0 0 0 0 0 0 0 0 0 0 0 0 0 127 0" result="hardAlpha"/>
<feOffset dx="-0.1" dy="-0.3"/>
<feGaussianBlur stdDeviation="0.05"/>
<feComposite in2="hardAlpha" operator="arithmetic" k2="-1" k3="1"/>
<feColorMatrix type="matrix" values="0 0 0 0 0 0 0 0 0 0 0 0 0 0 0 0 0 0 0.5 0"/>
<feBlend mode="normal" in2="effect4_innerShadow_16829_11183" result="effect5_innerShadow_16829_11183"/>
<feColorMatrix in="SourceAlpha" type="matrix" values="0 0 0 0 0 0 0 0 0 0 0 0 0 0 0 0 0 0 127 0" result="hardAlpha"/>
<feOffset dx="0.1" dy="0.2"/>
<feComposite in2="hardAlpha" operator="arithmetic" k2="-1" k3="1"/>
<feColorMatrix type="matrix" values="0 0 0 0 0 0 0 0 0 0 0 0 0 0 0 0 0 0 0.25 0"/>
<feBlend mode="normal" in2="effect5_innerShadow_16829_11183" result="effect6_innerShadow_16829_11183"/>
</filter>
</defs>
</svg>
