<svg width="299" height="44" viewBox="0 0 299 44" fill="none" xmlns="http://www.w3.org/2000/svg">
<g clip-path="url(#clip0_27388_1588)">
<path d="M16.9959 0.0858897C9.85118 0.772779 3.73241 5.207 1.50474 11.3132C-0.214867 16.0212 0.52769 21.2743 3.49792 25.403C6.32403 29.319 10.6719 31.8954 15.8625 32.7241C17.4551 32.9734 20.0736 33.0028 21.6979 32.7706C23.7595 32.4772 26.1435 31.7537 27.8533 30.8957L28.4786 30.5779L29.7121 31.1474C32.3445 32.3388 35.201 32.9534 38.09 32.9501C40.9791 32.9467 43.8341 32.3254 46.4637 31.1279C51.4466 28.8448 54.986 24.611 56.0998 19.5901C56.2952 18.7052 56.3245 18.3239 56.3245 16.4857C56.3245 14.6499 56.2952 14.2661 56.0998 13.3812C54.9664 8.26256 51.388 4.02878 46.256 1.72611C41.0386 -0.620555 34.6658 -0.547221 29.5241 1.89722L28.5177 2.37878L27.3062 1.82389C24.0768 0.364104 20.5247 -0.236271 16.9959 0.0858897ZM20.2006 5.075C21.268 5.18011 22.7727 5.49056 23.4371 5.75945L23.8474 5.92078L18.0022 11.1714C14.778 14.051 12.1472 16.4417 12.1472 16.4759C12.1472 16.5028 14.778 18.8959 17.9924 21.7926L23.8474 27.0457L23.4175 27.2143C22.7238 27.4832 21.1117 27.801 19.9978 27.8914C17.63 28.0883 15.2518 27.6645 13.0974 26.6619C9.58005 25.0388 7.24246 22.2374 6.37289 18.5806C6.16771 17.6908 6.1384 15.5666 6.32403 14.6132C7.20338 10.0739 10.8575 6.51478 15.8014 5.37322C17.2404 5.02587 18.7276 4.9234 20.2006 5.07011M40.1495 5.16789C42.4358 5.49789 44.832 6.53189 46.5321 7.913C49.3264 10.179 50.8018 13.1294 50.8018 16.4832C50.8018 18.7834 50.1374 20.827 48.75 22.7703C48.1149 23.6528 46.3171 25.3028 45.3303 25.909C43.783 26.8373 42.0754 27.4667 40.296 27.7643C38.6893 27.9848 37.0582 27.9576 35.4596 27.6837C34.2872 27.4612 33.1807 27.1312 33.2295 27.0139C33.2491 26.9699 35.8676 24.6086 39.0552 21.7437C42.2306 18.891 44.8418 16.5272 44.8418 16.493C44.8418 16.4588 43.6693 15.3686 42.2306 14.0754C40.2768 12.3163 38.326 10.5538 36.3781 8.78811L33.1416 5.87189L34.0307 5.61278C35.01 5.33571 36.011 5.14191 37.0229 5.03345C37.6482 4.97967 39.4069 5.05056 40.1495 5.16789ZM32.7728 12.6943L36.9741 16.4832L32.7728 20.2648C30.4645 22.3523 28.5397 24.0537 28.5104 24.0634C28.4786 24.0634 26.5563 22.3523 24.2382 20.2477L20.0149 16.4417L24.2382 12.6699C26.5538 10.5994 28.4713 8.90545 28.5104 8.90545C28.5372 8.90545 30.4669 10.6166 32.7728 12.6943ZM85.2598 33.6017C75.3843 33.6017 69.6906 26.9919 69.6906 17.351C69.6906 7.71011 75.3819 1.10278 85.2598 1.10278C92.8515 1.10278 97.9493 5.02367 99.8936 11.1763L95.0474 12.4108C93.7431 8.05722 90.4748 5.41233 85.2598 5.41233C78.2642 5.41233 74.7663 10.2034 74.7444 17.351C74.6955 24.501 78.2642 29.2897 85.2598 29.2897C90.4748 29.2897 93.7431 26.6472 95.0474 22.2912L99.8936 23.5257C97.9493 29.6783 92.8491 33.6017 85.2598 33.6017ZM120.881 21.4454C120.881 17.8057 119.899 13.2126 114.64 13.2126C111.21 13.2126 108.374 15.2292 108.374 20.7757V32.949H103.528V1.75545H107.803V12.3448C109.61 10.1986 112.375 8.92256 115.966 8.92256C124.471 8.92256 125.729 16.3292 125.729 19.947V32.949H120.881V21.4454ZM137.285 33.6017C131.821 33.6017 128.941 30.3946 128.941 26.5812C128.941 23.049 130.952 20.7952 134.769 19.6488C137.627 18.847 141.699 18.3483 145.7 17.8277C145.539 14.601 143.985 13.0854 140.121 13.0854C137.515 13.0854 135.138 14.1659 134.291 16.7668L129.833 15.4663C131.02 11.4574 134.449 8.90056 140.165 8.90056C144.579 8.90056 148.008 10.289 149.54 13.3641C150.319 14.9041 150.409 16.5932 150.409 18.5439V32.9514H146.179V29.5488C144.144 32.3012 141.286 33.6017 137.288 33.6017M133.675 26.5372C133.675 28.3583 135.07 29.8959 138.133 29.8959C142.205 29.8959 144.606 27.5346 145.153 25.2588C145.544 24.1759 145.634 22.6823 145.656 21.597C141.929 22.1177 139.164 22.4868 137.083 23.071C135.116 23.6992 133.675 24.6966 133.675 26.5372ZM155.432 5.71789V1.31789H160.212V5.71789H155.432ZM155.432 32.949V9.55322H160.212V32.9539L155.432 32.949ZM183.036 21.4454C183.036 17.8057 182.054 13.2126 176.795 13.2126C173.365 13.2126 170.529 15.2292 170.529 20.7757V32.949H165.683V9.55322H169.958V12.3497C171.765 10.2034 174.53 8.92745 178.121 8.92745C186.626 8.92745 187.882 16.3341 187.882 19.9519V32.9539H183.036V21.4454ZM204.401 33.6017C197.291 33.6017 192.01 29.9399 190.935 24.0023L195.918 23.2886C196.924 27.1239 200.4 29.3337 204.675 29.3337C208.632 29.3337 212.037 27.4686 212.037 24.3494C212.037 22.0957 210.325 20.9492 207.899 20.255L199.462 17.8937C196.17 16.9843 192.215 15.1192 192.215 10.0714C192.215 4.28789 197.381 1.10033 204.013 1.12478C210.689 1.18833 215.444 4.525 216.795 10.267L211.673 11.0908C210.965 7.55856 207.716 5.45633 203.944 5.41233C200.263 5.34878 197.269 7.18945 197.269 9.85389C197.269 12.4548 200.058 13.3861 202.389 13.9923L208.471 15.6179C211.512 16.4197 217.022 17.9572 217.022 24.0463C217.022 30.3286 211.192 33.6017 204.401 33.6017ZM220.979 5.71789V1.31789H225.76V5.71789H220.979ZM220.979 32.949V9.55322H225.76V32.9539L220.979 32.949ZM241.429 44.0003C237.447 44.0003 233.654 42.2232 231.641 38.8866L236.055 36.7648C237.13 38.757 239.279 39.6468 241.473 39.6468C245.542 39.6468 247.921 37.5666 247.853 33.5357V31.3259C246.114 32.7779 243.852 33.5992 241.063 33.5992C234.179 33.5992 229.88 28.2508 229.88 21.2303C229.88 14.1659 234.204 8.90056 241.153 8.90056C244.216 8.90056 246.663 9.91989 248.425 11.653V9.55078H252.653V33.5797C252.653 34.8361 252.584 35.941 252.333 37.0459C251.304 41.7906 247.191 44.0003 241.429 44.0003ZM234.954 21.2303C234.954 25.865 237.127 29.5048 241.722 29.5048C246.431 29.5048 248.422 26.0826 248.422 21.2303C248.422 16.3757 246.387 12.9974 241.883 12.9974C237.127 12.9974 234.954 16.6372 234.954 21.2303ZM275.032 21.4454C275.032 17.8057 274.05 13.2126 268.791 13.2126C265.362 13.2126 262.526 15.2292 262.526 20.7757V32.949H257.68V1.75545H261.954V12.3448C263.762 10.1986 266.527 8.92256 270.118 8.92256C278.623 8.92256 279.881 16.3292 279.881 19.947V32.949H275.032V21.4454ZM298.594 32.9514C293.953 33.8168 289.175 33.3621 287.367 30.1134C286.293 28.1823 286.454 26.3001 286.454 23.7432V13.1906H281.72V9.55078H286.454V3.051H291.254V9.55322H298.594V13.1906H291.254V23.5257C291.254 25.4103 291.163 26.7768 291.757 27.7301C292.856 29.5048 295.369 29.5708 298.594 29.1161V32.9514Z" fill="black"/>
</g>
<defs>
<clipPath id="clip0_27388_1588">
<rect width="298" height="44" fill="white" transform="translate(0.59375)"/>
</clipPath>
</defs>
</svg>
