<svg width="148" height="148" viewBox="0 0 148 148" fill="none" xmlns="http://www.w3.org/2000/svg">
<path d="M74 95.9C49.8099 95.9 30.2 76.2901 30.2 52.1V11.5444C30.2 8.52336 30.2 7.01281 30.6402 5.80325C31.3783 3.77556 32.9756 2.17826 35.0033 1.44024C36.2128 1 37.7234 1 40.7444 1H107.256C110.277 1 111.787 1 112.997 1.44024C115.024 2.17826 116.622 3.77556 117.36 5.80325C117.8 7.01281 117.8 8.52336 117.8 11.5444V52.1C117.8 76.2901 98.1901 95.9 74 95.9ZM74 95.9V117.8M117.8 15.6H136.05C139.451 15.6 141.152 15.6 142.494 16.1557C144.282 16.8966 145.703 18.3177 146.444 20.1064C147 21.4479 147 23.1486 147 26.55V30.2C147 36.9888 147 40.3832 146.254 43.1681C144.229 50.7257 138.326 56.6287 130.768 58.6538C127.983 59.4 124.589 59.4 117.8 59.4M30.2 15.6H11.95C8.54863 15.6 6.84794 15.6 5.50641 16.1557C3.71771 16.8966 2.29659 18.3177 1.55568 20.1064C1 21.4479 1 23.1486 1 26.55V30.2C1 36.9888 1 40.3832 1.74622 43.1681C3.77125 50.7257 9.67435 56.6287 17.2319 58.6538C20.0168 59.4 23.4112 59.4 30.2 59.4M30.7444 147H117.256C119.047 147 120.5 145.547 120.5 143.756C120.5 129.421 108.879 117.8 94.5444 117.8H53.4556C39.1207 117.8 27.5 129.421 27.5 143.756C27.5 145.547 28.9526 147 30.7444 147Z" stroke="#141413" stroke-width="2" stroke-linecap="round" stroke-linejoin="round"/>
<g filter="url(#filter0_iiiiii_16829_11109)">
<path fill-rule="evenodd" clip-rule="evenodd" d="M79.8 27C79.8 25.8954 80.6954 25 81.8 25H100C101.105 25 102 25.8954 102 27V45.2C102 46.3046 101.105 47.2 100 47.2C98.8954 47.2 98 46.3046 98 45.2V31.8284L80.9067 48.9218C80.4341 49.3944 79.9981 49.8305 79.6034 50.1656C79.1771 50.5274 78.6694 50.8874 78.0215 51.0979C77.0976 51.3981 76.1024 51.3981 75.1785 51.0979C74.5306 50.8874 74.0229 50.5274 73.5966 50.1656C73.2019 49.8305 72.7659 49.3944 72.2933 48.9217L65.1273 41.7558C64.5892 41.2176 64.2695 40.9002 64.0147 40.6838C63.8696 40.5606 63.7959 40.5152 63.773 40.5024C63.6602 40.4685 63.5398 40.4685 63.427 40.5024C63.4041 40.5152 63.3304 40.5606 63.1853 40.6838C62.9305 40.9002 62.6108 41.2176 62.0726 41.7558L49.4142 54.4142C48.6332 55.1953 47.3668 55.1953 46.5858 54.4142C45.8047 53.6332 45.8047 52.3668 46.5858 51.5858L59.2933 38.8783C59.7658 38.4056 60.2019 37.9695 60.5966 37.6344C61.0229 37.2726 61.5306 36.9126 62.1785 36.7021C63.1024 36.4019 64.0976 36.4019 65.0215 36.7021C65.6694 36.9126 66.1771 37.2726 66.6034 37.6344C66.9981 37.9695 67.4341 38.4056 67.9067 38.8783L75.0726 46.0442C75.6108 46.5824 75.9305 46.8998 76.1853 47.1162C76.3304 47.2394 76.4041 47.2848 76.427 47.2976C76.5398 47.3315 76.6602 47.3315 76.773 47.2976C76.7959 47.2848 76.8696 47.2394 77.0147 47.1162C77.2695 46.8998 77.5892 46.5824 78.1273 46.0442L95.1716 29H81.8C80.6954 29 79.8 28.1046 79.8 27Z" fill="#65605C"/>
</g>
<defs>
<filter id="filter0_iiiiii_16829_11109" x="45.4" y="24.4" width="57" height="31.2" filterUnits="userSpaceOnUse" color-interpolation-filters="sRGB">
<feFlood flood-opacity="0" result="BackgroundImageFix"/>
<feBlend mode="normal" in="SourceGraphic" in2="BackgroundImageFix" result="shape"/>
<feColorMatrix in="SourceAlpha" type="matrix" values="0 0 0 0 0 0 0 0 0 0 0 0 0 0 0 0 0 0 127 0" result="hardAlpha"/>
<feOffset dx="-1" dy="1.9"/>
<feGaussianBlur stdDeviation="0.3"/>
<feComposite in2="hardAlpha" operator="arithmetic" k2="-1" k3="1"/>
<feColorMatrix type="matrix" values="0 0 0 0 0.854902 0 0 0 0 0.843137 0 0 0 0 0.835294 0 0 0 1 0"/>
<feBlend mode="normal" in2="shape" result="effect1_innerShadow_16829_11109"/>
<feColorMatrix in="SourceAlpha" type="matrix" values="0 0 0 0 0 0 0 0 0 0 0 0 0 0 0 0 0 0 127 0" result="hardAlpha"/>
<feOffset dx="1" dy="1.5"/>
<feGaussianBlur stdDeviation="0.2"/>
<feComposite in2="hardAlpha" operator="arithmetic" k2="-1" k3="1"/>
<feColorMatrix type="matrix" values="0 0 0 0 0.15079 0 0 0 0 0.142402 0 0 0 0 0.135539 0 0 0 1 0"/>
<feBlend mode="normal" in2="effect1_innerShadow_16829_11109" result="effect2_innerShadow_16829_11109"/>
<feColorMatrix in="SourceAlpha" type="matrix" values="0 0 0 0 0 0 0 0 0 0 0 0 0 0 0 0 0 0 127 0" result="hardAlpha"/>
<feOffset dx="0.8" dy="0.8"/>
<feGaussianBlur stdDeviation="0.15"/>
<feComposite in2="hardAlpha" operator="arithmetic" k2="-1" k3="1"/>
<feColorMatrix type="matrix" values="0 0 0 0 0.884618 0 0 0 0 0.876806 0 0 0 0 0.868994 0 0 0 1 0"/>
<feBlend mode="normal" in2="effect2_innerShadow_16829_11109" result="effect3_innerShadow_16829_11109"/>
<feColorMatrix in="SourceAlpha" type="matrix" values="0 0 0 0 0 0 0 0 0 0 0 0 0 0 0 0 0 0 127 0" result="hardAlpha"/>
<feOffset dx="-1" dy="-1"/>
<feGaussianBlur stdDeviation="0.3"/>
<feComposite in2="hardAlpha" operator="arithmetic" k2="-1" k3="1"/>
<feColorMatrix type="matrix" values="0 0 0 0 0.713726 0 0 0 0 0.694118 0 0 0 0 0.682353 0 0 0 1 0"/>
<feBlend mode="normal" in2="effect3_innerShadow_16829_11109" result="effect4_innerShadow_16829_11109"/>
<feColorMatrix in="SourceAlpha" type="matrix" values="0 0 0 0 0 0 0 0 0 0 0 0 0 0 0 0 0 0 127 0" result="hardAlpha"/>
<feOffset dx="-0.1" dy="-0.3"/>
<feGaussianBlur stdDeviation="0.05"/>
<feComposite in2="hardAlpha" operator="arithmetic" k2="-1" k3="1"/>
<feColorMatrix type="matrix" values="0 0 0 0 0 0 0 0 0 0 0 0 0 0 0 0 0 0 0.5 0"/>
<feBlend mode="normal" in2="effect4_innerShadow_16829_11109" result="effect5_innerShadow_16829_11109"/>
<feColorMatrix in="SourceAlpha" type="matrix" values="0 0 0 0 0 0 0 0 0 0 0 0 0 0 0 0 0 0 127 0" result="hardAlpha"/>
<feOffset dx="0.1" dy="0.2"/>
<feComposite in2="hardAlpha" operator="arithmetic" k2="-1" k3="1"/>
<feColorMatrix type="matrix" values="0 0 0 0 0 0 0 0 0 0 0 0 0 0 0 0 0 0 0.25 0"/>
<feBlend mode="normal" in2="effect5_innerShadow_16829_11109" result="effect6_innerShadow_16829_11109"/>
</filter>
</defs>
</svg>
