<svg width="148" height="148" viewBox="0 0 148 148" fill="none" xmlns="http://www.w3.org/2000/svg">
<path d="M74 95.901C49.8099 95.901 30.2 76.291 30.2 52.101V11.5454C30.2 8.52433 30.2 7.01379 30.6402 5.80423C31.3783 3.77654 32.9756 2.17924 35.0033 1.44122C36.2128 1.00098 37.7234 1.00098 40.7444 1.00098H107.256C110.277 1.00098 111.787 1.00098 112.997 1.44122C115.024 2.17924 116.622 3.77654 117.36 5.80423C117.8 7.01379 117.8 8.52433 117.8 11.5454V52.101C117.8 76.2911 98.1901 95.901 74 95.901ZM74 95.901V117.801M117.8 15.601H136.05C139.451 15.601 141.152 15.601 142.494 16.1567C144.282 16.8976 145.703 18.3187 146.444 20.1074C147 21.4489 147 23.1496 147 26.551V30.201C147 36.9898 147 40.3842 146.254 43.1691C144.229 50.7266 138.326 56.6297 130.768 58.6548C127.983 59.401 124.589 59.401 117.8 59.401M30.2 15.601H11.95C8.54863 15.601 6.84794 15.601 5.50641 16.1567C3.71771 16.8976 2.29659 18.3187 1.55568 20.1074C1 21.4489 1 23.1496 1 26.551V30.201C1 36.9898 1 40.3842 1.74622 43.1691C3.77125 50.7266 9.67435 56.6297 17.2319 58.6548C20.0168 59.401 23.4112 59.401 30.2 59.401M30.7444 147.001H117.256C119.047 147.001 120.5 145.548 120.5 143.757C120.5 129.422 108.879 117.801 94.5444 117.801H53.4556C39.1207 117.801 27.5 129.422 27.5 143.757C27.5 145.548 28.9526 147.001 30.7444 147.001Z" stroke="#141413" stroke-width="2" stroke-linecap="round" stroke-linejoin="round"/>
<g filter="url(#filter0_iiiiii_16829_11121)">
<path fill-rule="evenodd" clip-rule="evenodd" d="M72.8889 25.001C63.5614 25.001 56 32.5624 56 41.8899C56 51.2173 63.5614 58.7788 72.8889 58.7788C77.4298 58.7788 81.5521 56.9867 84.5872 54.0712C84.6472 53.9863 84.7146 53.9049 84.7895 53.828C84.8773 53.7378 84.9715 53.6577 85.0707 53.5877C87.9859 50.5526 89.7778 46.4305 89.7778 41.8899C89.7778 32.5624 82.2164 25.001 72.8889 25.001ZM89.023 55.1586C91.9938 51.5505 93.7778 46.9285 93.7778 41.8899C93.7778 30.3532 84.4255 21.001 72.8889 21.001C61.3523 21.001 52 30.3532 52 41.8899C52 53.4265 61.3523 62.7788 72.8889 62.7788C77.9463 62.7788 82.5839 60.9815 86.1979 57.9908L93.7319 65.3264C94.5233 66.097 95.7895 66.0801 96.5601 65.2887C97.3307 64.4973 97.3138 63.2311 96.5224 62.4605L89.023 55.1586Z" fill="#65605C"/>
</g>
<defs>
<filter id="filter0_iiiiii_16829_11121" x="51.4" y="20.401" width="46.1289" height="46.0925" filterUnits="userSpaceOnUse" color-interpolation-filters="sRGB">
<feFlood flood-opacity="0" result="BackgroundImageFix"/>
<feBlend mode="normal" in="SourceGraphic" in2="BackgroundImageFix" result="shape"/>
<feColorMatrix in="SourceAlpha" type="matrix" values="0 0 0 0 0 0 0 0 0 0 0 0 0 0 0 0 0 0 127 0" result="hardAlpha"/>
<feOffset dx="-1" dy="1.9"/>
<feGaussianBlur stdDeviation="0.3"/>
<feComposite in2="hardAlpha" operator="arithmetic" k2="-1" k3="1"/>
<feColorMatrix type="matrix" values="0 0 0 0 0.854902 0 0 0 0 0.843137 0 0 0 0 0.835294 0 0 0 1 0"/>
<feBlend mode="normal" in2="shape" result="effect1_innerShadow_16829_11121"/>
<feColorMatrix in="SourceAlpha" type="matrix" values="0 0 0 0 0 0 0 0 0 0 0 0 0 0 0 0 0 0 127 0" result="hardAlpha"/>
<feOffset dx="1" dy="1.5"/>
<feGaussianBlur stdDeviation="0.2"/>
<feComposite in2="hardAlpha" operator="arithmetic" k2="-1" k3="1"/>
<feColorMatrix type="matrix" values="0 0 0 0 0.15079 0 0 0 0 0.142402 0 0 0 0 0.135539 0 0 0 1 0"/>
<feBlend mode="normal" in2="effect1_innerShadow_16829_11121" result="effect2_innerShadow_16829_11121"/>
<feColorMatrix in="SourceAlpha" type="matrix" values="0 0 0 0 0 0 0 0 0 0 0 0 0 0 0 0 0 0 127 0" result="hardAlpha"/>
<feOffset dx="0.8" dy="0.8"/>
<feGaussianBlur stdDeviation="0.15"/>
<feComposite in2="hardAlpha" operator="arithmetic" k2="-1" k3="1"/>
<feColorMatrix type="matrix" values="0 0 0 0 0.884618 0 0 0 0 0.876806 0 0 0 0 0.868994 0 0 0 1 0"/>
<feBlend mode="normal" in2="effect2_innerShadow_16829_11121" result="effect3_innerShadow_16829_11121"/>
<feColorMatrix in="SourceAlpha" type="matrix" values="0 0 0 0 0 0 0 0 0 0 0 0 0 0 0 0 0 0 127 0" result="hardAlpha"/>
<feOffset dx="-1" dy="-1"/>
<feGaussianBlur stdDeviation="0.3"/>
<feComposite in2="hardAlpha" operator="arithmetic" k2="-1" k3="1"/>
<feColorMatrix type="matrix" values="0 0 0 0 0.713726 0 0 0 0 0.694118 0 0 0 0 0.682353 0 0 0 1 0"/>
<feBlend mode="normal" in2="effect3_innerShadow_16829_11121" result="effect4_innerShadow_16829_11121"/>
<feColorMatrix in="SourceAlpha" type="matrix" values="0 0 0 0 0 0 0 0 0 0 0 0 0 0 0 0 0 0 127 0" result="hardAlpha"/>
<feOffset dx="-0.1" dy="-0.3"/>
<feGaussianBlur stdDeviation="0.05"/>
<feComposite in2="hardAlpha" operator="arithmetic" k2="-1" k3="1"/>
<feColorMatrix type="matrix" values="0 0 0 0 0 0 0 0 0 0 0 0 0 0 0 0 0 0 0.5 0"/>
<feBlend mode="normal" in2="effect4_innerShadow_16829_11121" result="effect5_innerShadow_16829_11121"/>
<feColorMatrix in="SourceAlpha" type="matrix" values="0 0 0 0 0 0 0 0 0 0 0 0 0 0 0 0 0 0 127 0" result="hardAlpha"/>
<feOffset dx="0.1" dy="0.2"/>
<feComposite in2="hardAlpha" operator="arithmetic" k2="-1" k3="1"/>
<feColorMatrix type="matrix" values="0 0 0 0 0 0 0 0 0 0 0 0 0 0 0 0 0 0 0.25 0"/>
<feBlend mode="normal" in2="effect5_innerShadow_16829_11121" result="effect6_innerShadow_16829_11121"/>
</filter>
</defs>
</svg>
