<svg width="48" height="48" viewBox="0 0 48 48" fill="none" xmlns="http://www.w3.org/2000/svg">
<g clip-path="url(#clip0_21785_2044)">
<path fill-rule="evenodd" clip-rule="evenodd" d="M32.4319 17.6876C33.0177 17.1018 33.0177 16.1521 32.4319 15.5663C31.8461 14.9805 30.8964 14.9805 30.3106 15.5663L24.0001 21.8767L17.6896 15.5663C17.1038 14.9805 16.154 14.9805 15.5682 15.5663C14.9825 16.1521 14.9825 17.1018 15.5683 17.6876L21.8787 23.998L15.5683 30.3084C14.9825 30.8942 14.9825 31.8439 15.5682 32.4297C16.154 33.0155 17.1038 33.0155 17.6896 32.4297L24.0001 26.1193L30.3106 32.4297C30.8964 33.0155 31.8461 33.0155 32.4319 32.4297C33.0177 31.8439 33.0177 30.8942 32.4319 30.3084L26.1214 23.998L32.4319 17.6876Z" fill="#CC2411"/>
<circle cx="24" cy="24" r="22.5" stroke="#CC2411" stroke-width="3"/>
</g>
<defs>
<clipPath id="clip0_21785_2044">
<rect width="48" height="48" fill="white"/>
</clipPath>
</defs>
</svg>
