<svg width="48" height="48" viewBox="0 0 48 48" fill="none" xmlns="http://www.w3.org/2000/svg">
<g clip-path="url(#clip0_21785_2050)">
<path d="M24.0016 12C23.3651 12 22.7546 12.2529 22.3045 12.7029C21.8545 13.153 21.6016 13.7635 21.6016 14.4V24C21.6016 24.6365 21.8545 25.247 22.3045 25.6971C22.7546 26.1471 23.3651 26.4 24.0016 26.4C24.6381 26.4 25.2486 26.1471 25.6987 25.6971C26.1487 25.247 26.4016 24.6365 26.4016 24V14.4C26.4016 13.7635 26.1487 13.153 25.6987 12.7029C25.2486 12.2529 24.6381 12 24.0016 12ZM26.2096 32.688C26.1571 32.5351 26.0844 32.3898 25.9936 32.256L25.7056 31.896C25.3681 31.563 24.9395 31.3374 24.474 31.2477C24.0084 31.158 23.5267 31.2082 23.0896 31.392C22.7988 31.5135 22.5309 31.684 22.2976 31.896C22.0752 32.1203 21.8992 32.3862 21.7798 32.6786C21.6603 32.971 21.5998 33.2841 21.6016 33.6C21.6054 33.9136 21.6706 34.2235 21.7936 34.512C21.9014 34.8098 22.0734 35.0803 22.2973 35.3043C22.5213 35.5282 22.7918 35.7002 23.0896 35.808C23.3769 35.935 23.6875 36.0006 24.0016 36.0006C24.3157 36.0006 24.6263 35.935 24.9136 35.808C25.2114 35.7002 25.4819 35.5282 25.7059 35.3043C25.9298 35.0803 26.1018 34.8098 26.2096 34.512C26.3326 34.2235 26.3978 33.9136 26.4016 33.6C26.4134 33.4402 26.4134 33.2798 26.4016 33.12C26.3603 32.967 26.2955 32.8212 26.2096 32.688Z" fill="#E69111"/>
<circle cx="24" cy="24" r="22.5" stroke="#E69111" stroke-width="3"/>
</g>
<defs>
<clipPath id="clip0_21785_2050">
<rect width="48" height="48" fill="white"/>
</clipPath>
</defs>
</svg>
