<svg width="120" height="120" viewBox="0 0 120 120" fill="none" xmlns="http://www.w3.org/2000/svg">
<path fill-rule="evenodd" clip-rule="evenodd" d="M93.6907 23.1659V15.5459H62.1997V47.2859H69.7567V37.7339H86.1277V47.2529H93.6877V23.1329V23.1629L93.6907 23.1659ZM86.1307 30.1469H69.7597V23.1659H86.1307V30.1469ZM57.1627 70.4729V84.7559H26.3047V77.1359H49.6057V72.6959H26.3047V53.0189H57.1627V60.6359H33.8617V65.0759H57.1627V70.4759V70.4729ZM93.6907 60.6149V52.9979H62.1997V84.7379H69.7567V75.1799H86.1277V84.7019H93.6877V60.5819V60.6119L93.6907 60.6149ZM86.1307 67.5989H69.7597V60.6149H86.1307V67.5989Z" fill="#5A17EE"/>
<path d="M100.615 8.58301V91.542H87.5624V105.684L63.9584 92.544L62.1074 91.515H19.3994V8.58301H100.636H100.615ZM108.823 0.333008H11.1914V99.792H59.9954L95.7404 119.694V99.792H108.799V0.333008H108.823Z" fill="#5A17EE"/>
<path fill-rule="evenodd" clip-rule="evenodd" d="M47.0304 35.2083L56.7024 31.6593L57.1614 31.4733V15.5703H26.3034V16.2063L26.2344 47.3073H33.7944V40.0653L39.4614 37.9953L47.9604 47.3073H57.2934L47.0304 35.2083ZM33.8064 31.9563V23.1843H49.6044V26.1543L33.8094 31.9563H33.8064Z" fill="#5A17EE"/>
</svg>
