<svg width="80" height="80" viewBox="0 0 80 80" fill="none" xmlns="http://www.w3.org/2000/svg">
<path d="M53.0746 66H22.209M53.0746 66H56.5821M53.0746 66V53.75M22.209 66V20C22.209 18.3431 23.5521 17 25.209 17H50.0746C51.7315 17 53.0746 18.3431 53.0746 20V41.5V53.75M22.209 66H18M53.0746 53.75L53.676 54.9855C55.8522 59.4563 62.2225 59.4563 64.3986 54.9855V54.9855C64.7944 54.1725 65 53.2801 65 52.3759V36.7319C65 35.2922 64.4823 33.9004 63.5414 32.8107L60.0896 28.813" stroke="#141413" stroke-width="1.5" stroke-linecap="round" stroke-linejoin="round"/>
<path fill-rule="evenodd" clip-rule="evenodd" d="M39.2134 33.5503L45.5573 44.5381C46.0197 45.3391 45.7453 46.3634 44.9442 46.8259L38.6004 50.4885C38.0822 50.7877 37.4438 50.7877 36.9256 50.4885L30.5818 46.8259C29.7808 46.3634 29.5063 45.3391 29.9688 44.5381L36.3126 33.5503C36.9573 32.4338 38.5688 32.4338 39.2134 33.5503ZM31.1935 45.2452C31.1216 45.3698 31.1643 45.5292 31.2889 45.6012L37.4044 49.1319V34.4877L31.1935 45.2452ZM38.1217 34.4878V49.1319L44.2371 45.6012C44.3618 45.5292 44.4045 45.3698 44.3325 45.2452L38.1217 34.4878Z" fill="black"/>
</svg>
