<svg width="80" height="80" viewBox="0 0 80 80" fill="none" xmlns="http://www.w3.org/2000/svg">
<path d="M60 32L40 32H20C19.4477 32 19 32.4477 19 33V63C19 63.5523 19.4477 64 20 64H60C60.5523 64 61 63.5523 61 63V33C61 32.4477 60.5523 32 60 32Z" stroke="#141413" stroke-width="1.5" stroke-linecap="round"/>
<path d="M28 32V28C28 21.3726 33.3726 16 40 16V16C46.6274 16 52 21.3726 52 28V32" stroke="#141413" stroke-width="1.5" stroke-linecap="round"/>
<path fill-rule="evenodd" clip-rule="evenodd" d="M41.3117 39.2769C40.6721 38.9077 39.8842 38.9077 39.2447 39.2769L33.2405 42.7434C32.601 43.1127 32.207 43.795 32.207 44.5335V51.4665C32.207 52.205 32.601 52.8873 33.2405 53.2566L39.2447 56.7231C39.8842 57.0923 40.6721 57.0923 41.3117 56.7231L47.3158 53.2566C47.9554 52.8873 48.3493 52.205 48.3493 51.4665V44.5335C48.3493 43.795 47.9554 43.1127 47.3158 42.7434L41.3117 39.2769ZM33.829 52.2374C33.6724 52.147 33.55 52.013 33.4735 51.8558L39.9232 40.6847V55.7493C39.8925 55.736 39.8625 55.7208 39.8331 55.7039L33.829 52.2374ZM40.6332 55.7493V40.6847L47.0828 51.8558C47.0064 52.013 46.884 52.147 46.7274 52.2374L40.7232 55.7039C40.6939 55.7208 40.6638 55.736 40.6332 55.7493ZM33.829 43.7626L39.0748 40.7339L33.3839 50.5909V44.5335C33.3839 44.2155 33.5535 43.9216 33.829 43.7626ZM47.1725 50.5909L41.4815 40.7339L46.7274 43.7626C47.0028 43.9216 47.1725 44.2155 47.1725 44.5335V50.5909Z" fill="#141413"/>
</svg>
