<svg width="80" height="80" viewBox="0 0 80 80" fill="none" xmlns="http://www.w3.org/2000/svg">
<path d="M53.0746 66H22.209M53.0746 66H56.5821M53.0746 66V53.75M22.209 66V20C22.209 18.3431 23.5521 17 25.209 17H50.0746C51.7315 17 53.0746 18.3431 53.0746 20V41.5V53.75M22.209 66H18M53.0746 53.75L53.676 54.9855C55.8522 59.4563 62.2225 59.4563 64.3986 54.9855V54.9855C64.7944 54.1725 65 53.2801 65 52.3759V36.7319C65 35.2922 64.4823 33.9004 63.5414 32.8107L60.0896 28.813" stroke="#141413" stroke-width="1.5" stroke-linecap="round" stroke-linejoin="round"/>
<path d="M37.0205 33.206C37.5429 32.9492 38.1623 32.9673 38.6709 33.2607L44.9238 36.8711L45.0225 36.9326C45.5065 37.2566 45.8007 37.8022 45.8008 38.3896V45.6103C45.8007 46.2367 45.4663 46.8157 44.9238 47.1289L38.6709 50.7393C38.1623 51.0327 37.5429 51.0507 37.0205 50.7939L36.917 50.7393L30.6641 47.1289C30.1217 46.8156 29.7872 46.2367 29.7871 45.6103V38.3896C29.7872 37.7633 30.1217 37.1844 30.6641 36.8711L36.917 33.2607L37.0205 33.206ZM37.418 44.7021C35.3557 44.7566 33.3023 45.2577 31.4102 46.209L37.418 49.6777V44.7021ZM38.29 49.6084L44.1768 46.209C42.3215 45.2765 40.3116 44.7755 38.29 44.7051V49.6084ZM31.875 45.0332C33.6468 44.2773 35.529 43.8771 37.418 43.8301V38.1289L31.875 45.0332ZM38.29 43.831C40.1384 43.8918 41.9778 44.2936 43.7119 45.0332L38.29 38.2783V43.831ZM38.0859 34.2734C37.9278 34.1823 37.7374 34.1708 37.5713 34.2393L37.502 34.2734L31.249 37.8838C31.0684 37.9882 30.9561 38.181 30.9561 38.3896V44.7881L37.1504 37.0703L37.2158 36.998C37.5355 36.683 38.0535 36.6828 38.373 36.998L38.4385 37.0703L44.6318 44.7861V38.3896C44.6318 38.2069 44.5458 38.0364 44.4033 37.9268L44.3389 37.8838L38.0859 34.2734Z" fill="black"/>
</svg>
