<svg width="80" height="80" viewBox="0 0 80 80" fill="none" xmlns="http://www.w3.org/2000/svg">
<path d="M53.0746 66H22.209M53.0746 66H56.5821M53.0746 66V53.75M22.209 66V20C22.209 18.3431 23.5521 17 25.209 17H50.0746C51.7315 17 53.0746 18.3431 53.0746 20V41.5V53.75M22.209 66H18M53.0746 53.75L53.676 54.9855C55.8522 59.4563 62.2225 59.4563 64.3986 54.9855V54.9855C64.7944 54.1725 65 53.2801 65 52.3759V36.7319C65 35.2922 64.4823 33.9004 63.5414 32.8107L60.0896 28.813" stroke="#141413" stroke-width="1.5" stroke-linecap="round" stroke-linejoin="round"/>
<path d="M44.1025 41.641H45.7614C46.9331 41.641 47.4598 41.0749 47.4598 40.1533C47.4598 39.2054 46.9331 38.6524 45.7614 38.6524H44.1025V41.641ZM49.0002 40.1533C49.0002 41.4567 48.1444 42.8655 45.7614 42.8655H44.1025V46.5782H42.6016V37.428H45.7614C47.9337 37.428 49.0002 38.6656 49.0002 40.1533Z" fill="black"/>
<path d="M39.312 46.5782L35.7704 42.4837V46.5782H34.2695V37.428H35.7704V41.6016L39.3252 37.428H41.2079L37.2318 42.0097L41.2738 46.5782H39.312Z" fill="black"/>
<path d="M32.6296 37.428V38.5997L28.377 45.2748H32.6296V46.5782H26.5996V45.4065L30.839 38.7314H26.5996V37.428H32.6296Z" fill="black"/>
</svg>
