<svg width="72" height="72" viewBox="0 0 72 72" fill="none" xmlns="http://www.w3.org/2000/svg">
<path d="M33.8416 8.8174C34.6294 8.36979 35.0233 8.14598 35.4404 8.05824C35.8096 7.98059 36.1904 7.98059 36.5596 8.05824C36.9767 8.14598 37.3706 8.36979 38.1584 8.81739L58.714 20.4966C59.546 20.9694 59.962 21.2057 60.2649 21.5419C60.5329 21.8393 60.7357 22.1918 60.8598 22.5759C61 23.0099 61 23.4967 61 24.4701V47.5299C61 48.5034 61 48.9901 60.8598 49.4241C60.7357 49.8082 60.5329 50.1607 60.2649 50.4581C59.962 50.7943 59.546 51.0306 58.714 51.5034L38.1584 63.1826C37.3706 63.6302 36.9767 63.854 36.5596 63.9418C36.1904 64.0194 35.8096 64.0194 35.4404 63.9418C35.0233 63.854 34.6294 63.6302 33.8416 63.1826L13.286 51.5034C12.454 51.0306 12.038 50.7943 11.7351 50.4581C11.4671 50.1607 11.2643 49.8082 11.1402 49.4241C11 48.9901 11 48.5034 11 47.5299V24.4701C11 23.4967 11 23.01 11.1402 22.5759C11.2643 22.1918 11.4671 21.8393 11.7351 21.5419C12.038 21.2057 12.454 20.9694 13.286 20.4966L33.8416 8.8174Z" stroke="#141413" stroke-width="2" stroke-linecap="round" stroke-linejoin="round"/>
<g filter="url(#filter0_iiiiii_19097_4591)">
<path fill-rule="evenodd" clip-rule="evenodd" d="M19.0013 26.5C19.5408 25.5362 20.7595 25.1922 21.7234 25.7317L35.9991 33.7078L50.2795 25.7317C51.2433 25.1922 52.4621 25.5361 53.0016 26.5C53.5411 27.4638 53.1972 28.6825 52.2334 29.2221L37.9991 37.1723L38 53C38 54.1046 37.1046 55 36 55C34.8954 55 34.0001 54.1046 34.0001 53L33.9991 37.1723L19.7695 29.2221C18.8057 28.6826 18.4617 27.4638 19.0013 26.5Z" fill="#65605C"/>
</g>
<defs>
<filter id="filter0_iiiiii_19097_4591" x="18.6461" y="24.8765" width="34.6117" height="30.7235" filterUnits="userSpaceOnUse" color-interpolation-filters="sRGB">
<feFlood flood-opacity="0" result="BackgroundImageFix"/>
<feBlend mode="normal" in="SourceGraphic" in2="BackgroundImageFix" result="shape"/>
<feColorMatrix in="SourceAlpha" type="matrix" values="0 0 0 0 0 0 0 0 0 0 0 0 0 0 0 0 0 0 127 0" result="hardAlpha"/>
<feOffset dy="1.9"/>
<feGaussianBlur stdDeviation="0.3"/>
<feComposite in2="hardAlpha" operator="arithmetic" k2="-1" k3="1"/>
<feColorMatrix type="matrix" values="0 0 0 0 0.854902 0 0 0 0 0.843137 0 0 0 0 0.835294 0 0 0 1 0"/>
<feBlend mode="normal" in2="shape" result="effect1_innerShadow_19097_4591"/>
<feColorMatrix in="SourceAlpha" type="matrix" values="0 0 0 0 0 0 0 0 0 0 0 0 0 0 0 0 0 0 127 0" result="hardAlpha"/>
<feOffset dy="1.5"/>
<feGaussianBlur stdDeviation="0.2"/>
<feComposite in2="hardAlpha" operator="arithmetic" k2="-1" k3="1"/>
<feColorMatrix type="matrix" values="0 0 0 0 0.15079 0 0 0 0 0.142402 0 0 0 0 0.135539 0 0 0 1 0"/>
<feBlend mode="normal" in2="effect1_innerShadow_19097_4591" result="effect2_innerShadow_19097_4591"/>
<feColorMatrix in="SourceAlpha" type="matrix" values="0 0 0 0 0 0 0 0 0 0 0 0 0 0 0 0 0 0 127 0" result="hardAlpha"/>
<feOffset dy="0.8"/>
<feGaussianBlur stdDeviation="0.15"/>
<feComposite in2="hardAlpha" operator="arithmetic" k2="-1" k3="1"/>
<feColorMatrix type="matrix" values="0 0 0 0 0.916346 0 0 0 0 0.915243 0 0 0 0 0.91414 0 0 0 1 0"/>
<feBlend mode="normal" in2="effect2_innerShadow_19097_4591" result="effect3_innerShadow_19097_4591"/>
<feColorMatrix in="SourceAlpha" type="matrix" values="0 0 0 0 0 0 0 0 0 0 0 0 0 0 0 0 0 0 127 0" result="hardAlpha"/>
<feOffset dy="-1"/>
<feGaussianBlur stdDeviation="0.3"/>
<feComposite in2="hardAlpha" operator="arithmetic" k2="-1" k3="1"/>
<feColorMatrix type="matrix" values="0 0 0 0 0.713726 0 0 0 0 0.694118 0 0 0 0 0.682353 0 0 0 1 0"/>
<feBlend mode="normal" in2="effect3_innerShadow_19097_4591" result="effect4_innerShadow_19097_4591"/>
<feColorMatrix in="SourceAlpha" type="matrix" values="0 0 0 0 0 0 0 0 0 0 0 0 0 0 0 0 0 0 127 0" result="hardAlpha"/>
<feOffset dx="-0.1" dy="-0.3"/>
<feGaussianBlur stdDeviation="0.05"/>
<feComposite in2="hardAlpha" operator="arithmetic" k2="-1" k3="1"/>
<feColorMatrix type="matrix" values="0 0 0 0 0 0 0 0 0 0 0 0 0 0 0 0 0 0 0.5 0"/>
<feBlend mode="normal" in2="effect4_innerShadow_19097_4591" result="effect5_innerShadow_19097_4591"/>
<feColorMatrix in="SourceAlpha" type="matrix" values="0 0 0 0 0 0 0 0 0 0 0 0 0 0 0 0 0 0 127 0" result="hardAlpha"/>
<feOffset dx="0.1" dy="0.2"/>
<feComposite in2="hardAlpha" operator="arithmetic" k2="-1" k3="1"/>
<feColorMatrix type="matrix" values="0 0 0 0 0 0 0 0 0 0 0 0 0 0 0 0 0 0 0.25 0"/>
<feBlend mode="normal" in2="effect5_innerShadow_19097_4591" result="effect6_innerShadow_19097_4591"/>
</filter>
</defs>
</svg>
