<svg width="272" height="72" viewBox="0 0 272 72" fill="none" xmlns="http://www.w3.org/2000/svg">
<g filter="url(#filter0_iiiiii_24269_1890)">
<path d="M1.20508 40.2716V39.2281C2.79872 39.2281 3.94413 39.1286 4.64134 38.9298C5.37177 38.731 5.83657 38.3832 6.03578 37.8863C6.26818 37.3894 6.38437 36.5942 6.38437 35.501V5.28719C6.38437 4.19394 6.26818 3.39884 6.03578 2.9019C5.83657 2.40496 5.37177 2.0571 4.64134 1.85833C3.94413 1.65955 2.79872 1.56017 1.20508 1.56017V0.516602H12.8585C16.5106 0.516602 19.8141 1.3117 22.7689 2.9019C25.757 4.49209 28.1142 6.81114 29.8406 9.85902C31.5671 12.9069 32.4303 16.5345 32.4303 20.742C32.4303 24.7175 31.6335 28.1795 30.0399 31.1279C28.4795 34.0764 26.2716 36.3457 23.4164 37.936C20.5942 39.493 17.3074 40.2716 13.5558 40.2716H1.20508ZM13.1075 38.582C16.66 38.582 19.6315 37.8034 22.0219 36.2464C24.4455 34.6562 26.2384 32.536 27.4004 29.8856C28.5624 27.2353 29.1434 24.2537 29.1434 20.9407C29.1434 17.2634 28.4462 14.0167 27.0518 11.2007C25.6906 8.35165 23.7982 6.14856 21.3745 4.59149C18.9841 3.00129 16.2947 2.20619 13.3068 2.20619C12.2111 2.20619 11.2815 2.28901 10.5179 2.45465C9.82065 2.58717 9.47204 3.03442 9.47204 3.79639V36.4452C9.47204 37.2734 9.75425 37.8366 10.3187 38.1348C10.9163 38.4329 11.8459 38.582 13.1075 38.582ZM45.114 13.2879C45.8112 13.2879 46.359 13.4701 46.7574 13.8345C47.189 14.1658 47.4048 14.6296 47.4048 15.2259C47.4048 15.8885 47.2223 16.4352 46.8569 16.8658C46.4918 17.2634 46.0768 17.4621 45.612 17.4621C45.2799 17.4621 45.0144 17.396 44.8152 17.2634C44.616 17.1309 44.3836 16.9321 44.118 16.667C43.8524 16.402 43.6365 16.2198 43.4705 16.1205C43.3046 16.021 43.0887 15.9713 42.8231 15.9713C42.2256 15.9713 41.5947 16.3855 40.9307 17.2136C40.2999 18.0088 39.6524 19.218 38.9885 20.8413V35.4016C38.9885 36.5279 39.088 37.3562 39.2872 37.8863C39.5197 38.3832 39.9678 38.731 40.6319 38.9298C41.3291 39.0955 42.4248 39.1783 43.9188 39.1783V40.2716H33.0622V39.2281C34.0249 39.2281 34.7221 39.1286 35.1538 38.9298C35.6186 38.731 35.9173 38.3832 36.0502 37.8863C36.2162 37.3894 36.2992 36.5942 36.2992 35.501V18.953C36.2992 17.7272 36.2494 16.9155 36.1498 16.5179C36.0502 16.0873 35.7846 15.872 35.3529 15.872C34.9878 15.872 34.3403 16.0542 33.4107 16.4186L33.0123 15.4744L38.3908 13.2879L38.9885 13.8345V18.2573H39.1379C39.8683 16.7665 40.7481 15.5737 41.7773 14.6794C42.8397 13.7517 43.9519 13.2879 45.114 13.2879ZM62.6179 29.7862C62.2194 33.5629 61.3064 36.3954 59.8788 38.2839C58.4512 40.139 56.6915 41.0666 54.5998 41.0666C52.9399 41.0666 51.4957 40.5034 50.2672 39.3771C49.0387 38.2176 48.0925 36.6274 47.4286 34.6065C46.7978 32.5524 46.4824 30.2168 46.4824 27.5997C46.4824 24.9494 46.8144 22.5475 47.4783 20.3941C48.1424 18.2076 49.1051 16.4849 50.3668 15.2259C51.6284 13.9339 53.1059 13.2879 54.7991 13.2879C57.1563 13.2879 58.999 14.4143 60.327 16.667C61.655 18.9198 62.319 21.9346 62.319 25.7113H49.3708V26.6555C49.3708 30.0346 49.9187 32.8672 51.0142 35.1531C52.1099 37.4059 53.6038 38.5324 55.4963 38.5324C56.8243 38.5324 58.0361 37.8697 59.1318 36.5445C60.2273 35.1863 61.0409 32.9334 61.572 29.7862H62.6179ZM54.849 14.9775C53.3217 14.9775 52.0932 15.8222 51.1637 17.5119C50.2672 19.2014 49.7028 21.3715 49.4704 24.0218H59.3808C59.3808 21.4708 59.0156 19.334 58.2851 17.6112C57.5548 15.8554 56.4093 14.9775 54.849 14.9775ZM82.5706 35.004C82.5042 39.0457 81.309 41.0666 78.9848 41.0666C77.856 41.0666 76.9762 40.6194 76.3454 39.725C75.7479 38.7973 75.449 37.4225 75.449 35.6004V33.6127C74.785 36.0642 73.8388 37.9194 72.6103 39.1783C71.382 40.4372 69.9543 41.0666 68.3275 41.0666C66.7338 41.0666 65.4888 40.52 64.5924 39.4267C63.6959 38.3004 63.2477 36.9255 63.2477 35.3022C63.2477 33.4139 63.8288 31.774 64.9908 30.3826C66.186 28.9579 67.5307 27.815 69.0247 26.9537C70.5187 26.0923 72.6601 24.9824 75.449 23.6242V20.7917C75.449 18.7045 75.0838 17.2136 74.3534 16.3193C73.6562 15.3916 72.6103 14.9278 71.2159 14.9278C70.1203 14.9278 69.2073 15.1928 68.4769 15.7229C67.7797 16.2198 67.431 16.9155 67.431 17.81C67.431 18.1413 67.5472 18.6217 67.7797 19.2511C68.0121 19.715 68.1282 20.129 68.1282 20.4934C68.1282 21.0235 67.9788 21.4542 67.68 21.7855C67.3812 22.0836 66.9662 22.2328 66.435 22.2328C65.771 22.2328 65.2565 21.9843 64.8912 21.4874C64.5592 20.9905 64.3932 20.3278 64.3932 19.4996C64.3932 18.3401 64.7086 17.2965 65.3394 16.3689C66.0034 15.4081 66.8833 14.6462 67.9788 14.083C69.1077 13.5198 70.3527 13.2381 71.7139 13.2381C73.6727 13.2381 75.2332 13.8676 76.3952 15.1266C77.5904 16.3523 78.188 18.2241 78.188 20.742V35.998C78.188 37.2569 78.3042 38.1348 78.5366 38.6317C78.8022 39.0955 79.1675 39.3274 79.6323 39.3274C80.8607 39.3274 81.4915 37.8863 81.5247 35.004H82.5706ZM69.1741 38.5324C70.4025 38.5324 71.5646 37.9194 72.6601 36.6937C73.789 35.4348 74.7186 33.5298 75.449 30.9788V25.0653C73.3573 26.1917 71.7139 27.1358 70.5187 27.8978C69.3235 28.6598 68.2942 29.604 67.431 30.7304C66.5679 31.8567 66.1363 33.1488 66.1363 34.6065C66.1363 35.766 66.3853 36.7101 66.8833 37.439C67.4144 38.1678 68.178 38.5324 69.1741 38.5324ZM110.408 35.501C110.408 36.5942 110.474 37.3894 110.607 37.8863C110.773 38.3832 111.072 38.731 111.503 38.9298C111.935 39.1286 112.632 39.2281 113.595 39.2281V40.2716H104.581V39.2281C105.511 39.2281 106.191 39.1286 106.623 38.9298C107.054 38.731 107.337 38.3832 107.469 37.8863C107.602 37.3894 107.669 36.5942 107.669 35.501V20.096C107.669 17.2136 106.623 15.7725 104.531 15.7725C103.535 15.7725 102.589 16.0873 101.693 16.7167C100.796 17.3462 99.8831 18.2739 98.9535 19.4996V19.9468V35.501C98.9535 36.5942 99.0199 37.3894 99.1527 37.8863C99.2856 38.3832 99.5677 38.731 99.9993 38.9298C100.431 39.1286 101.112 39.2281 102.041 39.2281V40.2716H93.1268V39.2281C94.0564 39.2281 94.7371 39.1286 95.1687 38.9298C95.6003 38.731 95.8824 38.3832 96.0152 37.8863C96.148 37.3894 96.2144 36.5942 96.2144 35.501V20.096C96.2144 17.2136 95.1687 15.7725 93.077 15.7725C92.081 15.7725 91.1182 16.1205 90.1885 16.8162C89.2589 17.4787 88.3127 18.4395 87.3498 19.6984V35.501C87.3498 36.5942 87.4162 37.3894 87.5491 37.8863C87.6819 38.3832 87.9641 38.731 88.3957 38.9298C88.8273 39.1286 89.5079 39.2281 90.4376 39.2281V40.2716H81.3738V39.2281C82.3698 39.2281 83.0836 39.1286 83.5152 38.9298C83.9468 38.731 84.229 38.3832 84.3619 37.8863C84.5278 37.3894 84.6109 36.5942 84.6109 35.501V19.0027C84.6109 17.7769 84.561 16.9652 84.4614 16.5677C84.395 16.1701 84.1626 15.9713 83.7642 15.9713C83.3658 15.9713 82.7018 16.1701 81.7722 16.5677L81.324 15.5737L85.1089 13.9339L86.6526 13.2879L87.3498 13.8345V18.0088H87.4993C88.4953 16.4849 89.5079 15.3253 90.5371 14.5302C91.5995 13.702 92.8114 13.2879 94.1726 13.2879C95.5339 13.2879 96.5963 13.702 97.3599 14.5302C98.1235 15.3585 98.6049 16.5179 98.8041 18.0088H98.9535C99.9495 16.4849 100.962 15.3253 101.991 14.5302C103.054 13.702 104.266 13.2879 105.627 13.2879C107.254 13.2879 108.449 13.8842 109.213 15.0768C110.009 16.2364 110.408 17.8597 110.408 19.9468V35.501Z" fill="#65605C"/>
</g>
<g filter="url(#filter1_iiiiii_24269_1890)">
<path d="M37.749 67.0952V49.603H44.9326L50.3264 59.1687L55.5977 49.603H62.7077V67.0952H57.2403V55.3766L50.8658 67.0952H49.027L42.677 55.3766V67.0952H37.749ZM63.3712 67.0952L71.0942 49.603H78.4249L86.0743 67.0952H80.0921L78.7437 63.817H70.0399L68.6424 67.0952H63.3712ZM74.4286 53.4194L71.511 60.3429H77.2972L74.4286 53.4194ZM96.4149 67.3888C88.5939 67.3888 84.4749 63.817 84.4749 58.4592V58.2635C84.4749 52.9057 89.5746 49.3584 96.2433 49.3584C102.299 49.3584 106.344 51.4379 106.957 56.0128H101.122C100.779 54.2268 99.2589 53.1993 96.2678 53.1993C92.7129 53.1993 90.4082 55.0831 90.4082 58.239V58.4347C90.4082 61.5907 92.5902 63.4744 96.3414 63.4744C99.308 63.4744 101.22 62.5448 101.637 60.5632H107.227C106.663 65.0646 102.495 67.3888 96.4149 67.3888ZM108.15 67.0952V49.603H113.814V56.3308H122.837V49.603H128.5V67.0952H122.837V60.1717H113.814V67.0952H108.15ZM130.941 67.0952V49.603H136.654V67.0952H130.941ZM139.098 67.0952V49.603H145.743L154.373 60.3185V49.603H159.227V67.0952H153.49L143.978 55.1319V67.0952H139.098ZM161.577 67.0952V49.603H178.37V53.2972H167.191V56.4041H176.752V60.0984H167.191V63.4011H178.885V67.0952H161.577Z" fill="#8F8D8C"/>
</g>
<defs>
<filter id="filter0_iiiiii_24269_1890" x="0.605078" y="-0.0833985" width="113.39" height="41.7498" filterUnits="userSpaceOnUse" color-interpolation-filters="sRGB">
<feFlood flood-opacity="0" result="BackgroundImageFix"/>
<feBlend mode="normal" in="SourceGraphic" in2="BackgroundImageFix" result="shape"/>
<feColorMatrix in="SourceAlpha" type="matrix" values="0 0 0 0 0 0 0 0 0 0 0 0 0 0 0 0 0 0 127 0" result="hardAlpha"/>
<feOffset dx="-1" dy="1.9"/>
<feGaussianBlur stdDeviation="0.3"/>
<feComposite in2="hardAlpha" operator="arithmetic" k2="-1" k3="1"/>
<feColorMatrix type="matrix" values="0 0 0 0 0.854902 0 0 0 0 0.843137 0 0 0 0 0.835294 0 0 0 1 0"/>
<feBlend mode="normal" in2="shape" result="effect1_innerShadow_24269_1890"/>
<feColorMatrix in="SourceAlpha" type="matrix" values="0 0 0 0 0 0 0 0 0 0 0 0 0 0 0 0 0 0 127 0" result="hardAlpha"/>
<feOffset dx="1" dy="1.5"/>
<feGaussianBlur stdDeviation="0.2"/>
<feComposite in2="hardAlpha" operator="arithmetic" k2="-1" k3="1"/>
<feColorMatrix type="matrix" values="0 0 0 0 0.15079 0 0 0 0 0.142402 0 0 0 0 0.135539 0 0 0 1 0"/>
<feBlend mode="normal" in2="effect1_innerShadow_24269_1890" result="effect2_innerShadow_24269_1890"/>
<feColorMatrix in="SourceAlpha" type="matrix" values="0 0 0 0 0 0 0 0 0 0 0 0 0 0 0 0 0 0 127 0" result="hardAlpha"/>
<feOffset dx="0.8" dy="0.8"/>
<feGaussianBlur stdDeviation="0.15"/>
<feComposite in2="hardAlpha" operator="arithmetic" k2="-1" k3="1"/>
<feColorMatrix type="matrix" values="0 0 0 0 0.884618 0 0 0 0 0.876806 0 0 0 0 0.868994 0 0 0 1 0"/>
<feBlend mode="normal" in2="effect2_innerShadow_24269_1890" result="effect3_innerShadow_24269_1890"/>
<feColorMatrix in="SourceAlpha" type="matrix" values="0 0 0 0 0 0 0 0 0 0 0 0 0 0 0 0 0 0 127 0" result="hardAlpha"/>
<feOffset dx="-1" dy="-1"/>
<feGaussianBlur stdDeviation="0.3"/>
<feComposite in2="hardAlpha" operator="arithmetic" k2="-1" k3="1"/>
<feColorMatrix type="matrix" values="0 0 0 0 0.713726 0 0 0 0 0.694118 0 0 0 0 0.682353 0 0 0 1 0"/>
<feBlend mode="normal" in2="effect3_innerShadow_24269_1890" result="effect4_innerShadow_24269_1890"/>
<feColorMatrix in="SourceAlpha" type="matrix" values="0 0 0 0 0 0 0 0 0 0 0 0 0 0 0 0 0 0 127 0" result="hardAlpha"/>
<feOffset dx="-0.1" dy="-0.3"/>
<feGaussianBlur stdDeviation="0.05"/>
<feComposite in2="hardAlpha" operator="arithmetic" k2="-1" k3="1"/>
<feColorMatrix type="matrix" values="0 0 0 0 0 0 0 0 0 0 0 0 0 0 0 0 0 0 0.5 0"/>
<feBlend mode="normal" in2="effect4_innerShadow_24269_1890" result="effect5_innerShadow_24269_1890"/>
<feColorMatrix in="SourceAlpha" type="matrix" values="0 0 0 0 0 0 0 0 0 0 0 0 0 0 0 0 0 0 127 0" result="hardAlpha"/>
<feOffset dx="0.1" dy="0.2"/>
<feComposite in2="hardAlpha" operator="arithmetic" k2="-1" k3="1"/>
<feColorMatrix type="matrix" values="0 0 0 0 0 0 0 0 0 0 0 0 0 0 0 0 0 0 0.25 0"/>
<feBlend mode="normal" in2="effect5_innerShadow_24269_1890" result="effect6_innerShadow_24269_1890"/>
</filter>
<filter id="filter1_iiiiii_24269_1890" x="37.149" y="48.7584" width="142.337" height="19.2303" filterUnits="userSpaceOnUse" color-interpolation-filters="sRGB">
<feFlood flood-opacity="0" result="BackgroundImageFix"/>
<feBlend mode="normal" in="SourceGraphic" in2="BackgroundImageFix" result="shape"/>
<feColorMatrix in="SourceAlpha" type="matrix" values="0 0 0 0 0 0 0 0 0 0 0 0 0 0 0 0 0 0 127 0" result="hardAlpha"/>
<feOffset dx="-0.5" dy="2.5"/>
<feGaussianBlur stdDeviation="0.3"/>
<feComposite in2="hardAlpha" operator="arithmetic" k2="-1" k3="1"/>
<feColorMatrix type="matrix" values="0 0 0 0 0.854902 0 0 0 0 0.843137 0 0 0 0 0.835294 0 0 0 1 0"/>
<feBlend mode="normal" in2="shape" result="effect1_innerShadow_24269_1890"/>
<feColorMatrix in="SourceAlpha" type="matrix" values="0 0 0 0 0 0 0 0 0 0 0 0 0 0 0 0 0 0 127 0" result="hardAlpha"/>
<feOffset dx="1" dy="2"/>
<feGaussianBlur stdDeviation="0.3"/>
<feComposite in2="hardAlpha" operator="arithmetic" k2="-1" k3="1"/>
<feColorMatrix type="matrix" values="0 0 0 0 0.15079 0 0 0 0 0.142402 0 0 0 0 0.135539 0 0 0 1 0"/>
<feBlend mode="normal" in2="effect1_innerShadow_24269_1890" result="effect2_innerShadow_24269_1890"/>
<feColorMatrix in="SourceAlpha" type="matrix" values="0 0 0 0 0 0 0 0 0 0 0 0 0 0 0 0 0 0 127 0" result="hardAlpha"/>
<feOffset dx="1" dy="1"/>
<feGaussianBlur stdDeviation="0.15"/>
<feComposite in2="hardAlpha" operator="arithmetic" k2="-1" k3="1"/>
<feColorMatrix type="matrix" values="0 0 0 0 0.884618 0 0 0 0 0.876806 0 0 0 0 0.868994 0 0 0 1 0"/>
<feBlend mode="normal" in2="effect2_innerShadow_24269_1890" result="effect3_innerShadow_24269_1890"/>
<feColorMatrix in="SourceAlpha" type="matrix" values="0 0 0 0 0 0 0 0 0 0 0 0 0 0 0 0 0 0 127 0" result="hardAlpha"/>
<feOffset dx="-1" dy="-1.5"/>
<feGaussianBlur stdDeviation="0.3"/>
<feComposite in2="hardAlpha" operator="arithmetic" k2="-1" k3="1"/>
<feColorMatrix type="matrix" values="0 0 0 0 0.713726 0 0 0 0 0.694118 0 0 0 0 0.682353 0 0 0 1 0"/>
<feBlend mode="normal" in2="effect3_innerShadow_24269_1890" result="effect4_innerShadow_24269_1890"/>
<feColorMatrix in="SourceAlpha" type="matrix" values="0 0 0 0 0 0 0 0 0 0 0 0 0 0 0 0 0 0 127 0" result="hardAlpha"/>
<feOffset dx="-0.1" dy="-0.3"/>
<feGaussianBlur stdDeviation="0.05"/>
<feComposite in2="hardAlpha" operator="arithmetic" k2="-1" k3="1"/>
<feColorMatrix type="matrix" values="0 0 0 0 0 0 0 0 0 0 0 0 0 0 0 0 0 0 0.5 0"/>
<feBlend mode="normal" in2="effect4_innerShadow_24269_1890" result="effect5_innerShadow_24269_1890"/>
<feColorMatrix in="SourceAlpha" type="matrix" values="0 0 0 0 0 0 0 0 0 0 0 0 0 0 0 0 0 0 127 0" result="hardAlpha"/>
<feOffset dx="0.1" dy="0.2"/>
<feComposite in2="hardAlpha" operator="arithmetic" k2="-1" k3="1"/>
<feColorMatrix type="matrix" values="0 0 0 0 0 0 0 0 0 0 0 0 0 0 0 0 0 0 0.25 0"/>
<feBlend mode="normal" in2="effect5_innerShadow_24269_1890" result="effect6_innerShadow_24269_1890"/>
</filter>
</defs>
</svg>
