<svg width="272" height="72" viewBox="0 0 272 72" fill="none" xmlns="http://www.w3.org/2000/svg">
<g filter="url(#filter0_iiiiii_24269_1912)">
<path d="M0.8125 59.8007V12.9184H26.655C40.8519 12.9184 48.899 17.8361 48.899 27.8683V28.1306C48.899 35.5399 44.8427 39.0807 38.8238 41.4411L52.759 59.8007H36.1414L24.9539 45.2442H15.86V59.8007H0.8125ZM15.86 35.0809H25.7389C30.9729 35.0809 34.0478 33.1794 34.0478 28.9829V28.7206C34.0478 24.3275 30.7766 22.7538 25.8698 22.7538H15.86V35.0809ZM46.0903 59.8007L66.6989 12.9184H86.2606L106.673 59.8007H90.7095L87.1112 51.0144H63.8857L60.1565 59.8007H46.0903ZM75.5965 23.1473L67.8111 41.7034H83.2512L75.5965 23.1473ZM112.903 59.8007V39.933L92.2939 12.9184H108.977L121.146 28.9174L132.987 12.9184H147.708L128.081 39.933V59.8007H112.903ZM140.438 59.8007V56.9812L162.158 40.3265C169.355 34.8186 172.625 31.6713 172.625 27.9994C172.625 24.2619 169.944 22.0981 164.775 22.0981C159.475 22.0981 155.943 24.721 155.027 30.6878H141.353C142.269 19.0164 151.167 12.2627 165.429 12.2627C180.28 12.2627 187.542 18.3607 187.542 27.0815C187.542 33.5728 182.57 38.4906 175.701 43.4083L166.41 50.0308H188V59.8007H140.438Z" fill="#AFADAB"/>
</g>
<defs>
<filter id="filter0_iiiiii_24269_1912" x="-1.95262" y="9.49757" width="191.796" height="53.2544" filterUnits="userSpaceOnUse" color-interpolation-filters="sRGB">
<feFlood flood-opacity="0" result="BackgroundImageFix"/>
<feBlend mode="normal" in="SourceGraphic" in2="BackgroundImageFix" result="shape"/>
<feColorMatrix in="SourceAlpha" type="matrix" values="0 0 0 0 0 0 0 0 0 0 0 0 0 0 0 0 0 0 127 0" result="hardAlpha"/>
<feOffset dx="-1.84342" dy="4.60854"/>
<feGaussianBlur stdDeviation="1.47558"/>
<feComposite in2="hardAlpha" operator="arithmetic" k2="-1" k3="1"/>
<feColorMatrix type="matrix" values="0 0 0 0 0.854902 0 0 0 0 0.843137 0 0 0 0 0.835294 0 0 0 1 0"/>
<feBlend mode="normal" in2="shape" result="effect1_innerShadow_24269_1912"/>
<feColorMatrix in="SourceAlpha" type="matrix" values="0 0 0 0 0 0 0 0 0 0 0 0 0 0 0 0 0 0 127 0" result="hardAlpha"/>
<feOffset dx="1.84342" dy="3.68683"/>
<feGaussianBlur stdDeviation="0.983721"/>
<feComposite in2="hardAlpha" operator="arithmetic" k2="-1" k3="1"/>
<feColorMatrix type="matrix" values="0 0 0 0 0.15079 0 0 0 0 0.142402 0 0 0 0 0.135539 0 0 0 1 0"/>
<feBlend mode="normal" in2="effect1_innerShadow_24269_1912" result="effect2_innerShadow_24269_1912"/>
<feColorMatrix in="SourceAlpha" type="matrix" values="0 0 0 0 0 0 0 0 0 0 0 0 0 0 0 0 0 0 127 0" result="hardAlpha"/>
<feOffset dx="1.84342" dy="1.84342"/>
<feGaussianBlur stdDeviation="0.737791"/>
<feComposite in2="hardAlpha" operator="arithmetic" k2="-1" k3="1"/>
<feColorMatrix type="matrix" values="0 0 0 0 0.884618 0 0 0 0 0.876806 0 0 0 0 0.868994 0 0 0 1 0"/>
<feBlend mode="normal" in2="effect2_innerShadow_24269_1912" result="effect3_innerShadow_24269_1912"/>
<feColorMatrix in="SourceAlpha" type="matrix" values="0 0 0 0 0 0 0 0 0 0 0 0 0 0 0 0 0 0 127 0" result="hardAlpha"/>
<feOffset dx="-2.76512" dy="-2.76512"/>
<feGaussianBlur stdDeviation="1.47558"/>
<feComposite in2="hardAlpha" operator="arithmetic" k2="-1" k3="1"/>
<feColorMatrix type="matrix" values="0 0 0 0 0.713726 0 0 0 0 0.694118 0 0 0 0 0.682353 0 0 0 1 0"/>
<feBlend mode="normal" in2="effect3_innerShadow_24269_1912" result="effect4_innerShadow_24269_1912"/>
<feColorMatrix in="SourceAlpha" type="matrix" values="0 0 0 0 0 0 0 0 0 0 0 0 0 0 0 0 0 0 127 0" result="hardAlpha"/>
<feOffset dx="-0.491861" dy="-1.47558"/>
<feGaussianBlur stdDeviation="0.24593"/>
<feComposite in2="hardAlpha" operator="arithmetic" k2="-1" k3="1"/>
<feColorMatrix type="matrix" values="0 0 0 0 0 0 0 0 0 0 0 0 0 0 0 0 0 0 0.5 0"/>
<feBlend mode="normal" in2="effect4_innerShadow_24269_1912" result="effect5_innerShadow_24269_1912"/>
<feColorMatrix in="SourceAlpha" type="matrix" values="0 0 0 0 0 0 0 0 0 0 0 0 0 0 0 0 0 0 127 0" result="hardAlpha"/>
<feOffset dx="0.491861" dy="0.983721"/>
<feComposite in2="hardAlpha" operator="arithmetic" k2="-1" k3="1"/>
<feColorMatrix type="matrix" values="0 0 0 0 0 0 0 0 0 0 0 0 0 0 0 0 0 0 0.25 0"/>
<feBlend mode="normal" in2="effect5_innerShadow_24269_1912" result="effect6_innerShadow_24269_1912"/>
</filter>
</defs>
</svg>
