<svg width="64" height="64" viewBox="0 0 64 64" fill="none" xmlns="http://www.w3.org/2000/svg">
<rect width="64" height="64" rx="32" fill="#F5F5F5"/>
<g clip-path="url(#clip0_4511_19911)">
<path d="M32 54C19.8691 54 10 44.1309 10 32C10 19.8691 19.8691 10 32 10C39.3197 10 46.139 13.6257 50.2419 19.6986L47.9725 21.2317C44.3799 15.9137 38.4087 12.7386 32 12.7386C21.3792 12.7386 12.7386 21.3792 12.7386 32C12.7386 42.6208 21.3792 51.2614 32 51.2614C42.6208 51.2614 51.2614 42.6208 51.2614 32H54C54 44.1309 44.1309 54 32 54Z" fill="black"/>
<path d="M38.648 28.3144V25.2693C38.648 22.0801 36.0533 19.4856 32.8639 19.4856H32.4224C29.2333 19.4856 26.6387 22.0801 26.6387 25.2693V28.3144H23.3281V42.5305H41.9584V28.3144H38.648ZM29.3775 25.2693C29.3775 23.5902 30.7435 22.2242 32.4226 22.2242H32.8641C34.5432 22.2242 35.9096 23.5902 35.9096 25.2693V28.3144H29.3777V25.2693H29.3775ZM39.2198 39.7919H26.0667V31.053H39.2198V39.7919Z" fill="black"/>
</g>
<defs>
<clipPath id="clip0_4511_19911">
<rect width="44" height="44" fill="white" transform="translate(10 10)"/>
</clipPath>
</defs>
</svg>
