<svg width="36" height="36" viewBox="0 0 36 36" fill="none" xmlns="http://www.w3.org/2000/svg">
<circle cx="18" cy="18" r="18" fill="#F5F5F5"/>
<path d="M18 30.0002C16.9412 30.0002 16.0588 29.6583 15.3529 28.9745C14.6471 28.2907 14.2941 27.4635 14.2941 26.4929C14.2941 25.9415 14.4044 25.4451 14.625 25.0039C14.8456 24.5628 15.2316 24.0774 15.7831 23.5481C16.3566 23.0186 16.8088 22.5223 17.1397 22.0591C17.4926 21.5738 17.6691 21.1547 17.6691 20.8017V20.3164C17.1838 20.2061 16.7537 19.9855 16.3787 19.6547C16.0257 19.3017 15.7941 18.8825 15.6838 18.3973H15.1985C14.8235 18.3973 14.3824 18.5738 13.875 18.9268C13.3676 19.2796 12.8824 19.7098 12.4191 20.2172C11.9559 20.7245 11.4927 21.0995 11.0294 21.3421C10.5882 21.5848 10.0809 21.7062 9.50736 21.7062C8.51471 21.7062 7.67646 21.3532 6.99265 20.6473C6.33088 19.9414 6 19.059 6 18.0002C6 16.9414 6.33088 16.0591 6.99265 15.3532C7.67646 14.6473 8.51471 14.2944 9.50736 14.2944C10.4338 14.2944 11.2279 14.6252 11.8897 15.287C12.5515 15.9488 13.1471 16.5113 13.6765 16.9745C14.2059 17.4377 14.7132 17.6694 15.1985 17.6694H15.6838C15.7941 17.162 16.0257 16.7429 16.3787 16.412C16.7537 16.0591 17.1838 15.8385 17.6691 15.7502V15.265C17.6691 14.6914 17.2279 13.9635 16.3456 13.0811L15.6507 12.3863C14.7463 11.4819 14.2941 10.5223 14.2941 9.5076C14.2941 8.51495 14.6471 7.68774 15.3529 7.02598C16.0809 6.34216 16.9632 6.00024 18 6.00024C19.0588 6.00024 19.9412 6.34216 20.647 7.02598C21.353 7.70981 21.7059 8.53701 21.7059 9.5076C21.7059 10.6326 21.1544 11.6914 20.0515 12.6841C18.9485 13.6988 18.3971 14.5591 18.3971 15.265V15.7502C18.9044 15.8385 19.3236 16.0591 19.6544 16.412C20.0074 16.7429 20.228 17.162 20.3162 17.6694H20.8014C21.5515 17.6694 22.4118 17.1069 23.3824 15.9819C24.375 14.8569 25.4118 14.2944 26.4927 14.2944C27.4853 14.2944 28.3125 14.6583 28.9743 15.3863C29.6581 16.0922 30 16.9635 30 18.0002C30 19.059 29.6581 19.9414 28.9743 20.6473C28.2904 21.3532 27.4633 21.7062 26.4927 21.7062C25.5662 21.7062 24.7831 21.3862 24.1434 20.7466C23.5037 20.1069 22.9081 19.5554 22.3567 19.0922C21.8051 18.6289 21.2868 18.3973 20.8014 18.3973H20.3162C20.1397 19.4561 19.5001 20.0958 18.3971 20.3164V20.8017C18.3971 21.4634 18.9485 22.3128 20.0515 23.3495C21.1544 24.3863 21.7059 25.434 21.7059 26.4929C21.7059 27.4855 21.3419 28.3128 20.614 28.9745C19.908 29.6583 19.0368 30.0002 18 30.0002Z" fill="#141413"/>
</svg>
