<svg width="88" height="88" viewBox="0 0 88 88" fill="none" xmlns="http://www.w3.org/2000/svg">
<g clip-path="url(#clip0_2668_3805)">
<path d="M71.8181 43.975C82.5555 52.8231 88.181 61.7372 85.3006 66.9907C81.0322 74.776 59.7005 71.574 37.6549 59.8388C15.6092 48.1036 1.198 32.2792 5.46643 24.4939C7.93631 19.989 16.1194 19.163 26.8481 21.5402" stroke="#141413" stroke-width="0.502857" stroke-linecap="round" stroke-linejoin="bevel"/>
<path d="M71.6571 48.772C78.8726 55.5805 82.3534 62.1162 80.1174 66.1946C76.3102 73.1387 57.3715 70.3295 37.8167 59.9203C18.2619 49.511 5.49596 35.4433 9.30316 28.4993C11.1932 25.052 16.8122 24.0084 24.3845 25.105" stroke="#141413" stroke-width="0.502857" stroke-linecap="round" stroke-linejoin="bevel"/>
<path d="M70.9621 52.4862C75.7301 57.667 77.8198 62.4801 76.0813 65.6509C72.6732 71.867 55.8434 69.4181 38.4909 60.1811C21.1383 50.9441 9.8341 38.4169 13.2422 32.2008C14.5628 29.7921 17.8988 28.6844 22.4995 28.7687" stroke="#141413" stroke-width="0.502857" stroke-linecap="round" stroke-linejoin="bevel"/>
<path d="M70.1682 55.6446C72.721 59.2511 73.6132 62.5201 72.3282 64.8639C69.1766 70.6121 54.1227 68.6185 38.7043 60.4111C23.2859 52.2036 13.3417 40.8904 16.4932 35.1422C17.3248 33.6255 18.9849 32.6478 21.2617 32.181" stroke="#141413" stroke-width="0.502857" stroke-linecap="round" stroke-linejoin="bevel"/>
<mask id="mask0_2668_3805" style="mask-type:alpha" maskUnits="userSpaceOnUse" x="4" y="10" width="83" height="61">
<path d="M85.5258 66.5303C81.4768 74.2741 60.1956 71.1406 37.9929 59.5315C15.7902 47.9223 1.07368 32.2337 5.12267 24.4899C9.17166 16.7461 41.3707 2.97271 63.5735 14.5819C85.7762 26.191 89.5748 58.7866 85.5258 66.5303Z" fill="#D9D9D9"/>
</mask>
<g mask="url(#mask0_2668_3805)">
<path d="M42.3905 13.5933C43.7325 13.251 47.2127 13.1673 48.6289 13.1531C61.29 13.0267 71.691 26.6565 71.8601 43.5961C71.9596 53.561 68.4961 62.4515 63.0497 68.109" stroke="#141413" stroke-width="0.502857" stroke-linecap="round" stroke-linejoin="bevel"/>
<path d="M19.5167 45.4734C19.5044 45.1268 19.4965 44.7787 19.4929 44.4291C19.3202 27.5149 29.4693 13.7027 42.1615 13.5789C54.8537 13.4551 65.2828 27.0664 65.4555 43.9807C65.5507 53.3088 62.5067 61.6934 57.628 67.3588" stroke="#141413" stroke-width="0.502857" stroke-linecap="round" stroke-linejoin="bevel"/>
<g clip-path="url(#clip1_2668_3805)">
<path d="M53.3011 31.5736L53.3011 36.1501L44.3934 36.2925L44.3934 39.4129C50.6176 39.6893 55.3883 41.0428 55.4256 42.7184L55.4256 46.2148C55.3883 47.8904 50.6176 49.2468 44.3934 49.5232L44.3934 57.1801L38.645 57.0376L38.645 49.4691C32.7017 49.0815 28.3352 47.7166 28.3037 46.1265L28.3037 42.8124C28.3352 41.2223 32.7017 39.8574 38.6421 39.4727L38.6421 36.3894L30.2246 36.5234L30.2246 32.1492L53.3011 31.5736ZM41.5005 47.1581C48.0746 47.1923 53.6997 46.0439 55.0959 44.468C53.9118 43.1316 49.6744 42.1 44.3934 41.8407L44.3934 45.1063C43.4587 45.1548 42.4897 45.1804 41.5034 45.1804C40.5172 45.1804 39.5624 45.1519 38.645 45.1006L38.645 41.8721C33.5847 42.177 29.6713 43.1971 28.599 44.468C29.8634 45.9698 35.0956 47.121 41.5034 47.1552L41.5005 47.1581Z" stroke="#141413" stroke-width="0.502857"/>
</g>
</g>
<path d="M77.0525 17.9635C76.8494 18.01 76.5356 18.1614 76.3375 18.2388C73.6506 19.2894 72.5297 22.8449 73.8338 26.1804C75.1379 29.5158 78.3733 31.3681 81.0602 30.3175C81.3366 30.2095 82.0902 29.939 82.3325 29.7809" stroke="#141413" stroke-width="0.502857" stroke-linecap="round" stroke-linejoin="bevel"/>
<path d="M75.1202 25.6487C76.4216 28.9795 79.5024 30.887 82.0013 29.9093C84.5002 28.9316 85.471 25.4389 84.1695 22.1081C82.8681 18.7773 79.7873 16.8698 77.2884 17.8475C74.7895 18.8252 73.8187 22.3179 75.1202 25.6487Z" stroke="#141413" stroke-width="0.502857" stroke-linecap="round" stroke-linejoin="bevel"/>
<path d="M78.8308 21.5924L80.0729 23.5163L82.1199 23.4761L80.4435 24.4336L80.8469 26.5822L79.6048 24.6584L77.5578 24.6985L79.2342 23.741L78.8308 21.5924Z" fill="#141413"/>
<path d="M21.3745 59.9843C21.7817 60.1147 22.1779 60.2878 22.5587 60.5053C26.2057 62.5882 27.0615 67.955 24.47 72.4924C21.8786 77.0298 16.6621 79.0821 13.0151 76.9992C12.7726 76.8607 12.5424 76.7077 12.3248 76.5414" stroke="#141413" stroke-width="0.502857" stroke-linecap="round" stroke-linejoin="bevel"/>
<path d="M22.7043 71.598C20.1177 76.1292 15.2653 78.2278 11.8661 76.2853C8.46685 74.3429 7.80803 69.095 10.3946 64.5638C12.9811 60.0326 17.8335 57.934 21.2328 59.8765C24.632 61.8189 25.2908 67.0668 22.7043 71.598Z" stroke="#141413" stroke-width="0.502857" stroke-linecap="round" stroke-linejoin="bevel"/>
<path d="M18.2416 64.8274L16.0399 67.3404L13.0937 66.8473L15.3099 68.5858L14.271 71.6014L16.4728 69.0884L19.419 69.5815L17.2028 67.843L18.2416 64.8274Z" fill="#141413"/>
</g>
<defs>
<clipPath id="clip0_2668_3805">
<rect width="88" height="88" fill="white"/>
</clipPath>
<clipPath id="clip1_2668_3805">
<rect width="27.4057" height="25.8971" fill="white" transform="translate(28.1602 31.4285)"/>
</clipPath>
</defs>
</svg>
