<svg width="88" height="88" viewBox="0 0 88 88" fill="none" xmlns="http://www.w3.org/2000/svg">
<path d="M32.2396 66.6643V62.5286H75.3848V68.5543V68.8666C75.3848 71.2926 73.4181 73.2592 70.9921 73.2592V73.2592" stroke="#141413" stroke-width="0.502857" stroke-linecap="round"/>
<path d="M71.9365 66.9681H28.4943V70.1966C28.4943 74.1097 25.322 77.2819 21.4089 77.2819V77.2819H63.8908C68.3343 77.2819 71.9365 73.6797 71.9365 69.2362V66.9681Z" stroke="#141413" stroke-width="0.502857" stroke-linecap="round"/>
<line x1="28.1616" y1="22.4067" x2="58.5844" y2="22.4067" stroke="#141413" stroke-width="0.502857" stroke-linecap="round"/>
<line x1="28.1616" y1="30.0546" x2="58.5844" y2="30.0546" stroke="#141413" stroke-width="0.502857" stroke-linecap="round"/>
<line x1="28.1616" y1="37.7028" x2="49.2816" y2="37.7028" stroke="#141413" stroke-width="0.502857" stroke-linecap="round"/>
<line x1="28.1616" y1="45.351" x2="49.2816" y2="45.351" stroke="#141413" stroke-width="0.502857" stroke-linecap="round"/>
<path d="M27.752 73.2595H24.6536C21.3631 73.2595 19.604 71.3692 19.4995 69.2409V68.1561M67.0656 62.4346V10.7189H19.4883V68.1561" stroke="#141413" stroke-width="0.502857" stroke-linecap="round"/>
<path d="M54.6201 77.2824H21.8771C17.7807 77.2824 14.46 73.9616 14.46 69.8652V14.7417H19.4419" stroke="#141413" stroke-width="0.502857" stroke-linecap="round"/>
</svg>
