<svg width="32" height="32" viewBox="0 0 32 32" fill="none" xmlns="http://www.w3.org/2000/svg">
<rect width="32" height="32" fill="white"/>
<path d="M17.6289 5.92578C19.3103 5.92578 20.7841 6.27561 22.0498 6.97461C23.3155 7.67361 24.2981 8.65613 24.9971 9.92188C25.1923 10.2701 25.3593 10.6326 25.5 11.0088L22.5186 12.7568C22.295 11.8076 21.8667 11.0132 21.2285 10.375C20.265 9.37373 18.9138 8.87305 17.1758 8.87305C15.6267 8.87306 14.2471 9.27003 13.0381 10.0635C11.8481 10.838 10.9228 11.8867 10.2617 13.209C9.60062 14.5313 9.26958 15.9856 9.26953 17.5723C9.26953 19.2914 9.75136 20.6521 10.7148 21.6533C11.6972 22.6546 13.0484 23.1553 14.7676 23.1553C16.3165 23.1552 17.6859 22.7582 18.876 21.9648C19.2107 21.7452 19.5237 21.5043 19.8164 21.2441L21.2168 23.9766C20.9298 24.177 20.632 24.3673 20.3213 24.5439C18.5455 25.5641 16.5426 26.0742 14.3135 26.0742C12.6513 26.0742 11.1875 25.7242 9.92188 25.0254C8.65612 24.3264 7.67361 23.3439 6.97461 22.0781C6.27561 20.8124 5.92578 19.3763 5.92578 17.7705C5.92585 15.5227 6.42663 13.5016 7.42773 11.707C8.44789 9.89341 9.84624 8.47621 11.6221 7.45605C13.4166 6.43606 15.4188 5.92584 17.6289 5.92578ZM25.9795 13.0273C26.0234 13.407 26.0459 13.798 26.0459 14.2002C26.0459 16.4483 25.5357 18.4794 24.5156 20.293C24.0283 21.1756 23.4458 21.9635 22.7705 22.6582L21.21 19.6143C21.3794 19.352 21.538 19.0783 21.6816 18.791C22.2843 17.6024 22.6189 16.3247 22.6875 14.958L25.9795 13.0273Z" fill="black"/>
</svg>
