<svg width="136" height="36" viewBox="0 0 136 36" fill="none" xmlns="http://www.w3.org/2000/svg">
<path d="M20.9111 0C23.9152 3.51864e-05 26.5481 0.62515 28.8096 1.87402C31.071 3.12293 32.8263 4.87819 34.0752 7.13965C34.4241 7.76197 34.7242 8.40966 34.9756 9.08203L29.6504 12.2041C29.2509 10.5081 28.4812 9.08958 27.3408 7.94922C25.6194 6.16042 23.2058 5.26562 20.1006 5.26562C17.3328 5.26567 14.8682 5.97493 12.708 7.39258C10.5818 8.77645 8.92838 10.6501 7.74707 13.0127C6.56576 15.3754 5.97467 17.9744 5.97461 20.8096C5.97463 23.881 6.83533 26.3116 8.55664 28.1006C10.3118 29.8895 12.7253 30.7841 15.7969 30.7842C18.5646 30.7842 21.0122 30.0758 23.1387 28.6582C23.7364 28.2659 24.2965 27.8367 24.8193 27.3721L27.3223 32.2539C26.8096 32.6119 26.2758 32.9501 25.7207 33.2656C22.548 35.0882 18.97 35.999 14.9873 35.999C12.0171 35.999 9.40111 35.3748 7.13965 34.126C4.87818 32.8771 3.12293 31.1218 1.87402 28.8604C0.625107 26.5988 0 24.0332 0 21.1641C3.71474e-05 17.1474 0.894642 13.5357 2.68359 10.3291C4.50629 7.08876 7.00396 4.55711 10.1768 2.73438C13.3834 0.911648 16.9619 1.02601e-05 20.9111 0Z" fill="black"/>
<path d="M54.7822 8.21094C57.4585 8.21094 59.5506 8.8741 61.0576 10.1992C62.5904 11.5243 63.448 13.4084 63.6299 15.8506H57.7441C57.5883 14.9153 57.1856 14.1876 56.5361 13.668C55.8866 13.1223 55.0161 12.8496 53.9248 12.8496C52.3659 12.8496 51.0274 13.4213 49.9102 14.5645C48.8192 15.6816 48.0923 17.2793 47.7285 19.3574C47.5986 20.0849 47.5332 20.7089 47.5332 21.2285C47.5332 22.7094 47.8967 23.8528 48.624 24.6582C49.3515 25.4376 50.3651 25.8271 51.6641 25.8271C53.8466 25.8271 55.4578 24.8399 56.4971 22.8652H62.3828C61.3695 25.2036 59.8489 27.0614 57.8223 28.4385C55.8216 29.8156 53.509 30.5049 50.8848 30.5049C48.1567 30.5048 45.9738 29.738 44.3369 28.2051C42.7262 26.6462 41.921 24.5416 41.9209 21.8916C41.9209 21.0861 41.9984 20.2408 42.1543 19.3574C42.5441 17.1231 43.3371 15.1745 44.5322 13.5117C45.7274 11.8229 47.2088 10.5236 48.9756 9.61426C50.7683 8.67902 52.7038 8.21096 54.7822 8.21094Z" fill="black"/>
<path fill-rule="evenodd" clip-rule="evenodd" d="M77.4092 8.21094C79.0201 8.21094 80.3716 8.53598 81.4629 9.18555C82.5799 9.83503 83.3983 10.6535 83.918 11.6406L84.4639 8.5625H89.959L86.1396 30.1533H80.6445L81.2285 26.9971C80.3711 28.0103 79.2539 28.8548 77.877 29.5303C76.5259 30.1798 75.0445 30.5049 73.4336 30.5049C71.8488 30.5048 70.4457 30.1536 69.2246 29.4521C68.0035 28.7247 67.0554 27.7112 66.3799 26.4121C65.7044 25.0871 65.3662 23.5542 65.3662 21.8135C65.3662 21.0081 65.4438 20.1635 65.5996 19.2803C65.9894 17.0977 66.7562 15.1615 67.8994 13.4727C69.0686 11.7838 70.4846 10.4846 72.1475 9.5752C73.8103 8.66581 75.5644 8.21095 77.4092 8.21094ZM77.9941 13.0049C76.981 13.0049 75.9934 13.2516 75.0322 13.7451C74.0969 14.2388 73.2777 14.9664 72.5762 15.9277C71.8746 16.8631 71.4077 17.9811 71.1738 19.2803C71.0959 19.7737 71.0567 20.2411 71.0566 20.6826C71.0566 22.2416 71.4984 23.4763 72.3818 24.3857C73.2652 25.269 74.3824 25.7109 75.7334 25.7109C76.7467 25.7109 77.734 25.4634 78.6953 24.9697C79.6565 24.4502 80.4749 23.7101 81.1504 22.749C81.8519 21.7877 82.3199 20.6566 82.5537 19.3574C82.6576 18.6822 82.7099 18.1887 82.71 17.877C82.71 16.344 82.2551 15.1484 81.3457 14.291C80.4624 13.4337 79.3451 13.0049 77.9941 13.0049Z" fill="black"/>
<path d="M101.992 8.21094C103.629 8.21098 105.071 8.48371 106.318 9.0293C107.565 9.57493 108.527 10.3418 109.202 11.3291C109.904 12.2904 110.254 13.3946 110.254 14.6416C110.254 14.9534 110.242 15.1879 110.216 15.3438H105.148C105.226 14.4344 104.967 13.7068 104.369 13.1611C103.772 12.6155 102.901 12.3428 101.758 12.3428C100.822 12.3428 100.056 12.5501 99.458 12.9658C98.8605 13.3555 98.5625 13.889 98.5625 14.5645C98.5626 15.2398 98.8998 15.7986 99.5752 16.2402C100.251 16.6559 101.29 17.1229 102.693 17.6426C104.096 18.1882 105.213 18.6954 106.045 19.1631C106.902 19.6048 107.643 20.2287 108.267 21.0342C108.89 21.8136 109.202 22.801 109.202 23.9961C109.202 25.3211 108.8 26.4776 107.994 27.4648C107.189 28.4521 106.084 29.205 104.681 29.7246C103.278 30.2442 101.693 30.5049 99.9258 30.5049C98.341 30.5048 96.8986 30.2442 95.5996 29.7246C94.3267 29.179 93.313 28.4382 92.5596 27.5029C91.8323 26.5417 91.4688 25.4505 91.4688 24.2295C91.4688 24.0476 91.4949 23.7486 91.5469 23.333H96.8477C96.7697 24.2424 97.0424 24.9831 97.666 25.5547C98.2895 26.1001 99.1725 26.373 100.315 26.373C101.355 26.373 102.213 26.1909 102.889 25.8271C103.59 25.4374 103.94 24.8787 103.94 24.1514C103.94 23.5019 103.615 22.9825 102.966 22.5928C102.342 22.2031 101.342 21.7612 99.9648 21.2676C98.5879 20.7739 97.4445 20.2929 96.5352 19.8252C95.626 19.3576 94.8467 18.7082 94.1973 17.877C93.5477 17.0455 93.2227 15.9929 93.2227 14.7197C93.2227 13.4467 93.5861 12.3164 94.3135 11.3291C95.067 10.3418 96.1065 9.57493 97.4316 9.0293C98.7568 8.48367 100.277 8.21094 101.992 8.21094Z" fill="black"/>
<path d="M121.553 11.2129C122.436 10.3035 123.502 9.58898 124.749 9.06934C126.022 8.5237 127.361 8.25098 128.764 8.25098C130.894 8.25102 132.583 8.86104 133.83 10.082C135.103 11.3032 135.74 13.019 135.74 15.2275C135.74 16.0587 135.675 16.8119 135.545 17.4873L133.284 30.1543H127.867L129.972 18.2285C130.05 17.7609 130.089 17.3059 130.089 16.8643C130.089 15.5652 129.738 14.5779 129.036 13.9023C128.361 13.2268 127.386 12.8887 126.113 12.8887C124.658 12.8887 123.423 13.3305 122.41 14.2139C121.397 15.0712 120.722 16.3054 120.384 17.916L118.201 30.1543H112.706L117.812 1.31348H123.307L121.553 11.2129Z" fill="black"/>
<path d="M35.8311 12.6885C35.9095 13.3671 35.9482 14.0663 35.9482 14.7852C35.9482 18.8018 35.0365 22.4306 33.2139 25.6709C32.3431 27.2481 31.3043 28.6571 30.0977 29.8984L27.3105 24.4609C27.6137 23.9919 27.8945 23.501 28.1514 22.9873C29.2284 20.8631 29.8278 18.5791 29.9502 16.1367L35.8311 12.6885Z" fill="black"/>
</svg>
