<svg width="64" height="64" viewBox="0 0 64 64" fill="none" xmlns="http://www.w3.org/2000/svg">
<rect width="64" height="64" rx="32" fill="#F5F5F5"/>
<path d="M39.3826 15.0928L39.5676 15.2435L46.7438 22.4223C46.9627 22.641 47.098 22.9295 47.126 23.2377C47.154 23.5459 47.073 23.8541 46.8971 24.1087L46.7438 24.291L25.3606 45.6689L27.4381 45.6742C29.3412 45.4548 30.5571 44.5139 31.2549 42.7192C31.3376 42.5062 31.4742 42.3182 31.6512 42.1738C31.8283 42.0293 32.0397 41.9332 32.265 41.8948C32.4903 41.8565 32.7216 41.8772 32.9365 41.955C33.1514 42.0328 33.3424 42.1649 33.491 42.3385C35.5527 44.7438 37.8548 45.6557 40.5641 45.1614L40.9236 45.0821L41.2143 44.9262C41.7747 44.6037 42.2584 44.2575 42.668 43.8821L42.8451 43.7051L42.4698 43.4513C40.083 41.7888 38.7958 40.0786 38.6425 38.2522L38.6293 37.8848C38.6293 35.5535 40.0037 33.9941 41.9808 33.7351C43.7253 33.5025 45.5464 34.3641 46.1306 35.9183C47.0213 38.2813 47.2064 40.4064 46.6962 42.2487L46.5165 42.7985L46.5429 42.8117C47.2909 43.2055 48.1209 43.6046 49.0301 44.0064L49.7279 44.3103C50.0504 44.4481 50.3049 44.7083 50.4355 45.0337C50.5662 45.3591 50.5622 45.7231 50.4244 46.0456C50.2867 46.368 50.0264 46.6226 49.701 46.7532C49.3756 46.8838 49.0116 46.8798 48.6892 46.742C47.7323 46.3324 46.8416 45.9227 46.0196 45.513L45.1738 45.0795L44.8804 45.4099C44.1745 46.1362 43.3659 46.7552 42.4804 47.2469L41.994 47.5112L41.698 47.6222C38.5579 48.3835 35.7086 47.7517 33.2531 45.7826L32.8038 45.4046L32.743 45.4945C31.6778 46.9641 30.1447 47.8892 28.1439 48.2301L27.5888 48.3094H15.2294C15.127 48.3089 15.025 48.2965 14.9254 48.2724C14.6113 48.2463 14.3169 48.1089 14.095 47.8851C13.8731 47.6612 13.7383 47.3656 13.7148 47.0513L13.7201 46.8028L14.6637 38.683C14.6893 38.4621 14.7702 38.2512 14.899 38.0698L15.0417 37.9007L37.6963 15.2435C37.9153 15.025 38.204 14.8902 38.5121 14.8627C38.8203 14.8351 39.1283 14.9166 39.3826 15.0928ZM33.7262 22.9457L17.2329 39.439L16.5377 45.4443L22.543 44.7491L39.0337 28.2558L33.7262 22.9457ZM42.557 36.3359L42.3271 36.3518C41.661 36.439 41.2698 36.8804 41.2698 37.8848C41.2698 38.802 42.0575 39.8778 43.6619 41.054L44.1773 41.4134L44.2196 41.2628C44.4654 40.1394 44.3359 38.8443 43.8363 37.3509L43.6566 36.8487C43.5614 36.5923 43.0883 36.3412 42.557 36.3359ZM38.6319 18.0452L35.5949 21.0796L40.9051 26.3897L43.9394 23.3554L38.6319 18.0479V18.0452Z" fill="#141413"/>
</svg>
