<svg width="120" height="120" viewBox="0 0 120 120" fill="none" xmlns="http://www.w3.org/2000/svg">
<rect width="120" height="120" fill="#1C2925"/>
<mask id="mask0_26393_2627" style="mask-type:luminance" maskUnits="userSpaceOnUse" x="14" y="24" width="91" height="73">
<path d="M104.999 24.4677H14.6719V96.2273H104.999V24.4677Z" fill="white"/>
</mask>
<g mask="url(#mask0_26393_2627)">
<path d="M69.3684 24.4677H50.3014C48.105 24.4677 46.104 25.7361 45.1511 27.73L35.4032 48.1313C34.1835 50.6825 36.0274 53.6423 38.8382 53.6423H51.9926C53.8222 53.6423 55.4897 52.5854 56.2854 50.9229L59.8348 43.4946L78.0205 81.5486L53.4506 63.617C52.4739 62.906 51.3018 62.5215 50.0964 62.5215H32.1111C29.9146 62.5215 27.9136 63.79 26.9607 65.784L15.0546 90.7161C13.8349 93.2673 15.6787 96.2271 18.4897 96.2271H31.6441C33.4737 96.2271 35.1412 95.1702 35.9368 93.5077L45.6036 73.2795L72.2365 93.7143C74.3615 95.3431 76.9533 96.2271 79.6214 96.2271H101.185C103.996 96.2271 105.84 93.2673 104.62 90.7161L74.5187 27.73C73.5658 25.7361 71.5647 24.4677 69.3684 24.4677Z" fill="#D7FE51"/>
</g>
</svg>
