<svg width="80" height="80" viewBox="0 0 80 80" fill="none" xmlns="http://www.w3.org/2000/svg">
<g clip-path="url(#clip0_13537_23126)">
<rect width="80" height="80" rx="40" fill="black"/>
<rect width="80" height="80" fill="black"/>
<path fill-rule="evenodd" clip-rule="evenodd" d="M42.2988 17.9522L49.6452 25.2984C49.6875 25.3407 49.6875 25.4094 49.6452 25.4517L31.7083 43.3885C31.64 43.4567 31.5232 43.4084 31.5232 43.3118V24.1751C31.5232 24.1463 31.5346 24.1187 31.555 24.0983L37.7011 17.9522C38.9708 16.6826 41.0292 16.6826 42.2988 17.9522ZM43.6475 40.7981C43.6052 40.7557 43.6052 40.6871 43.6475 40.6448L54.243 30.0495C54.2853 30.0071 54.3538 30.0071 54.3961 30.0495L62.0478 37.7011C63.3174 38.9707 63.3174 41.0292 62.0478 42.2989L53.6747 50.672C53.6324 50.7143 53.5637 50.7143 53.5214 50.672L43.6475 40.7981ZM39.0497 45.3959C39.0074 45.3535 38.9389 45.3535 38.8966 45.3959L30.0495 54.2429C30.0072 54.2852 30.0072 54.3538 30.0495 54.3962L37.7011 62.0477C38.9708 63.3174 41.0292 63.3174 42.2988 62.0477L48.9236 55.4231C48.9659 55.3808 48.9659 55.3121 48.9236 55.2698L39.0497 45.3959ZM25.0209 30.8941C25.0209 30.7975 24.9042 30.7491 24.8359 30.8174L17.9522 37.7011C16.6826 38.9707 16.6826 41.0292 17.9522 42.2989L24.8359 49.1825C24.9042 49.2508 25.0209 49.2025 25.0209 49.106V30.8941Z" fill="url(#paint0_linear_13537_23126)"/>
</g>
<rect x="0.5" y="0.5" width="79" height="79" rx="39.5" stroke="white" stroke-opacity="0.1"/>
<defs>
<linearGradient id="paint0_linear_13537_23126" x1="21.7703" y1="21.2434" x2="41.4838" y2="43.3361" gradientUnits="userSpaceOnUse">
<stop offset="0.839326" stop-color="#26E5F1"/>
<stop offset="0.9375" stop-color="#389AFF"/>
</linearGradient>
<clipPath id="clip0_13537_23126">
<rect width="80" height="80" rx="40" fill="white"/>
</clipPath>
</defs>
</svg>
