<svg width="28" height="28" viewBox="0 0 28 28" fill="none" xmlns="http://www.w3.org/2000/svg">
<rect width="28" height="28" rx="14" fill="#96DD37"/>
<path d="M16.2583 11.3854H11.7596C11.5687 11.3854 11.4121 11.5419 11.4121 11.7329V16.2315C11.4121 16.4225 11.5687 16.579 11.7596 16.579H16.2583C16.4492 16.579 16.6058 16.4225 16.6058 16.2315V11.7329C16.6058 11.5419 16.4492 11.3854 16.2583 11.3854Z" fill="black"/>
<path d="M11.0649 6.20947H6.56625C6.37529 6.20947 6.21875 6.36602 6.21875 6.55698V11.0556C6.21875 11.2466 6.37529 11.4031 6.56625 11.4031H11.0649C11.2559 11.4031 11.4124 11.2466 11.4124 11.0556V6.55698C11.4113 6.36602 11.2559 6.20947 11.0649 6.20947Z" fill="black"/>
<path d="M21.4331 6.20947H16.9344C16.7435 6.20947 16.5869 6.36602 16.5869 6.55698V11.0556C16.5869 11.2466 16.7435 11.4031 16.9344 11.4031H21.4331C21.624 11.4031 21.7806 11.2466 21.7806 11.0556V6.55698C21.7806 6.36602 21.624 6.20947 21.4331 6.20947Z" fill="black"/>
<path d="M11.0649 16.5613H6.56625C6.37529 16.5613 6.21875 16.7178 6.21875 16.9088V21.4074C6.21875 21.5984 6.37529 21.7549 6.56625 21.7549H11.0649C11.2559 21.7549 11.4124 21.5984 11.4124 21.4074V16.9088C11.4113 16.7178 11.2559 16.5613 11.0649 16.5613Z" fill="black"/>
<path d="M21.4331 16.5613H16.9344C16.7435 16.5613 16.5869 16.7178 16.5869 16.9088V21.4074C16.5869 21.5984 16.7435 21.7549 16.9344 21.7549H21.4331C21.624 21.7549 21.7806 21.5984 21.7806 21.4074V16.9088C21.7806 16.7178 21.624 16.5613 21.4331 16.5613Z" fill="black"/>
</svg>
