<svg width="337" height="58" viewBox="0 0 337 58" fill="none" xmlns="http://www.w3.org/2000/svg">
<path d="M49.3131 17.0696L27.5477 4.50293L16.5518 23.353L49.3131 17.0696Z" fill="#35BDF6"/>
<path d="M27.5478 4.50293L5.78223 17.0696L16.5518 23.353L27.5478 4.50293Z" fill="#00EDED"/>
<path d="M5.78223 17.0693V42.2026L16.5518 23.3526L5.78223 17.0693Z" fill="#00D3D3"/>
<path d="M49.3132 42.2026L27.5478 54.7694L23.1494 42.2026L49.3132 17.0693V42.2026Z" fill="#3196E0"/>
<path d="M16.5518 23.3535L5.77588 42.2035L27.5413 54.7701L16.5518 23.3535Z" fill="#5548FF"/>
<path fill-rule="evenodd" clip-rule="evenodd" d="M66.2153 45.2135V13.5332H74.5411C78.7691 13.5332 82.8459 14.5188 85.8904 17.1799C88.9963 19.8947 90.6235 23.9955 90.6235 29.3491C90.6235 34.6941 89.0173 38.8054 85.9221 41.5352C82.8844 44.2143 78.8033 45.2135 74.5411 45.2135H66.2153ZM71.2314 18.5493V40.1974H74.5411C78.105 40.1974 80.8112 39.3544 82.6043 37.7732C84.3396 36.2427 85.6075 33.6759 85.6075 29.3491C85.6075 25.0308 84.3295 22.4777 82.5893 20.9567C80.7873 19.3816 78.0769 18.5493 74.5411 18.5493H71.2314ZM142.776 45.2135V13.5596H153.604C157.064 13.5596 159.861 14.6265 161.782 16.6408C163.677 18.6278 164.433 21.2372 164.433 23.788C164.433 26.3387 163.677 28.948 161.782 30.9352C159.861 32.9494 157.064 34.0163 153.604 34.0163H147.792V45.2135H142.776ZM147.792 18.5756V29.0004H153.604C156.018 29.0004 157.381 28.2819 158.152 27.4733C158.949 26.6378 159.417 25.3868 159.417 23.788C159.417 22.189 158.949 20.9382 158.152 20.1024C157.381 19.2941 156.018 18.5756 153.604 18.5756H147.792ZM95.2556 13.5596H114.296V18.5756H100.272V26.8917H113.496V31.9078H100.272V40.2239H114.296V45.2398H95.2556V13.5596ZM119.016 45.2398V13.5596H138.056V18.5756H124.032V26.8917H137.256V31.9078H124.032V40.2239H138.056V45.2398H119.016ZM250.489 13.5333V45.2135H255.504V13.5332L250.489 13.5333ZM236.235 13.5333L247.565 45.2135H242.238L239.559 37.7225H229.473L226.794 45.2135H221.467L232.797 13.5333H236.235ZM237.765 32.7064L234.517 23.621L231.267 32.7064H237.765ZM262.897 45.2135V13.5333H268.766L283.489 37.11V13.5332H288.504V45.2135H282.635L267.912 21.6365V45.2135H262.897ZM219.707 45.2135L212.689 32.9313C213.78 32.501 214.761 31.9062 215.607 31.1297C217.677 29.2267 218.558 26.5747 218.558 23.6894C218.558 20.804 217.677 18.152 215.607 16.249C213.568 14.3755 210.733 13.5597 207.489 13.5597H196.897V45.2065H201.912V33.8191H207.418L213.931 45.2135H219.707ZM201.912 28.803V18.5758H207.489C209.95 18.5758 211.397 19.1936 212.212 19.9424C212.995 20.6616 213.541 21.8205 213.541 23.6894C213.541 25.5582 212.995 26.717 212.212 27.4363C211.397 28.1851 209.95 28.803 207.489 28.803H201.912ZM188.017 28.8389C189.437 27.1485 190.094 24.969 190.094 22.6941C190.094 20.2759 189.351 17.9651 187.74 16.2353C186.107 14.481 183.798 13.5597 181.148 13.5597H169.176V45.0816H180.84C183.613 45.0816 186.263 44.42 188.278 42.8622C190.374 41.2416 191.541 38.8332 191.541 35.9471C191.541 33.0611 190.374 30.6526 188.278 29.0321C188.193 28.9661 188.106 28.9018 188.017 28.8389ZM174.192 31.8286V40.0655H180.84C182.886 40.0655 184.334 39.5705 185.21 38.8933C186.005 38.2791 186.526 37.3743 186.526 35.9471C186.526 34.52 186.005 33.6152 185.21 33.0007C184.334 32.3238 182.886 31.8286 180.84 31.8286H174.192ZM174.192 26.8127V18.5758H181.148C182.6 18.5758 183.51 19.0528 184.07 19.6542C184.653 20.2802 185.079 21.2827 185.079 22.6941C185.079 24.1055 184.653 25.108 184.07 25.734C183.51 26.3356 182.6 26.8127 181.148 26.8127H174.192Z" fill="#12102D"/>
<path fill-rule="evenodd" clip-rule="evenodd" d="M330.74 13.5343V45.2145H335.755V13.5342L330.74 13.5343ZM316.487 13.5343L327.816 45.2145H322.49L319.811 37.7234H309.724L307.045 45.2145H301.718L313.048 13.5343H316.487ZM314.769 23.6206L311.519 32.7059H318.017L314.769 23.6206Z" fill="#12102D"/>
</svg>
