<svg width="235" height="38" viewBox="0 0 235 38" fill="none" xmlns="http://www.w3.org/2000/svg">
<g clip-path="url(#clip0_30011_975)">
<path d="M9.94519 9.0606V18.1212C4.90767 18.1212 0.762207 14.0307 0.762207 9.0606C0.762207 4.09047 4.90767 0 9.94519 0C14.9827 0 19.1282 4.09047 19.1282 9.0606H9.94519Z" fill="black"/>
<path d="M26.7372 28.4141V37.4747C21.6997 37.4747 17.5542 33.3843 17.5542 28.4141C17.5542 23.444 21.6997 19.3535 26.7372 19.3535C31.7747 19.3535 35.9202 23.444 35.9202 28.4141H26.7372Z" fill="black"/>
<path d="M26.7369 17.8571L36.1822 0.263672H17.2915L26.7369 17.8571Z" fill="black"/>
<path d="M9.94536 37.2106L19.3907 19.6172H0.5L9.94536 37.2106Z" fill="black"/>
<path d="M68.4508 37.2083H54.5469V0.265625H68.4508C79.5211 0.265625 86.2903 7.17983 86.2903 18.7369C86.2903 30.294 79.5211 37.2083 68.4508 37.2083ZM67.9261 31.4024C75.8497 31.4024 79.4686 26.9689 79.4686 18.7369C79.4686 10.505 75.8479 6.07145 67.9261 6.07145H61.3668V31.4042H67.9261V31.4024Z" fill="black"/>
<path d="M102.031 38.0002C93.3723 38.0002 87.8643 31.7194 87.8643 23.4874C87.8643 15.2555 93.479 8.97461 101.873 8.97461C108.852 8.97461 112.996 12.6692 114.728 18.1584C115.357 20.2168 115.62 22.4863 115.62 24.8087V25.8643H94.6317C94.7891 29.295 97.3603 32.9896 102.031 32.9896C105.599 32.9896 107.435 30.984 108.065 29.295H115.097C113.575 34.098 109.167 38.0037 102.032 38.0037L102.031 38.0002ZM94.6317 20.8484H108.85C108.693 17.2066 106.227 13.987 101.871 13.987C97.516 13.987 95.0497 17.2066 94.6299 20.8484H94.6317Z" fill="black"/>
<path d="M121.551 9.76562L125.329 20.3199C126.536 23.4867 127.48 27.1286 128.268 30.0825H128.477C129.265 27.1268 130.209 23.485 131.416 20.3199L135.194 9.76562H142.121L131.628 37.2078H125.121L114.626 9.76562H121.553H121.551Z" fill="black"/>
<path d="M186.372 38.0002C177.714 38.0002 172.206 31.7194 172.206 23.4874C172.206 15.2555 177.821 8.97461 186.215 8.97461C193.194 8.97461 197.339 12.6692 199.069 18.1584C199.699 20.2168 199.961 22.4863 199.961 24.8087V25.8643H178.973C179.131 29.295 181.702 32.9896 186.372 32.9896C189.941 32.9896 191.777 30.984 192.407 29.295H199.438C197.917 34.098 193.509 38.0037 186.374 38.0037L186.372 38.0002ZM178.973 20.8484H193.192C193.035 17.2066 190.569 13.987 186.213 13.987C181.858 13.987 179.393 17.2066 178.972 20.8484H178.973Z" fill="black"/>
<path d="M205.893 9.76562L209.671 20.3199C210.878 23.4867 211.822 27.1286 212.61 30.0825H212.819C213.607 27.1268 214.551 23.485 215.758 20.3199L219.536 9.76562H226.463L215.97 37.2078H209.463L198.97 9.76562H205.896H205.893Z" fill="black"/>
<path d="M161.461 22.3753H161.452C167.964 21.8457 172.147 17.5212 172.147 11.3477C172.147 4.75018 167.371 0.265625 160.079 0.265625H144.379V37.2083H151.201V22.4316H153.712L164.952 37.2083H173.009L161.463 22.3753H161.461ZM151.199 16.6257V6.07145H160.077C163.226 6.07145 165.325 8.18266 165.325 11.3495C165.325 14.5163 163.226 16.6275 160.077 16.6275H151.199V16.6257Z" fill="black"/>
<path d="M231.418 8.41211C233.108 8.41211 234.5 9.8143 234.5 11.5121C234.5 13.2098 233.106 14.612 231.418 14.612C229.73 14.612 228.336 13.2098 228.336 11.5121C228.336 9.8143 229.73 8.41211 231.418 8.41211ZM231.418 13.9751C232.768 13.9751 233.867 12.8703 233.867 11.5121C233.867 10.1539 232.768 9.04899 231.418 9.04899C230.068 9.04899 228.969 10.1539 228.969 11.5121C228.969 12.8703 230.068 13.9751 231.418 13.9751ZM231.797 11.8499C232.411 11.8006 232.805 11.3924 232.805 10.8101C232.805 10.189 232.355 9.76504 231.668 9.76504H230.188V13.2468H230.832V11.8534H231.068L232.128 13.2468H232.887L231.799 11.8481L231.797 11.8499ZM230.83 11.2253V10.2295H231.668C231.965 10.2295 232.163 10.4283 232.163 10.7274C232.163 11.0265 231.965 11.2253 231.668 11.2253H230.83Z" fill="black"/>
</g>
<defs>
<clipPath id="clip0_30011_975">
<rect width="234" height="38" fill="white" transform="translate(0.5)"/>
</clipPath>
</defs>
</svg>
