<svg width="245" height="76" viewBox="0 0 245 76" fill="none" xmlns="http://www.w3.org/2000/svg">
<g clip-path="url(#clip0_24281_4874)">
<path fill-rule="evenodd" clip-rule="evenodd" d="M26.3301 68.8508L0 53.645L26.3301 38.4443L52.6577 53.645L26.3276 68.8457L26.3301 68.8508Z" fill="black" fill-opacity="0.66"/>
<path fill-rule="evenodd" clip-rule="evenodd" d="M0 23.246L26.3301 8.04785V68.8506L0 53.6499V23.246Z" fill="black" fill-opacity="0.66"/>
<path fill-rule="evenodd" clip-rule="evenodd" d="M67.0625 21.459H70.9128V50.3365H85.7651V53.914H67.0625V21.459ZM114.322 41.536C114.322 43.3081 114.094 44.9887 113.634 46.5777C113.207 48.1684 112.503 49.5728 111.526 50.7958C110.578 51.9872 109.325 52.9506 107.766 53.6827C106.208 54.3865 104.315 54.7376 102.083 54.7376C99.8536 54.7376 97.9567 54.3865 96.3993 53.6827C94.8402 52.9506 93.5723 51.9872 92.5939 50.7958C91.6284 49.5372 90.9128 48.1054 90.4857 46.5777C90.0506 44.9327 89.8346 43.2375 89.8434 41.536V21.459H93.6954V40.9869C93.6954 42.3014 93.8318 43.5676 94.1064 44.7906C94.3826 46.0136 94.8402 47.0985 95.4825 48.0453C96.1247 48.9937 96.98 49.7558 98.0499 50.3365C99.1182 50.8873 100.463 51.1618 102.083 51.1618C103.702 51.1618 105.047 50.8873 106.117 50.3365C107.146 49.7924 108.027 49.006 108.684 48.0453C109.343 47.0566 109.809 45.9524 110.059 44.7906C110.335 43.5676 110.471 42.2997 110.471 40.9869V21.459H114.322V41.536ZM122.257 21.459H127.986L138.988 46.9005H139.079L150.173 21.459H155.763V53.9123H151.915V26.6837H151.822L140.179 53.9123H137.841L126.199 26.6837H126.107V53.9123H122.255V21.459H122.257ZM174.384 21.459H178.007L191.804 53.9123H187.312L184.012 45.9371H167.785L164.439 53.9123H160.083L174.384 21.459ZM176.127 26.4092H176.035L169.296 42.3613H182.544L176.127 26.4092ZM219.417 21.459H223.04L236.837 53.9123H232.344L229.045 45.9371H212.816L209.472 53.9123H205.116L219.417 21.459ZM221.159 26.4092H221.068L214.329 42.3613H227.577L221.159 26.4092ZM241.15 21.459H245V53.9123H241.15V21.459Z" fill="black"/>
</g>
<defs>
<clipPath id="clip0_24281_4874">
<rect width="245" height="74.2152" fill="white" transform="translate(0 0.892578)"/>
</clipPath>
</defs>
</svg>
