<svg width="169" height="36" viewBox="0 0 169 36" fill="none" xmlns="http://www.w3.org/2000/svg">
<path fill-rule="evenodd" clip-rule="evenodd" d="M57.7615 0.565674V34.9928V34.9947H63.0782V22.7432H76.8503C89.7164 22.7432 91.1043 14.9864 91.1043 11.6534C91.1043 8.32064 89.7164 0.565674 76.8542 0.565674H57.7615ZM75.8942 17.6317H63.0782V17.6298V5.67529H75.8942C82.5546 5.67529 85.3961 7.463 85.3961 11.6534C85.3961 15.8438 82.5546 17.6317 75.8942 17.6317ZM95.3259 0.565674H100.643V6.14978H95.3259V0.565674ZM95.3259 8.56536H100.643V34.9909H95.3259V8.56536ZM105.185 0.565674H110.502V18.8553L128.853 4.57852H136.219L116.952 19.2775L136.739 34.9909H129.024L110.498 20.4601V34.9909H105.181V0.565674H105.183H105.185ZM151.004 35.4342C146.287 35.4342 142.528 34.758 140.419 33.5287C138.061 32.1554 136.916 30.0293 136.916 27.0291C136.916 19.3807 144.872 18.3812 158.05 16.7278C159.808 16.5072 161.609 16.2813 163.504 16.0253C163.504 11.1604 160.755 9.43614 152.999 9.43614C146.58 9.43614 143.717 11.2858 143.717 15.4312H138.356C138.356 8.50198 143.831 4.36403 153.001 4.36403C163.915 4.36403 168.78 7.84252 168.78 15.6423V28.9813C168.78 32.4889 168.987 34.8418 168.999 34.9829V34.9831L169 34.9895H164.165L164.164 34.9751C164.15 34.8276 164.036 33.5598 164.165 31.58C162.65 33.8836 157.362 35.4323 151.008 35.4323L151.004 35.4342ZM163.504 20.5427C155.554 21.4358 149.957 22.1849 146.628 23.1562C143.538 24.0568 142.279 25.1664 142.279 26.9842C142.279 30.7133 147.114 31.27 149.994 31.27C154.698 31.27 157.873 30.7133 159.988 29.5195C162.353 28.1836 163.504 25.9531 163.504 22.7005V20.5427ZM17.4052 34.9908H1.23342C-2.24098 24.4165 1.30199 13.2887 15.9992 10.6218C17.6917 14.997 21.0311 17.1227 25.8429 17.2402V17.0524C18.9169 15.968 16.1548 11.5474 15.536 3.84022L33.9858 11.0702C42.0955 14.6086 44.5212 18.9755 44.7849 23.6626C44.7849 23.6626 37.3501 26.4245 35.4728 32.2661L38.6813 34.9888H18.732C17.9492 31.8096 16.0282 29.0333 10.6846 27.4077V27.5998C15.2682 29.5414 17.1434 32.3901 17.4052 34.9908Z" fill="#222222"/>
</svg>
