<svg width="159" height="80" viewBox="0 0 159 80" fill="none" xmlns="http://www.w3.org/2000/svg">
<g clip-path="url(#clip0_30011_988)">
<path fill-rule="evenodd" clip-rule="evenodd" d="M137.9 69.424L112.274 56H6.6998V14.4H152.3V56H137.9V69.424ZM0.299805 8V62.4H110.7L144.3 80V62.4H158.7V8H0.299805ZM13.0998 20.8H40.2998V35.1888L31.5222 38.6032L40.5078 49.6H32.2422L25.247 41.04L19.4998 43.2784V49.6H13.0998V20.8ZM53.0998 49.6H46.6998V20.8H75.4998V49.6H69.0998V40H53.0998V49.6ZM81.8998 38.4V20.8H110.7V27.2H88.2998V32H110.7V49.6H81.8998V43.2H104.3V38.4H81.8998ZM117.1 36.8V20.8H145.9V49.6H139.5V40H123.5V49.6H117.1V36.8ZM19.4998 36.4096L33.8998 30.8096V27.2H19.4998V36.4096ZM53.0998 27.2V33.6H69.0998V27.2H53.0998ZM123.5 33.6V27.2H139.5V33.6H123.5Z" fill="#5A17EE"/>
</g>
<defs>
<clipPath id="clip0_30011_988">
<rect width="158.4" height="80" fill="white" transform="translate(0.299805)"/>
</clipPath>
</defs>
</svg>
