<svg width="257" height="48" viewBox="0 0 257 48" fill="none" xmlns="http://www.w3.org/2000/svg">
<path d="M14.42 38.63C20.81 38.63 24.914 35.416 24.914 30.334C24.914 26.534 22.548 23.846 18.326 22.728L15.096 21.936L14.696 21.844C12.42 21.3 11.304 20.698 11.304 18.982C11.304 17.478 12.5 16.648 14.524 16.648C20.964 16.648 23.3 18.982 23.3 18.982V13.928L23.216 13.846C22.75 13.414 20.276 11.412 14.474 11.412C8.344 11.412 4.5 14.522 4.5 19.396C4.5 23.266 7.006 25.936 11.524 27.06L14.37 27.742C16.758 28.314 17.954 28.936 17.954 30.75C17.954 32.41 16.654 33.342 14.37 33.342C7.786 33.34 4.5 29.83 4.5 29.83V35.892L4.584 35.982C5.06 36.452 7.622 38.63 14.42 38.63ZM45.866 38.32V32.684L44.222 32.706C43.788 32.706 43.272 32.706 42.674 32.696L41.984 32.684C39.164 32.636 38.184 31.308 38.184 28.196V17.608H45.252V11.928H38.184V6.268H31.552V11.928H27.808V17.608H31.552V28.64C31.552 35.16 34.72 38.32 41.202 38.32H45.866ZM171.206 38.32V32.684L169.564 32.706C169.13 32.706 168.612 32.706 168.014 32.696L167.326 32.684C164.506 32.636 163.526 31.308 163.526 28.196V17.608H170.594V11.928H163.524V6.268H156.894V11.928H153.15V17.608H156.894V28.64C156.894 35.16 160.06 38.32 166.542 38.32H171.206ZM69.39 11.976V15.82C67.644 13 64.402 11.412 60.706 11.412C53.362 11.412 48.278 16.948 48.278 24.892C48.278 32.836 53.31 38.32 60.552 38.32C64.3 38.32 67.592 36.732 69.39 33.912V37.756H75.598V11.976H69.39ZM61.804 32.846C57.63 32.846 54.848 29.626 54.848 25.13C54.848 20.69 57.684 17.416 61.804 17.416C65.978 17.416 69.028 20.69 69.028 25.13C69.028 29.626 65.924 32.846 61.804 32.846ZM97.144 11.412C92.988 11.412 90.502 13.924 88.77 16.54V0.148H82.14V37.78H88.572V34.026C90.254 36.742 93.532 38.172 97.144 38.172C104.072 38.172 109.12 32.738 109.12 25.132C109.12 17.576 104.716 11.412 97.144 11.412ZM95.71 32.4C91.466 32.4 88.512 29.182 88.512 24.84C88.512 20.552 91.736 17.496 95.872 17.496C100.062 17.496 102.748 20.496 102.748 24.84C102.748 29.182 99.792 32.4 95.71 32.4ZM118.2 7.418C120.262 7.418 121.798 5.928 121.798 3.914C121.798 1.854 120.306 0.41 118.2 0.41C116.14 0.41 114.646 1.856 114.646 3.914C114.646 5.972 116.138 7.416 118.2 7.416V7.418ZM114.906 38.18H121.538V12.186H114.906V38.18ZM145.32 7.416C147.38 7.416 148.916 5.928 148.916 3.914C148.916 1.854 147.426 0.41 145.32 0.41C143.258 0.41 141.766 1.856 141.766 3.914C141.766 5.972 143.258 7.416 145.32 7.416ZM142.026 38.182H148.656V12.186H142.026V38.182ZM128.39 37.87H135.224V0H128.39V37.87ZM178.122 48H185.46L199.554 12.04H192.68L186.52 29.57L180.34 12.04H172.72L182.94 37.14L178.122 48ZM232.55 11.976V15.82C230.804 13 227.564 11.412 223.866 11.412C216.522 11.412 211.438 16.948 211.438 24.892C211.438 32.836 216.472 38.32 223.712 38.32C227.46 38.32 230.752 36.732 232.55 33.912V37.756H238.758V11.976H232.55ZM224.964 32.846C220.79 32.846 218.008 29.626 218.008 25.13C218.008 20.69 220.844 17.416 224.964 17.416C229.138 17.416 232.188 20.69 232.188 25.13C232.188 29.626 229.086 32.846 224.964 32.846ZM248.904 7.416C250.964 7.416 252.5 5.928 252.5 3.914C252.5 1.854 251.008 0.41 248.902 0.41C246.842 0.41 245.35 1.856 245.35 3.914C245.35 5.972 246.84 7.416 248.902 7.416H248.904ZM245.61 38.182H252.24V12.186H245.61V38.182Z" fill="url(#paint0_linear_30011_992)"/>
<path d="M203.47 38.5169C205.742 38.5169 207.434 36.8769 207.434 34.6569C207.434 32.3889 205.79 30.7969 203.47 30.7969C201.196 30.7969 199.554 32.3889 199.554 34.6569C199.554 36.9249 201.196 38.5169 203.47 38.5169Z" fill="#E80000"/>
<defs>
<linearGradient id="paint0_linear_30011_992" x1="12404.5" y1="0" x2="12404.5" y2="4800" gradientUnits="userSpaceOnUse">
<stop stop-color="#9D39FF"/>
<stop offset="1" stop-color="#A380FF"/>
</linearGradient>
</defs>
</svg>
