<svg width="171" height="34" viewBox="0 0 171 34" fill="none" xmlns="http://www.w3.org/2000/svg">
<path fill-rule="evenodd" clip-rule="evenodd" d="M24.5754 0.466879L1.74027 13.6507C-0.580089 14.9904 -0.58009 18.3395 1.74027 19.6792L24.5754 32.863C26.2401 33.8242 28.3687 33.2538 29.3299 31.5891L36.9416 18.4052C37.5633 17.3284 37.5633 16.0016 36.9415 14.9247L29.3299 1.74085C28.3687 0.0761211 26.2401 -0.494229 24.5754 0.466879ZM26.7846 30.1196C26.6351 30.3785 26.3039 30.4673 26.0449 30.3178L3.68854 17.4103L34.1223 17.4103L26.7846 30.1196ZM34.1222 15.9195L3.68873 15.9195L26.0449 3.01217C26.3039 2.86264 26.6351 2.95138 26.7846 3.21037L34.1222 15.9195ZM128.44 19.9004C128.44 15.4616 131.442 12.5373 135.254 12.5373C137.134 12.5373 139.119 13.425 140.215 14.7828V6.05454H143.218V27.1591H140.215V24.9919C139.301 26.2974 137.578 27.3941 135.228 27.3941C131.442 27.3941 128.44 24.3392 128.44 19.9004ZM140.215 19.9526C140.215 16.8716 138.1 15.1222 135.855 15.1222C133.635 15.1222 131.494 16.7933 131.494 19.9004C131.494 23.0075 133.635 24.8091 135.855 24.8091C138.1 24.8091 140.215 23.0597 140.215 19.9526ZM60.2705 6.27044V9.05895H50.1606V15.2991H59.371V18.0877H50.1606V24.3508H60.2705V27.1393H47.007V6.27044H60.2705ZM166.219 19.5871V27.1591H163.243V12.7723H166.219V14.8611C167.055 13.4251 168.491 12.5373 170.527 12.5373V15.6183H169.77C167.577 15.6183 166.219 16.5322 166.219 19.5871ZM149.243 18.6732C149.556 16.4016 151.175 15.0439 153.185 15.0439C155.405 15.0439 157.154 16.4539 157.206 18.6732H149.243ZM153.316 27.3941C156.841 27.3941 159.112 25.3836 159.922 22.877H156.71C156.162 23.9998 155.143 24.8875 153.316 24.8875C151.122 24.8875 149.425 23.4514 149.216 21.0754H160.209C160.287 20.5793 160.313 20.1093 160.313 19.6132C160.313 15.3833 157.415 12.5373 153.316 12.5373C149.06 12.5373 146.135 15.4356 146.135 19.9527C146.135 24.4697 149.19 27.3941 153.316 27.3941ZM122.684 19.1171V27.1591H125.635V18.6732C125.635 14.6523 123.102 12.5373 119.734 12.5373C118.011 12.5373 116.418 13.2423 115.452 14.4173V12.7723H112.475V27.1591H115.452V19.1171C115.452 16.48 116.888 15.1222 119.081 15.1222C121.248 15.1222 122.684 16.48 122.684 19.1171ZM93.7873 19.9004C93.7873 15.4617 96.79 12.5373 100.576 12.5373C103.004 12.5373 104.675 13.6862 105.563 14.8611V12.7723H108.566V27.1591H105.563V25.018C104.649 26.2452 102.926 27.3941 100.524 27.3941C96.79 27.3941 93.7873 24.3392 93.7873 19.9004ZM105.563 19.9527C105.563 16.8716 103.448 15.1222 101.203 15.1222C98.9832 15.1222 96.8422 16.7933 96.8422 19.9004C96.8422 23.0076 98.9832 24.8092 101.203 24.8092C103.448 24.8092 105.563 23.0598 105.563 19.9527ZM85.0734 12.5373C82.7234 12.5373 80.974 13.6862 80.0602 14.8873V12.7723H77.0836V34H80.0602V25.0703C81.0002 26.193 82.6973 27.3941 85.0734 27.3941C88.8594 27.3941 91.8359 24.3392 91.8359 19.9004C91.8359 15.4617 88.8594 12.5373 85.0734 12.5373ZM84.4206 15.1222C86.6661 15.1222 88.8071 16.7933 88.8071 19.9004C88.8071 23.0076 86.6661 24.8092 84.4206 24.8092C82.2012 24.8092 80.0602 23.0598 80.0602 19.9527C80.0602 16.8716 82.2012 15.1222 84.4206 15.1222ZM71.4954 27.1592L68.3883 22.2766L65.4639 27.1592H62.3568L67.0044 20.0833L62.3568 12.7724H65.725L68.8322 17.6551L71.7565 12.7724H74.8636L70.216 19.8744L74.8636 27.1592H71.4954Z" fill="black"/>
</svg>
