<svg width="120" height="120" viewBox="0 0 120 120" fill="none" xmlns="http://www.w3.org/2000/svg">
<path d="M92.5757 27.956C87.6217 23.485 82.0877 20.15 76.2154 17.8783L81.7494 3.49878C61.9333 -4.11388 38.6373 0.767888 23.5819 17.4432C17.3229 24.3792 13.263 32.5236 11.3297 41.0063C7.19732 59.0591 12.7313 78.7554 27.4484 92.0232C32.4024 96.4941 37.9848 99.8534 43.8813 102.125L38.3473 116.529C58.1392 124.093 81.3869 119.235 96.4181 102.536C102.677 95.5999 106.737 87.4798 108.67 78.9729C112.803 60.92 107.269 41.2238 92.5516 27.956H92.5757ZM81.4352 88.954C72.1555 99.2492 57.8251 102.246 45.5971 97.63C41.9238 96.2283 38.4439 94.1499 35.3507 91.3465C21.9627 79.2871 20.8994 58.6483 32.9583 45.2597C42.2863 34.9161 56.7376 31.9194 68.9897 36.6803C72.5905 38.082 75.9979 40.1362 79.0428 42.8671C92.4308 54.9266 93.4941 75.5653 81.4352 88.954Z" fill="#0D3C48"/>
</svg>
