<svg width="339" height="38" viewBox="0 0 339 38" fill="none" xmlns="http://www.w3.org/2000/svg">
<g clip-path="url(#clip0_25840_2085)">
<path d="M57.6604 16.5395C53.364 15.4305 52.299 14.8944 52.299 13.2566V13.1832C52.299 11.9713 53.4007 11.0092 55.4938 11.0092C57.587 11.0092 59.7242 11.9199 61.9054 13.4402L63.815 8.60763C61.4868 7.0286 58.7253 6.15462 55.5673 6.15462C50.4923 6.15462 46.8789 9.15111 46.8789 13.6826V13.756C46.8789 18.7134 50.1031 20.1089 55.1046 21.3941C59.2541 22.4591 60.1061 23.1788 60.1061 24.5669V24.6403C60.1061 26.1018 58.7547 26.9979 56.522 26.9979C53.7018 26.9979 51.3663 25.8301 49.1483 23.994L47.2021 28.9074C49.9415 30.8757 53.195 31.8451 56.4192 31.8451C61.7732 31.8451 65.5335 29.0616 65.5335 24.1042V24.0307C65.5335 19.6756 62.6913 17.8615 57.6604 16.5395ZM81.3092 6.51449H71.1666V31.4926H76.6308V24.0014H80.7804C86.3474 24.0014 90.8128 21.0049 90.8128 15.2175V15.1514C90.8128 10.0471 87.2361 6.51449 81.3092 6.51449ZM85.2825 15.3277C85.2825 17.4722 83.6887 19.11 80.9566 19.11H76.6308V11.4719H80.8465C83.5786 11.4719 85.2825 12.7939 85.2825 15.2543V15.3277ZM114.652 26.6013V31.4926H95.7481V6.51449H114.469V11.3985H101.176V16.4661H111.898V21.3574H101.176V26.6013H114.652ZM139.3 26.6013V31.4926H120.396V6.51449H139.116V11.3985H125.823V16.4661H136.509V21.3574H125.823V26.6013H139.3ZM187.633 6.51449V16.4H177.564V6.51449H172.1V31.4926H177.564V21.4676H187.633V31.4926H193.097V6.51449H187.633ZM218.876 6.51449L212.354 17.0757L205.825 6.51449H199.942V31.4926H205.296V15.291L212.207 25.8521H212.354L219.339 15.1882V31.4926H224.766V6.51449H218.876ZM245.154 6.33088H240.123L229.481 31.4926H235.048L237.318 25.8889H247.82L250.089 31.4926H255.796L245.154 6.33088ZM239.271 21.0343L242.569 12.9334L245.866 21.0343H239.271ZM276.052 6.51449L274.047 11.5821H268.568V31.4926H263.104V11.5821H255.546V6.51449H276.052ZM281.435 6.51449V31.4926H286.899V6.51449H281.435ZM339 24.0307V24.1042C339 29.0616 335.24 31.8451 329.886 31.8451C326.647 31.8451 323.386 30.8683 320.639 28.8854L322.586 23.972C324.818 25.8154 327.154 26.9979 329.989 26.9979C332.221 26.9979 333.573 26.1018 333.573 24.6403V24.5669C333.573 23.1788 332.721 22.4591 328.571 21.3941C326.897 20.9682 325.42 20.5202 324.194 19.9253C321.77 18.7722 320.345 17.0463 320.345 13.756V13.6826C320.345 9.15111 323.959 6.15462 329.034 6.15462C329.239 6.15462 329.445 6.16196 329.643 6.16196C332.522 6.27213 335.049 7.10938 337.208 8.55622L335.299 13.3888C333.139 11.9052 331.017 11.0092 328.96 11.0092C328.468 11.0092 328.035 11.0606 327.66 11.1561C326.412 11.4719 325.766 12.2504 325.766 13.1832V13.2566C325.766 13.8368 325.898 14.2848 326.272 14.6667C326.941 15.3497 328.365 15.8271 331.127 16.5395C336.158 17.8615 339 19.6756 339 24.0307ZM166.9 27.4679C164.528 30.2073 161.017 31.9479 157.11 31.9479C149.971 31.9479 144.162 26.1386 144.162 18.9999C144.162 11.8612 149.971 6.04445 157.11 6.04445C160.797 6.04445 164.131 7.59411 166.489 10.0765L163.14 14.0278C161.708 12.2945 159.534 11.1855 157.11 11.1855C152.806 11.1855 149.303 14.6887 149.303 18.9999C149.303 23.311 152.806 26.8069 157.11 26.8069C159.607 26.8069 161.833 25.6318 163.265 23.8104L166.9 27.4679ZM315.476 27.4532C313.104 30.1926 309.601 31.9333 305.694 31.9333C298.555 31.9333 292.745 26.1239 292.745 18.9852C292.745 11.8465 298.555 6.03711 305.694 6.03711C309.38 6.03711 312.715 7.58677 315.072 10.0692L311.723 14.0278C310.291 12.2871 308.117 11.1781 305.694 11.1781C301.39 11.1781 297.886 14.6814 297.886 18.9852C297.886 23.289 301.39 26.7922 305.694 26.7922C308.191 26.7922 310.416 25.6171 311.841 23.7884L315.476 27.4532Z" fill="#0D3C48"/>
<path d="M25.0958 9.26137C23.5902 7.90266 21.9083 6.88915 20.1237 6.19878L21.8055 1.82889C15.7832 -0.484573 8.70322 0.998984 4.12769 6.06658C2.22551 8.17441 0.991661 10.6494 0.404113 13.2273C-0.851769 18.7135 0.830085 24.6992 5.30279 28.7312C6.80838 30.0899 8.50492 31.1108 10.2969 31.8011L8.61509 36.1784C14.6301 38.4772 21.6954 37.0009 26.2635 31.926C28.1657 29.8182 29.3996 27.3505 29.9871 24.7653C31.243 19.279 29.5611 13.2934 25.0884 9.26137H25.0958ZM21.71 27.7985C18.8898 30.9272 14.5346 31.8379 10.8184 30.4351C9.70205 30.0091 8.64446 29.3775 7.70439 28.5256C3.63562 24.8607 3.31247 18.5887 6.9773 14.5199C9.81221 11.3765 14.2041 10.4658 17.9277 11.9127C19.022 12.3386 20.0576 12.9629 20.983 13.7928C25.0517 17.4577 25.3749 23.7297 21.71 27.7985Z" fill="#0D3C48"/>
</g>
<defs>
<clipPath id="clip0_25840_2085">
<rect width="339" height="36.472" fill="white" transform="translate(0 0.763672)"/>
</clipPath>
</defs>
</svg>
